<svg version="1.1" id="Layer_1" xmlns="http://www.w3.org/2000/svg" xmlns:xlink="http://www.w3.org/1999/xlink" x="0px" y="0px"
	 width="100%" viewBox="0 0 456 456" enable-background="new 0 0 456 456" xml:space="preserve">
<path fill="#000000" opacity="1.000000" stroke="none" 
	d="
M219.000000,457.000000 
	C146.019867,457.000000 73.539719,457.000000 1.029791,457.000000 
	C1.029791,305.061493 1.029791,153.123001 1.029791,1.092250 
	C152.896805,1.092250 304.793701,1.092250 456.845276,1.092250 
	C456.845276,152.999878 456.845276,304.999908 456.845276,457.000000 
	C377.789642,457.000000 298.644836,457.000000 219.000000,457.000000 
M213.171021,87.670761 
	C165.966797,134.724609 118.763939,181.779816 71.556465,228.830383 
	C66.241020,234.128143 66.245377,236.075272 71.707405,241.552979 
	C109.121529,279.074493 146.533951,316.597656 183.957031,354.110260 
	C196.784943,366.968872 209.625778,379.814667 222.493866,392.633026 
	C227.089157,397.210571 229.120483,397.184906 233.762222,392.604095 
	C236.251480,390.147491 238.606476,387.555206 241.083328,385.085602 
	C288.752899,337.554047 336.436096,290.036133 384.103241,242.502136 
	C390.637939,235.985687 390.600983,235.012115 384.052704,228.436737 
	C340.431030,184.634705 296.806793,140.835236 253.191772,97.026596 
	C246.961777,90.768921 240.795013,84.448303 234.566040,78.189598 
	C229.108292,72.705795 228.685669,72.675194 222.917252,78.038704 
	C219.746277,80.987114 216.747482,84.120712 213.171021,87.670761 
z"/>
<path fill="#A20008" opacity="1.000000" stroke="none" 
	d="
M213.421036,87.420776 
	C216.747482,84.120712 219.746277,80.987114 222.917252,78.038704 
	C228.685669,72.675194 229.108292,72.705795 234.566040,78.189598 
	C240.795013,84.448303 246.961777,90.768921 253.191772,97.026596 
	C296.806793,140.835236 340.431030,184.634705 384.052704,228.436737 
	C390.600983,235.012115 390.637939,235.985687 384.103241,242.502136 
	C336.436096,290.036133 288.752899,337.554047 241.083328,385.085602 
	C238.606476,387.555206 236.251480,390.147491 233.762222,392.604095 
	C229.120483,397.184906 227.089157,397.210571 222.493866,392.633026 
	C209.625778,379.814667 196.784943,366.968872 183.957031,354.110260 
	C146.533951,316.597656 109.121529,279.074493 71.707405,241.552979 
	C66.245377,236.075272 66.241020,234.128143 71.556465,228.830383 
	C118.763939,181.779816 165.966797,134.724609 213.421036,87.420776 
M228.995422,175.510834 
	C231.046341,174.591339 233.097275,173.671829 235.687912,172.510361 
	C215.476944,168.186768 188.415680,183.643951 176.580566,205.686279 
	C164.071289,228.984253 169.414413,260.882202 189.000809,279.833801 
	C209.108170,299.289490 240.578705,302.869904 265.397522,288.870819 
	C288.673096,275.742188 298.292816,248.728149 295.759460,232.581741 
	C290.969360,239.538315 286.445618,246.861908 281.163605,253.590240 
	C274.408447,262.195038 265.770508,268.274353 254.649033,270.087677 
	C233.507645,273.534760 211.819290,262.472778 202.166046,243.341812 
	C189.211975,217.669250 200.303253,189.056747 228.995422,175.510834 
z"/>
<path fill="#030202" opacity="1.000000" stroke="none" 
	d="
M228.664413,175.673981 
	C200.303253,189.056747 189.211975,217.669250 202.166046,243.341812 
	C211.819290,262.472778 233.507645,273.534760 254.649033,270.087677 
	C265.770508,268.274353 274.408447,262.195038 281.163605,253.590240 
	C286.445618,246.861908 290.969360,239.538315 295.759460,232.581741 
	C298.292816,248.728149 288.673096,275.742188 265.397522,288.870819 
	C240.578705,302.869904 209.108170,299.289490 189.000809,279.833801 
	C169.414413,260.882202 164.071289,228.984253 176.580566,205.686279 
	C188.415680,183.643951 215.476944,168.186768 235.687912,172.510361 
	C233.097275,173.671829 231.046341,174.591339 228.664413,175.673981 
z"/>
</svg>