<?xml version="1.0" encoding="utf-8"?>
<!-- Generator: Adobe Illustrator 30.2.0, SVG Export Plug-In . SVG Version: 9.03 Build 0)  -->
<svg version="1.1" id="Layer_1" xmlns="http://www.w3.org/2000/svg" xmlns:xlink="http://www.w3.org/1999/xlink" x="0px" y="0px"
	 viewBox="0 0 320.73 320.9" style="enable-background:new 0 0 320.73 320.9;" xml:space="preserve">
<style type="text/css">
	.st0{display:none;fill:#020202;}
	.st1{display:none;fill:#A30008;}
	.st2{fill:#A30008;}
	.st3{fill:#020202;}
</style>
<polygon class="st0" points="2081.44,411.48 -102.3,411.48 -102.3,-96.48 2083.77,-95.92 "/>
<path class="st1" d="M158.87,0.4c2.99,0.11,4.36,2.05,5.81,3.51c50.93,51.21,101.8,102.49,152.83,153.6c3.99,4,2.7,6.22-0.59,9.49
	c-37.08,36.87-74.06,73.85-111.06,110.79c-13.9,13.88-27.98,27.6-41.64,41.71c-3.96,4.09-6.21,3.83-10.09-0.08
	C103.42,268.4,52.59,217.48,1.63,166.7c-4.02-4-3.82-6.17,0.1-10.06C52.78,105.95,103.65,55.09,154.59,4.29
	C156.06,2.83,157.63,1.47,158.87,0.4z M168.61,98.52c-33.64-3.49-65.5,24.38-67.37,56.99c-2.14,37.35,25.45,67.84,61.66,68.13
	c38.07,0.3,66.14-28.76,64.52-66.78c-16.53,33.08-34.53,44.74-60.41,39.14c-21.56-4.66-37.63-23.12-38.78-44.52
	C126.89,126.4,140.53,107.82,168.61,98.52z"/>
<rect x="46.91" y="47.11" transform="matrix(0.7071 -0.7071 0.7071 0.7071 -66.4846 160.2195)" class="st2" width="226.5" height="226.5"/>
<path class="st3" d="M168.61,95.92c-28.08,9.3-41.72,27.88-40.38,52.95c1.15,21.41,17.22,39.86,38.78,44.52
	c25.88,5.6,43.88-6.06,60.41-39.14c1.62,38.03-26.45,67.08-64.52,66.78c-36.2-0.29-63.8-30.78-61.66-68.13
	C103.11,120.3,134.97,92.43,168.61,95.92z"/>
</svg>
