<svg xmlns="http://www.w3.org/2000/svg" id="icon_J" viewBox="0 0 116.4 121.7">
            <path d="M100.2 28.3L101.3 28.3Q100.5 27.3 99.8 27.1L99.8 27.1L100.2 28.3ZM99.7 28.3L99.7 28.3Q99.7 27.2 99.2 26.7Q98.7 26.2 97.4 25.7L97.4 25.7Q97.4 26.5 97.6 27.1L97.6 27.1Q97.4 26.8 97.2 26.5Q97 26.3 96.9 26.1L96.9 26.1Q96.7 27.5 96.4 27.6Q96.1 27.7 96.1 28L96.1 28Q96.1 29 96.2 29L96.2 29Q96.1 28.9 96.0 28.7Q95.8 28.4 95.7 28.4L95.7 28.4Q95.5 28.4 95.3 28.5Q95.1 28.5 94.7 28.6L94.7 28.6Q95 29.8 96.5 31.5L96.5 31.5L96.8 30.3Q96.6 29.8 96.6 29.6L96.6 29.6Q96.6 29.4 96.5 29.2L96.5 29.2L97.3 30.1L98.3 29.2L98.3 29.1Q98.3 28.6 99 28.7Q99.7 28.8 99.7 28.3ZM88 20.3L89.1 19.9Q88.1 19.5 87.4 19.3L87.4 19.3Q87.7 20 88 20.3L88 20.3ZM87.7 20.3L87.7 20.3Q87.3 18.6 84.3 18.6L84.3 18.6Q84.3 18.8 84.1 18.8Q83.8 18.9 83.8 19.2L83.8 19.2Q85.8 20.5 87.3 21L87.3 21Q87.7 20.5 87.7 20.3ZM86.7 21.3L86.7 21.3Q85.5 20.6 84.7 20.1Q83.9 19.6 83.4 19.4L83.4 19.4Q83.4 19.7 83.4 19.9Q83.3 20.1 83.3 20.3L83.3 20.3Q83.3 20.6 83.5 20.8L83.5 20.8L86.3 22.1Q86.5 21.9 86.6 21.7Q86.6 21.5 86.7 21.3ZM96.2 32.2L96.2 32.2Q94.8 29.7 94.1 28.6L94.1 28.6L93.2 28.6Q95.2 33.4 95.2 33.4L95.2 33.4Q95.8 32.8 96.2 32.2ZM85.6 24.5L86.2 22.6Q85.5 22.2 84.8 21.8Q84 21.5 83.2 21.2L83.2 21.2L83.2 21.6Q83.2 22.4 84 23.1Q84.8 23.9 85.6 24.5L85.6 24.5ZM94.7 33.4L94.7 33.4Q94.6 32.7 92.7 28.5L92.7 28.5Q92.6 28.4 92.4 28.4L92.4 28.4Q91.7 28.4 91.7 29.4L91.7 29.4Q92.2 31 92.8 32.3Q93.4 33.5 93.9 34.3L93.9 34.3L94.1 34.3Q94.1 34.2 94.4 34Q94.7 33.8 94.7 33.4ZM76.3 15.5L76.3 15.5Q75.6 15.5 75.4 15.6L75.4 15.6Q75.5 16 75.8 16.1L75.8 16.1Q75.8 16.1 76.3 15.5ZM85.3 24.9L85.3 24.9Q83.8 23.3 82.9 22.5L82.9 22.5L82 23.4Q83 24.8 83.6 25.3L83.6 25.3Q83.8 25.2 84.4 25.2L84.4 25.2Q85.1 25.2 85.3 24.9ZM93.4 34.4L93.4 34.4Q92.3 31.9 91.6 30.5L91.6 30.5L91 32.5Q91.5 33.3 91.8 33.9Q92.1 34.5 92.3 35L92.3 35Q93.4 34.5 93.4 34.4ZM60.2 3.2L61.4 3.1L61.4 2.8Q60.8 2.4 60.4 2.1Q59.9 1.9 59.6 1.7L59.6 1.7L60.2 3.2ZM75.6 16.3L75.6 16.3Q75.2 15.9 74.8 15.7L74.8 15.7Q72.7 15.8 72.2 16.5L72.2 16.5Q72.7 16.5 73.5 17Q74.3 17.5 74.6 17.5L74.6 17.5Q75.1 17.5 75.6 16.3ZM62.3 5.3L62.3 5.3Q62.3 4.6 61.8 3.4L61.8 3.4L60.3 3.7L60.2 5Q61.5 5.2 62.3 5.3ZM83.3 25.4L83.3 25.4Q83.3 25.3 83.2 25.3L83.2 25.3Q83.2 25.3 83.2 25.3L83.2 25.3L82.7 24.8Q82.4 24.4 82.2 24.1Q81.9 23.9 81.7 23.7L81.7 23.7L80 23.6L79.9 23.9L81.7 25.2Q82.7 25.9 82.9 25.9L82.9 25.9Q83.3 25.5 83.3 25.4ZM91.6 35L91.6 35L90.7 32.8L89.6 33.5Q89.6 34.6 90 35L90 35Q90.4 34.9 90.9 34.9L90.9 34.9Q91.4 34.9 91.6 35ZM103.6 46.4L103.6 46.4Q102.8 44.9 102.3 44.7L102.3 44.7L100.9 47.7L102.5 48.1Q103.5 47.3 103.6 46.4ZM104.1 47.3L104.1 47.3L104.1 47.2L103.9 47Q103.2 47.7 103 48.4L103 48.4Q103.4 48.6 103.5 48.6L103.5 48.6Q104.1 47.6 104.1 47.3ZM105.3 49.7L105.3 49.7Q104.8 48.5 104.4 48L104.4 48L103.9 48.8Q104.6 49.5 105.3 49.7ZM74.2 17.9L74.2 17.9Q74.2 17.5 73.1 17.1Q72 16.8 71.8 16.8L71.8 16.8Q71.8 16.9 71.8 17Q71.7 17.1 71.7 17.2L71.7 17.2Q71.7 17.4 72.1 17.6Q72.5 17.9 73.0 18.0Q73.4 18.2 73.8 18.3Q74.1 18.4 74.1 18.4L74.1 18.4Q74.2 18.2 74.2 17.9ZM102.1 44.3L102.1 44.3Q101.5 43.4 100.5 43.4L100.5 43.4L100.2 43.4L99.5 47.9L100.4 47.8Q101.5 45.9 102.1 44.3ZM82.5 26.9L82.5 26.9Q82.5 26.4 81.4 25.3Q80.3 24.2 79.5 24.2L79.5 24.2Q79 24.2 79 25L79 25Q79.1 25.6 80.0 26.2Q80.8 26.8 81.6 27.2Q82.3 27.5 82.4 27.5L82.4 27.5Q82.5 27.3 82.5 26.9ZM89.4 34.3L89.4 34.3Q89.1 33.4 88.6 33.4L88.6 33.4Q88.2 33.4 88.2 33.7L88.2 33.7Q88.2 34.4 88.4 34.8Q88.6 35.1 88.8 35.2L88.8 35.2Q89.4 34.8 89.4 34.3ZM62.2 5.7L62.2 5.7L60.2 5.4L59.3 6.9L61.7 7.4Q62.1 7.4 62.2 6.6Q62.2 5.8 62.2 5.7ZM74.1 20.6L74.1 20.6L74 18.8Q72.9 18.2 72.1 18.2L72.1 18.2Q72.5 19 72.5 19.4L72.5 19.4Q72.5 19.6 72.5 19.6Q72.4 19.7 72.4 19.9L72.4 19.9Q73.4 20.6 74.1 20.6ZM82.6 29.3L82.6 29.3Q82.6 27.9 81.6 27.4Q80.6 26.9 79.8 26.6L79.8 26.6L79.8 26.9Q79.8 28.3 82.5 30.4L82.5 30.4Q82.6 30 82.6 29.3ZM87.4 36.1L88.2 35.4Q88 34.2 88.0 33.8Q87.9 33.3 87.2 33.1L87.2 33.1Q86.2 33.8 85.8 33.9L85.8 33.9L87.4 36.1ZM62.1 8.7L62.1 8.7Q62.1 8.3 61.6 8.0Q61.1 7.8 60.5 7.6Q59.9 7.4 59.4 7.3Q58.9 7.2 58.9 7.2L58.9 7.2L58.4 7.4Q57.7 8.7 57.5 8.7L57.5 8.7Q57.5 9.2 58.8 9.3Q60.1 9.4 60.8 9.4L60.8 9.4L61.9 9.4Q62.1 8.8 62.1 8.7ZM74.2 21.2L74.2 21.2L72.2 20.5Q71.8 21.2 71.8 21.6L71.8 21.6Q73.2 22.3 73.5 22.6L73.5 22.6Q74.2 22.2 74.2 21.2ZM99.8 43.4L99.8 43.4Q98.7 43.7 98.3 44L98.3 44L96.5 50.3Q97.8 49.2 98.5 48Q99.2 46.8 99.5 45.8Q99.7 44.8 99.8 44.1Q99.8 43.5 99.8 43.4ZM80.7 31.7L81.9 30.7L80.2 28.9Q79.9 28.5 79.5 28.5L79.5 28.5Q79.3 28.5 79 28.9L79 28.9Q79.5 29.8 79.9 30.5Q80.3 31.2 80.7 31.7L80.7 31.7ZM87 36.6L87 36.6Q87 35.9 86.5 35.4Q85.9 34.9 85.5 34.7L85.5 34.7Q85.5 34.8 85.6 34.8Q85.6 34.9 85.6 35.1L85.6 35.1Q85.6 35.5 85.2 36.1L85.2 36.1Q85.2 36.6 85.9 36.8Q86.6 37.1 86.8 37.3L86.8 37.3Q87 36.7 87 36.6ZM62.4 11.3L62.4 11.3Q62.1 10.1 62 10L62 10L57.7 9.5Q57.7 9.6 58.1 10.6Q58.4 11.7 59.6 11.7L59.6 11.7Q60.1 11.7 61.1 11.5Q62 11.3 62.4 11.3ZM96.9 44L96.9 44Q96.3 43.8 96.1 43.5L96.1 43.5Q94.9 45 94 48.2L94 48.2Q94.5 48.7 94.6 48.7L94.6 48.7Q95.4 47.1 96.0 46.0Q96.5 44.8 96.9 44ZM95.9 50.3L97.8 44.1L97.3 44.1Q95.5 47.3 95 49.2L95 49.2L95.9 50.3ZM62.8 13.8L63.7 13.8Q63.5 11.8 62.4 11.8L62.4 11.8Q61.4 11.8 60.6 12Q59.7 12.2 59.2 12.3L59.2 12.3L59.7 13.3Q60.7 13.8 62.8 13.8L62.8 13.8ZM71.9 24.1L73 22.9Q72.5 22.5 72.0 22.3Q71.6 22 71.4 21.8L71.4 21.8Q70.7 22.2 70.3 22.4Q69.9 22.6 69.7 22.8L69.7 22.8L71.9 24.1ZM80.2 31.9L80.2 31.9Q80.2 31.2 79.5 30.5L79.5 30.5L78.1 29.2Q77.8 29.2 77.4 29.6L77.4 29.6Q78.7 31.9 79.5 32.9L79.5 32.9L79.6 32.9Q80 32.9 80.2 31.9ZM95.7 43.2L95.7 43.2Q94.9 42.5 93.9 42.3L93.9 42.3Q93.5 43.3 93.4 44.1Q93.2 44.9 93.1 45.4L93.1 45.4Q93.1 44.4 93.2 43.6Q93.2 42.9 93.3 42.4L93.3 42.4Q90.8 43.1 90.8 44.7L90.8 44.7Q90.8 45.3 91.2 46.7Q91.5 48.1 91.6 48.7L91.6 48.7Q92 48.6 92.3 48.2Q92.5 47.8 92.7 47.3Q92.8 46.8 92.9 46.4Q93 45.9 93 45.7L93 45.7Q93 45.9 93 46.4L93 46.4Q93 46.9 92.9 48L92.9 48L93.4 48.1Q94.2 46.4 94.8 45.2Q95.3 44 95.7 43.2ZM63.8 14.8L63.8 14.8Q63.8 14.5 63.7 14.4L63.7 14.4L59.7 13.8L59.7 14.8L63.7 15.6Q63.8 15.3 63.8 14.8ZM86.7 37.8L86.7 37.8Q86.2 37.4 85.8 37.2Q85.4 36.9 85.1 36.8L85.1 36.8Q84.5 37.6 84.2 38L84.2 38Q85 40.2 85.5 40.6L85.5 40.6Q86.5 38 86.7 37.8ZM71.8 24.8L71.8 24.8Q71.8 24.5 71.4 24.2Q71 23.9 70.5 23.7Q70 23.5 69.5 23.3Q69.1 23.1 69.1 23.1L69.1 23.1Q68.8 23.9 68.8 24.3L68.8 24.3Q68.8 24.8 69.5 25.1Q70.3 25.4 70.9 25.5Q71.5 25.5 71.6 25.5L71.6 25.5Q71.8 24.9 71.8 24.8ZM79.1 33.3L79.1 33.3Q78.3 31.6 77.8 30.7Q77.2 29.7 76.1 29.7L76.1 29.7Q75.1 29.7 75.1 30.5L75.1 30.5Q75.1 30.7 75.6 31.5Q76.1 32.2 78 34.2L78 34.2Q78.8 33.7 79.1 33.3ZM63.7 16.1L63.7 16.1Q61 15.4 59.5 15.4L59.5 15.4Q59.4 15.5 59.2 15.8Q59 16.2 59 16.4L59 16.4L63.1 17.5Q63.3 16.6 63.7 16.1ZM71.9 27.8L72 26.3Q70.3 25.4 69.4 25.4L69.4 25.4L69.4 25.5Q69.4 25.6 69.5 25.8Q69.6 26 69.6 26.2L69.6 26.2Q69.6 26.3 69.5 26.4L69.5 26.4Q69.5 26.8 69.9 27.0Q70.2 27.3 70.7 27.5Q71.1 27.6 71.5 27.7Q71.9 27.8 71.9 27.8L71.9 27.8ZM84.9 40.9L84.9 40.9Q84.9 40.4 84.5 39.6Q84 38.8 83.9 38.5L83.9 38.5L82.8 38.9Q82.8 38.9 83.3 40.0Q83.8 41.2 84.5 41.7L84.5 41.7Q84.9 41.4 84.9 40.9ZM77.6 34.7L77.6 34.7Q76.2 32.8 75.5 32L75.5 32Q75.5 33.6 76.1 34.3Q76.7 35 77.2 35L77.2 35Q77.4 35 77.6 34.7ZM91 48.4L91 48.4Q90.9 48.4 90.4 44.7L90.4 44.7L90.2 44.7Q89.3 44.7 89.3 45.5L89.3 45.5Q89.3 46.9 89.7 48.5Q90 50.1 90.2 50.5L90.2 50.5Q91 49.7 91 48.4ZM62.7 18.3L62.7 18.3Q62.7 18.1 62.7 18.0Q62.6 18 62.6 17.9L62.6 17.9L58.6 16.8Q57.7 18 57.7 18.9L57.7 18.9Q57.7 19.3 57.9 19.7L57.9 19.7Q60.3 19.4 61.4 19.3Q62.4 19.2 62.7 19.1Q63 19 62.9 18.8Q62.7 18.6 62.7 18.3ZM71.2 30.2L71.8 28.3L69.6 27.7Q69.6 28.5 68.9 29.2L68.9 29.2Q69.9 29.8 71.2 30.2L71.2 30.2ZM83.9 42.1L83.9 42.1Q83.4 41 83.1 40.2Q82.7 39.4 82.4 38.9L82.4 38.9L80.8 38.9L82.1 43.3Q82.8 43 83.9 42.1ZM89.6 51.1L89.6 51.1L89 45.1L88 44.8Q87.8 45.9 87.7 46.8Q87.6 47.7 87.6 48.4L87.6 48.4L87.6 49Q87.5 49.3 87.5 49.7L87.5 49.7Q87.5 50 87.5 50.2L87.5 50.2Q87.5 51.6 88.1 51.6L88.1 51.6Q88.6 51.6 89.6 51.1ZM75.7 36.7L76.8 35.5Q76.3 35.1 76.0 34.8Q75.6 34.5 75.4 34.3L75.4 34.3L74.6 35.5Q75.4 36.6 75.7 36.7L75.7 36.7ZM58.8 21.6L62.7 21.3L62.5 19.8Q62.2 19.8 62.0 19.8Q61.7 19.7 61.4 19.7L61.4 19.7Q60.6 19.7 59.7 19.8Q58.8 19.9 58 20.1L58 20.1Q58 20.2 58.8 21.6L58.8 21.6ZM81.7 43.6L81.7 43.6Q80.9 40.5 80.5 38.8L80.5 38.8Q79.5 38.9 79.5 39.1L79.5 39.1Q79.9 40.3 80.3 41.5Q80.7 42.7 81.2 43.8L81.2 43.8Q81.3 43.8 81.7 43.6ZM64.2 24.2L64.2 24.2Q64 23.3 63.7 22.6Q63.4 22 63.2 21.6L63.2 21.6Q60.4 21.6 59.3 22L59.3 22Q59.4 22.7 60.1 23.1Q60.7 23.5 61.5 23.8Q62.2 24 63.0 24.0Q63.7 24.1 64.2 24.2ZM87 51.1L87.6 44.9L87.5 44.7Q87.5 44.7 87.2 44.8Q86.8 44.9 86.4 45.2Q85.9 45.5 85.6 46.0Q85.2 46.4 85.2 47L85.2 47Q85.2 48.1 85.6 49.6Q85.9 51.1 87 51.1L87 51.1ZM46.4 8.8L47.2 8.9Q47.2 8.3 47.1 8.3L47.1 8.3Q46.9 8.5 46.8 8.6Q46.6 8.7 46.4 8.8L46.4 8.8ZM71 30.7L71 30.7L68.5 29.6Q68.4 29.7 67.7 30.0Q67 30.2 66.9 30.7L66.9 30.7Q68.3 32 69.8 32.7L69.8 32.7Q70.2 32 70.5 31.5Q70.8 31.1 71 30.7ZM75.2 37.2L75.2 37.2Q75.2 36.6 74.1 35.8L74.1 35.8L73.6 36.3Q74.9 37.6 75.1 37.6L75.1 37.6Q75.2 37.5 75.2 37.2ZM80 44.3L80.8 44.1Q80.1 42 79.8 40.9Q79.4 39.8 79.3 39.4Q79.1 39 79 39L79 39Q79 39 78.8 39L78.8 39Q77.5 39.1 77.5 40.3L77.5 40.3L80 44.3ZM64.1 24.6L64.1 24.6L59.7 23.6L59.7 24.4Q60.4 24.4 61.8 24.8Q63.2 25.3 64 25.3L64 25.3Q64.1 25 64.1 24.6ZM47.3 10.5L47.3 10.5Q47.3 9.1 46.6 9.0Q45.8 9 45.8 9L45.8 9Q44.7 10.1 44.7 10.7L44.7 10.7L44.7 11Q46.4 10.9 47.3 10.5ZM63.9 25.6L63.9 25.6L59.7 24.6L59.4 25.8Q60.7 26.5 61.6 27Q62.5 27.5 63.2 27.8L63.2 27.8Q63.4 27.1 63.6 26.5Q63.8 26 63.9 25.6ZM85.3 50.5L85.3 50.5Q85.2 49.4 85.1 48.6Q85 47.8 84.8 47.3L84.8 47.3Q84.3 47.5 83.9 47.9Q83.5 48.2 83 48.6L83 48.6Q83.2 50.8 83.7 51.5L83.7 51.5Q84.4 50.6 85.3 50.5ZM103.8 69.3L103.8 69.3Q103.3 66.9 103.1 66.9L103.1 66.9Q101.9 69.2 101.9 69.4L101.9 69.4Q101.9 70.3 102.5 70.3L102.5 70.3Q102.8 70.3 103.8 69.3ZM49.4 14.4L49.4 14.4L48.2 12.3Q48 12.3 47.4 12.5Q46.7 12.8 46.3 12.8L46.3 12.8Q46.8 12.6 47.3 12.4Q47.7 12.2 48 12.1L48 12.1Q48 11.9 47.9 11.5Q47.7 11.2 47.7 11L47.7 11Q45.5 11.2 44.8 11.6L44.8 11.6Q45.1 12.7 45.4 13.1L45.4 13.1Q45.7 13 46.2 13L46.2 13L45.6 13.5Q46.3 14.8 46.4 15L46.4 15Q48.3 14.6 49.4 14.4ZM102.8 66.3L102.8 66.3Q102.8 65.6 102.1 65L102.1 65Q101.7 65 101.5 65.6Q101.2 66.2 101.1 66.3L101.1 66.3Q101.1 65.5 101.5 64.8L101.5 64.8Q100.7 64.8 100.1 65.3Q99.5 65.9 98.8 66.6L98.8 66.6L98.8 68.9Q100.2 68.9 100.5 67.9Q100.7 66.9 100.8 66.7L100.8 66.7Q100.9 66.8 100.9 67.1L100.9 67.1Q100.9 67.6 100.7 68.1Q100.5 68.5 100.5 68.6L100.5 68.6Q100.5 69.1 100.9 69.2Q101.3 69.2 101.5 69.4L101.5 69.4Q101.5 68.9 102.2 67.8Q102.8 66.8 102.8 66.3ZM62.7 29L63 28.2L59.2 26.1Q58.5 27 58.5 27.9L58.5 27.9L58.5 28.2L62.7 29ZM104.1 70.7L104.1 70.7Q104.1 70.3 103.9 69.9L103.9 69.9Q103.3 70.3 103.2 70.4L103.2 70.4Q103.2 70.7 103.9 71.5L103.9 71.5Q104.1 70.9 104.1 70.7ZM49.6 16.6L49.7 14.9Q46.4 15.4 46.4 15.5L46.4 15.5L46.5 16.8L49.6 16.6ZM83.1 52.1L83.1 52.1L82.5 48.5L81.6 48.5Q81.6 48.6 81.7 48.6L81.7 48.6Q81.8 48.6 81.8 48.9L81.8 48.9Q81.8 49.2 81.7 49.9Q81.5 50.6 81.5 51.3L81.5 51.3Q81.5 51.7 81.6 52.0Q81.6 52.4 82.1 52.4L82.1 52.4Q82.5 52.4 83.1 52.1ZM62.1 30.9L62.5 29.4L58.4 28.6L58.2 29.8L62.1 30.9ZM46.2 18.7L49.8 17.9L49.8 17.2L46.3 17.1Q46 17.9 46 18.3L46 18.3Q46 18.5 46.2 18.7L46.2 18.7ZM52.1 21L52.1 21Q51.6 20.3 51.2 19.8Q50.8 19.3 50.4 19L50.4 19Q49.5 19.5 48.9 19.8Q48.3 20.2 48.1 20.4L48.1 20.4L48.1 20.6Q48.4 20.7 48.6 21.1Q48.7 21.6 49.2 21.6L49.2 21.6Q50 21.6 50.9 21.3Q51.7 21.1 52.1 21ZM58.2 30.9L62 31.8L62 31.6Q59.3 30.3 58.3 30.3L58.3 30.3L58.2 30.9ZM98.2 69L98.3 67.1Q96.7 67.8 96.3 68.1L96.3 68.1Q96.5 68.6 96.6 69.1Q96.7 69.5 96.8 69.8L96.8 69.8L98.2 69ZM49.9 18.6L49.9 18.6L49.9 18.3Q46.5 18.7 46.2 19.5L46.2 19.5Q46.8 20.3 47.5 20.3L47.5 20.3Q48.3 19.7 48.9 19.3Q49.5 18.8 49.9 18.6ZM52.4 22.4L52.4 22.4Q52.4 21.8 52.3 21.5L52.3 21.5Q51.2 21.7 50.2 21.8Q49.1 21.9 49.1 22.3L49.1 22.3Q49.1 23.3 50.2 23.3Q51.2 23.2 52.3 23.4L52.3 23.4Q52.4 23.1 52.4 22.4ZM96.2 69.4L96.2 69.4Q96.2 68.9 96 68.5Q95.8 68.1 95.6 68.1L95.6 68.1Q95.5 68.1 95.4 68.2L95.4 68.2L95.4 70.2L95.6 70.2Q96.2 70.2 96.2 69.4ZM86.4 63.1L89 60.1L89 60Q89 59.5 87.7 58.8L87.7 58.8Q86.7 60.5 86.2 61.5Q85.6 62.4 85.5 62.7L85.5 62.7Q85.8 62.9 86 63.0Q86.2 63 86.4 63.1L86.4 63.1ZM90.5 62.7L90.5 62.7Q90 60.9 89.2 60.4L89.2 60.4L86.7 63.4Q87.4 63.9 87.9 64.3Q88.3 64.7 88.6 64.9L88.6 64.9Q90.4 62.8 90.5 62.7ZM51.9 25.5L52.2 23.9L49.5 23.8Q49.5 24.2 49.2 24.9Q48.8 25.6 48.8 26L48.8 26Q49.8 25.8 50.6 25.7Q51.4 25.6 51.9 25.5L51.9 25.5ZM87.4 58.6L87.4 58.6Q87 58.4 86.7 58.4Q86.4 58.3 86.2 58.2L86.2 58.2Q83.4 61.9 83.4 62L83.4 62L84.9 62.5Q85.7 61.2 86.4 60.3Q87 59.3 87.4 58.6ZM89.7 66.9L90.9 65.6L90.5 63.3Q90 64 89.6 64.5Q89.1 65 88.8 65.4L88.8 65.4Q89.1 66.2 89.7 66.9L89.7 66.9ZM85.8 57.9L85.8 57.9Q85.5 57.6 84.6 57.6L84.6 57.6Q83.9 57.6 83.4 57.7L83.4 57.7L81.8 61.7Q81.9 61.7 82.0 61.6Q82 61.6 82.1 61.6L82.1 61.6Q82.5 61.6 83.1 61.9L83.1 61.9Q84 60.5 84.7 59.5Q85.3 58.6 85.8 57.9ZM95 69.1L95 69.1Q95 68.6 94.9 68.4L94.9 68.4L93.1 68.4L92.3 70.6Q92.6 70.7 92.9 70.8Q93.1 70.8 93.5 70.8L93.5 70.8Q94.6 70.8 94.8 70.3Q95 69.9 95 69.1ZM91.2 66.9L91.2 66.9L91.1 66Q90 66.6 90 67.5L90 67.5Q90 67.8 90.2 67.8L90.2 67.8Q90.5 67.8 90.8 67.3Q91.1 66.9 91.2 66.9ZM52.2 26.6L52.2 26.6Q52.2 26.5 52 25.9L52 25.9L48.6 26.5L48.3 27.3Q48.8 27.2 50.1 26.9Q51.4 26.6 52.2 26.6ZM92.7 68.2L92.7 68.2L91.4 67.1Q91.1 67.6 90.9 68.0Q90.7 68.3 90.5 68.5L90.5 68.5Q91.6 70 92 70.2L92 70.2Q92.5 68.7 92.7 68.2ZM54.2 28.7L54.2 28.7Q54.2 28.3 53.7 28.1Q53.2 27.9 52.4 27.1L52.4 27.1L48.1 27.7Q48.1 27.8 48.1 27.9Q48 28 48 28.2L48 28.2Q48 28.4 48.2 29.4L48.2 29.4Q48.1 29.4 49.6 29.3Q51.1 29.1 54.2 28.7ZM83 57.9L83 57.9Q82.8 57.8 82.4 57.8L82.4 57.8Q81.7 57.8 81.3 58.3Q80.9 58.8 80.7 59.4Q80.4 60 80.3 60.6Q80.1 61.2 80 61.5L80 61.5L81.3 61.6Q81.8 60.3 82.3 59.4Q82.7 58.5 83 57.9ZM54.7 29.8L54.7 29.8Q54.7 29.8 54.7 29.8Q54.6 29.7 54.6 29.6L54.6 29.6L54.5 29.1Q52.5 29.3 51 29.5Q49.5 29.7 48.5 29.9L48.5 29.9Q48.6 30.6 49.3 31.4L49.3 31.4L53.5 30.4Q53.5 30.4 54.1 30.3Q54.7 30.2 54.7 29.8ZM95.6 79.4L95.6 79.4Q95.9 79.4 95.2 79.4L95.2 79.4Q94.5 79.4 94.5 79.6L94.5 79.6Q94.5 79.7 94.7 79.9L94.7 79.9Q95.5 79.7 95.6 79.4ZM34.8 20.8L36.3 20.6L36 19.5Q35.1 19.8 34.8 20.8L34.8 20.8ZM37.2 24.5L39.3 23.8Q38.8 23.3 38.4 23.0Q37.9 22.6 37.7 22.4L37.7 22.4L36.4 23.7L37.2 24.5ZM37.4 21.9L37.4 21.9Q37 20.8 36 20.8L36 20.8Q35.8 20.8 35.1 21.0Q34.4 21.1 34.4 21.6L34.4 21.6Q34.4 22.4 35.8 23.3L35.8 23.3Q37.1 22.7 37.4 21.9ZM94.2 79.9L94.2 79.9L94.2 79.4Q93.7 79.3 93.5 79.3Q93.2 79.2 93.1 79.2L93.1 79.2Q92.7 79.2 92.5 79.4L92.5 79.4Q91.7 78.2 91.2 78.1L91.2 78.1Q90.7 78.2 90.5 79.3L90.5 79.3Q90.6 79.3 91 79.5Q91.4 79.8 91.9 79.8L91.9 79.8Q92.3 79.8 92.4 79.4L92.4 79.4L92.6 79.9Q92.9 80 93.4 80L93.4 80Q94 80 94.2 79.9ZM41 29.4L42.7 27.5L42.7 27.2L41.7 25.8Q40.7 25.8 40.4 25.9L40.4 25.9L41.3 25.4Q39.9 24.1 39.4 24.1L39.4 24.1Q37.3 24.1 37.3 25.2L37.3 25.2Q37.3 25.3 37.5 25.8Q37.7 26.4 37.7 26.8L37.7 26.8L37.7 27Q38.2 26.9 38.5 26.8Q38.8 26.7 39 26.6L39 26.6Q38.6 26.8 38.4 27Q38.1 27.2 37.9 27.3L37.9 27.3Q39.7 29 41 29.4L41 29.4ZM88.1 72.7L88.1 72.7Q88 72 86.7 71.7L86.7 71.7Q85.6 73.7 85.3 74.8L85.3 74.8Q85.5 75 85.7 75.1Q85.9 75.2 86.1 75.3L86.1 75.3Q86.8 74.5 87.3 73.8Q87.8 73.2 88.1 72.7ZM44.4 30L44.4 30Q43.5 28.5 42.9 27.9L42.9 27.9Q41.5 29.2 41.1 29.8L41.1 29.8Q41.6 30.9 41.7 31.4L41.7 31.4Q43.3 30.7 44.4 30ZM86.9 75.8L88.7 73.8L88.7 73.7Q88.7 73.4 88.3 73.1L88.3 73.1Q87.6 73.9 87.2 74.5Q86.7 75.1 86.4 75.5L86.4 75.5Q86.6 75.7 86.7 75.8Q86.8 75.8 86.8 75.8L86.8 75.8L86.9 75.8ZM90.1 78.9L90.8 77.9Q90.8 77 89.9 76.8L89.9 76.8Q89.4 76.8 89.3 76.9L89.3 76.9L89.6 76.5Q89.4 75.7 89.2 75.2Q89 74.7 88.8 74.3L88.8 74.3Q87.3 75.7 87.3 75.9L87.3 75.9Q87.3 75.9 88.5 77.5L88.5 77.5L89.2 77L89.3 77.1L88.8 77.6Q88.8 78.1 89.2 78.4Q89.6 78.7 90.1 78.9L90.1 78.9ZM80.2 66.2L80.2 66.2Q79.6 65.1 79.1 65.1L79.1 65.1L79 65.1L77 67.4L76.9 67.9Q77.2 68.2 77.4 68.2L77.4 68.2Q77.7 68.2 78.1 67.9Q78.5 67.6 79.0 67.3Q79.4 66.9 79.8 66.6Q80.1 66.2 80.2 66.2ZM42.8 33.7L45.6 32.6Q45.2 31.3 44.6 30.4L44.6 30.4L41.9 31.9Q42.2 33.3 42.8 33.7L42.8 33.7ZM81 67.5L81 67.5Q81 66.8 80.5 66.5L80.5 66.5Q79.6 67.2 78.9 67.7Q78.2 68.2 77.7 68.5L77.7 68.5Q78.4 69.7 78.8 70.1L78.8 70.1Q79.4 69.5 80.2 68.8Q81 68.1 81 67.5ZM86.1 72L86.1 72Q85.2 72.2 84.6 72.3Q83.9 72.4 83.5 72.5L83.5 72.5L82.5 74.3Q82.5 74.3 82.8 74.5Q83.1 74.6 83.8 74.8L83.8 74.8L84.2 74.8Q85.1 74.8 85.5 73.8Q85.8 72.9 86.1 72ZM83 72.4L83 72.4Q82.7 72.3 82.4 72.0Q82.1 71.8 81.8 71.8L81.8 71.8Q81.8 71.8 81.4 72L81.4 72Q81.4 72 81.3 72L81.3 72Q81.3 72 81.3 71.9L81.3 71.9Q81.3 71.8 81.4 71.7Q81.4 71.6 81.4 71.4L81.4 71.4Q81.4 71.2 81 70.9L81 70.9Q81.1 70.5 81.2 70.2Q81.2 69.9 81.2 69.6L81.2 69.6Q81.2 69 80.9 68.5L80.9 68.5L79.2 70.2L79.2 70.3Q79.2 70.5 80 71.6L80 71.6L80.9 71.2Q80.6 71.5 80.4 71.7Q80.1 71.8 80.1 72L80.1 72Q80.1 72.4 80.5 72.4L80.5 72.4Q80.8 72.4 81.1 72.1L81.1 72.1L81.2 72.3Q81 72.5 81 72.5L81 72.5L80.9 72.5L80.9 73.1Q81.5 73.7 82.1 74L82.1 74Q83 72.5 83 72.4ZM81.1 52.6L81.1 52.6Q81 50.7 81 49.7L81 49.7Q81 48.7 81 48.6L81 48.6L79.4 48.6Q79 47.4 78.8 46.5Q78.5 45.6 78.4 45L78.4 45L79.4 44.2Q77.4 40.8 77.4 40.8L77.4 40.8L76.5 42L73.6 39.2L74.6 38L73.5 36.5L71.7 37.7Q70.6 37 69.8 36.5Q69 36 68.5 35.7L68.5 35.7L69.1 34.1L67.5 33.2L69.3 33.7L69.6 33.1Q68.5 32.4 67.8 32.0Q67 31.5 66.5 31.1L66.5 31.1L66.2 32.3L67.6 33.1L66 32.6L65.5 34.4Q65 33.9 63.7 33.7Q62.4 33.5 61.9 33.1L61.9 33.1L61.9 32.3Q60.1 31.7 58.2 31.4L58.2 31.4L58 32.7L54.5 32.7L54.5 30.5L49.5 31.8L50.4 33.2Q49.3 33.8 48.5 34.3Q47.6 34.7 47 34.9L47 34.9L46.5 34.2Q45.3 34.9 44.5 35.7L44.5 35.7L44.2 35.6L46.3 33.8L45.7 32.9Q43 34.1 42.9 34.1L42.9 34.1Q43.9 35.5 44.4 36.7L44.4 36.7Q42.2 38.4 41.5 39.7L41.5 39.7L40.3 38.9Q37.4 40.9 36.9 42.6L36.9 42.6L38.6 43.5Q38.4 45 38.0 45.8Q37.5 46.6 37.1 47.0Q36.7 47.3 36.4 47.4Q36 47.4 35.9 47.5L35.9 47.5L35.8 47.3L34 47.2Q34.2 49.4 34.1 50.0Q34 50.5 34.4 50.5L34.4 50.5Q35 50.5 35.3 50.0Q35.5 49.4 35.6 48.8Q35.8 48.2 35.8 47.8L35.8 47.8Q35.8 47.3 35.8 47.4L35.8 47.4Q36 48.2 36 48.8L36 48.8Q36 49.3 35.8 50.3L35.8 50.3L36.8 50.6L36.8 50.9Q36.8 51.4 37.0 52.2Q37.1 53 37.1 53.8L37.1 53.8Q37.1 54.4 36.9 55L36.9 55L35.1 55.2L36.8 58.6L38.2 58.3Q38.3 58.7 39 59.9Q39.7 61.1 39.7 61.9L39.7 61.9L38.7 62.6L39.3 64.3Q39.8 65 40.3 65.6Q40.7 66.1 40.9 66.5L40.9 66.5L42.3 65.4Q44.5 66.4 45.2 67.3L45.2 67.3L44 68.9Q45 69.4 45.7 69.7Q46.3 70 46.8 70.2L46.8 70.2L47.3 68.8Q49.3 69.5 50.6 70.2L50.6 70.2L50.3 71.4L52 72.2Q52.5 71.1 53.3 71.1L53.3 71.1Q53.8 71.1 55.0 71.6Q56.1 72.1 56.7 72.1L56.7 72.1L56.6 73.1Q59.2 73.9 60.4 74L60.4 74Q60.5 72.7 61.6 72.5L61.6 72.5L63.6 72.5L63.9 73.8L67.7 73.8L67.4 72.3Q67.6 72.1 68.6 71.7Q69.6 71.3 70.1 71.3L70.1 71.3Q70.7 71.3 71.6 72.2L71.6 72.2L73.4 70.1L72.6 69.4Q73.4 68.6 74 68.0Q74.6 67.3 75 66.8L75 66.8L76.5 67.5Q77.8 65.9 78.6 64.8L78.6 64.8Q76.3 64.2 76.3 63.3L76.3 63.3Q76.3 62 79.5 61.5L79.5 61.5L80.6 58.2L78.7 57.8Q78.7 57.7 78.9 57.0Q79 56.2 79.2 54.7L79.2 54.7Q79.6 52.5 80.6 52.5L80.6 52.5Q80.9 52.5 81.1 52.6ZM75.2 71.4L75.2 71.4Q74.3 70.6 74.3 70.5Q74.2 70.5 74 70.5L74 70.5Q74 70.5 73.7 70.7Q73.4 70.8 73.0 71.0Q72.7 71.3 72.4 71.7Q72 72.1 72 72.6L72 72.6Q72 72.8 72.4 73.4L72.4 73.4Q73.1 73 73.8 72.5Q74.4 72 75.2 71.4ZM76.8 74.5L76.8 74.5Q76.3 72.5 75.5 71.8L75.5 71.8L72.8 73.4L72.8 73.5Q72.8 73.7 72.9 74.5Q73 75.2 74.1 75.2L74.1 75.2Q74.6 75.2 75.5 74.8Q76.5 74.5 76.8 74.5ZM77 75.4L77 75.4Q76.8 74.9 76.6 74.9L76.6 74.9Q75.8 74.9 75 75.2Q74.2 75.5 73.8 75.6L73.8 75.6L73.9 76.1L74.4 76.1Q75.2 76.1 75.8 75.9Q76.4 75.7 77 75.4ZM83.4 81.8L83.4 81.8L83.4 81.5Q83.4 80.4 82.3 80.4L82.3 80.4Q81.9 80.4 79.6 82.4L79.6 82.4Q80.1 82.9 80.6 82.9L80.6 82.9Q81.2 82.9 82.3 82.3Q83.3 81.8 83.4 81.8ZM81.3 80.3L81.3 80.3L81.1 80.3Q80.9 80.3 80.5 80.3Q80.1 80.2 79.4 80.1L79.4 80.1Q79.3 80.3 78.7 80.8Q78.1 81.4 78.1 81.9L78.1 81.9Q78.8 82.1 79.3 82.2L79.3 82.2Q81.3 80.4 81.3 80.3ZM74.6 78.5L77 77.6L76.9 75.9L74.1 76.5Q74.5 78.5 74.6 78.5L74.6 78.5ZM83.4 82.3L83.4 82.3Q82.6 82.8 81.7 83Q80.7 83.2 80.7 83.5L80.7 83.5Q80.7 83.7 81.0 84.2Q81.2 84.6 81.2 85L81.2 85Q81.2 85.2 81.1 85.3L81.1 85.3L82.4 84.7Q83.2 83.3 83.4 82.3ZM38.4 37.3L38.4 37.3Q35.9 36.4 35.9 36.3L35.9 36.3Q35.8 36.3 35 36.9Q34.2 37.5 34.2 38.3L34.2 38.3Q34.2 38.7 34.5 39.0Q34.8 39.4 35 39.9L35 39.9Q35.8 39.4 36.6 38.8Q37.5 38.1 38.4 37.3ZM39.7 38.5L39.7 38.5Q39.4 37.6 38.9 37.6L38.9 37.6Q38.2 37.6 37.5 38.2Q36.8 38.8 36.3 39.5Q35.7 40.1 35.4 40.5Q35 41 35 40.8L35 40.8Q35.8 41.9 36.6 42.1L36.6 42.1Q37.6 40.9 38.4 40Q39.2 39.1 39.7 38.5ZM77.6 79L77.6 79Q77.4 78.2 77 77.9L77 77.9L74.6 79.1Q75.3 80.4 75.7 80.4L75.7 80.4Q76.4 79.9 76.9 79.5Q77.3 79.2 77.6 79ZM79 80L79 80L77.9 79.3Q76.4 80.2 75.9 80.7L75.9 80.7Q76.4 81.1 76.8 81.3Q77.2 81.6 77.6 81.7L77.6 81.7Q78.5 80.9 79 80ZM86.8 88.5L86.8 88.5Q86.3 87.6 85.3 87.5L85.3 87.5Q84.8 87.9 84.5 88.2Q84.1 88.5 83.9 88.7L83.9 88.7Q84.6 89.4 84.7 89.4L84.7 89.4L84.8 89.4Q86.6 88.5 86.8 88.5ZM35.3 36.2L35.3 36.2Q35.2 36.2 34.5 36.0Q33.8 35.7 33.5 35.7L33.5 35.7Q32.4 36.9 32 37.9L32 37.9Q32.6 38 33 38L33 38Q33.5 38 33.7 38.1L33.7 38.1Q34.2 37.4 34.6 37.0Q35.1 36.5 35.3 36.2ZM87.4 89.6L87.4 89.6Q87.4 89 86.9 88.8L86.9 88.8Q87 88.9 84.9 89.7L84.9 89.7Q84.9 90.6 85.9 90.6L85.9 90.6Q86.3 90.6 86.9 90.5Q87.4 90.3 87.4 89.6ZM81.2 87.1L83.5 86.3Q83.1 85.3 82.9 84.6L82.9 84.6L82.4 84.9Q81.9 85.2 81.5 85.5Q81.1 85.8 80.8 86L80.8 86Q80.8 86.3 81.2 87.1L81.2 87.1ZM84.9 87.1L84.9 87.1Q84.4 86.6 83.9 86.6L83.9 86.6Q83.7 86.6 81.6 87.4L81.6 87.4Q82.7 88.4 83.6 88.5L83.6 88.5Q84.9 87.2 84.9 87.1ZM29 31.3L29 31.3L29 31.1Q28.6 30.6 27.9 30.6L27.9 30.6Q27.1 30.6 26.4 31.4Q25.7 32.2 25.5 32.6L25.5 32.6Q26.5 33.2 26.6 33.2L26.6 33.2Q27.9 32 29 31.3ZM86.9 91L86.9 91L86.9 90.7Q86.8 90.7 86.2 90.9Q85.5 91.1 85.5 91.6L85.5 91.6Q85.6 92.2 86 92.2L86 92.2Q86.9 92.2 86.9 91ZM27.8 36.1L29.9 32.9Q29.8 31.7 29.2 31.5L29.2 31.5Q28.4 32.2 27.8 32.7Q27.1 33.1 26.7 33.5L26.7 33.5Q27.6 34.8 27.8 36.1L27.8 36.1ZM32.8 35.8L32.8 35.8L31.4 35.4Q30.6 35.8 30.5 35.8L30.5 35.8L30.4 35.8L31 35.2Q30.4 33.8 30 33.3L30 33.3L27.7 36.8L27.9 37.6Q29.4 36.7 30.2 36L30.2 36L30.3 36.1L28.5 37.9Q29.2 38.6 30.2 38.6L30.2 38.6Q31.2 38.6 31.8 37.7Q32.3 36.7 32.8 35.8ZM26.6 30.7L26.6 30.7Q25 30.7 24.5 30.9Q23.9 31.1 23.9 31.3L23.9 31.3Q23.9 31.6 24.4 31.9Q24.8 32.2 25 32.2L25 32.2Q25.3 32.2 25.9 31.5Q26.5 30.8 26.6 30.7ZM85.9 92.6L85.9 92.6L85.9 92.5Q85.7 92.6 85.5 93L85.5 93Q85.9 92.9 85.9 92.6ZM67.5 75.3L67.6 74.1Q66.5 74.1 65.7 74.1L65.7 74.1Q64.9 74.1 64.4 74.2L64.4 74.2L63.9 74.2Q63.8 74.2 63.8 74.5L63.8 74.5Q63.8 74.8 64.4 75.0Q64.9 75.1 65.5 75.2Q66.2 75.2 66.8 75.3Q67.4 75.3 67.5 75.3L67.5 75.3ZM67.3 77.4L67.5 75.8Q65.2 75.3 64.2 75.3L64.2 75.3L63.7 75.3L64 78.1Q66.7 77.8 67.3 77.4L67.3 77.4ZM67.3 78.6L67.3 78.6Q67.3 78.5 67.1 77.9L67.1 77.9Q66 78.1 65.3 78.3Q64.5 78.4 64 78.6L64 78.6Q64.4 79.7 64.6 79.8L64.6 79.8Q64.6 79.8 65.0 79.7Q65.5 79.5 66 79.3Q66.5 79.2 66.9 79Q67.3 78.8 67.3 78.6ZM69.8 82.5L69.8 82.5Q68.9 81.8 68.5 81.5Q68 81.2 67.9 81.1L67.9 81.1Q66.7 81.8 66.3 82.2L66.3 82.2Q66.3 82.5 66.5 82.8Q66.8 83.1 67.4 83.1L67.4 83.1Q68.7 83.1 69.8 82.5ZM71.2 84L71.2 84Q71 82.8 70.2 82.8L70.2 82.8Q69.8 82.8 69.0 83.2Q68.1 83.6 67.8 83.6L67.8 83.6Q67.9 84.5 68.9 84.5L68.9 84.5Q69.3 84.5 70.2 84.3Q71.1 84.1 71.2 84ZM67.7 80.1L67.7 80.1L67.3 79.5Q65.1 80.2 64.8 80.2L64.8 80.2Q65.2 80.8 65.5 81.3Q65.7 81.7 65.9 81.9L65.9 81.9Q66.1 81.7 66.9 81.3Q67.7 80.8 67.7 80.1ZM71.2 84.6L71.2 84.6Q71.2 84.6 71.2 84.5Q71.1 84.5 71 84.5L71 84.5Q70.5 84.5 68.6 84.8L68.6 84.8L68.7 86.2Q69.4 86.4 69.9 86.5Q70.3 86.5 70.7 86.6L70.7 86.6Q70.9 85.9 71 85.5Q71.1 85 71.2 84.6ZM60.4 74.4L60.4 74.4L56.4 73.6L56.1 74.8L60.2 75.1Q60.4 74.5 60.4 74.4ZM33.6 50.5L33.6 50.5Q33.5 48.8 33.5 47.9L33.5 47.9Q33.5 47 33.5 46.9L33.5 46.9L32.5 46.6L31.9 47.2L31.9 46.5L31.1 46.3L29.9 49.2Q30.3 49.6 30.7 49.8L30.7 49.8Q31.1 49 31.4 48.4Q31.6 47.7 31.8 47.2L31.8 47.2Q31.7 48.1 31.5 48.9Q31.3 49.6 31.1 50.1L31.1 50.1Q31.8 50.5 33.6 50.5ZM29.6 48.9L30.7 45.9Q29.4 45.4 29 45L29 45Q27.7 46.8 27.7 46.8L27.7 46.8Q28.8 48.5 29.6 48.9L29.6 48.9ZM27.6 46.7L28.7 44.8Q27.6 44.2 27 44.2L27 44.2Q26.3 44.2 26.1 45.0Q25.9 45.9 25.9 46.3L25.9 46.3Q26.5 46.5 26.9 46.6Q27.3 46.7 27.5 46.7L27.5 46.7L27.6 46.7Q27.6 46.8 27.6 46.8L27.6 46.8Q27.7 46.8 27.7 46.8L27.7 46.8L27.6 46.7ZM60 75.8L60 75.8Q60 75.6 59.9 75.5L59.9 75.5Q59 75.1 57.3 75.1L57.3 75.1Q55.8 75.1 55.8 76L55.8 76L55.8 76.2L59.2 77.4Q59.4 76.9 59.7 76.5Q60 76.1 60 75.8ZM70.2 87L70.2 87Q69.9 86.8 69.7 86.7Q69.4 86.6 69 86.6L69 86.6Q68.9 86.6 68.8 86.7Q68.7 86.7 68.5 86.7L68.5 86.7L68 88.4Q69 88.4 69.3 88.5L69.3 88.5Q70.2 87.8 70.2 87ZM58.9 78L58.9 78L58.9 77.7L55.7 76.8L55.7 77.6Q55.7 78.3 56.4 78.5Q57 78.7 57.7 78.7L57.7 78.7Q58.9 78.7 58.9 78ZM70 89.9L70 89.9Q70 89.8 69.7 89.6L69.7 89.6Q69.7 89.5 69.8 89.5Q69.8 89.4 69.8 89.3L69.8 89.3Q69.8 88.8 68.9 88.8L68.9 88.8L68.5 88.8L68 88.8Q67.7 89.4 67.7 89.8L67.7 89.8Q67.7 90.7 68.3 90.7L68.3 90.7Q68.5 90.7 69.1 90.4Q69.7 90.1 69.9 90.1L69.9 90.1Q69.9 90 69.9 90L69.9 90Q70 90 70 89.9ZM25.7 44.8L25.7 44.8Q25.2 45 24.9 45.0Q24.5 45.1 24.3 45.2L24.3 45.2L23.7 46.8Q24.1 46.6 24.3 46.5Q24.5 46.4 24.7 46.3L24.7 46.3Q24.9 46.4 25.2 46.4L25.2 46.4Q25.7 45.2 25.7 44.8ZM74.1 93.5L74.1 93.5Q73.9 93.5 73.6 93.5Q73.3 93.6 73.1 93.6L73.1 93.6Q72.8 93.6 72.5 93.5Q72.3 93.5 72 93.5L72 93.5Q72.7 93.3 73.2 93.2Q73.6 93.1 73.9 93L73.9 93L73.6 92.7Q73.3 92.6 72.5 92.3Q71.7 91.9 71.3 91.9L71.3 91.9Q70.6 91.9 70.2 92.5L70.2 92.5Q70.2 93.1 70.8 93.4Q71.3 93.7 72 93.7L72 93.7L71.1 94L71.6 94.9Q72.7 94.9 73.3 94.7Q73.8 94.5 74.1 93.5ZM69.8 92.4L71.1 91.6L70 90.5L68.6 91.1Q69.1 92 69.8 92.4L69.8 92.4ZM58.2 79.7L58.3 79.2L56.7 79.1Q56.7 79.6 57.3 79.7L57.3 79.7L58.2 79.7ZM51.5 72.6L51.5 72.6L49.9 71.7L49.5 72.7Q50.4 73.3 50.7 73.3L50.7 73.3Q51.2 73.3 51.5 72.6ZM36.3 59L36.3 59Q36.3 58.1 36.0 57.5Q35.6 56.8 35.3 56.3Q34.9 55.8 34.6 55.5Q34.3 55.3 34.4 55.3L34.4 55.3Q33.7 55.3 33.7 55.8L33.7 55.8Q33.7 56.1 33.9 57.3Q34 58.4 34.4 60.2L34.4 60.2Q35.7 59.5 36 59.4Q36.3 59.2 36.3 59ZM58.7 81.7L58.7 81.7Q58.5 81.1 58.3 80.5Q58 79.9 57.4 79.9L57.4 79.9Q56.5 80.8 56.4 81.2L56.4 81.2Q56.8 81.2 57.6 81.4Q58.4 81.6 58.7 81.7ZM72.8 95.2L72.8 95.2L71.6 95.2Q71.3 96.3 71.3 96.7L71.3 96.7Q72.3 95.8 72.8 95.2ZM23.9 45.2L23.9 45.2Q23.8 45.1 23.6 45.1L23.6 45.1Q22.2 45.1 20.6 47.8L20.6 47.8L22 47.8Q22.9 47.8 23.3 46.9Q23.6 46 23.9 45.2ZM59.9 83.2L59.9 83.2Q59.5 82.1 58.5 81.8Q57.5 81.6 56.6 81.6L56.6 81.6L56.2 81.6L56.1 82.5Q57.4 82.8 58.3 83.0Q59.2 83.1 59.9 83.2ZM50.3 75.2L50.6 73.7L49.3 73.2L48.7 75.1L50.3 75.2ZM22 45.1L22 45.1Q21.2 44.7 20.6 44.5L20.6 44.5L19.6 46.9Q19.9 47.5 20.2 47.5L20.2 47.5Q20.3 47.5 20.8 46.9Q21.3 46.3 21.6 45.8Q21.9 45.2 22 45.1ZM20.3 44.1L20.3 44.1Q19.8 43.7 19.4 43.5Q19 43.2 18.7 43L18.7 43Q18.7 43.4 18.5 44.2Q18.3 45 18.3 45.3L18.3 45.3Q18.3 46.2 19.3 46.6L19.3 46.6Q19.6 45.8 19.9 45.1Q20.1 44.5 20.3 44.1ZM46.8 70.7L46.8 70.7Q45.7 70.2 44.9 69.8Q44.1 69.5 43.5 69.3L43.5 69.3Q43.5 69.4 43.2 69.6Q42.8 69.8 42.8 70.1L42.8 70.1Q44.1 70.5 45 70.8Q45.9 71.2 46.5 71.4L46.5 71.4Q46.8 70.8 46.8 70.7ZM34 60.5L34 60.5Q33.6 59 33.4 57.9Q33.1 56.8 32.9 56L32.9 56L30.9 57.6L32.7 60.6Q33 60.7 33.4 60.7L33.4 60.7Q33.8 60.7 34 60.5ZM59.9 83.6L59.9 83.6L56.2 83L56.2 84.8L58.3 85.8Q59.9 84.9 59.9 83.6ZM39.5 67.4L40.5 66.9Q40.1 66.1 39.8 65.5Q39.4 64.8 39.2 64.4L39.2 64.4L38.3 62.7L36.6 63.3Q37.6 64.7 38.3 65.7Q39 66.7 39.5 67.4L39.5 67.4ZM48.7 76.4L51.6 77.8L51.6 77.6Q51 76.6 50.8 76Q50.5 75.4 49.9 75.4L49.9 75.4L48.7 75.4Q48.5 76 48.5 76.1L48.5 76.1Q48.5 76.2 48.7 76.4L48.7 76.4ZM18.3 42.7L18.3 42.7Q17 41.7 16 41.5L16 41.5Q15.4 42.9 15.1 43.6L15.1 43.6Q17.6 45.1 17.8 45.1L17.8 45.1Q18 44.1 18.1 43.5Q18.2 42.9 18.3 42.7ZM15.6 41.3L15.6 41.3L14.1 41.2Q13.3 42.4 13.2 43.1L13.2 43.1Q14.2 43.1 14.7 43.4L14.7 43.4Q15.3 42.1 15.6 41.3ZM46.3 71.8L46.3 71.8Q45.4 71.4 44.5 71.0Q43.5 70.7 42.4 70.4L42.4 70.4Q41.8 71.2 41.8 71.3L41.8 71.3Q42.8 72.1 43.6 72.7Q44.3 73.2 44.8 73.6L44.8 73.6Q45.7 73.2 46.3 71.8ZM31.3 60.7L32.3 60.8Q31.8 59.6 31.3 59.0Q30.7 58.3 30.4 57.8L30.4 57.8L30.1 58.2L31.3 60.7ZM50.5 79.1L51.5 78.2Q49.5 77.1 48.4 76.8L48.4 76.8Q48.1 77.1 48.1 77.6L48.1 77.6Q48.1 77.9 48.3 78.5L48.3 78.5L50.5 79.1ZM39 67.8L39 67.8Q38.1 65.8 37.5 64.9Q36.8 64 36.4 63.6L36.4 63.6Q35.6 63.6 35 64.3L35 64.3Q35.3 64.6 35.6 65.3Q35.8 65.9 36.1 66.6Q36.4 67.3 36.8 67.8Q37.1 68.4 37.4 68.4L37.4 68.4Q38.1 68.4 39 67.8ZM57.2 87.3L58.1 86Q56.4 85.3 56.1 85.3L56.1 85.3L55.7 86.6Q56.2 86.8 56.6 87Q57 87.2 57.2 87.3L57.2 87.3ZM30.8 60.7L30.8 60.7Q30.2 59.3 29.9 58.6Q29.6 58 28.7 58L28.7 58Q28.3 58 28.3 58.5L28.3 58.5Q28.3 59.8 29.0 60.3Q29.6 60.7 30.1 60.7L30.1 60.7Q30.7 60.7 30.8 60.7ZM13.4 41.4L13.4 41.4Q11.6 41.5 11.1 43.3L11.1 43.3L12.4 43.2Q12.9 42.8 13.4 41.4ZM49.8 79.4L49.8 79.4Q49.4 79 48.1 79L48.1 79Q48 79.2 48 79.6L48 79.6Q48 80.1 48.4 80.1L48.4 80.1Q49.4 80.1 49.8 79.4ZM44.4 73.7L44.4 73.7L41.3 71.5Q40.3 72.8 40.3 73L40.3 73Q40.5 73.1 41.3 73.9Q42.1 74.7 42.7 74.8L42.7 74.8Q43.9 74 44.4 73.7ZM36.3 68.9L36.8 68.9Q36.8 67.7 34.5 64.4L34.5 64.4L34.1 64.7Q34.8 66.1 35.3 67.2Q35.8 68.2 36.3 68.9L36.3 68.9ZM56.9 88L56.9 88Q56.9 87.4 56.5 87.3Q56 87.1 55.5 86.9L55.5 86.9L54.8 88Q55.1 88.1 55.8 88.3Q56.4 88.4 56.8 88.4L56.8 88.4Q56.9 88.2 56.9 88ZM48.6 80.4L48.6 80.4L47.9 80.2Q47.6 80.4 47.6 80.6L47.6 80.6Q47.6 80.7 47.7 80.9Q47.8 81.1 48 81.1L48 81.1Q48.3 81.1 48.6 80.4ZM35.8 69.2L35.8 69.2Q34.8 67.3 34.3 66.3Q33.7 65.2 33.5 65L33.5 65L32.4 66.2Q33.7 68.5 34.5 69.5L34.5 69.5Q35.4 69.2 35.8 69.2ZM42 75L42 75Q40.7 73.7 39.7 73.2L39.7 73.2Q38.9 74.3 38.9 74.8L38.9 74.8Q40.2 75.8 41.3 75.8L41.3 75.8Q41.7 75.8 41.8 75.5Q41.9 75.2 42 75ZM56.3 90.4L56.5 88.8L56.2 88.8Q55.3 88.4 54.5 88.4L54.5 88.4Q54.3 89.4 54.2 89.8Q54 90.3 54 90.4L54 90.4L56.3 90.4ZM48.1 83.1L48.1 83.1L48.1 81.5L47.5 81.4L47.2 82.6Q47.4 82.9 48.1 83.1ZM28.1 60.5L28.1 60.5L28.1 59.6Q28.1 59 28.0 58.6Q27.8 58.3 27.2 58.2L27.2 58.2L25.9 58.2Q25.1 58.7 25.1 58.7L25.1 58.7Q25.1 58.9 25.5 59.4Q25.9 59.9 25.9 60.3L25.9 60.3Q25.9 60.4 25.8 60.4L25.8 60.4Q25.8 60.4 25.8 60.5L25.8 60.5Q25 59.2 24.6 59L24.6 59L23.2 60.3Q23.4 61.1 23.6 61.6Q23.8 62.1 24 62.5L24 62.5Q24.9 61.8 25.3 61.4Q25.6 60.9 26 60.5L26 60.5Q26.4 60.5 26.7 60.5Q27 60.6 27.2 60.6L27.2 60.6Q27.5 60.6 27.7 60.5Q27.9 60.5 28.1 60.5ZM34.2 69.7L34.2 69.7Q33.6 68.9 32.9 67.8Q32.2 66.8 32 66.8L32 66.8Q31.8 66.8 30.9 68L30.9 68L33.3 70.2L33.3 70.1Q33.3 70.2 34.2 69.7ZM56.7 91.9L56.7 91.9L56.5 90.9Q56.1 90.7 55.7 90.7L55.7 90.7Q55.5 90.7 54.8 90.8Q54 90.8 54 91.3L54 91.3Q54 91.9 54.3 92.3L54.3 92.3Q55.8 92.3 56.7 91.9ZM41.3 77L41.3 77Q41.1 75.9 40.1 75.7Q39 75.5 38.6 75.3L38.6 75.3L38.5 75.9Q39.4 76.3 40.1 76.5Q40.8 76.8 41.3 77ZM57.8 93.8L57.8 93.8Q57.3 92.7 56.9 92.4L56.9 92.4Q56.1 92.5 55.5 92.6Q54.9 92.7 54.7 92.8L54.7 92.8Q54.9 93.6 55.9 93.7Q56.9 93.7 57.8 93.8ZM48.6 85.8L48.6 85.8L48.6 84.5Q48.5 83.3 47 82.9L47 82.9Q46.4 83.5 46.3 83.9L46.3 83.9Q47.6 85.4 48.6 85.8ZM58.9 95.4L58.9 95.4L58.9 95.1Q58.9 94.2 57.8 94.2Q56.7 94.1 55.8 94L55.8 94Q56 94.6 56.3 95.1Q56.5 95.6 57.2 95.6L57.2 95.6Q58 95.5 58.4 95.5Q58.8 95.4 58.9 95.4ZM41.4 78L41.4 78Q41.4 77.6 41.3 77.5L41.3 77.5L38.5 76.4L38.2 77.9Q39.2 78.4 39.9 78.7Q40.5 79 40.9 79.2L40.9 79.2Q41.4 78.6 41.4 78ZM33 70.6L33 70.6Q31.6 68.9 30.6 68.3L30.6 68.3L30.1 70.8Q31.1 71.2 31.8 71.5Q32.4 71.7 32.6 71.8L32.6 71.8L32.6 71.5Q32.6 71 33 70.6ZM48 86.9L48.4 86.2Q47.8 85.7 47.2 85.3Q46.6 84.9 46.1 84.5L46.1 84.5L45.6 85.3Q46.4 85.9 47 86.3Q47.6 86.7 48 86.9L48 86.9ZM59.3 95.8L59.3 95.8Q58.1 95.9 57.5 96Q56.8 96.1 56.6 96.3Q56.4 96.4 56.4 96.6L56.4 96.6Q56.4 96.7 56.4 97L56.4 97Q57 97.3 57.5 97.5Q57.9 97.7 58.4 97.7L58.4 97.7Q58.9 97.7 59.1 97Q59.3 96.3 59.3 95.8ZM23.4 62.9L23.4 62.9Q23.4 62.4 22.9 60.7L22.9 60.7Q22.8 60.7 22.2 61Q21.6 61.3 21.6 61.7L21.6 61.7Q21.6 62 22.2 62.7Q22.7 63.4 22.8 63.8L22.8 63.8Q23.4 63.8 23.4 62.9ZM40.4 79.4L40.4 79.4L38.1 78.2Q37.2 78.9 37.1 79.2L37.1 79.2Q37.4 80.1 38.6 80.2L38.6 80.2Q38.7 80.2 39.5 80.0Q40.3 79.9 40.4 79.4ZM58.1 98.1L58.1 98.1Q58 98.1 57.5 98Q56.9 97.9 56.7 97.9L56.7 97.9Q56.5 98.1 56.5 98.2L56.5 98.2L56.5 98.4L57.8 98.6Q58.1 98.3 58.1 98.1ZM47.4 87.1L47.4 87.1L45.3 85.6L44.5 87Q45 87.8 45.5 88.0Q46 88.3 46.2 88.4L46.2 88.4Q47.4 87.7 47.4 87.1ZM32.4 74.2L32.7 72.5Q31.9 72 31.3 71.7Q30.6 71.3 30.1 71.2L30.1 71.2L29.9 72.4Q30.7 73 31.3 73.5Q31.9 73.9 32.4 74.2L32.4 74.2ZM22.4 63.8L22.4 63.8L21.3 61.8Q21 61.8 19.7 62.2L19.7 62.2L20.4 64.6Q21 64.6 21.7 64.5Q22.4 64.4 22.4 63.8ZM57.6 98.9L57.6 98.9Q57.4 98.8 57 98.8L57 98.8Q56.8 98.8 56.6 98.9Q56.4 98.9 56.4 99.1L56.4 99.1Q56.4 99.4 56.5 99.9Q56.6 100.3 56.9 100.3L56.9 100.3Q57.3 100.3 57.5 99.7Q57.6 99.1 57.6 98.9ZM32 74.5L32 74.5Q31.2 73.9 30.6 73.5Q30 73 29.5 72.7L29.5 72.7Q29.2 73.3 29.2 73.5L29.2 73.5Q29.2 73.6 29.5 74.0Q29.7 74.3 30 74.7Q30.3 75 30.6 75.3Q30.8 75.6 30.8 75.7L30.8 75.7Q31.7 75.3 32 74.5ZM45.6 89.2L45.6 89.2L45.6 89.1Q45.6 88.6 44.2 87.5L44.2 87.5Q43.7 88.2 43.5 89L43.5 89Q43.6 89 43.6 89L43.6 89Q43.6 88.9 43.7 88.9L43.7 88.9Q43.9 88.9 44.3 89.1Q44.7 89.3 45.2 89.3L45.2 89.3Q45.3 89.3 45.4 89.3Q45.5 89.2 45.6 89.2ZM57.5 101.7L57.5 101.7Q57.5 100.4 57.1 100.4L57.1 100.4Q56.8 100.4 56.8 100.6L56.8 100.6Q56.8 100.8 57.5 101.7ZM37.8 80.5L37.8 80.5Q37.7 80.1 36.6 79.5L36.6 79.5Q35.5 80.1 35.1 80.4L35.1 80.4L36.2 81.6L36.5 81.6Q37.2 80.9 37.8 80.5ZM19.9 64.6L19.9 64.6Q19.9 63.6 19.6 63.1Q19.3 62.6 19.1 62.3L19.1 62.3Q18.3 62.7 17.7 62.9L17.7 62.9Q18 63.5 18.4 64.2Q18.7 64.8 19.3 64.8L19.3 64.8Q19.5 64.8 19.9 64.6ZM36.1 81.7L36.3 81.6L36.2 81.6Q36.2 81.6 36.1 81.6L36.1 81.6Q36.1 81.6 36.1 81.7L36.1 81.7ZM30.3 75.8L30.3 75.8Q29.6 74.6 28.7 73.7L28.7 73.7L27.5 74.8L28.7 76.2Q30.2 75.9 30.3 75.8ZM36.1 81.7L36.1 81.7Q35.8 81.6 35.4 81.3Q35 80.9 34.8 80.9L34.8 80.9Q34.7 80.9 34.5 81.1L34.5 81.1Q34.7 82 35.9 82.4L35.9 82.4Q36.1 81.7 36.1 81.7ZM45.1 89.8L45.1 89.8L43.4 89.4L43.1 90.9Q43.1 91.4 44.4 91.7L44.4 91.7Q44.7 91.5 44.7 90.8Q44.6 90 45.1 89.8ZM17.4 64.4L18.1 64.4Q18.1 63.7 17.5 63.3Q16.9 62.9 16.8 62.9L16.8 62.9Q16.1 62.9 15.8 63.4Q15.5 63.8 15.5 63.9L15.5 63.9L15.5 64.1L15.3 63.8Q14.1 64.5 14 66.1L14 66.1Q14.8 65.2 15.3 64.8Q15.8 64.4 15.8 64.2L15.8 64.2Q16.3 64.4 16.7 64.4L16.7 64.4Q17.1 64.4 17.4 64.4L17.4 64.4ZM44.5 92.7L44.5 92.7L44.5 91.9Q43.2 92 43.2 92.2L43.2 92.2Q44 92.7 44.5 92.7ZM35.3 84.5L35.7 83L34.2 81.7L33.5 83.6Q35.1 84.4 35.3 84.5L35.3 84.5ZM45 94.8L45 94.8L45 94.3Q45 94.1 44.8 93.7Q44.6 93.3 44.6 93.1L44.6 93.1Q43.6 93.1 43.6 93.3L43.6 93.3Q44.1 94.7 45 94.8ZM45.8 95.7L45.8 95.7L45.3 95.1L45.2 95.3Q45.8 95.7 45.8 95.7ZM35.4 85.6L35.4 85.6Q35.4 85.2 35.3 85L35.3 85Q34 84.4 33.3 84L33.3 84Q32.8 85.3 32.8 85.3L32.8 85.3Q33.6 85.8 34.1 86.2Q34.7 86.6 35.1 86.8L35.1 86.8Q35.4 86.1 35.4 85.6ZM28.1 76.4L28.1 76.4Q27.9 75.7 27.2 75.2L27.2 75.2Q26.7 75.3 25.9 75.8Q25.1 76.2 25.1 76.9L25.1 76.9Q25.1 76.9 25.5 77.5L25.5 77.5L25.4 77.6Q25.3 77.6 25.3 77.6L25.3 77.6Q25.3 77.5 25.2 77.5L25.2 77.5L24.9 77.3Q23.5 78.5 23.1 81.2L23.1 81.2Q23.4 81.4 23.4 81.5L23.4 81.5Q23.8 80.4 24.7 79.5Q25.5 78.6 25.5 77.5L25.5 77.5L25.9 77.9Q27.2 77.1 28.1 76.4ZM35 87.3L35 87.3Q33.4 86 32.7 85.6L32.7 85.6Q32.4 86.5 32.4 86.8L32.4 86.8L32.4 86.9L34.7 87.8Q35 87.5 35 87.3ZM34.3 88.1L34.3 88.1L32.3 87Q32.1 87 31.9 86.9L31.9 86.9Q31.9 87.2 31.6 87.5Q31.2 87.8 31.2 88L31.2 88Q31.2 88.2 31.6 88.5L31.6 88.5L33.3 89.5Q34 89.1 34.3 88.1ZM23.4 81.6L23.5 81.5L23.4 81.5L23.4 81.6ZM32.5 89.6L32.5 89.6L31 88.4Q29.8 89.1 29.4 89.5L29.4 89.5L29.4 89.7Q30.3 90 31.1 90L31.1 90Q32 90 32.5 89.6ZM98.4 28.7L98.4 28.7Q98.2 28.3 98.1 28Q98 27.7 97.9 27.5L97.9 27.5Q98 27.7 98.2 28.1Q98.4 28.5 98.4 28.7Z" id="path_J" fill="#ffffff"/>
      </svg>