<svg xmlns="http://www.w3.org/2000/svg" xmlns:xlink="http://www.w3.org/1999/xlink" width="116" zoomAndPan="magnify" viewBox="0 0 87 91.5" height="122" preserveAspectRatio="xMidYMid meet" version="1.0"><path fill="#000000" d="M 79.140625 25.398438 L 80.085938 25.398438 C 79.628906 24.824219 79.199219 24.480469 78.796875 24.363281 Z M 78.710938 25.398438 C 78.710938 24.765625 78.570312 24.304688 78.28125 24.019531 C 77.996094 23.730469 77.480469 23.441406 76.738281 23.15625 C 76.738281 23.617188 76.792969 24.019531 76.910156 24.363281 C 76.792969 24.191406 76.679688 24.019531 76.566406 23.84375 C 76.453125 23.730469 76.367188 23.617188 76.308594 23.5 C 76.195312 24.304688 76.050781 24.738281 75.878906 24.796875 C 75.707031 24.851562 75.621094 24.96875 75.621094 25.140625 C 75.621094 25.714844 75.648438 26.003906 75.707031 26.003906 C 75.648438 25.945312 75.59375 25.859375 75.535156 25.746094 C 75.421875 25.570312 75.335938 25.484375 75.277344 25.484375 C 75.164062 25.484375 75.046875 25.515625 74.933594 25.570312 C 74.820312 25.570312 74.648438 25.601562 74.417969 25.660156 C 74.589844 26.347656 75.105469 27.183594 75.964844 28.160156 L 76.222656 27.125 C 76.109375 26.839844 76.050781 26.636719 76.050781 26.523438 C 76.050781 26.40625 76.023438 26.292969 75.964844 26.175781 L 76.652344 26.953125 L 77.511719 26.175781 L 77.511719 26.089844 C 77.511719 25.800781 77.710938 25.6875 78.113281 25.746094 C 78.511719 25.800781 78.710938 25.6875 78.710938 25.398438 Z M 68.664062 18.492188 L 69.609375 18.148438 C 69.039062 17.917969 68.550781 17.746094 68.148438 17.628906 C 68.320312 18.035156 68.492188 18.320312 68.664062 18.492188 Z M 68.40625 18.492188 C 68.179688 17.515625 67.207031 17.027344 65.488281 17.027344 C 65.488281 17.140625 65.429688 17.199219 65.316406 17.199219 C 65.144531 17.257812 65.058594 17.371094 65.058594 17.542969 C 66.203125 18.292969 67.207031 18.808594 68.066406 19.097656 C 68.292969 18.808594 68.40625 18.609375 68.40625 18.492188 Z M 67.550781 19.355469 C 66.863281 18.953125 66.289062 18.609375 65.832031 18.320312 C 65.375 18.035156 65 17.832031 64.714844 17.714844 C 64.714844 17.890625 64.714844 18.035156 64.714844 18.148438 C 64.660156 18.261719 64.628906 18.378906 64.628906 18.492188 C 64.628906 18.667969 64.6875 18.808594 64.800781 18.925781 L 67.207031 20.046875 C 67.320312 19.933594 67.40625 19.816406 67.464844 19.703125 C 67.464844 19.585938 67.492188 19.472656 67.550781 19.355469 Z M 75.707031 28.765625 C 74.90625 27.328125 74.304688 26.292969 73.902344 25.660156 L 73.132812 25.660156 C 74.277344 28.421875 74.847656 29.800781 74.847656 29.800781 C 75.191406 29.457031 75.476562 29.109375 75.707031 28.765625 Z M 66.605469 22.121094 L 67.121094 20.480469 C 66.71875 20.25 66.320312 20.019531 65.917969 19.789062 C 65.460938 19.617188 65 19.441406 64.542969 19.269531 L 64.542969 19.617188 C 64.542969 20.078125 64.773438 20.507812 65.230469 20.910156 C 65.6875 21.371094 66.148438 21.773438 66.605469 22.121094 Z M 74.417969 29.800781 C 74.363281 29.398438 73.789062 27.988281 72.703125 25.570312 C 72.644531 25.515625 72.558594 25.484375 72.445312 25.484375 C 72.042969 25.484375 71.84375 25.773438 71.84375 26.347656 C 72.128906 27.269531 72.445312 28.105469 72.789062 28.851562 C 73.132812 29.542969 73.445312 30.117188 73.730469 30.578125 L 73.902344 30.578125 C 73.902344 30.519531 73.988281 30.433594 74.160156 30.320312 C 74.332031 30.203125 74.417969 30.03125 74.417969 29.800781 Z M 58.617188 14.351562 C 58.21875 14.351562 57.960938 14.378906 57.847656 14.4375 C 57.902344 14.667969 58.019531 14.8125 58.1875 14.867188 C 58.1875 14.867188 58.332031 14.695312 58.617188 14.351562 Z M 66.347656 22.464844 C 65.488281 21.542969 64.800781 20.851562 64.285156 20.394531 L 63.511719 21.167969 C 64.085938 21.976562 64.542969 22.523438 64.886719 22.808594 C 65 22.753906 65.230469 22.722656 65.574219 22.722656 C 65.976562 22.722656 66.234375 22.636719 66.347656 22.464844 Z M 73.300781 30.664062 C 72.671875 29.226562 72.15625 28.105469 71.757812 27.296875 L 71.242188 29.023438 C 71.527344 29.484375 71.757812 29.886719 71.929688 30.234375 C 72.101562 30.578125 72.242188 30.894531 72.359375 31.183594 C 72.988281 30.894531 73.300781 30.722656 73.300781 30.664062 Z M 44.792969 3.734375 L 45.824219 3.644531 L 45.824219 3.386719 C 45.480469 3.15625 45.195312 2.957031 44.964844 2.78125 C 44.679688 2.667969 44.449219 2.554688 44.277344 2.4375 Z M 58.019531 15.039062 C 57.789062 14.8125 57.558594 14.636719 57.332031 14.523438 C 56.128906 14.582031 55.382812 14.8125 55.097656 15.214844 C 55.382812 15.214844 55.757812 15.355469 56.214844 15.644531 C 56.671875 15.933594 56.988281 16.078125 57.160156 16.078125 C 57.445312 16.078125 57.730469 15.730469 58.019531 15.039062 Z M 46.597656 5.546875 C 46.597656 5.144531 46.453125 4.597656 46.167969 3.90625 L 44.878906 4.164062 L 44.792969 5.285156 C 45.539062 5.402344 46.140625 5.488281 46.597656 5.546875 Z M 64.628906 22.894531 C 64.628906 22.839844 64.601562 22.808594 64.542969 22.808594 L 64.113281 22.378906 C 63.941406 22.148438 63.800781 21.945312 63.683594 21.773438 C 63.511719 21.660156 63.371094 21.542969 63.253906 21.429688 L 61.796875 21.34375 L 61.710938 21.601562 L 63.253906 22.722656 C 63.828125 23.125 64.171875 23.328125 64.285156 23.328125 C 64.515625 23.097656 64.628906 22.953125 64.628906 22.894531 Z M 71.757812 31.183594 L 70.984375 29.285156 L 70.039062 29.886719 C 70.039062 30.519531 70.152344 30.953125 70.382812 31.183594 C 70.613281 31.125 70.871094 31.097656 71.15625 31.097656 C 71.441406 31.097656 71.640625 31.125 71.757812 31.183594 Z M 82.0625 41.023438 C 81.601562 40.160156 81.230469 39.671875 80.945312 39.554688 L 79.742188 42.144531 L 81.117188 42.492188 C 81.6875 42.03125 82.003906 41.542969 82.0625 41.023438 Z M 82.492188 41.800781 L 82.492188 41.714844 L 82.320312 41.542969 C 81.917969 41.945312 81.660156 42.347656 81.546875 42.75 C 81.773438 42.863281 81.917969 42.921875 81.976562 42.921875 C 82.320312 42.347656 82.492188 41.972656 82.492188 41.800781 Z M 83.519531 43.871094 C 83.234375 43.183594 82.976562 42.691406 82.75 42.40625 L 82.320312 43.09375 C 82.71875 43.5 83.121094 43.757812 83.519531 43.871094 Z M 56.816406 16.421875 C 56.816406 16.191406 56.5 15.960938 55.871094 15.730469 C 55.242188 15.558594 54.867188 15.472656 54.753906 15.472656 C 54.753906 15.53125 54.753906 15.585938 54.753906 15.644531 C 54.695312 15.703125 54.667969 15.761719 54.667969 15.816406 C 54.667969 15.933594 54.78125 16.046875 55.011719 16.164062 C 55.242188 16.335938 55.5 16.449219 55.785156 16.507812 C 56.015625 16.625 56.242188 16.710938 56.472656 16.765625 C 56.644531 16.824219 56.730469 16.855469 56.730469 16.855469 C 56.785156 16.738281 56.816406 16.59375 56.816406 16.421875 Z M 80.773438 39.210938 C 80.429688 38.691406 79.972656 38.433594 79.398438 38.433594 L 79.140625 38.433594 L 78.539062 42.320312 L 79.3125 42.230469 C 79.941406 41.140625 80.429688 40.132812 80.773438 39.210938 Z M 63.941406 24.191406 C 63.941406 23.902344 63.628906 23.441406 63 22.808594 C 62.367188 22.175781 61.824219 21.859375 61.367188 21.859375 C 61.082031 21.859375 60.9375 22.089844 60.9375 22.550781 C 60.996094 22.894531 61.28125 23.242188 61.796875 23.585938 C 62.253906 23.933594 62.710938 24.21875 63.167969 24.449219 C 63.570312 24.621094 63.800781 24.707031 63.855469 24.707031 C 63.914062 24.59375 63.941406 24.421875 63.941406 24.191406 Z M 69.867188 30.578125 C 69.695312 30.0625 69.46875 29.800781 69.179688 29.800781 C 68.953125 29.800781 68.835938 29.886719 68.835938 30.0625 C 68.835938 30.464844 68.894531 30.78125 69.007812 31.011719 C 69.125 31.183594 69.238281 31.296875 69.351562 31.355469 C 69.695312 31.125 69.867188 30.867188 69.867188 30.578125 Z M 46.511719 5.890625 L 44.792969 5.632812 L 44.019531 6.925781 L 46.082031 7.359375 C 46.308594 7.359375 46.453125 7.128906 46.511719 6.667969 C 46.511719 6.207031 46.511719 5.949219 46.511719 5.890625 Z M 56.730469 18.753906 L 56.644531 17.199219 C 56.015625 16.855469 55.46875 16.679688 55.011719 16.679688 C 55.242188 17.140625 55.355469 17.488281 55.355469 17.714844 C 55.355469 17.832031 55.355469 17.890625 55.355469 17.890625 C 55.296875 17.945312 55.269531 18.035156 55.269531 18.148438 C 55.84375 18.550781 56.328125 18.753906 56.730469 18.753906 Z M 64.027344 26.261719 C 64.027344 25.457031 63.742188 24.910156 63.167969 24.621094 C 62.597656 24.335938 62.082031 24.105469 61.625 23.933594 L 61.625 24.191406 C 61.625 24.996094 62.398438 26.003906 63.941406 27.210938 C 64 26.980469 64.027344 26.664062 64.027344 26.261719 Z M 68.148438 32.132812 L 68.835938 31.527344 C 68.722656 30.835938 68.664062 30.378906 68.664062 30.148438 C 68.609375 29.859375 68.378906 29.65625 67.980469 29.542969 C 67.40625 29.945312 67.003906 30.175781 66.777344 30.234375 Z M 46.425781 8.480469 C 46.425781 8.25 46.28125 8.046875 45.996094 7.875 C 45.710938 7.761719 45.394531 7.644531 45.050781 7.53125 C 44.707031 7.414062 44.394531 7.328125 44.105469 7.273438 C 43.820312 7.214844 43.675781 7.183594 43.675781 7.183594 L 43.246094 7.359375 C 42.847656 8.105469 42.589844 8.480469 42.476562 8.480469 C 42.476562 8.769531 42.847656 8.941406 43.589844 9 C 44.335938 9.054688 44.90625 9.085938 45.308594 9.085938 L 46.253906 9.085938 C 46.367188 8.738281 46.425781 8.539062 46.425781 8.480469 Z M 56.816406 19.269531 L 55.097656 18.667969 C 54.867188 19.070312 54.753906 19.386719 54.753906 19.617188 C 55.554688 20.019531 56.042969 20.304688 56.214844 20.480469 C 56.613281 20.25 56.816406 19.847656 56.816406 19.269531 Z M 78.796875 38.433594 C 78.167969 38.605469 77.738281 38.777344 77.511719 38.953125 L 75.964844 44.390625 C 76.707031 43.757812 77.28125 43.09375 77.683594 42.40625 C 78.082031 41.714844 78.367188 41.082031 78.539062 40.503906 C 78.65625 39.929688 78.742188 39.441406 78.796875 39.039062 C 78.796875 38.691406 78.796875 38.492188 78.796875 38.433594 Z M 62.398438 28.335938 L 63.425781 27.472656 L 61.96875 25.917969 C 61.796875 25.6875 61.59375 25.570312 61.367188 25.570312 C 61.253906 25.570312 61.109375 25.6875 60.9375 25.917969 C 61.222656 26.433594 61.480469 26.894531 61.710938 27.296875 C 61.9375 27.703125 62.167969 28.046875 62.398438 28.335938 Z M 67.808594 32.5625 C 67.808594 32.160156 67.664062 31.816406 67.378906 31.527344 C 67.035156 31.242188 66.746094 31.039062 66.519531 30.925781 C 66.519531 30.980469 66.546875 31.011719 66.605469 31.011719 C 66.605469 31.066406 66.605469 31.152344 66.605469 31.269531 C 66.605469 31.5 66.488281 31.789062 66.261719 32.132812 C 66.261719 32.421875 66.460938 32.621094 66.863281 32.738281 C 67.261719 32.910156 67.519531 33.054688 67.636719 33.167969 C 67.75 32.824219 67.808594 32.621094 67.808594 32.5625 Z M 46.683594 10.726562 C 46.511719 10.035156 46.394531 9.660156 46.339844 9.601562 L 42.648438 9.171875 C 42.648438 9.226562 42.761719 9.546875 42.988281 10.121094 C 43.160156 10.753906 43.589844 11.070312 44.277344 11.070312 C 44.566406 11.070312 44.992188 11.011719 45.566406 10.898438 C 46.082031 10.78125 46.453125 10.726562 46.683594 10.726562 Z M 76.308594 38.953125 C 75.964844 38.835938 75.734375 38.691406 75.621094 38.519531 C 74.933594 39.382812 74.332031 40.734375 73.816406 42.578125 C 74.105469 42.863281 74.277344 43.007812 74.332031 43.007812 C 74.792969 42.089844 75.191406 41.3125 75.535156 40.679688 C 75.820312 39.988281 76.078125 39.414062 76.308594 38.953125 Z M 75.449219 44.390625 L 77.082031 39.039062 L 76.652344 39.039062 C 75.621094 40.878906 74.960938 42.347656 74.675781 43.441406 Z M 47.027344 12.882812 L 47.800781 12.882812 C 47.683594 11.730469 47.3125 11.15625 46.683594 11.15625 C 46.109375 11.15625 45.59375 11.214844 45.136719 11.328125 C 44.621094 11.445312 44.222656 11.53125 43.933594 11.589844 L 44.363281 12.449219 C 44.9375 12.738281 45.824219 12.882812 47.027344 12.882812 Z M 54.839844 21.773438 L 55.785156 20.738281 C 55.5 20.507812 55.210938 20.335938 54.925781 20.21875 C 54.695312 20.046875 54.527344 19.902344 54.410156 19.789062 C 54.011719 20.019531 53.695312 20.191406 53.464844 20.304688 C 53.238281 20.421875 53.066406 20.535156 52.953125 20.652344 Z M 61.96875 28.507812 C 61.96875 28.105469 61.765625 27.703125 61.367188 27.296875 L 60.164062 26.175781 C 59.992188 26.175781 59.792969 26.292969 59.5625 26.523438 C 60.308594 27.84375 60.910156 28.792969 61.367188 29.371094 L 61.453125 29.371094 C 61.679688 29.371094 61.851562 29.082031 61.96875 28.507812 Z M 75.277344 38.261719 C 74.820312 37.859375 74.304688 37.597656 73.730469 37.484375 C 73.503906 38.058594 73.359375 38.578125 73.300781 39.039062 C 73.1875 39.5 73.101562 39.871094 73.046875 40.160156 C 73.046875 39.585938 73.074219 39.066406 73.132812 38.605469 C 73.132812 38.203125 73.160156 37.859375 73.214844 37.570312 C 71.785156 37.972656 71.070312 38.636719 71.070312 39.554688 C 71.070312 39.902344 71.183594 40.476562 71.414062 41.28125 C 71.585938 42.089844 71.699219 42.664062 71.757812 43.007812 C 71.984375 42.953125 72.1875 42.808594 72.359375 42.578125 C 72.472656 42.347656 72.585938 42.089844 72.703125 41.800781 C 72.757812 41.511719 72.816406 41.253906 72.875 41.023438 C 72.929688 40.734375 72.960938 40.535156 72.960938 40.417969 C 72.960938 40.535156 72.960938 40.734375 72.960938 41.023438 C 72.960938 41.3125 72.929688 41.773438 72.875 42.40625 L 73.300781 42.492188 C 73.761719 41.511719 74.160156 40.679688 74.503906 39.988281 C 74.792969 39.296875 75.046875 38.722656 75.277344 38.261719 Z M 47.886719 13.746094 C 47.886719 13.574219 47.855469 13.457031 47.800781 13.402344 L 44.363281 12.882812 L 44.363281 13.746094 L 47.800781 14.4375 C 47.855469 14.265625 47.886719 14.035156 47.886719 13.746094 Z M 67.550781 33.601562 C 67.261719 33.371094 67.003906 33.195312 66.777344 33.082031 C 66.546875 32.910156 66.347656 32.792969 66.175781 32.738281 C 65.832031 33.195312 65.574219 33.542969 65.402344 33.773438 C 65.859375 35.039062 66.234375 35.785156 66.519531 36.015625 C 67.089844 34.519531 67.433594 33.714844 67.550781 33.601562 Z M 54.753906 22.378906 C 54.753906 22.207031 54.640625 22.03125 54.410156 21.859375 C 54.183594 21.6875 53.925781 21.542969 53.636719 21.429688 C 53.351562 21.3125 53.066406 21.199219 52.78125 21.082031 C 52.550781 20.96875 52.4375 20.910156 52.4375 20.910156 C 52.265625 21.371094 52.179688 21.714844 52.179688 21.945312 C 52.179688 22.234375 52.378906 22.464844 52.78125 22.636719 C 53.238281 22.808594 53.636719 22.925781 53.980469 22.980469 C 54.324219 22.980469 54.527344 22.980469 54.582031 22.980469 C 54.695312 22.636719 54.753906 22.4375 54.753906 22.378906 Z M 61.023438 29.714844 C 60.566406 28.738281 60.191406 27.988281 59.90625 27.472656 C 59.5625 26.894531 59.078125 26.609375 58.445312 26.609375 C 57.875 26.609375 57.589844 26.839844 57.589844 27.296875 C 57.589844 27.414062 57.730469 27.703125 58.019531 28.160156 C 58.304688 28.566406 58.992188 29.339844 60.078125 30.492188 C 60.535156 30.203125 60.851562 29.945312 61.023438 29.714844 Z M 47.800781 14.867188 C 46.253906 14.464844 45.050781 14.265625 44.191406 14.265625 C 44.136719 14.320312 44.050781 14.4375 43.933594 14.609375 C 43.820312 14.839844 43.761719 15.011719 43.761719 15.128906 L 47.285156 16.078125 C 47.398438 15.558594 47.570312 15.15625 47.800781 14.867188 Z M 54.839844 24.96875 L 54.925781 23.671875 C 53.953125 23.15625 53.207031 22.894531 52.695312 22.894531 L 52.695312 22.980469 C 52.695312 23.039062 52.722656 23.125 52.78125 23.242188 C 52.835938 23.355469 52.867188 23.472656 52.867188 23.585938 C 52.867188 23.644531 52.835938 23.703125 52.78125 23.757812 C 52.78125 23.988281 52.894531 24.164062 53.121094 24.277344 C 53.292969 24.449219 53.523438 24.59375 53.808594 24.707031 C 54.039062 24.765625 54.269531 24.824219 54.496094 24.882812 C 54.726562 24.9375 54.839844 24.96875 54.839844 24.96875 Z M 66.003906 36.277344 C 66.003906 35.988281 65.890625 35.613281 65.660156 35.152344 C 65.375 34.695312 65.203125 34.375 65.144531 34.203125 L 64.199219 34.550781 C 64.199219 34.550781 64.34375 34.867188 64.628906 35.5 C 64.914062 36.191406 65.257812 36.679688 65.660156 36.964844 C 65.890625 36.792969 66.003906 36.5625 66.003906 36.277344 Z M 59.734375 30.925781 C 58.933594 29.832031 58.332031 29.054688 57.933594 28.59375 C 57.933594 29.515625 58.101562 30.175781 58.445312 30.578125 C 58.789062 30.980469 59.105469 31.183594 59.390625 31.183594 C 59.507812 31.183594 59.621094 31.097656 59.734375 30.925781 Z M 71.242188 42.75 C 71.183594 42.75 71.011719 41.683594 70.726562 39.554688 L 70.554688 39.554688 C 70.039062 39.554688 69.78125 39.785156 69.78125 40.246094 C 69.78125 41.050781 69.894531 41.914062 70.125 42.835938 C 70.296875 43.757812 70.441406 44.332031 70.554688 44.5625 C 71.011719 44.101562 71.242188 43.5 71.242188 42.75 Z M 46.941406 16.765625 C 46.941406 16.652344 46.941406 16.566406 46.941406 16.507812 C 46.882812 16.507812 46.855469 16.480469 46.855469 16.421875 L 43.417969 15.472656 C 42.90625 16.164062 42.648438 16.765625 42.648438 17.285156 C 42.648438 17.515625 42.703125 17.746094 42.820312 17.976562 C 44.191406 17.804688 45.195312 17.6875 45.824219 17.628906 C 46.394531 17.574219 46.769531 17.515625 46.941406 17.457031 C 47.113281 17.398438 47.167969 17.3125 47.113281 17.199219 C 46.996094 17.082031 46.941406 16.941406 46.941406 16.765625 Z M 54.238281 27.039062 L 54.753906 25.398438 L 52.867188 24.882812 C 52.867188 25.34375 52.664062 25.773438 52.265625 26.175781 C 52.835938 26.523438 53.496094 26.808594 54.238281 27.039062 Z M 65.144531 37.3125 C 64.859375 36.679688 64.628906 36.132812 64.457031 35.671875 C 64.230469 35.210938 64.027344 34.835938 63.855469 34.550781 L 62.484375 34.550781 L 63.597656 38.347656 C 64 38.175781 64.515625 37.828125 65.144531 37.3125 Z M 70.039062 45.082031 L 69.523438 39.902344 L 68.664062 39.640625 C 68.550781 40.277344 68.464844 40.851562 68.40625 41.367188 C 68.351562 41.886719 68.320312 42.347656 68.320312 42.75 L 68.320312 43.269531 C 68.265625 43.441406 68.234375 43.640625 68.234375 43.871094 C 68.234375 44.042969 68.234375 44.1875 68.234375 44.304688 C 68.234375 45.109375 68.40625 45.511719 68.75 45.511719 C 69.039062 45.511719 69.46875 45.367188 70.039062 45.082031 Z M 58.101562 32.652344 L 59.046875 31.613281 C 58.761719 31.382812 58.53125 31.183594 58.359375 31.011719 C 58.132812 30.835938 57.960938 30.695312 57.847656 30.578125 L 57.160156 31.613281 C 57.617188 32.246094 57.933594 32.59375 58.101562 32.652344 Z M 43.589844 19.617188 L 46.941406 19.355469 L 46.769531 18.0625 C 46.597656 18.0625 46.453125 18.0625 46.339844 18.0625 C 46.167969 18.003906 45.996094 17.976562 45.824219 17.976562 C 45.367188 17.976562 44.878906 18.003906 44.363281 18.0625 C 43.847656 18.121094 43.363281 18.207031 42.90625 18.320312 C 42.90625 18.378906 43.132812 18.808594 43.589844 19.617188 Z M 63.253906 38.605469 C 62.796875 36.824219 62.453125 35.441406 62.226562 34.464844 C 61.652344 34.519531 61.367188 34.605469 61.367188 34.722656 C 61.59375 35.414062 61.824219 36.101562 62.054688 36.792969 C 62.28125 37.484375 62.539062 38.144531 62.828125 38.777344 C 62.882812 38.777344 63.027344 38.722656 63.253906 38.605469 Z M 48.226562 21.859375 C 48.113281 21.34375 47.96875 20.882812 47.800781 20.480469 C 47.628906 20.132812 47.484375 19.847656 47.371094 19.617188 C 45.765625 19.617188 44.648438 19.730469 44.019531 19.960938 C 44.078125 20.363281 44.308594 20.679688 44.707031 20.910156 C 45.050781 21.140625 45.453125 21.34375 45.910156 21.515625 C 46.308594 21.628906 46.738281 21.6875 47.199219 21.6875 C 47.597656 21.746094 47.941406 21.800781 48.226562 21.859375 Z M 67.808594 45.082031 L 68.320312 39.730469 L 68.234375 39.554688 C 68.234375 39.554688 68.148438 39.585938 67.980469 39.640625 C 67.75 39.699219 67.519531 39.816406 67.292969 39.988281 C 67.003906 40.160156 66.777344 40.390625 66.605469 40.679688 C 66.375 40.910156 66.261719 41.195312 66.261719 41.542969 C 66.261719 42.175781 66.375 42.921875 66.605469 43.785156 C 66.777344 44.648438 67.175781 45.082031 67.808594 45.082031 Z M 32.941406 8.566406 L 33.628906 8.652344 C 33.628906 8.308594 33.601562 8.136719 33.542969 8.136719 C 33.429688 8.25 33.34375 8.335938 33.285156 8.394531 C 33.171875 8.453125 33.058594 8.507812 32.941406 8.566406 Z M 54.066406 27.472656 L 51.921875 26.523438 C 51.863281 26.578125 51.632812 26.695312 51.234375 26.867188 C 50.832031 26.980469 50.605469 27.183594 50.546875 27.472656 C 51.347656 28.21875 52.179688 28.792969 53.035156 29.199219 C 53.265625 28.792969 53.464844 28.449219 53.636719 28.160156 C 53.808594 27.929688 53.953125 27.703125 54.066406 27.472656 Z M 57.675781 33.082031 C 57.675781 32.738281 57.359375 32.332031 56.730469 31.875 L 56.300781 32.304688 C 57.042969 33.054688 57.472656 33.425781 57.589844 33.425781 C 57.644531 33.371094 57.675781 33.253906 57.675781 33.082031 Z M 61.796875 39.210938 L 62.484375 39.039062 C 62.082031 37.828125 61.796875 36.910156 61.625 36.277344 C 61.394531 35.644531 61.253906 35.210938 61.195312 34.980469 C 61.082031 34.75 60.996094 34.636719 60.9375 34.636719 C 60.9375 34.636719 60.878906 34.636719 60.765625 34.636719 C 60.019531 34.695312 59.648438 35.066406 59.648438 35.757812 Z M 48.140625 22.207031 L 44.363281 21.34375 L 44.363281 22.03125 C 44.765625 22.03125 45.367188 22.148438 46.167969 22.378906 C 46.96875 22.664062 47.597656 22.808594 48.054688 22.808594 C 48.113281 22.636719 48.140625 22.4375 48.140625 22.207031 Z M 33.714844 10.035156 C 33.714844 9.226562 33.515625 8.796875 33.113281 8.738281 C 32.65625 8.738281 32.429688 8.738281 32.429688 8.738281 C 31.796875 9.371094 31.484375 9.863281 31.484375 10.207031 L 31.484375 10.464844 C 32.457031 10.410156 33.199219 10.265625 33.714844 10.035156 Z M 47.96875 23.070312 L 44.363281 22.207031 L 44.105469 23.242188 C 44.851562 23.644531 45.480469 23.988281 45.996094 24.277344 C 46.511719 24.566406 46.96875 24.796875 47.371094 24.96875 C 47.484375 24.566406 47.597656 24.191406 47.714844 23.84375 C 47.828125 23.558594 47.914062 23.300781 47.96875 23.070312 Z M 66.347656 44.5625 C 66.289062 43.929688 66.234375 43.382812 66.175781 42.921875 C 66.117188 42.460938 66.03125 42.089844 65.917969 41.800781 C 65.632812 41.914062 65.375 42.089844 65.144531 42.320312 C 64.914062 42.492188 64.660156 42.691406 64.371094 42.921875 C 64.488281 44.1875 64.6875 45.023438 64.972656 45.425781 C 65.375 44.90625 65.832031 44.621094 66.347656 44.5625 Z M 82.234375 60.792969 C 81.945312 59.410156 81.746094 58.71875 81.632812 58.71875 C 80.945312 60.042969 80.601562 60.761719 80.601562 60.878906 C 80.601562 61.394531 80.773438 61.65625 81.117188 61.65625 C 81.289062 61.65625 81.660156 61.367188 82.234375 60.792969 Z M 35.519531 13.402344 L 34.488281 11.589844 C 34.375 11.589844 34.144531 11.644531 33.800781 11.761719 C 33.402344 11.933594 33.085938 12.019531 32.855469 12.019531 C 33.144531 11.90625 33.429688 11.789062 33.714844 11.675781 C 33.945312 11.558594 34.144531 11.472656 34.316406 11.414062 C 34.316406 11.300781 34.289062 11.128906 34.230469 10.898438 C 34.117188 10.726562 34.058594 10.582031 34.058594 10.464844 C 32.800781 10.582031 31.96875 10.753906 31.570312 10.984375 C 31.742188 11.617188 31.914062 12.046875 32.085938 12.277344 C 32.257812 12.222656 32.484375 12.191406 32.773438 12.191406 L 32.257812 12.625 C 32.65625 13.371094 32.886719 13.804688 32.941406 13.917969 C 34.03125 13.6875 34.890625 13.515625 35.519531 13.402344 Z M 81.375 58.203125 C 81.375 57.800781 81.175781 57.425781 80.773438 57.078125 C 80.542969 57.078125 80.371094 57.253906 80.257812 57.597656 C 80.085938 57.941406 79.972656 58.144531 79.914062 58.203125 C 79.914062 57.742188 80.027344 57.308594 80.257812 56.90625 C 79.800781 56.90625 79.398438 57.050781 79.054688 57.339844 C 78.710938 57.683594 78.339844 58.058594 77.941406 58.460938 L 77.941406 60.445312 C 78.742188 60.445312 79.226562 60.160156 79.398438 59.582031 C 79.515625 59.007812 79.601562 58.660156 79.65625 58.546875 C 79.714844 58.605469 79.742188 58.71875 79.742188 58.890625 C 79.742188 59.179688 79.6875 59.46875 79.570312 59.753906 C 79.457031 59.984375 79.398438 60.128906 79.398438 60.1875 C 79.398438 60.476562 79.515625 60.648438 79.742188 60.703125 C 79.972656 60.703125 80.144531 60.761719 80.257812 60.878906 C 80.257812 60.589844 80.457031 60.128906 80.859375 59.496094 C 81.203125 58.921875 81.375 58.488281 81.375 58.203125 Z M 46.941406 26.003906 L 47.199219 25.3125 L 43.933594 23.5 C 43.535156 24.019531 43.332031 24.535156 43.332031 25.054688 L 43.332031 25.3125 Z M 82.492188 62 C 82.492188 61.769531 82.433594 61.539062 82.320312 61.308594 C 81.976562 61.539062 81.773438 61.683594 81.71875 61.742188 C 81.71875 61.914062 81.917969 62.230469 82.320312 62.691406 C 82.433594 62.34375 82.492188 62.113281 82.492188 62 Z M 35.691406 15.300781 L 35.777344 13.832031 C 33.886719 14.121094 32.941406 14.292969 32.941406 14.351562 L 33.027344 15.472656 Z M 64.457031 45.945312 L 63.941406 42.835938 L 63.167969 42.835938 C 63.167969 42.894531 63.199219 42.921875 63.253906 42.921875 C 63.3125 42.921875 63.339844 43.007812 63.339844 43.183594 C 63.339844 43.355469 63.3125 43.640625 63.253906 44.042969 C 63.140625 44.449219 63.082031 44.851562 63.082031 45.253906 C 63.082031 45.484375 63.113281 45.683594 63.167969 45.859375 C 63.167969 46.085938 63.3125 46.203125 63.597656 46.203125 C 63.828125 46.203125 64.113281 46.117188 64.457031 45.945312 Z M 46.425781 27.644531 L 46.769531 26.347656 L 43.246094 25.660156 L 43.074219 26.695312 Z M 32.773438 17.113281 L 35.863281 16.421875 L 35.863281 15.816406 L 32.855469 15.730469 C 32.6875 16.191406 32.601562 16.535156 32.601562 16.765625 C 32.601562 16.882812 32.65625 16.996094 32.773438 17.113281 Z M 37.839844 19.097656 C 37.550781 18.695312 37.292969 18.351562 37.066406 18.0625 C 36.835938 17.773438 36.605469 17.542969 36.378906 17.371094 C 35.863281 17.660156 35.433594 17.890625 35.089844 18.0625 C 34.746094 18.292969 34.515625 18.464844 34.402344 18.578125 L 34.402344 18.753906 C 34.574219 18.808594 34.71875 18.953125 34.832031 19.183594 C 34.890625 19.472656 35.0625 19.617188 35.347656 19.617188 C 35.804688 19.617188 36.292969 19.53125 36.808594 19.355469 C 37.265625 19.242188 37.609375 19.15625 37.839844 19.097656 Z M 43.074219 27.644531 L 46.339844 28.421875 L 46.339844 28.246094 C 44.792969 27.5 43.734375 27.125 43.160156 27.125 Z M 77.425781 60.53125 L 77.511719 58.890625 C 76.59375 59.296875 76.023438 59.582031 75.792969 59.753906 C 75.90625 60.042969 75.992188 60.332031 76.050781 60.617188 C 76.109375 60.847656 76.164062 61.050781 76.222656 61.222656 Z M 35.949219 17.027344 L 35.949219 16.765625 C 34.003906 16.996094 32.941406 17.34375 32.773438 17.804688 C 33.113281 18.261719 33.488281 18.492188 33.886719 18.492188 C 34.347656 18.148438 34.746094 17.859375 35.089844 17.628906 C 35.433594 17.34375 35.71875 17.140625 35.949219 17.027344 Z M 38.09375 20.304688 C 38.09375 19.960938 38.066406 19.703125 38.007812 19.53125 C 37.378906 19.644531 36.777344 19.730469 36.207031 19.789062 C 35.578125 19.847656 35.261719 19.988281 35.261719 20.21875 C 35.261719 20.796875 35.578125 21.082031 36.207031 21.082031 C 36.777344 21.027344 37.378906 21.054688 38.007812 21.167969 C 38.066406 20.996094 38.09375 20.710938 38.09375 20.304688 Z M 75.707031 60.878906 C 75.707031 60.589844 75.648438 60.332031 75.535156 60.101562 C 75.421875 59.871094 75.304688 59.753906 75.191406 59.753906 C 75.132812 59.753906 75.078125 59.785156 75.019531 59.839844 L 75.019531 61.566406 L 75.191406 61.566406 C 75.535156 61.566406 75.707031 61.339844 75.707031 60.878906 Z M 67.292969 55.4375 L 69.523438 52.851562 L 69.523438 52.761719 C 69.523438 52.476562 69.152344 52.128906 68.40625 51.726562 C 67.835938 52.707031 67.40625 53.484375 67.121094 54.058594 C 66.777344 54.574219 66.574219 54.921875 66.519531 55.09375 C 66.691406 55.210938 66.832031 55.296875 66.949219 55.351562 C 67.0625 55.351562 67.175781 55.382812 67.292969 55.4375 Z M 70.8125 55.09375 C 70.527344 54.058594 70.152344 53.394531 69.695312 53.109375 L 67.550781 55.699219 C 67.949219 55.984375 68.292969 56.246094 68.578125 56.476562 C 68.808594 56.707031 69.007812 56.878906 69.179688 56.992188 C 70.210938 55.785156 70.753906 55.152344 70.8125 55.09375 Z M 37.667969 22.980469 L 37.921875 21.601562 L 35.605469 21.515625 C 35.605469 21.746094 35.519531 22.0625 35.347656 22.464844 C 35.117188 22.867188 35.003906 23.183594 35.003906 23.414062 C 35.578125 23.300781 36.09375 23.210938 36.550781 23.15625 C 37.007812 23.097656 37.378906 23.039062 37.667969 22.980469 Z M 68.148438 51.554688 C 67.921875 51.441406 67.722656 51.382812 67.550781 51.382812 C 67.378906 51.324219 67.234375 51.265625 67.121094 51.210938 C 65.515625 53.339844 64.714844 54.433594 64.714844 54.488281 L 66.003906 54.921875 C 66.460938 54.171875 66.890625 53.539062 67.292969 53.023438 C 67.636719 52.445312 67.921875 51.957031 68.148438 51.554688 Z M 70.125 58.71875 L 71.15625 57.597656 L 70.8125 55.613281 C 70.527344 56.015625 70.269531 56.359375 70.039062 56.648438 C 69.753906 56.9375 69.523438 57.195312 69.351562 57.425781 C 69.523438 57.886719 69.78125 58.316406 70.125 58.71875 Z M 66.777344 50.949219 C 66.605469 50.777344 66.261719 50.691406 65.746094 50.691406 C 65.34375 50.691406 65 50.71875 64.714844 50.777344 L 63.339844 54.230469 C 63.398438 54.230469 63.457031 54.203125 63.511719 54.144531 C 63.511719 54.144531 63.542969 54.144531 63.597656 54.144531 C 63.828125 54.144531 64.113281 54.230469 64.457031 54.402344 C 64.972656 53.597656 65.429688 52.90625 65.832031 52.332031 C 66.175781 51.8125 66.488281 51.351562 66.777344 50.949219 Z M 74.675781 60.617188 C 74.675781 60.332031 74.648438 60.128906 74.589844 60.015625 L 73.046875 60.015625 L 72.359375 61.914062 C 72.53125 61.972656 72.703125 62.027344 72.875 62.085938 C 72.988281 62.085938 73.160156 62.085938 73.386719 62.085938 C 74.019531 62.085938 74.390625 61.941406 74.503906 61.65625 C 74.621094 61.425781 74.675781 61.078125 74.675781 60.617188 Z M 71.414062 58.71875 L 71.328125 57.941406 C 70.699219 58.289062 70.382812 58.71875 70.382812 59.238281 C 70.382812 59.410156 70.441406 59.496094 70.554688 59.496094 C 70.726562 59.496094 70.898438 59.351562 71.070312 59.066406 C 71.242188 58.835938 71.355469 58.71875 71.414062 58.71875 Z M 37.921875 23.933594 C 37.921875 23.875 37.867188 23.671875 37.753906 23.328125 L 34.832031 23.84375 L 34.574219 24.535156 C 34.859375 24.480469 35.375 24.363281 36.121094 24.191406 C 36.863281 24.019531 37.464844 23.933594 37.921875 23.933594 Z M 72.703125 59.839844 L 71.585938 58.890625 C 71.414062 59.179688 71.269531 59.4375 71.15625 59.667969 C 71.042969 59.839844 70.925781 59.984375 70.8125 60.101562 C 71.441406 60.964844 71.871094 61.453125 72.101562 61.566406 C 72.386719 60.703125 72.585938 60.128906 72.703125 59.839844 Z M 39.640625 25.746094 C 39.640625 25.515625 39.5 25.34375 39.210938 25.226562 C 38.925781 25.113281 38.554688 24.824219 38.09375 24.363281 L 34.402344 24.882812 C 34.402344 24.9375 34.402344 24.996094 34.402344 25.054688 C 34.347656 25.113281 34.316406 25.199219 34.316406 25.3125 C 34.316406 25.429688 34.375 25.773438 34.488281 26.347656 C 34.433594 26.347656 34.832031 26.320312 35.691406 26.261719 C 36.550781 26.148438 37.867188 25.976562 39.640625 25.746094 Z M 64.371094 50.949219 C 64.257812 50.894531 64.085938 50.863281 63.855469 50.863281 C 63.457031 50.863281 63.140625 51.007812 62.914062 51.296875 C 62.683594 51.582031 62.511719 51.898438 62.398438 52.246094 C 62.226562 52.589844 62.109375 52.9375 62.054688 53.28125 C 61.9375 53.625 61.851562 53.886719 61.796875 54.058594 L 62.914062 54.144531 C 63.199219 53.394531 63.484375 52.761719 63.769531 52.246094 C 64 51.726562 64.199219 51.296875 64.371094 50.949219 Z M 40.070312 26.695312 C 40.011719 26.636719 39.984375 26.578125 39.984375 26.523438 L 39.898438 26.089844 C 38.753906 26.207031 37.753906 26.320312 36.894531 26.433594 C 36.035156 26.550781 35.320312 26.664062 34.746094 26.78125 C 34.804688 27.183594 35.03125 27.613281 35.433594 28.074219 L 39.039062 27.210938 C 39.039062 27.210938 39.210938 27.183594 39.554688 27.125 C 39.898438 27.066406 40.070312 26.925781 40.070312 26.695312 Z M 75.191406 69.511719 C 75.363281 69.511719 75.25 69.511719 74.847656 69.511719 C 74.449219 69.511719 74.246094 69.566406 74.246094 69.683594 C 74.246094 69.738281 74.304688 69.828125 74.417969 69.941406 C 74.875 69.828125 75.132812 69.683594 75.191406 69.511719 Z M 22.980469 18.925781 L 24.269531 18.753906 L 24.011719 17.804688 C 23.496094 17.976562 23.152344 18.351562 22.980469 18.925781 Z M 25.042969 22.121094 L 26.847656 21.515625 C 26.558594 21.226562 26.300781 20.996094 26.074219 20.824219 C 25.789062 20.59375 25.585938 20.421875 25.472656 20.304688 L 24.355469 21.429688 Z M 25.214844 19.875 C 24.984375 19.242188 24.585938 18.925781 24.011719 18.925781 C 23.898438 18.925781 23.640625 18.984375 23.238281 19.097656 C 22.839844 19.15625 22.640625 19.328125 22.640625 19.617188 C 22.640625 20.078125 23.039062 20.566406 23.839844 21.082031 C 24.585938 20.738281 25.042969 20.335938 25.214844 19.875 Z M 73.988281 69.941406 L 73.988281 69.511719 C 73.703125 69.453125 73.503906 69.421875 73.386719 69.421875 C 73.214844 69.367188 73.101562 69.335938 73.046875 69.335938 C 72.816406 69.335938 72.644531 69.394531 72.53125 69.511719 C 72.070312 68.820312 71.699219 68.445312 71.414062 68.386719 C 71.128906 68.445312 70.925781 68.789062 70.8125 69.421875 C 70.871094 69.421875 71.011719 69.480469 71.242188 69.597656 C 71.472656 69.769531 71.726562 69.855469 72.015625 69.855469 C 72.242188 69.855469 72.386719 69.738281 72.445312 69.511719 L 72.617188 69.941406 C 72.789062 70 73.015625 70.027344 73.300781 70.027344 C 73.644531 70.027344 73.875 70 73.988281 69.941406 Z M 28.304688 26.347656 L 29.765625 24.707031 L 29.765625 24.449219 L 28.90625 23.242188 C 28.335938 23.242188 27.960938 23.269531 27.789062 23.328125 L 28.5625 22.894531 C 27.761719 22.148438 27.21875 21.773438 26.933594 21.773438 C 25.730469 21.773438 25.128906 22.089844 25.128906 22.722656 C 25.128906 22.78125 25.1875 22.953125 25.300781 23.242188 C 25.414062 23.585938 25.472656 23.875 25.472656 24.105469 L 25.472656 24.277344 C 25.757812 24.21875 25.988281 24.164062 26.160156 24.105469 C 26.332031 24.046875 26.472656 23.988281 26.589844 23.933594 C 26.359375 24.046875 26.1875 24.164062 26.074219 24.277344 C 25.902344 24.390625 25.757812 24.480469 25.644531 24.535156 C 26.675781 25.515625 27.5625 26.117188 28.304688 26.347656 Z M 68.75 63.726562 C 68.695312 63.324219 68.292969 63.035156 67.550781 62.863281 C 66.917969 64.015625 66.519531 64.90625 66.347656 65.539062 C 66.460938 65.652344 66.574219 65.742188 66.691406 65.796875 C 66.804688 65.855469 66.917969 65.914062 67.035156 65.96875 C 67.433594 65.511719 67.777344 65.078125 68.066406 64.675781 C 68.351562 64.332031 68.578125 64.015625 68.75 63.726562 Z M 31.226562 26.867188 C 30.710938 26.003906 30.28125 25.398438 29.9375 25.054688 C 29.136719 25.800781 28.621094 26.347656 28.390625 26.695312 C 28.679688 27.328125 28.851562 27.789062 28.90625 28.074219 C 29.824219 27.671875 30.597656 27.269531 31.226562 26.867188 Z M 67.722656 66.402344 L 69.265625 64.675781 L 69.265625 64.589844 C 69.265625 64.417969 69.152344 64.246094 68.921875 64.070312 C 68.523438 64.53125 68.207031 64.933594 67.980469 65.28125 C 67.691406 65.625 67.464844 65.914062 67.292969 66.144531 C 67.40625 66.257812 67.492188 66.34375 67.550781 66.402344 C 67.605469 66.402344 67.636719 66.402344 67.636719 66.402344 Z M 70.46875 69.078125 L 71.070312 68.214844 C 71.070312 67.695312 70.8125 67.378906 70.296875 67.265625 C 70.011719 67.265625 69.839844 67.292969 69.78125 67.351562 L 70.039062 67.007812 C 69.925781 66.546875 69.808594 66.171875 69.695312 65.882812 C 69.582031 65.597656 69.46875 65.335938 69.351562 65.105469 C 68.492188 65.914062 68.066406 66.375 68.066406 66.488281 C 68.066406 66.488281 68.40625 66.949219 69.09375 67.871094 L 69.695312 67.4375 L 69.78125 67.523438 L 69.351562 67.957031 C 69.351562 68.242188 69.46875 68.472656 69.695312 68.648438 C 69.925781 68.820312 70.183594 68.964844 70.46875 69.078125 Z M 61.96875 58.117188 C 61.625 57.480469 61.308594 57.164062 61.023438 57.164062 L 60.9375 57.164062 L 59.21875 59.152344 L 59.132812 59.582031 C 59.304688 59.753906 59.449219 59.839844 59.5625 59.839844 C 59.734375 59.839844 59.933594 59.753906 60.164062 59.582031 C 60.394531 59.410156 60.652344 59.238281 60.9375 59.066406 C 61.167969 58.835938 61.394531 58.632812 61.625 58.460938 C 61.796875 58.230469 61.910156 58.117188 61.96875 58.117188 Z M 29.851562 30.0625 L 32.257812 29.109375 C 32.027344 28.363281 31.742188 27.730469 31.398438 27.210938 L 29.078125 28.507812 C 29.25 29.3125 29.507812 29.832031 29.851562 30.0625 Z M 62.65625 59.238281 C 62.65625 58.835938 62.511719 58.546875 62.226562 58.375 C 61.710938 58.777344 61.253906 59.121094 60.851562 59.410156 C 60.449219 59.699219 60.105469 59.929688 59.820312 60.101562 C 60.222656 60.792969 60.535156 61.25 60.765625 61.480469 C 61.109375 61.136719 61.507812 60.761719 61.96875 60.359375 C 62.425781 59.957031 62.65625 59.582031 62.65625 59.238281 Z M 67.035156 63.121094 C 66.519531 63.238281 66.089844 63.324219 65.746094 63.382812 C 65.34375 63.4375 65.03125 63.496094 64.800781 63.554688 L 63.941406 65.105469 C 63.941406 65.105469 64.027344 65.164062 64.199219 65.28125 C 64.371094 65.335938 64.660156 65.425781 65.058594 65.539062 L 65.402344 65.539062 C 65.917969 65.539062 66.289062 65.25 66.519531 64.675781 C 66.691406 64.15625 66.863281 63.640625 67.035156 63.121094 Z M 64.371094 63.46875 C 64.199219 63.410156 64.027344 63.292969 63.855469 63.121094 C 63.683594 63.007812 63.511719 62.949219 63.339844 62.949219 C 63.339844 62.949219 63.226562 63.007812 63 63.121094 C 63 63.121094 62.96875 63.121094 62.914062 63.121094 C 62.914062 63.121094 62.914062 63.09375 62.914062 63.035156 C 62.914062 62.976562 62.941406 62.921875 63 62.863281 C 63 62.804688 63 62.71875 63 62.605469 C 63 62.488281 62.882812 62.34375 62.65625 62.171875 C 62.710938 61.941406 62.769531 61.742188 62.828125 61.566406 C 62.828125 61.394531 62.828125 61.222656 62.828125 61.050781 C 62.828125 60.703125 62.742188 60.386719 62.570312 60.101562 L 61.109375 61.566406 L 61.109375 61.65625 C 61.109375 61.769531 61.339844 62.144531 61.796875 62.777344 L 62.570312 62.429688 C 62.398438 62.605469 62.253906 62.746094 62.140625 62.863281 C 61.96875 62.921875 61.882812 63.007812 61.882812 63.121094 C 61.882812 63.351562 61.996094 63.46875 62.226562 63.46875 C 62.398438 63.46875 62.570312 63.382812 62.742188 63.207031 L 62.828125 63.382812 C 62.710938 63.496094 62.65625 63.554688 62.65625 63.554688 L 62.570312 63.554688 L 62.570312 64.070312 C 62.914062 64.417969 63.253906 64.675781 63.597656 64.847656 C 64.113281 63.984375 64.371094 63.523438 64.371094 63.46875 Z M 62.742188 46.375 C 62.683594 45.28125 62.65625 44.449219 62.65625 43.871094 C 62.65625 43.296875 62.65625 42.980469 62.65625 42.921875 L 61.28125 42.921875 C 61.050781 42.230469 60.878906 41.628906 60.765625 41.109375 C 60.59375 40.59375 60.480469 40.160156 60.421875 39.816406 L 61.28125 39.125 C 60.136719 37.167969 59.5625 36.191406 59.5625 36.191406 L 58.789062 37.226562 L 56.300781 34.808594 L 57.160156 33.773438 L 56.214844 32.476562 L 54.667969 33.511719 C 54.039062 33.109375 53.496094 32.765625 53.035156 32.476562 C 52.578125 32.191406 52.207031 31.960938 51.921875 31.789062 L 52.4375 30.40625 L 51.0625 29.628906 L 52.609375 30.0625 L 52.867188 29.542969 C 52.234375 29.140625 51.71875 28.824219 51.320312 28.59375 C 50.863281 28.304688 50.488281 28.046875 50.203125 27.816406 L 49.945312 28.851562 L 51.148438 29.542969 L 49.773438 29.109375 L 49.34375 30.664062 C 49.058594 30.378906 48.542969 30.175781 47.800781 30.0625 C 47.054688 29.945312 46.539062 29.773438 46.253906 29.542969 L 46.253906 28.851562 C 45.222656 28.507812 44.164062 28.246094 43.074219 28.074219 L 42.90625 29.199219 L 39.898438 29.199219 L 39.898438 27.296875 L 35.605469 28.421875 L 36.378906 29.628906 C 35.75 29.972656 35.203125 30.289062 34.746094 30.578125 C 34.230469 30.808594 33.800781 30.980469 33.457031 31.097656 L 33.027344 30.492188 C 32.34375 30.894531 31.769531 31.328125 31.3125 31.789062 L 31.054688 31.699219 L 32.855469 30.148438 L 32.34375 29.371094 C 30.796875 30.0625 29.996094 30.40625 29.9375 30.40625 C 30.511719 31.210938 30.941406 31.960938 31.226562 32.652344 C 29.964844 33.628906 29.136719 34.492188 28.734375 35.238281 L 27.707031 34.550781 C 26.046875 35.699219 25.070312 36.765625 24.785156 37.742188 L 26.246094 38.519531 C 26.128906 39.382812 25.960938 40.046875 25.730469 40.503906 C 25.445312 40.964844 25.1875 41.3125 24.957031 41.542969 C 24.726562 41.714844 24.527344 41.828125 24.355469 41.886719 C 24.128906 41.886719 23.984375 41.914062 23.925781 41.972656 L 23.839844 41.800781 L 22.296875 41.714844 C 22.410156 42.980469 22.4375 43.785156 22.382812 44.132812 C 22.324219 44.417969 22.410156 44.5625 22.640625 44.5625 C 22.980469 44.5625 23.238281 44.417969 23.410156 44.132812 C 23.527344 43.785156 23.613281 43.441406 23.667969 43.09375 C 23.785156 42.75 23.839844 42.460938 23.839844 42.230469 C 23.839844 41.945312 23.839844 41.828125 23.839844 41.886719 C 23.957031 42.347656 24.011719 42.75 24.011719 43.09375 C 24.011719 43.382812 23.957031 43.816406 23.839844 44.390625 L 24.699219 44.648438 L 24.699219 44.90625 C 24.699219 45.195312 24.757812 45.570312 24.871094 46.03125 C 24.929688 46.492188 24.957031 46.949219 24.957031 47.410156 C 24.957031 47.757812 24.898438 48.101562 24.785156 48.449219 L 23.238281 48.621094 L 24.699219 51.554688 L 25.902344 51.296875 C 25.960938 51.527344 26.1875 51.988281 26.589844 52.675781 C 26.988281 53.367188 27.191406 53.941406 27.191406 54.402344 L 26.332031 55.007812 L 26.847656 56.476562 C 27.132812 56.878906 27.417969 57.253906 27.707031 57.597656 C 27.933594 57.886719 28.105469 58.144531 28.21875 58.375 L 29.421875 57.425781 C 30.683594 58 31.511719 58.546875 31.914062 59.066406 L 30.882812 60.445312 C 31.453125 60.734375 31.941406 60.964844 32.34375 61.136719 C 32.6875 61.308594 33 61.453125 33.285156 61.566406 L 33.714844 60.359375 C 34.859375 60.761719 35.804688 61.164062 36.550781 61.566406 L 36.292969 62.605469 L 37.753906 63.292969 C 38.039062 62.660156 38.410156 62.34375 38.867188 62.34375 C 39.15625 62.34375 39.640625 62.488281 40.328125 62.777344 C 40.957031 63.066406 41.445312 63.207031 41.789062 63.207031 L 41.703125 64.070312 C 43.191406 64.53125 44.277344 64.789062 44.964844 64.847656 C 45.023438 64.101562 45.367188 63.667969 45.996094 63.554688 L 47.714844 63.554688 L 47.96875 64.675781 L 51.234375 64.675781 L 50.976562 63.382812 C 51.089844 63.265625 51.433594 63.09375 52.007812 62.863281 C 52.578125 62.632812 53.007812 62.519531 53.292969 62.519531 C 53.636719 62.519531 54.066406 62.777344 54.582031 63.292969 L 56.128906 61.480469 L 55.441406 60.878906 C 55.898438 60.417969 56.300781 60.015625 56.644531 59.667969 C 56.988281 59.265625 57.273438 58.921875 57.503906 58.632812 L 58.789062 59.238281 C 59.535156 58.316406 60.136719 57.539062 60.59375 56.90625 C 59.277344 56.5625 58.617188 56.128906 58.617188 55.613281 C 58.617188 54.863281 59.535156 54.347656 61.367188 54.058594 L 62.3125 51.210938 L 60.679688 50.863281 C 60.679688 50.808594 60.738281 50.578125 60.851562 50.171875 C 60.910156 49.714844 60.996094 49.050781 61.109375 48.1875 C 61.339844 46.921875 61.738281 46.289062 62.3125 46.289062 C 62.484375 46.289062 62.625 46.316406 62.742188 46.375 Z M 57.675781 62.605469 C 57.160156 62.144531 56.902344 61.882812 56.902344 61.828125 C 56.84375 61.828125 56.757812 61.828125 56.644531 61.828125 C 56.644531 61.828125 56.558594 61.882812 56.386719 62 C 56.214844 62.058594 56.015625 62.144531 55.785156 62.257812 C 55.613281 62.429688 55.441406 62.632812 55.269531 62.863281 C 55.039062 63.09375 54.925781 63.351562 54.925781 63.640625 C 54.925781 63.753906 55.039062 63.984375 55.269531 64.332031 C 55.671875 64.101562 56.070312 63.839844 56.472656 63.554688 C 56.816406 63.265625 57.214844 62.949219 57.675781 62.605469 Z M 59.046875 65.28125 C 58.761719 64.128906 58.390625 63.351562 57.933594 62.949219 L 55.613281 64.332031 L 55.613281 64.417969 C 55.613281 64.53125 55.640625 64.820312 55.699219 65.28125 C 55.757812 65.683594 56.101562 65.882812 56.730469 65.882812 C 57.015625 65.882812 57.417969 65.769531 57.933594 65.539062 C 58.503906 65.367188 58.875 65.28125 59.046875 65.28125 Z M 59.21875 66.058594 C 59.105469 65.769531 58.992188 65.625 58.875 65.625 C 58.417969 65.625 57.960938 65.710938 57.503906 65.882812 C 57.042969 66.058594 56.699219 66.171875 56.472656 66.230469 L 56.558594 66.660156 L 56.988281 66.660156 C 57.445312 66.660156 57.847656 66.605469 58.1875 66.488281 C 58.53125 66.375 58.875 66.230469 59.21875 66.058594 Z M 64.714844 71.582031 L 64.714844 71.324219 C 64.714844 70.691406 64.402344 70.371094 63.769531 70.371094 C 63.542969 70.371094 62.769531 70.949219 61.453125 72.097656 C 61.738281 72.386719 62.023438 72.53125 62.3125 72.53125 C 62.65625 72.53125 63.140625 72.359375 63.769531 72.011719 C 64.34375 71.726562 64.660156 71.582031 64.714844 71.582031 Z M 62.914062 70.285156 L 62.742188 70.285156 C 62.625 70.285156 62.453125 70.285156 62.226562 70.285156 C 61.996094 70.230469 61.679688 70.171875 61.28125 70.113281 C 61.222656 70.230469 61.023438 70.429688 60.679688 70.71875 C 60.335938 71.0625 60.164062 71.378906 60.164062 71.667969 C 60.566406 71.78125 60.910156 71.871094 61.195312 71.925781 C 62.339844 70.890625 62.914062 70.34375 62.914062 70.285156 Z M 57.160156 68.734375 L 59.21875 67.957031 L 59.132812 66.488281 L 56.730469 67.007812 C 56.957031 68.15625 57.101562 68.734375 57.160156 68.734375 Z M 64.714844 72.011719 C 64.257812 72.300781 63.769531 72.503906 63.253906 72.617188 C 62.683594 72.734375 62.398438 72.875 62.398438 73.050781 C 62.398438 73.164062 62.484375 73.367188 62.65625 73.652344 C 62.769531 73.882812 62.828125 74.113281 62.828125 74.34375 C 62.828125 74.457031 62.796875 74.546875 62.742188 74.601562 L 63.855469 74.085938 C 64.316406 73.277344 64.601562 72.589844 64.714844 72.011719 Z M 26.074219 33.167969 C 24.640625 32.652344 23.925781 32.363281 23.925781 32.304688 C 23.871094 32.304688 23.613281 32.476562 23.152344 32.824219 C 22.695312 33.167969 22.46875 33.570312 22.46875 34.03125 C 22.46875 34.261719 22.554688 34.464844 22.726562 34.636719 C 22.894531 34.867188 23.039062 35.125 23.152344 35.414062 C 23.613281 35.125 24.070312 34.808594 24.527344 34.464844 C 25.042969 34.058594 25.558594 33.628906 26.074219 33.167969 Z M 27.191406 34.203125 C 27.019531 33.6875 26.789062 33.425781 26.503906 33.425781 C 26.101562 33.425781 25.703125 33.601562 25.300781 33.945312 C 24.898438 34.289062 24.554688 34.664062 24.269531 35.066406 C 23.925781 35.414062 23.667969 35.699219 23.496094 35.929688 C 23.269531 36.21875 23.152344 36.304688 23.152344 36.191406 C 23.613281 36.824219 24.070312 37.195312 24.527344 37.3125 C 25.101562 36.621094 25.617188 36.015625 26.074219 35.5 C 26.53125 34.980469 26.902344 34.550781 27.191406 34.203125 Z M 59.734375 69.164062 C 59.621094 68.703125 59.449219 68.386719 59.21875 68.214844 L 57.160156 69.25 C 57.558594 70 57.875 70.371094 58.101562 70.371094 C 58.503906 70.085938 58.847656 69.828125 59.132812 69.597656 C 59.363281 69.421875 59.5625 69.28125 59.734375 69.164062 Z M 60.9375 70.027344 L 59.992188 69.421875 C 59.132812 69.941406 58.5625 70.34375 58.273438 70.632812 C 58.5625 70.863281 58.820312 71.035156 59.046875 71.148438 C 59.277344 71.324219 59.507812 71.4375 59.734375 71.496094 C 60.25 71.035156 60.652344 70.546875 60.9375 70.027344 Z M 67.636719 77.363281 C 67.347656 76.847656 66.917969 76.558594 66.347656 76.5 C 66.0625 76.730469 65.832031 76.933594 65.660156 77.105469 C 65.429688 77.277344 65.257812 77.421875 65.144531 77.539062 C 65.546875 77.941406 65.773438 78.140625 65.832031 78.140625 L 65.917969 78.140625 C 66.949219 77.625 67.519531 77.363281 67.636719 77.363281 Z M 23.410156 32.21875 C 23.355469 32.21875 23.125 32.160156 22.726562 32.046875 C 22.324219 31.875 22.039062 31.789062 21.867188 31.789062 C 21.234375 32.476562 20.808594 33.109375 20.578125 33.6875 C 20.921875 33.742188 21.207031 33.773438 21.4375 33.773438 C 21.722656 33.773438 21.921875 33.800781 22.039062 33.859375 C 22.324219 33.457031 22.582031 33.140625 22.808594 32.910156 C 23.097656 32.621094 23.296875 32.390625 23.410156 32.21875 Z M 68.148438 78.316406 C 68.148438 77.96875 68.007812 77.738281 67.722656 77.625 C 67.777344 77.679688 67.207031 77.941406 66.003906 78.402344 C 66.003906 78.917969 66.289062 79.179688 66.863281 79.179688 C 67.089844 79.179688 67.378906 79.148438 67.722656 79.089844 C 68.007812 78.976562 68.148438 78.71875 68.148438 78.316406 Z M 62.828125 76.15625 L 64.800781 75.464844 C 64.574219 74.890625 64.402344 74.402344 64.285156 74 L 63.855469 74.257812 C 63.570312 74.429688 63.3125 74.601562 63.082031 74.777344 C 62.855469 74.949219 62.65625 75.09375 62.484375 75.207031 C 62.484375 75.378906 62.597656 75.695312 62.828125 76.15625 Z M 66.003906 76.15625 C 65.71875 75.867188 65.429688 75.726562 65.144531 75.726562 C 65.03125 75.726562 64.371094 75.957031 63.167969 76.414062 C 63.800781 76.992188 64.371094 77.308594 64.886719 77.363281 C 65.632812 76.617188 66.003906 76.214844 66.003906 76.15625 Z M 18 27.988281 L 18 27.816406 C 17.773438 27.527344 17.457031 27.386719 17.058594 27.386719 C 16.597656 27.386719 16.167969 27.613281 15.769531 28.074219 C 15.367188 28.535156 15.109375 28.882812 14.996094 29.109375 C 15.570312 29.457031 15.882812 29.628906 15.941406 29.628906 C 16.683594 28.9375 17.371094 28.390625 18 27.988281 Z M 67.722656 79.523438 L 67.722656 79.265625 C 67.664062 79.265625 67.464844 79.320312 67.121094 79.4375 C 66.71875 79.550781 66.519531 79.753906 66.519531 80.042969 C 66.574219 80.386719 66.71875 80.558594 66.949219 80.558594 C 67.464844 80.558594 67.722656 80.214844 67.722656 79.523438 Z M 16.972656 32.132812 L 18.773438 29.371094 C 18.71875 28.679688 18.515625 28.277344 18.171875 28.160156 C 17.714844 28.566406 17.316406 28.910156 16.972656 29.199219 C 16.570312 29.429688 16.253906 29.65625 16.027344 29.886719 C 16.542969 30.636719 16.855469 31.382812 16.972656 32.132812 Z M 21.265625 31.875 L 20.0625 31.527344 C 19.605469 31.757812 19.347656 31.875 19.289062 31.875 L 19.203125 31.875 L 19.71875 31.355469 C 19.375 30.550781 19.089844 30.003906 18.859375 29.714844 L 16.886719 32.738281 L 17.058594 33.425781 C 17.914062 32.910156 18.574219 32.449219 19.03125 32.046875 L 19.117188 32.132812 L 17.574219 33.6875 C 17.972656 34.089844 18.460938 34.289062 19.03125 34.289062 C 19.605469 34.289062 20.0625 34.03125 20.40625 33.511719 C 20.691406 32.9375 20.980469 32.390625 21.265625 31.875 Z M 15.941406 27.472656 C 15.023438 27.472656 14.421875 27.527344 14.136719 27.644531 C 13.792969 27.757812 13.621094 27.875 13.621094 27.988281 C 13.621094 28.160156 13.765625 28.335938 14.050781 28.507812 C 14.28125 28.679688 14.453125 28.765625 14.566406 28.765625 C 14.738281 28.765625 14.996094 28.566406 15.339844 28.160156 C 15.683594 27.757812 15.882812 27.527344 15.941406 27.472656 Z M 66.863281 80.902344 L 66.863281 80.816406 C 66.746094 80.875 66.632812 81.019531 66.519531 81.25 C 66.746094 81.191406 66.863281 81.078125 66.863281 80.902344 Z M 51.0625 65.96875 L 51.148438 64.933594 C 50.519531 64.933594 49.972656 64.933594 49.515625 64.933594 C 49.058594 64.933594 48.6875 64.964844 48.398438 65.019531 L 47.96875 65.019531 C 47.914062 65.019531 47.886719 65.105469 47.886719 65.28125 C 47.886719 65.453125 48.054688 65.597656 48.398438 65.710938 C 48.6875 65.769531 49 65.828125 49.34375 65.882812 C 49.746094 65.882812 50.117188 65.914062 50.460938 65.96875 C 50.804688 65.96875 51.003906 65.96875 51.0625 65.96875 Z M 50.890625 67.785156 L 51.0625 66.402344 C 49.746094 66.113281 48.800781 65.96875 48.226562 65.96875 L 47.800781 65.96875 L 48.054688 68.386719 C 49.601562 68.214844 50.546875 68.011719 50.890625 67.785156 Z M 50.890625 68.820312 C 50.890625 68.761719 50.832031 68.558594 50.71875 68.214844 C 50.089844 68.332031 49.574219 68.445312 49.171875 68.558594 C 48.714844 68.617188 48.34375 68.703125 48.054688 68.820312 C 48.285156 69.453125 48.457031 69.796875 48.570312 69.855469 C 48.570312 69.855469 48.6875 69.828125 48.914062 69.769531 C 49.203125 69.652344 49.488281 69.539062 49.773438 69.421875 C 50.058594 69.367188 50.316406 69.28125 50.546875 69.164062 C 50.777344 69.050781 50.890625 68.933594 50.890625 68.820312 Z M 53.035156 72.1875 C 52.523438 71.78125 52.148438 71.496094 51.921875 71.324219 C 51.632812 71.148438 51.460938 71.035156 51.40625 70.976562 C 50.71875 71.378906 50.261719 71.695312 50.03125 71.925781 C 50.03125 72.097656 50.089844 72.273438 50.203125 72.445312 C 50.375 72.617188 50.632812 72.703125 50.976562 72.703125 C 51.71875 72.703125 52.40625 72.53125 53.035156 72.1875 Z M 54.238281 73.480469 C 54.125 72.789062 53.839844 72.445312 53.378906 72.445312 C 53.152344 72.445312 52.808594 72.558594 52.351562 72.789062 C 51.835938 73.019531 51.492188 73.136719 51.320312 73.136719 C 51.375 73.652344 51.691406 73.914062 52.265625 73.914062 C 52.492188 73.914062 52.867188 73.855469 53.378906 73.738281 C 53.894531 73.625 54.183594 73.539062 54.238281 73.480469 Z M 51.234375 70.113281 L 50.890625 69.597656 C 49.628906 70 48.914062 70.199219 48.742188 70.199219 C 48.972656 70.546875 49.171875 70.863281 49.34375 71.148438 C 49.460938 71.378906 49.574219 71.554688 49.6875 71.667969 C 49.800781 71.554688 50.089844 71.378906 50.546875 71.148438 C 51.003906 70.863281 51.234375 70.515625 51.234375 70.113281 Z M 54.238281 74 C 54.238281 74 54.238281 73.96875 54.238281 73.914062 C 54.183594 73.914062 54.125 73.914062 54.066406 73.914062 C 53.78125 73.914062 53.09375 74 52.007812 74.171875 L 52.09375 75.378906 C 52.492188 75.496094 52.835938 75.582031 53.121094 75.636719 C 53.351562 75.636719 53.582031 75.667969 53.808594 75.726562 C 53.925781 75.320312 54.011719 75.003906 54.066406 74.777344 C 54.125 74.488281 54.183594 74.230469 54.238281 74 Z M 44.964844 65.195312 L 41.53125 64.503906 L 41.273438 65.539062 L 44.792969 65.796875 C 44.90625 65.453125 44.964844 65.25 44.964844 65.195312 Z M 21.953125 44.5625 C 21.894531 43.585938 21.867188 42.835938 21.867188 42.320312 C 21.867188 41.800781 21.867188 41.511719 21.867188 41.457031 L 21.007812 41.195312 L 20.492188 41.714844 L 20.492188 41.109375 L 19.804688 40.9375 L 18.773438 43.441406 C 19.003906 43.671875 19.234375 43.84375 19.460938 43.957031 C 19.691406 43.5 19.890625 43.09375 20.0625 42.75 C 20.175781 42.347656 20.292969 42.003906 20.40625 41.714844 C 20.347656 42.230469 20.261719 42.722656 20.148438 43.183594 C 20.035156 43.585938 19.917969 43.929688 19.804688 44.21875 C 20.207031 44.449219 20.921875 44.5625 21.953125 44.5625 Z M 18.515625 43.183594 L 19.460938 40.59375 C 18.71875 40.304688 18.230469 40.046875 18 39.816406 C 17.257812 40.851562 16.886719 41.367188 16.886719 41.367188 C 17.515625 42.347656 18.058594 42.953125 18.515625 43.183594 Z M 16.800781 41.28125 L 17.742188 39.640625 C 17.113281 39.296875 16.628906 39.125 16.285156 39.125 C 15.882812 39.125 15.625 39.355469 15.511719 39.816406 C 15.398438 40.332031 15.339844 40.707031 15.339844 40.9375 C 15.683594 41.050781 15.96875 41.140625 16.199219 41.195312 C 16.425781 41.253906 16.597656 41.28125 16.714844 41.28125 L 16.800781 41.28125 C 16.800781 41.339844 16.800781 41.367188 16.800781 41.367188 C 16.855469 41.367188 16.886719 41.367188 16.886719 41.367188 Z M 44.621094 66.402344 C 44.621094 66.289062 44.59375 66.199219 44.535156 66.144531 C 44.019531 65.914062 43.277344 65.796875 42.304688 65.796875 C 41.445312 65.796875 41.015625 66.058594 41.015625 66.574219 L 41.015625 66.746094 L 43.933594 67.785156 C 44.050781 67.496094 44.191406 67.238281 44.363281 67.007812 C 44.535156 66.777344 44.621094 66.574219 44.621094 66.402344 Z M 53.378906 76.070312 C 53.207031 75.957031 53.066406 75.867188 52.953125 75.8125 C 52.78125 75.753906 52.578125 75.726562 52.351562 75.726562 C 52.292969 75.726562 52.234375 75.753906 52.179688 75.8125 C 52.121094 75.8125 52.035156 75.8125 51.921875 75.8125 L 51.492188 77.277344 C 52.0625 77.277344 52.4375 77.308594 52.609375 77.363281 C 53.121094 76.960938 53.378906 76.53125 53.378906 76.070312 Z M 43.675781 68.300781 L 43.675781 68.042969 L 40.929688 67.265625 L 40.929688 67.957031 C 40.929688 68.359375 41.128906 68.617188 41.53125 68.734375 C 41.875 68.847656 42.246094 68.90625 42.648438 68.90625 C 43.332031 68.90625 43.675781 68.703125 43.675781 68.300781 Z M 53.207031 78.574219 C 53.207031 78.515625 53.121094 78.429688 52.953125 78.316406 C 52.953125 78.257812 52.980469 78.226562 53.035156 78.226562 C 53.035156 78.171875 53.035156 78.113281 53.035156 78.054688 C 53.035156 77.769531 52.78125 77.625 52.265625 77.625 L 51.492188 77.625 C 51.320312 77.96875 51.234375 78.257812 51.234375 78.488281 C 51.234375 79.003906 51.40625 79.265625 51.75 79.265625 C 51.863281 79.265625 52.09375 79.179688 52.4375 79.003906 C 52.78125 78.832031 53.007812 78.746094 53.121094 78.746094 C 53.121094 78.6875 53.121094 78.660156 53.121094 78.660156 C 53.179688 78.660156 53.207031 78.632812 53.207031 78.574219 Z M 15.167969 39.640625 C 14.882812 39.757812 14.652344 39.816406 14.480469 39.816406 C 14.253906 39.871094 14.082031 39.929688 13.964844 39.988281 L 13.449219 41.367188 C 13.679688 41.253906 13.851562 41.167969 13.964844 41.109375 C 14.082031 41.050781 14.195312 40.996094 14.308594 40.9375 C 14.421875 40.996094 14.566406 41.023438 14.738281 41.023438 C 15.023438 40.332031 15.167969 39.871094 15.167969 39.640625 Z M 56.730469 81.679688 C 56.613281 81.679688 56.472656 81.679688 56.300781 81.679688 C 56.128906 81.738281 55.984375 81.765625 55.871094 81.765625 C 55.699219 81.765625 55.527344 81.738281 55.355469 81.679688 C 55.242188 81.679688 55.097656 81.679688 54.925781 81.679688 C 55.328125 81.566406 55.671875 81.480469 55.957031 81.421875 C 56.1875 81.363281 56.386719 81.308594 56.558594 81.25 L 56.300781 80.992188 C 56.128906 80.933594 55.8125 80.816406 55.355469 80.644531 C 54.898438 80.414062 54.554688 80.300781 54.324219 80.300781 C 53.925781 80.300781 53.609375 80.472656 53.378906 80.816406 C 53.378906 81.164062 53.550781 81.421875 53.894531 81.59375 C 54.183594 81.765625 54.527344 81.855469 54.925781 81.855469 L 54.152344 82.113281 L 54.582031 82.890625 C 55.210938 82.890625 55.699219 82.832031 56.042969 82.71875 C 56.328125 82.601562 56.558594 82.257812 56.730469 81.679688 Z M 53.035156 80.730469 L 54.152344 80.042969 L 53.207031 79.089844 L 52.007812 79.609375 C 52.292969 80.128906 52.636719 80.5 53.035156 80.730469 Z M 43.074219 69.769531 L 43.160156 69.335938 L 41.789062 69.25 C 41.789062 69.539062 41.960938 69.710938 42.304688 69.769531 Z M 37.324219 63.640625 L 35.949219 62.863281 L 35.605469 63.726562 C 36.121094 64.070312 36.464844 64.246094 36.636719 64.246094 C 36.921875 64.246094 37.152344 64.042969 37.324219 63.640625 Z M 24.269531 51.898438 C 24.269531 51.382812 24.183594 50.949219 24.011719 50.605469 C 23.785156 50.203125 23.582031 49.855469 23.410156 49.570312 C 23.183594 49.28125 22.980469 49.050781 22.808594 48.878906 C 22.640625 48.765625 22.582031 48.707031 22.640625 48.707031 C 22.238281 48.707031 22.039062 48.851562 22.039062 49.136719 C 22.039062 49.308594 22.09375 49.742188 22.210938 50.433594 C 22.265625 51.066406 22.410156 51.898438 22.640625 52.9375 C 23.382812 52.535156 23.839844 52.304688 24.011719 52.246094 C 24.183594 52.128906 24.269531 52.015625 24.269531 51.898438 Z M 43.503906 71.496094 C 43.390625 71.148438 43.277344 70.804688 43.160156 70.460938 C 42.988281 70.113281 42.734375 69.941406 42.390625 69.941406 C 41.875 70.460938 41.585938 70.832031 41.53125 71.0625 C 41.757812 71.0625 42.101562 71.121094 42.5625 71.234375 C 43.019531 71.351562 43.332031 71.4375 43.503906 71.496094 Z M 55.613281 83.148438 L 54.582031 83.148438 C 54.410156 83.78125 54.324219 84.214844 54.324219 84.445312 C 54.898438 83.925781 55.328125 83.492188 55.613281 83.148438 Z M 13.621094 39.988281 C 13.566406 39.929688 13.480469 39.902344 13.363281 39.902344 C 12.5625 39.902344 11.703125 40.679688 10.789062 42.230469 L 11.992188 42.230469 C 12.507812 42.230469 12.878906 41.972656 13.105469 41.457031 C 13.277344 40.9375 13.449219 40.449219 13.621094 39.988281 Z M 44.535156 72.789062 C 44.308594 72.15625 43.90625 71.753906 43.332031 71.582031 C 42.761719 71.464844 42.21875 71.410156 41.703125 71.410156 L 41.359375 71.410156 L 41.273438 72.1875 C 42.015625 72.359375 42.648438 72.503906 43.160156 72.617188 C 43.675781 72.675781 44.136719 72.734375 44.535156 72.789062 Z M 36.292969 65.882812 L 36.550781 64.589844 L 35.433594 64.15625 L 34.917969 65.796875 Z M 11.992188 39.902344 C 11.53125 39.671875 11.132812 39.5 10.789062 39.382812 L 9.929688 41.457031 C 10.101562 41.800781 10.273438 41.972656 10.445312 41.972656 C 10.503906 41.972656 10.675781 41.800781 10.960938 41.457031 C 11.246094 41.109375 11.476562 40.792969 11.648438 40.503906 C 11.820312 40.160156 11.933594 39.960938 11.992188 39.902344 Z M 10.53125 39.039062 C 10.246094 38.808594 9.988281 38.636719 9.757812 38.519531 C 9.527344 38.347656 9.328125 38.203125 9.15625 38.089844 C 9.15625 38.320312 9.101562 38.664062 8.984375 39.125 C 8.871094 39.585938 8.8125 39.902344 8.8125 40.074219 C 8.8125 40.59375 9.101562 40.964844 9.671875 41.195312 C 9.84375 40.734375 10.015625 40.304688 10.1875 39.902344 C 10.300781 39.554688 10.417969 39.269531 10.53125 39.039062 Z M 33.285156 62 C 32.65625 61.710938 32.113281 61.453125 31.65625 61.222656 C 31.195312 61.050781 30.796875 60.90625 30.453125 60.792969 C 30.453125 60.847656 30.367188 60.933594 30.195312 61.050781 C 29.964844 61.164062 29.851562 61.308594 29.851562 61.480469 C 30.597656 61.710938 31.226562 61.914062 31.742188 62.085938 C 32.257812 62.316406 32.6875 62.488281 33.027344 62.605469 C 33.199219 62.257812 33.285156 62.058594 33.285156 62 Z M 22.296875 53.195312 C 22.066406 52.332031 21.894531 51.582031 21.78125 50.949219 C 21.609375 50.316406 21.464844 49.769531 21.351562 49.308594 L 19.632812 50.691406 L 21.179688 53.28125 C 21.351562 53.339844 21.550781 53.367188 21.78125 53.367188 C 22.007812 53.367188 22.179688 53.308594 22.296875 53.195312 Z M 44.535156 73.136719 L 41.359375 72.617188 L 41.359375 74.171875 L 43.160156 75.035156 C 44.078125 74.515625 44.535156 73.882812 44.535156 73.136719 Z M 27.019531 59.152344 L 27.875 58.71875 C 27.648438 58.257812 27.449219 57.855469 27.277344 57.511719 C 27.046875 57.109375 26.875 56.792969 26.761719 56.5625 L 25.988281 55.09375 L 24.527344 55.613281 C 25.101562 56.417969 25.585938 57.109375 25.988281 57.683594 C 26.386719 58.257812 26.730469 58.75 27.019531 59.152344 Z M 34.917969 66.921875 L 37.410156 68.128906 L 37.410156 67.957031 C 37.066406 67.378906 36.835938 66.921875 36.722656 66.574219 C 36.550781 66.230469 36.292969 66.058594 35.949219 66.058594 L 34.917969 66.058594 C 34.804688 66.402344 34.746094 66.605469 34.746094 66.660156 C 34.746094 66.71875 34.804688 66.804688 34.917969 66.921875 Z M 8.8125 37.828125 C 8.070312 37.253906 7.410156 36.910156 6.839844 36.792969 C 6.496094 37.597656 6.238281 38.203125 6.066406 38.605469 C 7.496094 39.46875 8.269531 39.902344 8.382812 39.902344 C 8.5 39.324219 8.585938 38.867188 8.640625 38.519531 C 8.699219 38.175781 8.757812 37.945312 8.8125 37.828125 Z M 6.496094 36.621094 L 5.207031 36.535156 C 4.75 37.226562 4.492188 37.773438 4.433594 38.175781 C 5.007812 38.175781 5.4375 38.261719 5.722656 38.433594 C 6.066406 37.6875 6.324219 37.082031 6.496094 36.621094 Z M 32.855469 62.949219 C 32.34375 62.71875 31.828125 62.488281 31.3125 62.257812 C 30.738281 62.085938 30.136719 61.914062 29.507812 61.742188 C 29.164062 62.203125 28.992188 62.460938 28.992188 62.519531 C 29.566406 62.976562 30.082031 63.382812 30.539062 63.726562 C 30.941406 64.015625 31.28125 64.273438 31.570312 64.503906 C 32.085938 64.273438 32.515625 63.753906 32.855469 62.949219 Z M 19.976562 53.367188 L 20.835938 53.453125 C 20.550781 52.761719 20.261719 52.246094 19.976562 51.898438 C 19.632812 51.496094 19.375 51.152344 19.203125 50.863281 L 18.945312 51.210938 Z M 36.464844 69.25 L 37.324219 68.472656 C 36.179688 67.839844 35.289062 67.4375 34.660156 67.265625 C 34.488281 67.4375 34.402344 67.667969 34.402344 67.957031 C 34.402344 68.128906 34.460938 68.386719 34.574219 68.734375 Z M 26.589844 59.496094 C 26.074219 58.34375 25.644531 57.511719 25.300781 56.992188 C 24.898438 56.476562 24.585938 56.101562 24.355469 55.871094 C 23.898438 55.871094 23.496094 56.074219 23.152344 56.476562 C 23.324219 56.648438 23.496094 56.9375 23.667969 57.339844 C 23.785156 57.683594 23.925781 58.058594 24.097656 58.460938 C 24.269531 58.863281 24.46875 59.207031 24.699219 59.496094 C 24.871094 59.839844 25.042969 60.015625 25.214844 60.015625 C 25.617188 60.015625 26.074219 59.839844 26.589844 59.496094 Z M 42.21875 76.328125 L 42.988281 75.207031 C 42.015625 74.804688 41.445312 74.601562 41.273438 74.601562 L 40.929688 75.726562 C 41.214844 75.839844 41.472656 75.957031 41.703125 76.070312 C 41.929688 76.183594 42.101562 76.273438 42.21875 76.328125 Z M 19.546875 53.367188 C 19.203125 52.5625 18.945312 51.957031 18.773438 51.554688 C 18.601562 51.210938 18.257812 51.035156 17.742188 51.035156 C 17.515625 51.035156 17.402344 51.179688 17.402344 51.46875 C 17.402344 52.214844 17.601562 52.734375 18 53.023438 C 18.34375 53.253906 18.660156 53.367188 18.945312 53.367188 C 19.289062 53.367188 19.488281 53.367188 19.546875 53.367188 Z M 4.605469 36.707031 C 3.574219 36.765625 2.917969 37.3125 2.628906 38.347656 L 3.746094 38.261719 C 4.035156 38.03125 4.320312 37.511719 4.605469 36.707031 Z M 35.863281 69.511719 C 35.632812 69.28125 35.148438 69.164062 34.402344 69.164062 C 34.347656 69.28125 34.316406 69.453125 34.316406 69.683594 C 34.316406 69.96875 34.433594 70.113281 34.660156 70.113281 C 35.234375 70.113281 35.632812 69.914062 35.863281 69.511719 Z M 31.226562 64.589844 L 28.5625 62.691406 C 27.992188 63.4375 27.707031 63.871094 27.707031 63.984375 C 27.820312 64.042969 28.105469 64.300781 28.5625 64.761719 C 29.023438 65.222656 29.421875 65.480469 29.765625 65.539062 C 30.453125 65.078125 30.941406 64.761719 31.226562 64.589844 Z M 24.269531 60.445312 L 24.699219 60.445312 C 24.699219 59.753906 24.042969 58.460938 22.726562 56.5625 L 22.382812 56.820312 C 22.78125 57.625 23.125 58.34375 23.410156 58.980469 C 23.699219 59.554688 23.984375 60.042969 24.269531 60.445312 Z M 41.960938 76.933594 C 41.960938 76.589844 41.84375 76.386719 41.617188 76.328125 C 41.328125 76.214844 41.042969 76.097656 40.757812 75.984375 L 40.15625 76.933594 C 40.328125 76.992188 40.613281 77.078125 41.015625 77.191406 C 41.359375 77.25 41.644531 77.277344 41.875 77.277344 C 41.929688 77.164062 41.960938 77.046875 41.960938 76.933594 Z M 34.832031 70.371094 L 34.230469 70.199219 C 34.058594 70.316406 33.972656 70.429688 33.972656 70.546875 C 33.972656 70.601562 34.003906 70.691406 34.058594 70.804688 C 34.117188 70.917969 34.203125 70.976562 34.316406 70.976562 C 34.488281 70.976562 34.660156 70.777344 34.832031 70.371094 Z M 23.839844 60.703125 C 23.269531 59.613281 22.839844 58.777344 22.554688 58.203125 C 22.210938 57.570312 21.980469 57.195312 21.867188 57.078125 L 20.921875 58.117188 C 21.664062 59.4375 22.265625 60.386719 22.726562 60.964844 C 23.238281 60.792969 23.613281 60.703125 23.839844 60.703125 Z M 29.164062 65.710938 C 28.421875 64.964844 27.761719 64.445312 27.191406 64.15625 C 26.730469 64.789062 26.503906 65.25 26.503906 65.539062 C 27.246094 66.113281 27.933594 66.402344 28.5625 66.402344 C 28.792969 66.402344 28.9375 66.316406 28.992188 66.144531 C 29.050781 65.96875 29.109375 65.828125 29.164062 65.710938 Z M 41.445312 79.003906 L 41.617188 77.625 L 41.359375 77.625 C 40.84375 77.394531 40.355469 77.277344 39.898438 77.277344 C 39.785156 77.855469 39.699219 78.257812 39.640625 78.488281 C 39.527344 78.773438 39.46875 78.949219 39.46875 79.003906 Z M 34.402344 72.703125 L 34.402344 71.324219 L 33.886719 71.234375 L 33.628906 72.273438 C 33.746094 72.445312 34.003906 72.589844 34.402344 72.703125 Z M 17.230469 53.195312 L 17.230469 52.417969 C 17.230469 52.074219 17.199219 51.785156 17.144531 51.554688 C 17.027344 51.382812 16.800781 51.265625 16.457031 51.210938 L 15.339844 51.210938 C 14.882812 51.496094 14.652344 51.640625 14.652344 51.640625 C 14.652344 51.757812 14.765625 51.957031 14.996094 52.246094 C 15.226562 52.535156 15.339844 52.792969 15.339844 53.023438 C 15.339844 53.078125 15.3125 53.109375 15.253906 53.109375 C 15.253906 53.109375 15.253906 53.136719 15.253906 53.195312 C 14.796875 52.445312 14.453125 52.015625 14.222656 51.898438 L 13.019531 53.023438 C 13.136719 53.484375 13.25 53.855469 13.363281 54.144531 C 13.480469 54.433594 13.59375 54.691406 13.707031 54.921875 C 14.222656 54.519531 14.59375 54.203125 14.824219 53.972656 C 14.996094 53.683594 15.195312 53.425781 15.425781 53.195312 C 15.65625 53.195312 15.855469 53.195312 16.027344 53.195312 C 16.199219 53.253906 16.339844 53.28125 16.457031 53.28125 C 16.628906 53.28125 16.769531 53.253906 16.886719 53.195312 C 17 53.195312 17.113281 53.195312 17.230469 53.195312 Z M 22.46875 61.136719 C 22.125 60.675781 21.75 60.128906 21.351562 59.496094 C 20.949219 58.921875 20.691406 58.632812 20.578125 58.632812 C 20.464844 58.632812 20.148438 58.980469 19.632812 59.667969 L 21.695312 61.566406 L 21.695312 61.480469 C 21.695312 61.539062 21.953125 61.425781 22.46875 61.136719 Z M 41.789062 80.300781 L 41.617188 79.4375 C 41.386719 79.320312 41.160156 79.265625 40.929688 79.265625 C 40.816406 79.265625 40.558594 79.292969 40.15625 79.351562 C 39.699219 79.351562 39.46875 79.496094 39.46875 79.78125 C 39.46875 80.128906 39.554688 80.414062 39.726562 80.644531 C 40.585938 80.644531 41.273438 80.53125 41.789062 80.300781 Z M 28.5625 67.4375 C 28.449219 66.804688 28.105469 66.429688 27.535156 66.316406 C 26.902344 66.199219 26.472656 66.085938 26.246094 65.96875 L 26.160156 66.488281 C 26.675781 66.71875 27.132812 66.890625 27.535156 67.007812 C 27.933594 67.179688 28.277344 67.324219 28.5625 67.4375 Z M 42.734375 81.941406 C 42.445312 81.308594 42.1875 80.902344 41.960938 80.730469 C 41.5 80.789062 41.101562 80.847656 40.757812 80.902344 C 40.414062 80.960938 40.183594 81.019531 40.070312 81.078125 C 40.183594 81.539062 40.527344 81.796875 41.101562 81.855469 C 41.671875 81.855469 42.21875 81.882812 42.734375 81.941406 Z M 34.832031 75.035156 L 34.832031 73.914062 C 34.773438 73.222656 34.316406 72.761719 33.457031 72.53125 C 33.113281 72.875 32.914062 73.164062 32.855469 73.394531 C 33.601562 74.257812 34.261719 74.804688 34.832031 75.035156 Z M 43.675781 83.320312 L 43.675781 83.0625 C 43.675781 82.542969 43.363281 82.285156 42.734375 82.285156 C 42.101562 82.226562 41.53125 82.171875 41.015625 82.113281 C 41.128906 82.457031 41.273438 82.773438 41.445312 83.0625 C 41.558594 83.351562 41.816406 83.492188 42.21875 83.492188 C 42.675781 83.4375 43.019531 83.40625 43.246094 83.40625 C 43.476562 83.351562 43.621094 83.320312 43.675781 83.320312 Z M 28.648438 68.300781 C 28.648438 68.070312 28.621094 67.925781 28.5625 67.871094 L 26.160156 66.921875 L 25.902344 68.214844 C 26.472656 68.503906 26.960938 68.734375 27.363281 68.90625 C 27.707031 69.078125 27.992188 69.222656 28.21875 69.335938 C 28.507812 68.992188 28.648438 68.648438 28.648438 68.300781 Z M 21.4375 61.914062 C 20.636719 60.933594 19.949219 60.273438 19.375 59.929688 L 18.945312 62.085938 C 19.519531 62.316406 20.003906 62.519531 20.40625 62.691406 C 20.75 62.804688 20.980469 62.890625 21.09375 62.949219 L 21.09375 62.691406 C 21.09375 62.402344 21.207031 62.144531 21.4375 61.914062 Z M 34.316406 75.984375 L 34.660156 75.378906 C 34.316406 75.09375 33.972656 74.832031 33.628906 74.601562 C 33.285156 74.371094 32.972656 74.140625 32.6875 73.914062 L 32.257812 74.601562 C 32.714844 74.949219 33.113281 75.234375 33.457031 75.464844 C 33.800781 75.695312 34.089844 75.867188 34.316406 75.984375 Z M 44.019531 83.667969 C 43.332031 83.722656 42.820312 83.78125 42.476562 83.839844 C 42.074219 83.898438 41.816406 83.984375 41.703125 84.097656 C 41.585938 84.15625 41.53125 84.242188 41.53125 84.355469 C 41.53125 84.414062 41.53125 84.53125 41.53125 84.703125 C 41.875 84.875 42.1875 85.019531 42.476562 85.132812 C 42.703125 85.25 42.960938 85.308594 43.246094 85.308594 C 43.535156 85.308594 43.734375 85.105469 43.847656 84.703125 C 43.964844 84.300781 44.019531 83.953125 44.019531 83.667969 Z M 13.191406 55.265625 C 13.191406 54.980469 13.050781 54.347656 12.761719 53.367188 C 12.707031 53.367188 12.507812 53.453125 12.164062 53.625 C 11.820312 53.800781 11.648438 54 11.648438 54.230469 C 11.648438 54.402344 11.820312 54.691406 12.164062 55.09375 C 12.449219 55.496094 12.621094 55.8125 12.675781 56.042969 C 13.019531 56.042969 13.191406 55.785156 13.191406 55.265625 Z M 27.789062 69.511719 L 25.816406 68.472656 C 25.300781 68.875 25.015625 69.164062 24.957031 69.335938 C 25.128906 69.855469 25.558594 70.144531 26.246094 70.199219 C 26.300781 70.199219 26.558594 70.144531 27.019531 70.027344 C 27.476562 69.96875 27.734375 69.796875 27.789062 69.511719 Z M 42.988281 85.652344 C 42.933594 85.652344 42.761719 85.625 42.476562 85.566406 C 42.132812 85.507812 41.902344 85.480469 41.789062 85.480469 C 41.671875 85.59375 41.617188 85.679688 41.617188 85.738281 L 41.617188 85.910156 L 42.734375 86.082031 C 42.90625 85.910156 42.988281 85.765625 42.988281 85.652344 Z M 33.800781 76.15625 L 32 74.863281 L 31.3125 76.070312 C 31.597656 76.53125 31.882812 76.820312 32.171875 76.933594 C 32.457031 77.105469 32.65625 77.222656 32.773438 77.277344 C 33.457031 76.875 33.800781 76.5 33.800781 76.15625 Z M 20.921875 65.019531 L 21.179688 63.554688 C 20.722656 63.265625 20.320312 63.035156 19.976562 62.863281 C 19.574219 62.632812 19.234375 62.488281 18.945312 62.429688 L 18.773438 63.46875 C 19.234375 63.8125 19.632812 64.128906 19.976562 64.417969 C 20.320312 64.648438 20.636719 64.847656 20.921875 65.019531 Z M 12.335938 56.042969 L 11.390625 54.316406 C 11.21875 54.316406 10.761719 54.433594 10.015625 54.664062 L 10.617188 56.734375 C 10.960938 56.734375 11.332031 56.707031 11.734375 56.648438 C 12.132812 56.589844 12.335938 56.390625 12.335938 56.042969 Z M 42.5625 86.34375 C 42.445312 86.285156 42.273438 86.257812 42.046875 86.257812 C 41.929688 86.257812 41.816406 86.285156 41.703125 86.34375 C 41.585938 86.34375 41.53125 86.398438 41.53125 86.515625 C 41.53125 86.6875 41.558594 86.917969 41.617188 87.207031 C 41.671875 87.4375 41.789062 87.550781 41.960938 87.550781 C 42.1875 87.550781 42.359375 87.378906 42.476562 87.03125 C 42.53125 86.6875 42.5625 86.457031 42.5625 86.34375 Z M 20.578125 65.28125 C 20.121094 64.933594 19.71875 64.648438 19.375 64.417969 C 19.03125 64.128906 18.71875 63.898438 18.429688 63.726562 C 18.257812 64.070312 18.171875 64.300781 18.171875 64.417969 C 18.171875 64.472656 18.257812 64.617188 18.429688 64.847656 C 18.546875 65.019531 18.6875 65.222656 18.859375 65.453125 C 19.03125 65.625 19.203125 65.796875 19.375 65.96875 C 19.488281 66.144531 19.546875 66.257812 19.546875 66.316406 C 20.0625 66.085938 20.40625 65.742188 20.578125 65.28125 Z M 32.257812 77.96875 L 32.257812 77.882812 C 32.257812 77.59375 31.855469 77.136719 31.054688 76.5 C 30.769531 76.90625 30.566406 77.335938 30.453125 77.796875 C 30.511719 77.796875 30.539062 77.796875 30.539062 77.796875 C 30.539062 77.738281 30.566406 77.710938 30.625 77.710938 C 30.738281 77.710938 30.910156 77.769531 31.140625 77.882812 C 31.367188 78 31.625 78.054688 31.914062 78.054688 C 31.96875 78.054688 32.027344 78.054688 32.085938 78.054688 C 32.140625 78 32.199219 77.96875 32.257812 77.96875 Z M 42.476562 88.757812 C 42.476562 88.011719 42.359375 87.636719 42.132812 87.636719 C 41.960938 87.636719 41.875 87.695312 41.875 87.808594 C 41.875 87.925781 42.074219 88.242188 42.476562 88.757812 Z M 25.558594 70.460938 C 25.5 70.230469 25.15625 69.941406 24.527344 69.597656 C 23.898438 69.941406 23.46875 70.199219 23.238281 70.371094 L 24.183594 71.410156 L 24.441406 71.410156 C 24.84375 71.007812 25.214844 70.691406 25.558594 70.460938 Z M 10.1875 56.734375 C 10.1875 56.160156 10.101562 55.726562 9.929688 55.4375 C 9.757812 55.152344 9.613281 54.921875 9.5 54.75 C 9.042969 54.980469 8.640625 55.152344 8.296875 55.265625 C 8.46875 55.613281 8.671875 55.984375 8.898438 56.390625 C 9.070312 56.734375 9.328125 56.90625 9.671875 56.90625 C 9.785156 56.90625 9.957031 56.847656 10.1875 56.734375 Z M 24.097656 71.496094 L 24.269531 71.410156 L 24.183594 71.410156 C 24.183594 71.410156 24.15625 71.410156 24.097656 71.410156 C 24.097656 71.410156 24.097656 71.4375 24.097656 71.496094 Z M 19.117188 66.402344 C 18.71875 65.710938 18.257812 65.105469 17.742188 64.589844 L 16.714844 65.539062 L 17.742188 66.746094 C 18.601562 66.574219 19.0625 66.460938 19.117188 66.402344 Z M 24.097656 71.496094 C 23.925781 71.4375 23.726562 71.324219 23.496094 71.148438 C 23.269531 70.917969 23.097656 70.804688 22.980469 70.804688 C 22.925781 70.804688 22.839844 70.863281 22.726562 70.976562 C 22.839844 71.496094 23.238281 71.871094 23.925781 72.097656 C 24.042969 71.695312 24.097656 71.496094 24.097656 71.496094 Z M 31.828125 78.488281 L 30.367188 78.140625 L 30.109375 79.4375 C 30.109375 79.722656 30.480469 79.953125 31.226562 80.128906 C 31.398438 80.011719 31.484375 79.753906 31.484375 79.351562 C 31.425781 78.890625 31.539062 78.601562 31.828125 78.488281 Z M 8.039062 56.5625 L 8.640625 56.5625 C 8.640625 56.160156 8.46875 55.84375 8.125 55.613281 C 7.78125 55.382812 7.582031 55.265625 7.527344 55.265625 C 7.125 55.265625 6.839844 55.410156 6.667969 55.699219 C 6.496094 55.929688 6.410156 56.074219 6.410156 56.128906 L 6.410156 56.300781 L 6.238281 56.042969 C 5.550781 56.445312 5.179688 57.109375 5.121094 58.027344 C 5.578125 57.511719 5.949219 57.136719 6.238281 56.90625 C 6.523438 56.675781 6.667969 56.503906 6.667969 56.390625 C 6.953125 56.503906 7.210938 56.5625 7.441406 56.5625 C 7.667969 56.5625 7.867188 56.5625 8.039062 56.5625 Z M 31.3125 80.992188 L 31.3125 80.300781 C 30.566406 80.359375 30.195312 80.445312 30.195312 80.558594 C 30.652344 80.847656 31.027344 80.992188 31.3125 80.992188 Z M 23.410156 73.914062 L 23.753906 72.617188 L 22.46875 71.496094 L 21.867188 73.136719 C 22.78125 73.597656 23.296875 73.855469 23.410156 73.914062 Z M 31.742188 82.804688 L 31.742188 82.371094 C 31.742188 82.257812 31.683594 82.085938 31.570312 81.855469 C 31.453125 81.625 31.398438 81.449219 31.398438 81.335938 C 30.824219 81.335938 30.539062 81.394531 30.539062 81.507812 C 30.824219 82.3125 31.226562 82.746094 31.742188 82.804688 Z M 32.429688 83.582031 L 32 83.0625 L 31.914062 83.234375 C 32.257812 83.464844 32.429688 83.582031 32.429688 83.582031 Z M 23.496094 74.863281 C 23.496094 74.632812 23.46875 74.457031 23.410156 74.34375 C 22.667969 74 22.09375 73.710938 21.695312 73.480469 C 21.40625 74.230469 21.265625 74.601562 21.265625 74.601562 C 21.722656 74.890625 22.09375 75.148438 22.382812 75.378906 C 22.726562 75.609375 23.011719 75.78125 23.238281 75.898438 C 23.410156 75.496094 23.496094 75.148438 23.496094 74.863281 Z M 17.230469 66.921875 C 17.113281 66.515625 16.855469 66.171875 16.457031 65.882812 C 16.167969 65.941406 15.796875 66.113281 15.339844 66.402344 C 14.882812 66.632812 14.652344 66.949219 14.652344 67.351562 C 14.652344 67.351562 14.765625 67.523438 14.996094 67.871094 L 14.910156 67.957031 C 14.851562 67.957031 14.824219 67.957031 14.824219 67.957031 C 14.824219 67.898438 14.796875 67.871094 14.738281 67.871094 L 14.480469 67.695312 C 13.679688 68.386719 13.164062 69.511719 12.933594 71.0625 C 13.105469 71.179688 13.191406 71.265625 13.191406 71.324219 C 13.421875 70.691406 13.792969 70.113281 14.308594 69.597656 C 14.765625 69.078125 14.996094 68.503906 14.996094 67.871094 L 15.339844 68.214844 C 16.082031 67.753906 16.714844 67.324219 17.230469 66.921875 Z M 23.152344 76.328125 C 22.238281 75.582031 21.578125 75.09375 21.179688 74.863281 C 21.007812 75.378906 20.921875 75.726562 20.921875 75.898438 L 20.921875 75.984375 L 22.894531 76.761719 C 23.066406 76.589844 23.152344 76.445312 23.152344 76.328125 Z M 22.554688 77.019531 L 20.835938 76.070312 C 20.722656 76.070312 20.605469 76.042969 20.492188 75.984375 C 20.492188 76.15625 20.40625 76.328125 20.234375 76.5 C 20.003906 76.675781 19.890625 76.820312 19.890625 76.933594 C 19.890625 77.046875 20.003906 77.191406 20.234375 77.363281 L 21.695312 78.226562 C 22.09375 78 22.382812 77.59375 22.554688 77.019531 Z M 13.191406 71.410156 L 13.277344 71.324219 L 13.191406 71.324219 Z M 21.007812 78.316406 L 19.71875 77.277344 C 19.03125 77.679688 18.574219 78 18.34375 78.226562 L 18.34375 78.402344 C 18.859375 78.574219 19.347656 78.660156 19.804688 78.660156 C 20.320312 78.660156 20.722656 78.542969 21.007812 78.316406 Z M 77.597656 25.746094 C 77.480469 25.515625 77.394531 25.3125 77.339844 25.140625 C 77.28125 24.96875 77.222656 24.824219 77.167969 24.707031 C 77.222656 24.824219 77.308594 24.996094 77.425781 25.226562 C 77.539062 25.457031 77.597656 25.628906 77.597656 25.746094 Z M 77.597656 25.746094 " fill-opacity="1" fill-rule="nonzero"/></svg>