<svg xmlns="http://www.w3.org/2000/svg" xmlns:xlink="http://www.w3.org/1999/xlink" width="116" zoomAndPan="magnify" viewBox="0 0 87 91.5" height="122" preserveAspectRatio="xMidYMid meet" version="1.0"><path fill="#ffffff" d="M 79.402344 25.339844 L 80.351562 25.339844 C 79.890625 24.765625 79.460938 24.421875 79.058594 24.304688 Z M 78.972656 25.339844 C 78.972656 24.707031 78.828125 24.25 78.542969 23.960938 C 78.253906 23.675781 77.738281 23.386719 76.992188 23.101562 C 76.992188 23.558594 77.050781 23.960938 77.164062 24.304688 C 77.050781 24.132812 76.933594 23.960938 76.820312 23.789062 C 76.707031 23.675781 76.621094 23.558594 76.5625 23.445312 C 76.445312 24.25 76.304688 24.679688 76.132812 24.738281 C 75.960938 24.792969 75.871094 24.910156 75.871094 25.082031 C 75.871094 25.65625 75.902344 25.941406 75.960938 25.941406 C 75.902344 25.886719 75.84375 25.800781 75.785156 25.683594 C 75.671875 25.511719 75.585938 25.425781 75.527344 25.425781 C 75.414062 25.425781 75.300781 25.453125 75.183594 25.511719 C 75.070312 25.511719 74.898438 25.539062 74.667969 25.597656 C 74.839844 26.285156 75.355469 27.121094 76.21875 28.09375 L 76.476562 27.0625 C 76.359375 26.773438 76.304688 26.574219 76.304688 26.460938 C 76.304688 26.34375 76.273438 26.230469 76.21875 26.113281 L 76.90625 26.890625 L 77.765625 26.113281 L 77.765625 26.027344 C 77.765625 25.742188 77.96875 25.625 78.371094 25.683594 C 78.773438 25.742188 78.972656 25.625 78.972656 25.339844 Z M 68.898438 18.449219 L 69.84375 18.105469 C 69.269531 17.875 68.78125 17.703125 68.382812 17.589844 C 68.554688 17.992188 68.726562 18.277344 68.898438 18.449219 Z M 68.640625 18.449219 C 68.410156 17.476562 67.433594 16.988281 65.710938 16.988281 C 65.710938 17.101562 65.65625 17.160156 65.539062 17.160156 C 65.367188 17.214844 65.28125 17.332031 65.28125 17.503906 C 66.429688 18.25 67.433594 18.765625 68.296875 19.054688 C 68.523438 18.765625 68.640625 18.566406 68.640625 18.449219 Z M 67.777344 19.3125 C 67.089844 18.910156 66.515625 18.566406 66.054688 18.277344 C 65.597656 17.992188 65.222656 17.789062 64.9375 17.675781 C 64.9375 17.847656 64.9375 17.992188 64.9375 18.105469 C 64.878906 18.222656 64.851562 18.335938 64.851562 18.449219 C 64.851562 18.621094 64.90625 18.765625 65.023438 18.882812 L 67.433594 20 C 67.550781 19.886719 67.636719 19.769531 67.691406 19.65625 C 67.691406 19.542969 67.722656 19.425781 67.777344 19.3125 Z M 75.960938 28.699219 C 75.15625 27.261719 74.550781 26.230469 74.152344 25.597656 L 73.375 25.597656 C 74.523438 28.355469 75.097656 29.730469 75.097656 29.730469 C 75.441406 29.386719 75.730469 29.042969 75.960938 28.699219 Z M 66.832031 22.066406 L 67.347656 20.429688 C 66.945312 20.203125 66.542969 19.972656 66.140625 19.742188 C 65.683594 19.570312 65.222656 19.398438 64.765625 19.226562 L 64.765625 19.570312 C 64.765625 20.03125 64.996094 20.460938 65.453125 20.863281 C 65.914062 21.320312 66.371094 21.722656 66.832031 22.066406 Z M 74.667969 29.730469 C 74.609375 29.328125 74.035156 27.921875 72.945312 25.511719 C 72.886719 25.453125 72.800781 25.425781 72.6875 25.425781 C 72.285156 25.425781 72.085938 25.710938 72.085938 26.285156 C 72.371094 27.207031 72.6875 28.039062 73.03125 28.785156 C 73.375 29.472656 73.691406 30.046875 73.976562 30.507812 L 74.152344 30.507812 C 74.152344 30.449219 74.238281 30.363281 74.410156 30.25 C 74.582031 30.132812 74.667969 29.960938 74.667969 29.730469 Z M 58.824219 14.316406 C 58.421875 14.316406 58.164062 14.347656 58.046875 14.402344 C 58.105469 14.632812 58.21875 14.777344 58.390625 14.835938 C 58.390625 14.835938 58.535156 14.660156 58.824219 14.316406 Z M 66.574219 22.410156 C 65.710938 21.492188 65.023438 20.804688 64.507812 20.34375 L 63.730469 21.121094 C 64.304688 21.925781 64.765625 22.46875 65.109375 22.757812 C 65.222656 22.699219 65.453125 22.671875 65.796875 22.671875 C 66.199219 22.671875 66.457031 22.585938 66.574219 22.410156 Z M 73.546875 30.59375 C 72.917969 29.15625 72.398438 28.039062 71.996094 27.234375 L 71.480469 28.957031 C 71.769531 29.414062 71.996094 29.816406 72.171875 30.160156 C 72.34375 30.507812 72.484375 30.820312 72.601562 31.109375 C 73.230469 30.820312 73.546875 30.648438 73.546875 30.59375 Z M 44.960938 3.726562 L 45.992188 3.640625 L 45.992188 3.382812 C 45.648438 3.152344 45.359375 2.949219 45.132812 2.777344 C 44.84375 2.664062 44.613281 2.550781 44.441406 2.433594 Z M 58.21875 15.007812 C 57.992188 14.777344 57.761719 14.605469 57.53125 14.488281 C 56.324219 14.546875 55.578125 14.777344 55.292969 15.179688 C 55.578125 15.179688 55.953125 15.320312 56.410156 15.609375 C 56.871094 15.894531 57.1875 16.039062 57.359375 16.039062 C 57.644531 16.039062 57.933594 15.695312 58.21875 15.007812 Z M 46.765625 5.535156 C 46.765625 5.132812 46.625 4.585938 46.335938 3.898438 L 45.046875 4.15625 L 44.960938 5.277344 C 45.707031 5.390625 46.308594 5.476562 46.765625 5.535156 Z M 64.851562 22.84375 C 64.851562 22.785156 64.820312 22.757812 64.765625 22.757812 L 64.335938 22.324219 C 64.160156 22.097656 64.019531 21.894531 63.902344 21.722656 C 63.730469 21.609375 63.585938 21.492188 63.472656 21.378906 L 62.007812 21.292969 L 61.921875 21.550781 L 63.472656 22.671875 C 64.046875 23.070312 64.390625 23.273438 64.507812 23.273438 C 64.734375 23.042969 64.851562 22.898438 64.851562 22.84375 Z M 71.996094 31.109375 L 71.222656 29.214844 L 70.277344 29.816406 C 70.277344 30.449219 70.390625 30.878906 70.621094 31.109375 C 70.851562 31.050781 71.109375 31.023438 71.394531 31.023438 C 71.683594 31.023438 71.882812 31.050781 71.996094 31.109375 Z M 82.332031 40.925781 C 81.871094 40.066406 81.5 39.578125 81.210938 39.460938 L 80.007812 42.046875 L 81.382812 42.390625 C 81.957031 41.929688 82.273438 41.441406 82.332031 40.925781 Z M 82.761719 41.699219 L 82.761719 41.613281 L 82.589844 41.441406 C 82.1875 41.84375 81.929688 42.246094 81.816406 42.648438 C 82.042969 42.761719 82.1875 42.820312 82.246094 42.820312 C 82.589844 42.246094 82.761719 41.875 82.761719 41.699219 Z M 83.796875 43.765625 C 83.507812 43.078125 83.25 42.589844 83.019531 42.304688 L 82.589844 42.992188 C 82.992188 43.394531 83.394531 43.652344 83.796875 43.765625 Z M 57.015625 16.382812 C 57.015625 16.15625 56.699219 15.925781 56.066406 15.695312 C 55.4375 15.523438 55.0625 15.4375 54.949219 15.4375 C 54.949219 15.496094 54.949219 15.550781 54.949219 15.609375 C 54.890625 15.667969 54.863281 15.722656 54.863281 15.78125 C 54.863281 15.894531 54.976562 16.011719 55.207031 16.125 C 55.4375 16.296875 55.695312 16.414062 55.980469 16.46875 C 56.210938 16.585938 56.441406 16.671875 56.671875 16.730469 C 56.84375 16.785156 56.929688 16.816406 56.929688 16.816406 C 56.984375 16.699219 57.015625 16.554688 57.015625 16.382812 Z M 81.039062 39.117188 C 80.695312 38.601562 80.234375 38.34375 79.660156 38.34375 L 79.402344 38.34375 L 78.800781 42.21875 L 79.574219 42.132812 C 80.207031 41.039062 80.695312 40.035156 81.039062 39.117188 Z M 64.160156 24.132812 C 64.160156 23.847656 63.847656 23.386719 63.214844 22.757812 C 62.582031 22.125 62.039062 21.808594 61.578125 21.808594 C 61.292969 21.808594 61.148438 22.039062 61.148438 22.5 C 61.207031 22.84375 61.492188 23.1875 62.007812 23.53125 C 62.46875 23.875 62.925781 24.164062 63.386719 24.390625 C 63.789062 24.566406 64.019531 24.652344 64.074219 24.652344 C 64.132812 24.535156 64.160156 24.363281 64.160156 24.132812 Z M 70.101562 30.507812 C 69.929688 29.988281 69.703125 29.730469 69.414062 29.730469 C 69.183594 29.730469 69.070312 29.816406 69.070312 29.988281 C 69.070312 30.390625 69.128906 30.707031 69.242188 30.9375 C 69.355469 31.109375 69.472656 31.222656 69.585938 31.28125 C 69.929688 31.050781 70.101562 30.792969 70.101562 30.507812 Z M 46.679688 5.878906 L 44.960938 5.621094 L 44.183594 6.910156 L 46.25 7.34375 C 46.480469 7.34375 46.625 7.113281 46.679688 6.652344 C 46.679688 6.195312 46.679688 5.9375 46.679688 5.878906 Z M 56.929688 18.710938 L 56.84375 17.160156 C 56.210938 16.816406 55.664062 16.640625 55.207031 16.640625 C 55.4375 17.101562 55.550781 17.445312 55.550781 17.675781 C 55.550781 17.789062 55.550781 17.847656 55.550781 17.847656 C 55.492188 17.90625 55.464844 17.992188 55.464844 18.105469 C 56.039062 18.507812 56.527344 18.710938 56.929688 18.710938 Z M 64.246094 26.199219 C 64.246094 25.398438 63.960938 24.851562 63.386719 24.566406 C 62.8125 24.277344 62.296875 24.046875 61.835938 23.875 L 61.835938 24.132812 C 61.835938 24.9375 62.613281 25.941406 64.160156 27.148438 C 64.21875 26.917969 64.246094 26.601562 64.246094 26.199219 Z M 68.382812 32.054688 L 69.070312 31.453125 C 68.957031 30.765625 68.898438 30.304688 68.898438 30.074219 C 68.839844 29.789062 68.609375 29.585938 68.210938 29.472656 C 67.636719 29.875 67.234375 30.105469 67.003906 30.160156 Z M 46.59375 8.460938 C 46.59375 8.230469 46.453125 8.03125 46.164062 7.859375 C 45.878906 7.746094 45.5625 7.628906 45.21875 7.515625 C 44.871094 7.398438 44.558594 7.3125 44.269531 7.257812 C 43.984375 7.199219 43.839844 7.171875 43.839844 7.171875 L 43.410156 7.34375 C 43.007812 8.089844 42.75 8.460938 42.632812 8.460938 C 42.632812 8.75 43.007812 8.921875 43.753906 8.980469 C 44.5 9.035156 45.074219 9.066406 45.476562 9.066406 L 46.421875 9.066406 C 46.539062 8.71875 46.59375 8.519531 46.59375 8.460938 Z M 57.015625 19.226562 L 55.292969 18.621094 C 55.0625 19.023438 54.949219 19.339844 54.949219 19.570312 C 55.75 19.972656 56.238281 20.257812 56.410156 20.429688 C 56.8125 20.203125 57.015625 19.800781 57.015625 19.226562 Z M 79.058594 38.34375 C 78.425781 38.515625 77.996094 38.6875 77.765625 38.859375 L 76.21875 44.285156 C 76.964844 43.652344 77.539062 42.992188 77.941406 42.304688 C 78.339844 41.613281 78.628906 40.984375 78.800781 40.410156 C 78.914062 39.835938 79 39.347656 79.058594 38.945312 C 79.058594 38.601562 79.058594 38.398438 79.058594 38.34375 Z M 62.613281 28.265625 L 63.644531 27.40625 L 62.179688 25.855469 C 62.007812 25.625 61.808594 25.511719 61.578125 25.511719 C 61.464844 25.511719 61.320312 25.625 61.148438 25.855469 C 61.433594 26.375 61.691406 26.832031 61.921875 27.234375 C 62.152344 27.636719 62.382812 27.980469 62.613281 28.265625 Z M 68.035156 32.488281 C 68.035156 32.085938 67.894531 31.742188 67.605469 31.453125 C 67.261719 31.167969 66.976562 30.964844 66.746094 30.851562 C 66.746094 30.910156 66.773438 30.9375 66.832031 30.9375 C 66.832031 30.996094 66.832031 31.082031 66.832031 31.195312 C 66.832031 31.425781 66.714844 31.710938 66.488281 32.054688 C 66.488281 32.34375 66.6875 32.542969 67.089844 32.660156 C 67.492188 32.832031 67.75 32.976562 67.863281 33.089844 C 67.980469 32.746094 68.035156 32.542969 68.035156 32.488281 Z M 46.851562 10.699219 C 46.679688 10.011719 46.566406 9.640625 46.507812 9.582031 L 42.804688 9.152344 C 42.804688 9.207031 42.921875 9.523438 43.152344 10.097656 C 43.324219 10.730469 43.753906 11.046875 44.441406 11.046875 C 44.730469 11.046875 45.160156 10.988281 45.734375 10.871094 C 46.25 10.757812 46.625 10.699219 46.851562 10.699219 Z M 76.5625 38.859375 C 76.21875 38.746094 75.988281 38.601562 75.871094 38.429688 C 75.183594 39.289062 74.582031 40.640625 74.066406 42.476562 C 74.351562 42.761719 74.523438 42.90625 74.582031 42.90625 C 75.039062 41.988281 75.441406 41.214844 75.785156 40.582031 C 76.074219 39.890625 76.332031 39.320312 76.5625 38.859375 Z M 75.699219 44.285156 L 77.335938 38.945312 L 76.90625 38.945312 C 75.871094 40.78125 75.210938 42.246094 74.925781 43.335938 Z M 47.199219 12.855469 L 47.972656 12.855469 C 47.859375 11.707031 47.484375 11.132812 46.851562 11.132812 C 46.28125 11.132812 45.761719 11.1875 45.304688 11.304688 C 44.785156 11.417969 44.386719 11.503906 44.097656 11.5625 L 44.527344 12.421875 C 45.101562 12.710938 45.992188 12.855469 47.199219 12.855469 Z M 55.035156 21.722656 L 55.980469 20.691406 C 55.695312 20.460938 55.40625 20.289062 55.121094 20.171875 C 54.890625 20 54.71875 19.855469 54.601562 19.742188 C 54.203125 19.972656 53.886719 20.144531 53.65625 20.257812 C 53.425781 20.375 53.253906 20.488281 53.140625 20.605469 Z M 62.179688 28.441406 C 62.179688 28.039062 61.980469 27.636719 61.578125 27.234375 L 60.371094 26.113281 C 60.199219 26.113281 60 26.230469 59.769531 26.460938 C 60.515625 27.78125 61.121094 28.726562 61.578125 29.300781 L 61.664062 29.300781 C 61.894531 29.300781 62.066406 29.015625 62.179688 28.441406 Z M 75.527344 38.171875 C 75.070312 37.769531 74.550781 37.511719 73.976562 37.394531 C 73.75 37.96875 73.605469 38.484375 73.546875 38.945312 C 73.433594 39.40625 73.347656 39.777344 73.289062 40.066406 C 73.289062 39.492188 73.316406 38.972656 73.375 38.515625 C 73.375 38.113281 73.40625 37.769531 73.460938 37.480469 C 72.027344 37.882812 71.308594 38.542969 71.308594 39.460938 C 71.308594 39.804688 71.425781 40.378906 71.652344 41.183594 C 71.824219 41.988281 71.941406 42.5625 71.996094 42.90625 C 72.226562 42.847656 72.429688 42.707031 72.601562 42.476562 C 72.714844 42.246094 72.832031 41.988281 72.945312 41.699219 C 73.003906 41.414062 73.058594 41.15625 73.117188 40.925781 C 73.175781 40.640625 73.203125 40.4375 73.203125 40.324219 C 73.203125 40.4375 73.203125 40.640625 73.203125 40.925781 C 73.203125 41.214844 73.175781 41.671875 73.117188 42.304688 L 73.546875 42.390625 C 74.007812 41.414062 74.410156 40.582031 74.753906 39.890625 C 75.039062 39.203125 75.300781 38.628906 75.527344 38.171875 Z M 48.058594 13.714844 C 48.058594 13.542969 48.03125 13.425781 47.972656 13.371094 L 44.527344 12.855469 L 44.527344 13.714844 L 47.972656 14.402344 C 48.03125 14.230469 48.058594 14 48.058594 13.714844 Z M 67.777344 33.519531 C 67.492188 33.289062 67.234375 33.117188 67.003906 33.003906 C 66.773438 32.832031 66.574219 32.714844 66.402344 32.660156 C 66.054688 33.117188 65.796875 33.460938 65.625 33.691406 C 66.085938 34.957031 66.457031 35.703125 66.746094 35.929688 C 67.320312 34.4375 67.664062 33.636719 67.777344 33.519531 Z M 54.949219 22.324219 C 54.949219 22.152344 54.832031 21.980469 54.601562 21.808594 C 54.375 21.636719 54.117188 21.492188 53.828125 21.378906 C 53.542969 21.265625 53.253906 21.148438 52.96875 21.035156 C 52.738281 20.917969 52.621094 20.863281 52.621094 20.863281 C 52.449219 21.320312 52.363281 21.664062 52.363281 21.894531 C 52.363281 22.183594 52.566406 22.410156 52.96875 22.585938 C 53.425781 22.757812 53.828125 22.871094 54.171875 22.929688 C 54.515625 22.929688 54.71875 22.929688 54.777344 22.929688 C 54.890625 22.585938 54.949219 22.382812 54.949219 22.324219 Z M 61.234375 29.644531 C 60.773438 28.667969 60.402344 27.921875 60.113281 27.40625 C 59.769531 26.832031 59.28125 26.546875 58.652344 26.546875 C 58.078125 26.546875 57.789062 26.773438 57.789062 27.234375 C 57.789062 27.347656 57.933594 27.636719 58.21875 28.09375 C 58.507812 28.496094 59.195312 29.273438 60.285156 30.421875 C 60.746094 30.132812 61.0625 29.875 61.234375 29.644531 Z M 47.972656 14.835938 C 46.421875 14.433594 45.21875 14.230469 44.355469 14.230469 C 44.296875 14.289062 44.210938 14.402344 44.097656 14.574219 C 43.984375 14.804688 43.925781 14.976562 43.925781 15.09375 L 47.457031 16.039062 C 47.570312 15.523438 47.742188 15.121094 47.972656 14.835938 Z M 55.035156 24.910156 L 55.121094 23.617188 C 54.144531 23.101562 53.398438 22.84375 52.882812 22.84375 L 52.882812 22.929688 C 52.882812 22.984375 52.910156 23.070312 52.96875 23.1875 C 53.023438 23.300781 53.054688 23.417969 53.054688 23.53125 C 53.054688 23.589844 53.023438 23.644531 52.96875 23.703125 C 52.96875 23.933594 53.082031 24.105469 53.3125 24.21875 C 53.484375 24.390625 53.714844 24.535156 54 24.652344 C 54.230469 24.707031 54.460938 24.765625 54.691406 24.824219 C 54.917969 24.878906 55.035156 24.910156 55.035156 24.910156 Z M 66.226562 36.191406 C 66.226562 35.902344 66.113281 35.53125 65.882812 35.070312 C 65.597656 34.609375 65.425781 34.296875 65.367188 34.125 L 64.421875 34.46875 C 64.421875 34.46875 64.5625 34.785156 64.851562 35.414062 C 65.136719 36.105469 65.480469 36.589844 65.882812 36.878906 C 66.113281 36.707031 66.226562 36.476562 66.226562 36.191406 Z M 59.941406 30.851562 C 59.136719 29.761719 58.535156 28.984375 58.132812 28.527344 C 58.132812 29.445312 58.304688 30.105469 58.652344 30.507812 C 58.996094 30.910156 59.3125 31.109375 59.597656 31.109375 C 59.710938 31.109375 59.828125 31.023438 59.941406 30.851562 Z M 71.480469 42.648438 C 71.425781 42.648438 71.25 41.585938 70.964844 39.460938 L 70.792969 39.460938 C 70.277344 39.460938 70.015625 39.691406 70.015625 40.152344 C 70.015625 40.953125 70.132812 41.816406 70.363281 42.734375 C 70.535156 43.652344 70.675781 44.226562 70.792969 44.457031 C 71.25 43.996094 71.480469 43.394531 71.480469 42.648438 Z M 47.113281 16.730469 C 47.113281 16.613281 47.113281 16.527344 47.113281 16.46875 C 47.054688 16.46875 47.027344 16.441406 47.027344 16.382812 L 43.582031 15.4375 C 43.066406 16.125 42.804688 16.730469 42.804688 17.246094 C 42.804688 17.476562 42.863281 17.703125 42.976562 17.933594 C 44.355469 17.761719 45.359375 17.648438 45.992188 17.589844 C 46.566406 17.53125 46.941406 17.476562 47.113281 17.417969 C 47.285156 17.359375 47.339844 17.273438 47.285156 17.160156 C 47.167969 17.042969 47.113281 16.902344 47.113281 16.730469 Z M 54.429688 26.976562 L 54.949219 25.339844 L 53.054688 24.824219 C 53.054688 25.28125 52.851562 25.710938 52.449219 26.113281 C 53.023438 26.460938 53.683594 26.746094 54.429688 26.976562 Z M 65.367188 37.222656 C 65.082031 36.589844 64.851562 36.046875 64.679688 35.585938 C 64.449219 35.128906 64.246094 34.753906 64.074219 34.46875 L 62.699219 34.46875 L 63.816406 38.257812 C 64.21875 38.085938 64.734375 37.738281 65.367188 37.222656 Z M 70.277344 44.972656 L 69.757812 39.804688 L 68.898438 39.546875 C 68.78125 40.179688 68.695312 40.753906 68.640625 41.269531 C 68.582031 41.785156 68.554688 42.246094 68.554688 42.648438 L 68.554688 43.164062 C 68.496094 43.335938 68.46875 43.539062 68.46875 43.765625 C 68.46875 43.941406 68.46875 44.082031 68.46875 44.199219 C 68.46875 45 68.640625 45.402344 68.984375 45.402344 C 69.269531 45.402344 69.703125 45.261719 70.277344 44.972656 Z M 58.304688 32.574219 L 59.253906 31.539062 C 58.964844 31.308594 58.738281 31.109375 58.566406 30.9375 C 58.335938 30.765625 58.164062 30.621094 58.046875 30.507812 L 57.359375 31.539062 C 57.816406 32.171875 58.132812 32.515625 58.304688 32.574219 Z M 43.753906 19.570312 L 47.113281 19.3125 L 46.941406 18.019531 C 46.765625 18.019531 46.625 18.019531 46.507812 18.019531 C 46.335938 17.960938 46.164062 17.933594 45.992188 17.933594 C 45.53125 17.933594 45.046875 17.960938 44.527344 18.019531 C 44.011719 18.078125 43.523438 18.164062 43.066406 18.277344 C 43.066406 18.335938 43.292969 18.765625 43.753906 19.570312 Z M 63.472656 38.515625 C 63.011719 36.734375 62.667969 35.355469 62.441406 34.382812 C 61.867188 34.4375 61.578125 34.523438 61.578125 34.640625 C 61.808594 35.328125 62.039062 36.015625 62.265625 36.707031 C 62.496094 37.394531 62.753906 38.054688 63.042969 38.6875 C 63.101562 38.6875 63.242188 38.628906 63.472656 38.515625 Z M 48.402344 21.808594 C 48.289062 21.292969 48.144531 20.832031 47.972656 20.429688 C 47.800781 20.085938 47.65625 19.800781 47.542969 19.570312 C 45.933594 19.570312 44.816406 19.683594 44.183594 19.914062 C 44.242188 20.316406 44.472656 20.632812 44.871094 20.863281 C 45.21875 21.089844 45.621094 21.292969 46.078125 21.464844 C 46.480469 21.578125 46.910156 21.636719 47.371094 21.636719 C 47.773438 21.695312 48.117188 21.75 48.402344 21.808594 Z M 68.035156 44.972656 L 68.554688 39.632812 L 68.46875 39.460938 C 68.46875 39.460938 68.382812 39.492188 68.210938 39.546875 C 67.980469 39.605469 67.75 39.71875 67.519531 39.890625 C 67.234375 40.066406 67.003906 40.292969 66.832031 40.582031 C 66.601562 40.8125 66.488281 41.097656 66.488281 41.441406 C 66.488281 42.074219 66.601562 42.820312 66.832031 43.679688 C 67.003906 44.542969 67.40625 44.972656 68.035156 44.972656 Z M 33.074219 8.546875 L 33.765625 8.632812 C 33.765625 8.289062 33.734375 8.117188 33.679688 8.117188 C 33.5625 8.230469 33.476562 8.320312 33.421875 8.375 C 33.304688 8.433594 33.191406 8.492188 33.074219 8.546875 Z M 54.257812 27.40625 L 52.105469 26.460938 C 52.050781 26.515625 51.820312 26.632812 51.417969 26.804688 C 51.015625 26.917969 50.785156 27.121094 50.726562 27.40625 C 51.53125 28.152344 52.363281 28.726562 53.226562 29.128906 C 53.457031 28.726562 53.65625 28.382812 53.828125 28.09375 C 54 27.867188 54.144531 27.636719 54.257812 27.40625 Z M 57.875 33.003906 C 57.875 32.660156 57.558594 32.257812 56.929688 31.796875 L 56.496094 32.230469 C 57.246094 32.976562 57.675781 33.347656 57.789062 33.347656 C 57.847656 33.289062 57.875 33.175781 57.875 33.003906 Z M 62.007812 39.117188 L 62.699219 38.945312 C 62.296875 37.738281 62.007812 36.820312 61.835938 36.191406 C 61.605469 35.558594 61.464844 35.128906 61.40625 34.898438 C 61.292969 34.667969 61.207031 34.554688 61.148438 34.554688 C 61.148438 34.554688 61.089844 34.554688 60.976562 34.554688 C 60.230469 34.609375 59.855469 34.984375 59.855469 35.671875 Z M 48.316406 22.152344 L 44.527344 21.292969 L 44.527344 21.980469 C 44.929688 21.980469 45.53125 22.097656 46.335938 22.324219 C 47.140625 22.613281 47.773438 22.757812 48.230469 22.757812 C 48.289062 22.585938 48.316406 22.382812 48.316406 22.152344 Z M 33.851562 10.011719 C 33.851562 9.207031 33.648438 8.777344 33.246094 8.71875 C 32.789062 8.71875 32.558594 8.71875 32.558594 8.71875 C 31.925781 9.351562 31.613281 9.839844 31.613281 10.183594 L 31.613281 10.441406 C 32.585938 10.386719 33.332031 10.242188 33.851562 10.011719 Z M 48.144531 23.015625 L 44.527344 22.152344 L 44.269531 23.1875 C 45.015625 23.589844 45.648438 23.933594 46.164062 24.21875 C 46.679688 24.507812 47.140625 24.738281 47.542969 24.910156 C 47.65625 24.507812 47.773438 24.132812 47.886719 23.789062 C 48 23.503906 48.085938 23.246094 48.144531 23.015625 Z M 66.574219 44.457031 C 66.515625 43.824219 66.457031 43.28125 66.402344 42.820312 C 66.34375 42.359375 66.257812 41.988281 66.140625 41.699219 C 65.855469 41.816406 65.597656 41.988281 65.367188 42.21875 C 65.136719 42.390625 64.878906 42.589844 64.59375 42.820312 C 64.707031 44.082031 64.90625 44.914062 65.195312 45.316406 C 65.597656 44.800781 66.054688 44.515625 66.574219 44.457031 Z M 82.503906 60.644531 C 82.214844 59.265625 82.015625 58.578125 81.902344 58.578125 C 81.210938 59.898438 80.867188 60.617188 80.867188 60.730469 C 80.867188 61.25 81.039062 61.507812 81.382812 61.507812 C 81.554688 61.507812 81.929688 61.21875 82.503906 60.644531 Z M 35.660156 13.371094 L 34.625 11.5625 C 34.511719 11.5625 34.28125 11.621094 33.9375 11.734375 C 33.535156 11.90625 33.21875 11.992188 32.988281 11.992188 C 33.277344 11.878906 33.5625 11.761719 33.851562 11.648438 C 34.082031 11.535156 34.28125 11.445312 34.453125 11.390625 C 34.453125 11.273438 34.425781 11.101562 34.367188 10.871094 C 34.253906 10.699219 34.195312 10.558594 34.195312 10.441406 C 32.933594 10.558594 32.101562 10.730469 31.699219 10.960938 C 31.871094 11.589844 32.042969 12.019531 32.214844 12.25 C 32.386719 12.195312 32.617188 12.164062 32.902344 12.164062 L 32.386719 12.59375 C 32.789062 13.339844 33.019531 13.773438 33.074219 13.886719 C 34.167969 13.65625 35.027344 13.484375 35.660156 13.371094 Z M 81.640625 58.0625 C 81.640625 57.660156 81.441406 57.285156 81.039062 56.941406 C 80.808594 56.941406 80.636719 57.113281 80.523438 57.460938 C 80.351562 57.804688 80.234375 58.003906 80.179688 58.0625 C 80.179688 57.601562 80.292969 57.171875 80.523438 56.769531 C 80.0625 56.769531 79.660156 56.914062 79.316406 57.199219 C 78.972656 57.546875 78.601562 57.917969 78.199219 58.320312 L 78.199219 60.300781 C 79 60.300781 79.488281 60.015625 79.660156 59.441406 C 79.777344 58.867188 79.863281 58.519531 79.921875 58.40625 C 79.976562 58.464844 80.007812 58.578125 80.007812 58.75 C 80.007812 59.039062 79.949219 59.324219 79.835938 59.613281 C 79.71875 59.839844 79.660156 59.984375 79.660156 60.042969 C 79.660156 60.328125 79.777344 60.5 80.007812 60.558594 C 80.234375 60.558594 80.40625 60.617188 80.523438 60.730469 C 80.523438 60.445312 80.722656 59.984375 81.125 59.355469 C 81.46875 58.78125 81.640625 58.347656 81.640625 58.0625 Z M 47.113281 25.941406 L 47.371094 25.253906 L 44.097656 23.445312 C 43.695312 23.960938 43.496094 24.480469 43.496094 24.996094 L 43.496094 25.253906 Z M 82.761719 61.851562 C 82.761719 61.621094 82.703125 61.390625 82.589844 61.160156 C 82.246094 61.390625 82.042969 61.535156 81.988281 61.59375 C 81.988281 61.765625 82.1875 62.082031 82.589844 62.539062 C 82.703125 62.195312 82.761719 61.964844 82.761719 61.851562 Z M 35.832031 15.265625 L 35.917969 13.800781 C 34.023438 14.085938 33.074219 14.261719 33.074219 14.316406 L 33.160156 15.4375 Z M 64.679688 45.835938 L 64.160156 42.734375 L 63.386719 42.734375 C 63.386719 42.792969 63.414062 42.820312 63.472656 42.820312 C 63.53125 42.820312 63.558594 42.90625 63.558594 43.078125 C 63.558594 43.25 63.53125 43.539062 63.472656 43.941406 C 63.359375 44.339844 63.300781 44.742188 63.300781 45.144531 C 63.300781 45.375 63.328125 45.574219 63.386719 45.75 C 63.386719 45.976562 63.53125 46.09375 63.816406 46.09375 C 64.046875 46.09375 64.335938 46.007812 64.679688 45.835938 Z M 46.59375 27.578125 L 46.941406 26.285156 L 43.410156 25.597656 L 43.238281 26.632812 Z M 32.902344 17.074219 L 36.003906 16.382812 L 36.003906 15.78125 L 32.988281 15.695312 C 32.816406 16.15625 32.730469 16.5 32.730469 16.730469 C 32.730469 16.84375 32.789062 16.957031 32.902344 17.074219 Z M 37.984375 19.054688 C 37.695312 18.652344 37.4375 18.308594 37.210938 18.019531 C 36.980469 17.734375 36.75 17.503906 36.519531 17.332031 C 36.003906 17.617188 35.574219 17.847656 35.226562 18.019531 C 34.882812 18.25 34.65625 18.421875 34.539062 18.535156 L 34.539062 18.710938 C 34.710938 18.765625 34.855469 18.910156 34.96875 19.140625 C 35.027344 19.425781 35.199219 19.570312 35.488281 19.570312 C 35.945312 19.570312 36.433594 19.484375 36.949219 19.3125 C 37.410156 19.195312 37.753906 19.109375 37.984375 19.054688 Z M 43.238281 27.578125 L 46.507812 28.355469 L 46.507812 28.179688 C 44.960938 27.433594 43.898438 27.0625 43.324219 27.0625 Z M 77.679688 60.386719 L 77.765625 58.75 C 76.847656 59.152344 76.273438 59.441406 76.046875 59.613281 C 76.160156 59.898438 76.246094 60.1875 76.304688 60.472656 C 76.359375 60.703125 76.417969 60.902344 76.476562 61.074219 Z M 36.089844 16.988281 L 36.089844 16.730469 C 34.136719 16.957031 33.074219 17.300781 32.902344 17.761719 C 33.246094 18.222656 33.621094 18.449219 34.023438 18.449219 C 34.480469 18.105469 34.882812 17.820312 35.226562 17.589844 C 35.574219 17.300781 35.859375 17.101562 36.089844 16.988281 Z M 38.242188 20.257812 C 38.242188 19.914062 38.214844 19.65625 38.15625 19.484375 C 37.523438 19.597656 36.921875 19.683594 36.347656 19.742188 C 35.714844 19.800781 35.402344 19.945312 35.402344 20.171875 C 35.402344 20.746094 35.714844 21.035156 36.347656 21.035156 C 36.921875 20.976562 37.523438 21.003906 38.15625 21.121094 C 38.214844 20.949219 38.242188 20.660156 38.242188 20.257812 Z M 75.960938 60.730469 C 75.960938 60.445312 75.902344 60.1875 75.785156 59.957031 C 75.671875 59.726562 75.558594 59.613281 75.441406 59.613281 C 75.386719 59.613281 75.328125 59.640625 75.269531 59.699219 L 75.269531 61.421875 L 75.441406 61.421875 C 75.785156 61.421875 75.960938 61.191406 75.960938 60.730469 Z M 67.519531 55.304688 L 69.757812 52.722656 L 69.757812 52.636719 C 69.757812 52.351562 69.386719 52.003906 68.640625 51.605469 C 68.066406 52.578125 67.636719 53.355469 67.347656 53.929688 C 67.003906 54.445312 66.800781 54.789062 66.746094 54.960938 C 66.917969 55.078125 67.0625 55.164062 67.175781 55.21875 C 67.289062 55.21875 67.40625 55.25 67.519531 55.304688 Z M 71.050781 54.960938 C 70.765625 53.929688 70.390625 53.269531 69.929688 52.980469 L 67.777344 55.566406 C 68.179688 55.851562 68.523438 56.109375 68.8125 56.339844 C 69.042969 56.570312 69.242188 56.742188 69.414062 56.855469 C 70.449219 55.652344 70.992188 55.019531 71.050781 54.960938 Z M 37.8125 22.929688 L 38.070312 21.550781 L 35.746094 21.464844 C 35.746094 21.695312 35.660156 22.011719 35.488281 22.410156 C 35.257812 22.8125 35.140625 23.128906 35.140625 23.359375 C 35.714844 23.246094 36.234375 23.160156 36.691406 23.101562 C 37.152344 23.042969 37.523438 22.984375 37.8125 22.929688 Z M 68.382812 51.429688 C 68.152344 51.316406 67.949219 51.257812 67.777344 51.257812 C 67.605469 51.203125 67.460938 51.144531 67.347656 51.085938 C 65.742188 53.210938 64.9375 54.300781 64.9375 54.359375 L 66.226562 54.789062 C 66.6875 54.042969 67.117188 53.410156 67.519531 52.894531 C 67.863281 52.320312 68.152344 51.832031 68.382812 51.429688 Z M 70.363281 58.578125 L 71.394531 57.460938 L 71.050781 55.480469 C 70.765625 55.878906 70.503906 56.226562 70.277344 56.511719 C 69.988281 56.800781 69.757812 57.058594 69.585938 57.285156 C 69.757812 57.746094 70.015625 58.175781 70.363281 58.578125 Z M 67.003906 50.828125 C 66.832031 50.65625 66.488281 50.570312 65.96875 50.570312 C 65.566406 50.570312 65.222656 50.597656 64.9375 50.65625 L 63.558594 54.101562 C 63.617188 54.101562 63.675781 54.070312 63.730469 54.015625 C 63.730469 54.015625 63.761719 54.015625 63.816406 54.015625 C 64.046875 54.015625 64.335938 54.101562 64.679688 54.273438 C 65.195312 53.46875 65.65625 52.78125 66.054688 52.207031 C 66.402344 51.691406 66.714844 51.230469 67.003906 50.828125 Z M 74.925781 60.472656 C 74.925781 60.1875 74.898438 59.984375 74.839844 59.871094 L 73.289062 59.871094 L 72.601562 61.765625 C 72.773438 61.820312 72.945312 61.878906 73.117188 61.9375 C 73.230469 61.9375 73.40625 61.9375 73.632812 61.9375 C 74.265625 61.9375 74.640625 61.792969 74.753906 61.507812 C 74.867188 61.277344 74.925781 60.933594 74.925781 60.472656 Z M 71.652344 58.578125 L 71.566406 57.804688 C 70.9375 58.148438 70.621094 58.578125 70.621094 59.09375 C 70.621094 59.265625 70.675781 59.355469 70.792969 59.355469 C 70.964844 59.355469 71.136719 59.210938 71.308594 58.921875 C 71.480469 58.695312 71.597656 58.578125 71.652344 58.578125 Z M 38.070312 23.875 C 38.070312 23.820312 38.011719 23.617188 37.898438 23.273438 L 34.96875 23.789062 L 34.710938 24.480469 C 35 24.421875 35.515625 24.304688 36.261719 24.132812 C 37.007812 23.960938 37.609375 23.875 38.070312 23.875 Z M 72.945312 59.699219 L 71.824219 58.75 C 71.652344 59.039062 71.511719 59.296875 71.394531 59.527344 C 71.28125 59.699219 71.164062 59.839844 71.050781 59.957031 C 71.683594 60.816406 72.113281 61.304688 72.34375 61.421875 C 72.628906 60.558594 72.832031 59.984375 72.945312 59.699219 Z M 39.792969 25.683594 C 39.792969 25.453125 39.648438 25.28125 39.363281 25.167969 C 39.074219 25.050781 38.703125 24.765625 38.242188 24.304688 L 34.539062 24.824219 C 34.539062 24.878906 34.539062 24.9375 34.539062 24.996094 C 34.480469 25.050781 34.453125 25.140625 34.453125 25.253906 C 34.453125 25.367188 34.511719 25.710938 34.625 26.285156 C 34.566406 26.285156 34.96875 26.257812 35.832031 26.199219 C 36.691406 26.085938 38.011719 25.914062 39.792969 25.683594 Z M 64.59375 50.828125 C 64.476562 50.769531 64.304688 50.742188 64.074219 50.742188 C 63.675781 50.742188 63.359375 50.886719 63.128906 51.171875 C 62.898438 51.460938 62.726562 51.777344 62.613281 52.121094 C 62.441406 52.464844 62.324219 52.808594 62.265625 53.152344 C 62.152344 53.5 62.066406 53.757812 62.007812 53.929688 L 63.128906 54.015625 C 63.414062 53.269531 63.703125 52.636719 63.988281 52.121094 C 64.21875 51.605469 64.421875 51.171875 64.59375 50.828125 Z M 40.222656 26.632812 C 40.164062 26.574219 40.136719 26.515625 40.136719 26.460938 L 40.050781 26.027344 C 38.902344 26.144531 37.898438 26.257812 37.035156 26.375 C 36.175781 26.488281 35.457031 26.601562 34.882812 26.71875 C 34.941406 27.121094 35.171875 27.550781 35.574219 28.007812 L 39.191406 27.148438 C 39.191406 27.148438 39.363281 27.121094 39.707031 27.0625 C 40.050781 27.003906 40.222656 26.859375 40.222656 26.632812 Z M 75.441406 69.34375 C 75.613281 69.34375 75.5 69.34375 75.097656 69.34375 C 74.695312 69.34375 74.496094 69.398438 74.496094 69.515625 C 74.496094 69.570312 74.550781 69.660156 74.667969 69.773438 C 75.125 69.660156 75.386719 69.515625 75.441406 69.34375 Z M 23.085938 18.882812 L 24.378906 18.710938 L 24.121094 17.761719 C 23.601562 17.933594 23.257812 18.308594 23.085938 18.882812 Z M 25.152344 22.066406 L 26.960938 21.464844 C 26.675781 21.175781 26.417969 20.949219 26.1875 20.777344 C 25.898438 20.546875 25.699219 20.375 25.582031 20.257812 L 24.464844 21.378906 Z M 25.324219 19.828125 C 25.097656 19.195312 24.695312 18.882812 24.121094 18.882812 C 24.003906 18.882812 23.746094 18.9375 23.34375 19.054688 C 22.941406 19.109375 22.742188 19.285156 22.742188 19.570312 C 22.742188 20.03125 23.144531 20.515625 23.949219 21.035156 C 24.695312 20.691406 25.152344 20.289062 25.324219 19.828125 Z M 74.238281 69.773438 L 74.238281 69.34375 C 73.949219 69.285156 73.75 69.257812 73.632812 69.257812 C 73.460938 69.199219 73.347656 69.171875 73.289062 69.171875 C 73.058594 69.171875 72.886719 69.226562 72.773438 69.34375 C 72.3125 68.652344 71.941406 68.28125 71.652344 68.222656 C 71.367188 68.28125 71.164062 68.625 71.050781 69.257812 C 71.109375 69.257812 71.25 69.3125 71.480469 69.429688 C 71.710938 69.601562 71.96875 69.6875 72.257812 69.6875 C 72.484375 69.6875 72.628906 69.570312 72.6875 69.34375 L 72.859375 69.773438 C 73.03125 69.832031 73.261719 69.859375 73.546875 69.859375 C 73.890625 69.859375 74.121094 69.832031 74.238281 69.773438 Z M 28.425781 26.285156 L 29.890625 24.652344 L 29.890625 24.390625 L 29.027344 23.1875 C 28.453125 23.1875 28.082031 23.214844 27.910156 23.273438 L 28.683594 22.84375 C 27.878906 22.097656 27.335938 21.722656 27.046875 21.722656 C 25.84375 21.722656 25.238281 22.039062 25.238281 22.671875 C 25.238281 22.726562 25.296875 22.898438 25.410156 23.1875 C 25.527344 23.53125 25.582031 23.820312 25.582031 24.046875 L 25.582031 24.21875 C 25.871094 24.164062 26.101562 24.105469 26.273438 24.046875 C 26.445312 23.992188 26.589844 23.933594 26.703125 23.875 C 26.472656 23.992188 26.300781 24.105469 26.1875 24.21875 C 26.015625 24.335938 25.871094 24.421875 25.757812 24.480469 C 26.789062 25.453125 27.679688 26.058594 28.425781 26.285156 Z M 68.984375 63.574219 C 68.925781 63.171875 68.523438 62.882812 67.777344 62.710938 C 67.148438 63.859375 66.746094 64.75 66.574219 65.382812 C 66.6875 65.496094 66.800781 65.582031 66.917969 65.640625 C 67.03125 65.695312 67.148438 65.753906 67.261719 65.8125 C 67.664062 65.351562 68.007812 64.921875 68.296875 64.519531 C 68.582031 64.175781 68.8125 63.859375 68.984375 63.574219 Z M 31.351562 26.804688 C 30.835938 25.941406 30.40625 25.339844 30.0625 24.996094 C 29.257812 25.742188 28.742188 26.285156 28.511719 26.632812 C 28.796875 27.261719 28.972656 27.722656 29.027344 28.007812 C 29.945312 27.605469 30.722656 27.207031 31.351562 26.804688 Z M 67.949219 66.242188 L 69.5 64.519531 L 69.5 64.433594 C 69.5 64.261719 69.386719 64.089844 69.15625 63.917969 C 68.753906 64.375 68.4375 64.777344 68.210938 65.125 C 67.921875 65.46875 67.691406 65.753906 67.519531 65.984375 C 67.636719 66.097656 67.722656 66.183594 67.777344 66.242188 C 67.835938 66.242188 67.863281 66.242188 67.863281 66.242188 Z M 70.707031 68.910156 L 71.308594 68.050781 C 71.308594 67.535156 71.050781 67.21875 70.535156 67.105469 C 70.246094 67.105469 70.074219 67.132812 70.015625 67.191406 L 70.277344 66.84375 C 70.160156 66.386719 70.046875 66.011719 69.929688 65.726562 C 69.816406 65.4375 69.703125 65.179688 69.585938 64.949219 C 68.726562 65.753906 68.296875 66.214844 68.296875 66.328125 C 68.296875 66.328125 68.640625 66.789062 69.328125 67.707031 L 69.929688 67.277344 L 70.015625 67.363281 L 69.585938 67.792969 C 69.585938 68.078125 69.703125 68.308594 69.929688 68.480469 C 70.160156 68.652344 70.417969 68.796875 70.707031 68.910156 Z M 62.179688 57.976562 C 61.835938 57.34375 61.519531 57.027344 61.234375 57.027344 L 61.148438 57.027344 L 59.425781 59.007812 L 59.339844 59.441406 C 59.511719 59.613281 59.65625 59.699219 59.769531 59.699219 C 59.941406 59.699219 60.144531 59.613281 60.371094 59.441406 C 60.601562 59.265625 60.859375 59.09375 61.148438 58.921875 C 61.378906 58.695312 61.605469 58.492188 61.835938 58.320312 C 62.007812 58.089844 62.125 57.976562 62.179688 57.976562 Z M 29.976562 29.988281 L 32.386719 29.042969 C 32.15625 28.296875 31.871094 27.664062 31.527344 27.148438 L 29.199219 28.441406 C 29.371094 29.242188 29.632812 29.761719 29.976562 29.988281 Z M 62.871094 59.09375 C 62.871094 58.695312 62.726562 58.40625 62.441406 58.234375 C 61.921875 58.636719 61.464844 58.980469 61.0625 59.265625 C 60.660156 59.554688 60.316406 59.785156 60.027344 59.957031 C 60.429688 60.644531 60.746094 61.105469 60.976562 61.335938 C 61.320312 60.988281 61.722656 60.617188 62.179688 60.214844 C 62.640625 59.8125 62.871094 59.441406 62.871094 59.09375 Z M 67.261719 62.96875 C 66.746094 63.085938 66.316406 63.171875 65.96875 63.230469 C 65.566406 63.285156 65.253906 63.34375 65.023438 63.402344 L 64.160156 64.949219 C 64.160156 64.949219 64.246094 65.007812 64.421875 65.125 C 64.59375 65.179688 64.878906 65.265625 65.28125 65.382812 L 65.625 65.382812 C 66.140625 65.382812 66.515625 65.09375 66.746094 64.519531 C 66.917969 64.003906 67.089844 63.488281 67.261719 62.96875 Z M 64.59375 63.316406 C 64.421875 63.257812 64.246094 63.140625 64.074219 62.96875 C 63.902344 62.855469 63.730469 62.796875 63.558594 62.796875 C 63.558594 62.796875 63.445312 62.855469 63.214844 62.96875 C 63.214844 62.96875 63.1875 62.96875 63.128906 62.96875 C 63.128906 62.96875 63.128906 62.941406 63.128906 62.882812 C 63.128906 62.828125 63.15625 62.769531 63.214844 62.710938 C 63.214844 62.65625 63.214844 62.570312 63.214844 62.453125 C 63.214844 62.339844 63.101562 62.195312 62.871094 62.023438 C 62.925781 61.792969 62.984375 61.59375 63.042969 61.421875 C 63.042969 61.25 63.042969 61.074219 63.042969 60.902344 C 63.042969 60.558594 62.957031 60.242188 62.785156 59.957031 L 61.320312 61.421875 L 61.320312 61.507812 C 61.320312 61.621094 61.550781 61.996094 62.007812 62.625 L 62.785156 62.28125 C 62.613281 62.453125 62.46875 62.597656 62.351562 62.710938 C 62.179688 62.769531 62.09375 62.855469 62.09375 62.96875 C 62.09375 63.199219 62.210938 63.316406 62.441406 63.316406 C 62.613281 63.316406 62.785156 63.230469 62.957031 63.054688 L 63.042969 63.230469 C 62.925781 63.34375 62.871094 63.402344 62.871094 63.402344 L 62.785156 63.402344 L 62.785156 63.917969 C 63.128906 64.261719 63.472656 64.519531 63.816406 64.691406 C 64.335938 63.832031 64.59375 63.371094 64.59375 63.316406 Z M 62.957031 46.265625 C 62.898438 45.175781 62.871094 44.339844 62.871094 43.765625 C 62.871094 43.195312 62.871094 42.878906 62.871094 42.820312 L 61.492188 42.820312 C 61.261719 42.132812 61.089844 41.527344 60.976562 41.011719 C 60.804688 40.496094 60.6875 40.066406 60.632812 39.71875 L 61.492188 39.03125 C 60.34375 37.078125 59.769531 36.105469 59.769531 36.105469 L 58.996094 37.136719 L 56.496094 34.726562 L 57.359375 33.691406 L 56.410156 32.402344 L 54.863281 33.433594 C 54.230469 33.03125 53.683594 32.6875 53.226562 32.402344 C 52.765625 32.113281 52.394531 31.882812 52.105469 31.710938 L 52.621094 30.335938 L 51.246094 29.558594 L 52.796875 29.988281 L 53.054688 29.472656 C 52.421875 29.070312 51.90625 28.753906 51.503906 28.527344 C 51.042969 28.238281 50.671875 27.980469 50.382812 27.75 L 50.125 28.785156 L 51.332031 29.472656 L 49.953125 29.042969 L 49.523438 30.59375 C 49.234375 30.304688 48.71875 30.105469 47.972656 29.988281 C 47.226562 29.875 46.710938 29.703125 46.421875 29.472656 L 46.421875 28.785156 C 45.390625 28.441406 44.328125 28.179688 43.238281 28.007812 L 43.066406 29.128906 L 40.050781 29.128906 L 40.050781 27.234375 L 35.746094 28.355469 L 36.519531 29.558594 C 35.886719 29.902344 35.34375 30.21875 34.882812 30.507812 C 34.367188 30.734375 33.9375 30.910156 33.59375 31.023438 L 33.160156 30.421875 C 32.472656 30.820312 31.898438 31.253906 31.441406 31.710938 L 31.179688 31.625 L 32.988281 30.074219 L 32.472656 29.300781 C 30.921875 29.988281 30.121094 30.335938 30.0625 30.335938 C 30.636719 31.136719 31.066406 31.882812 31.351562 32.574219 C 30.089844 33.550781 29.257812 34.410156 28.855469 35.15625 L 27.824219 34.46875 C 26.15625 35.617188 25.183594 36.675781 24.894531 37.652344 L 26.359375 38.429688 C 26.246094 39.289062 26.070312 39.949219 25.84375 40.410156 C 25.554688 40.867188 25.296875 41.214844 25.066406 41.441406 C 24.835938 41.613281 24.636719 41.730469 24.464844 41.785156 C 24.234375 41.785156 24.089844 41.816406 24.035156 41.875 L 23.949219 41.699219 L 22.398438 41.613281 C 22.511719 42.878906 22.542969 43.679688 22.484375 44.027344 C 22.425781 44.3125 22.511719 44.457031 22.742188 44.457031 C 23.085938 44.457031 23.34375 44.3125 23.515625 44.027344 C 23.632812 43.679688 23.71875 43.335938 23.777344 42.992188 C 23.890625 42.648438 23.949219 42.359375 23.949219 42.132812 C 23.949219 41.84375 23.949219 41.730469 23.949219 41.785156 C 24.0625 42.246094 24.121094 42.648438 24.121094 42.992188 C 24.121094 43.28125 24.0625 43.710938 23.949219 44.285156 L 24.808594 44.542969 L 24.808594 44.800781 C 24.808594 45.089844 24.867188 45.460938 24.980469 45.921875 C 25.039062 46.378906 25.066406 46.839844 25.066406 47.296875 C 25.066406 47.640625 25.011719 47.988281 24.894531 48.332031 L 23.34375 48.503906 L 24.808594 51.429688 L 26.015625 51.171875 C 26.070312 51.402344 26.300781 51.863281 26.703125 52.550781 C 27.105469 53.238281 27.304688 53.8125 27.304688 54.273438 L 26.445312 54.875 L 26.960938 56.339844 C 27.25 56.742188 27.535156 57.113281 27.824219 57.460938 C 28.050781 57.746094 28.226562 58.003906 28.339844 58.234375 L 29.546875 57.285156 C 30.808594 57.859375 31.640625 58.40625 32.042969 58.921875 L 31.007812 60.300781 C 31.582031 60.589844 32.070312 60.816406 32.472656 60.988281 C 32.816406 61.160156 33.132812 61.304688 33.421875 61.421875 L 33.851562 60.214844 C 35 60.617188 35.945312 61.019531 36.691406 61.421875 L 36.433594 62.453125 L 37.898438 63.140625 C 38.183594 62.511719 38.558594 62.195312 39.015625 62.195312 C 39.304688 62.195312 39.792969 62.339844 40.480469 62.625 C 41.113281 62.914062 41.601562 63.054688 41.945312 63.054688 L 41.859375 63.917969 C 43.351562 64.375 44.441406 64.636719 45.132812 64.691406 C 45.1875 63.945312 45.53125 63.515625 46.164062 63.402344 L 47.886719 63.402344 L 48.144531 64.519531 L 51.417969 64.519531 L 51.160156 63.230469 C 51.273438 63.113281 51.617188 62.941406 52.191406 62.710938 C 52.765625 62.480469 53.195312 62.367188 53.484375 62.367188 C 53.828125 62.367188 54.257812 62.625 54.777344 63.140625 L 56.324219 61.335938 L 55.636719 60.730469 C 56.097656 60.273438 56.496094 59.871094 56.84375 59.527344 C 57.1875 59.125 57.472656 58.78125 57.703125 58.492188 L 58.996094 59.09375 C 59.742188 58.175781 60.34375 57.402344 60.804688 56.769531 C 59.484375 56.425781 58.824219 55.996094 58.824219 55.480469 C 58.824219 54.730469 59.742188 54.214844 61.578125 53.929688 L 62.527344 51.085938 L 60.890625 50.742188 C 60.890625 50.683594 60.945312 50.457031 61.0625 50.054688 C 61.121094 49.59375 61.207031 48.933594 61.320312 48.074219 C 61.550781 46.808594 61.953125 46.179688 62.527344 46.179688 C 62.699219 46.179688 62.839844 46.207031 62.957031 46.265625 Z M 57.875 62.453125 C 57.359375 61.996094 57.101562 61.734375 57.101562 61.679688 C 57.042969 61.679688 56.957031 61.679688 56.84375 61.679688 C 56.84375 61.679688 56.757812 61.734375 56.585938 61.851562 C 56.410156 61.910156 56.210938 61.996094 55.980469 62.109375 C 55.808594 62.28125 55.636719 62.480469 55.464844 62.710938 C 55.234375 62.941406 55.121094 63.199219 55.121094 63.488281 C 55.121094 63.601562 55.234375 63.832031 55.464844 64.175781 C 55.867188 63.945312 56.269531 63.6875 56.671875 63.402344 C 57.015625 63.113281 57.417969 62.796875 57.875 62.453125 Z M 59.253906 65.125 C 58.964844 63.976562 58.59375 63.199219 58.132812 62.796875 L 55.808594 64.175781 L 55.808594 64.261719 C 55.808594 64.375 55.835938 64.664062 55.894531 65.125 C 55.953125 65.523438 56.296875 65.726562 56.929688 65.726562 C 57.214844 65.726562 57.617188 65.609375 58.132812 65.382812 C 58.707031 65.210938 59.082031 65.125 59.253906 65.125 Z M 59.425781 65.898438 C 59.3125 65.609375 59.195312 65.46875 59.082031 65.46875 C 58.621094 65.46875 58.164062 65.554688 57.703125 65.726562 C 57.246094 65.898438 56.898438 66.011719 56.671875 66.070312 L 56.757812 66.5 L 57.1875 66.5 C 57.644531 66.5 58.046875 66.445312 58.390625 66.328125 C 58.738281 66.214844 59.082031 66.070312 59.425781 65.898438 Z M 64.9375 71.410156 L 64.9375 71.152344 C 64.9375 70.519531 64.621094 70.203125 63.988281 70.203125 C 63.761719 70.203125 62.984375 70.777344 61.664062 71.925781 C 61.953125 72.214844 62.238281 72.355469 62.527344 72.355469 C 62.871094 72.355469 63.359375 72.183594 63.988281 71.839844 C 64.5625 71.554688 64.878906 71.410156 64.9375 71.410156 Z M 63.128906 70.117188 L 62.957031 70.117188 C 62.839844 70.117188 62.667969 70.117188 62.441406 70.117188 C 62.210938 70.058594 61.894531 70.003906 61.492188 69.945312 C 61.433594 70.058594 61.234375 70.261719 60.890625 70.546875 C 60.546875 70.894531 60.371094 71.207031 60.371094 71.496094 C 60.773438 71.609375 61.121094 71.695312 61.40625 71.753906 C 62.554688 70.71875 63.128906 70.175781 63.128906 70.117188 Z M 57.359375 68.566406 L 59.425781 67.792969 L 59.339844 66.328125 L 56.929688 66.84375 C 57.15625 67.992188 57.300781 68.566406 57.359375 68.566406 Z M 64.9375 71.839844 C 64.476562 72.125 63.988281 72.328125 63.472656 72.441406 C 62.898438 72.558594 62.613281 72.699219 62.613281 72.875 C 62.613281 72.988281 62.699219 73.1875 62.871094 73.476562 C 62.984375 73.707031 63.042969 73.933594 63.042969 74.164062 C 63.042969 74.28125 63.011719 74.367188 62.957031 74.421875 L 64.074219 73.90625 C 64.535156 73.101562 64.820312 72.414062 64.9375 71.839844 Z M 26.1875 33.089844 C 24.75 32.574219 24.035156 32.285156 24.035156 32.230469 C 23.976562 32.230469 23.71875 32.402344 23.257812 32.746094 C 22.800781 33.089844 22.570312 33.492188 22.570312 33.949219 C 22.570312 34.179688 22.65625 34.382812 22.828125 34.554688 C 23 34.785156 23.144531 35.042969 23.257812 35.328125 C 23.71875 35.042969 24.175781 34.726562 24.636719 34.382812 C 25.152344 33.980469 25.671875 33.550781 26.1875 33.089844 Z M 27.304688 34.125 C 27.132812 33.605469 26.90625 33.347656 26.617188 33.347656 C 26.214844 33.347656 25.8125 33.519531 25.410156 33.863281 C 25.011719 34.210938 24.664062 34.582031 24.378906 34.984375 C 24.035156 35.328125 23.777344 35.617188 23.601562 35.84375 C 23.375 36.132812 23.257812 36.21875 23.257812 36.105469 C 23.71875 36.734375 24.175781 37.109375 24.636719 37.222656 C 25.210938 36.535156 25.726562 35.929688 26.1875 35.414062 C 26.644531 34.898438 27.019531 34.46875 27.304688 34.125 Z M 59.941406 69 C 59.828125 68.539062 59.65625 68.222656 59.425781 68.050781 L 57.359375 69.085938 C 57.761719 69.832031 58.078125 70.203125 58.304688 70.203125 C 58.707031 69.917969 59.050781 69.660156 59.339844 69.429688 C 59.570312 69.257812 59.769531 69.113281 59.941406 69 Z M 61.148438 69.859375 L 60.199219 69.257812 C 59.339844 69.773438 58.765625 70.175781 58.476562 70.460938 C 58.765625 70.691406 59.023438 70.863281 59.253906 70.980469 C 59.484375 71.152344 59.710938 71.265625 59.941406 71.324219 C 60.460938 70.863281 60.859375 70.375 61.148438 69.859375 Z M 67.863281 77.179688 C 67.578125 76.660156 67.148438 76.375 66.574219 76.316406 C 66.285156 76.546875 66.054688 76.75 65.882812 76.921875 C 65.65625 77.09375 65.480469 77.234375 65.367188 77.351562 C 65.769531 77.753906 66 77.953125 66.054688 77.953125 L 66.140625 77.953125 C 67.175781 77.4375 67.75 77.179688 67.863281 77.179688 Z M 23.515625 32.140625 C 23.460938 32.140625 23.230469 32.085938 22.828125 31.96875 C 22.425781 31.796875 22.140625 31.710938 21.96875 31.710938 C 21.335938 32.402344 20.90625 33.03125 20.675781 33.605469 C 21.019531 33.664062 21.308594 33.691406 21.535156 33.691406 C 21.824219 33.691406 22.023438 33.722656 22.140625 33.777344 C 22.425781 33.375 22.683594 33.0625 22.914062 32.832031 C 23.203125 32.542969 23.402344 32.316406 23.515625 32.140625 Z M 68.382812 78.125 C 68.382812 77.78125 68.238281 77.550781 67.949219 77.4375 C 68.007812 77.496094 67.433594 77.753906 66.226562 78.210938 C 66.226562 78.730469 66.515625 78.988281 67.089844 78.988281 C 67.320312 78.988281 67.605469 78.957031 67.949219 78.902344 C 68.238281 78.785156 68.382812 78.527344 68.382812 78.125 Z M 63.042969 75.972656 L 65.023438 75.285156 C 64.792969 74.710938 64.621094 74.222656 64.507812 73.820312 L 64.074219 74.078125 C 63.789062 74.25 63.53125 74.421875 63.300781 74.59375 C 63.070312 74.769531 62.871094 74.910156 62.699219 75.027344 C 62.699219 75.199219 62.8125 75.515625 63.042969 75.972656 Z M 66.226562 75.972656 C 65.941406 75.6875 65.65625 75.542969 65.367188 75.542969 C 65.253906 75.542969 64.59375 75.773438 63.386719 76.230469 C 64.019531 76.804688 64.59375 77.121094 65.109375 77.179688 C 65.855469 76.433594 66.226562 76.03125 66.226562 75.972656 Z M 18.09375 27.921875 L 18.09375 27.75 C 17.863281 27.464844 17.546875 27.320312 17.144531 27.320312 C 16.6875 27.320312 16.253906 27.550781 15.851562 28.007812 C 15.453125 28.46875 15.191406 28.8125 15.078125 29.042969 C 15.652344 29.386719 15.96875 29.558594 16.027344 29.558594 C 16.773438 28.871094 17.460938 28.324219 18.09375 27.921875 Z M 67.949219 79.332031 L 67.949219 79.074219 C 67.894531 79.074219 67.691406 79.128906 67.347656 79.246094 C 66.945312 79.359375 66.746094 79.5625 66.746094 79.847656 C 66.800781 80.191406 66.945312 80.363281 67.175781 80.363281 C 67.691406 80.363281 67.949219 80.019531 67.949219 79.332031 Z M 17.058594 32.054688 L 18.867188 29.300781 C 18.808594 28.613281 18.609375 28.210938 18.265625 28.09375 C 17.804688 28.496094 17.402344 28.839844 17.058594 29.128906 C 16.65625 29.359375 16.339844 29.585938 16.113281 29.816406 C 16.628906 30.5625 16.945312 31.308594 17.058594 32.054688 Z M 21.363281 31.796875 L 20.160156 31.453125 C 19.699219 31.683594 19.441406 31.796875 19.382812 31.796875 L 19.296875 31.796875 L 19.816406 31.28125 C 19.46875 30.476562 19.183594 29.933594 18.953125 29.644531 L 16.972656 32.660156 L 17.144531 33.347656 C 18.007812 32.832031 18.667969 32.371094 19.125 31.96875 L 19.210938 32.054688 L 17.660156 33.605469 C 18.0625 34.007812 18.550781 34.210938 19.125 34.210938 C 19.699219 34.210938 20.160156 33.949219 20.503906 33.433594 C 20.789062 32.859375 21.078125 32.316406 21.363281 31.796875 Z M 16.027344 27.40625 C 15.105469 27.40625 14.503906 27.464844 14.21875 27.578125 C 13.871094 27.695312 13.699219 27.808594 13.699219 27.921875 C 13.699219 28.09375 13.84375 28.265625 14.132812 28.441406 C 14.359375 28.613281 14.53125 28.699219 14.648438 28.699219 C 14.820312 28.699219 15.078125 28.496094 15.421875 28.09375 C 15.765625 27.695312 15.96875 27.464844 16.027344 27.40625 Z M 67.089844 80.710938 L 67.089844 80.625 C 66.976562 80.679688 66.859375 80.824219 66.746094 81.054688 C 66.976562 80.996094 67.089844 80.882812 67.089844 80.710938 Z M 51.246094 65.8125 L 51.332031 64.777344 C 50.699219 64.777344 50.15625 64.777344 49.695312 64.777344 C 49.234375 64.777344 48.863281 64.808594 48.574219 64.863281 L 48.144531 64.863281 C 48.085938 64.863281 48.058594 64.949219 48.058594 65.125 C 48.058594 65.296875 48.230469 65.4375 48.574219 65.554688 C 48.863281 65.609375 49.179688 65.667969 49.523438 65.726562 C 49.925781 65.726562 50.296875 65.753906 50.640625 65.8125 C 50.988281 65.8125 51.1875 65.8125 51.246094 65.8125 Z M 51.074219 67.621094 L 51.246094 66.242188 C 49.925781 65.957031 48.976562 65.8125 48.402344 65.8125 L 47.972656 65.8125 L 48.230469 68.222656 C 49.78125 68.050781 50.726562 67.851562 51.074219 67.621094 Z M 51.074219 68.652344 C 51.074219 68.597656 51.015625 68.394531 50.902344 68.050781 C 50.269531 68.164062 49.753906 68.28125 49.351562 68.394531 C 48.890625 68.453125 48.519531 68.539062 48.230469 68.652344 C 48.460938 69.285156 48.632812 69.628906 48.746094 69.6875 C 48.746094 69.6875 48.863281 69.660156 49.09375 69.601562 C 49.378906 69.484375 49.667969 69.371094 49.953125 69.257812 C 50.242188 69.199219 50.5 69.113281 50.726562 69 C 50.957031 68.882812 51.074219 68.769531 51.074219 68.652344 Z M 53.226562 72.011719 C 52.710938 71.609375 52.335938 71.324219 52.105469 71.152344 C 51.820312 70.980469 51.648438 70.863281 51.589844 70.804688 C 50.902344 71.207031 50.441406 71.523438 50.210938 71.753906 C 50.210938 71.925781 50.269531 72.097656 50.382812 72.269531 C 50.554688 72.441406 50.816406 72.527344 51.160156 72.527344 C 51.90625 72.527344 52.59375 72.355469 53.226562 72.011719 Z M 54.429688 73.304688 C 54.316406 72.613281 54.03125 72.269531 53.570312 72.269531 C 53.339844 72.269531 52.996094 72.386719 52.535156 72.613281 C 52.019531 72.84375 51.675781 72.960938 51.503906 72.960938 C 51.5625 73.476562 51.875 73.734375 52.449219 73.734375 C 52.679688 73.734375 53.054688 73.675781 53.570312 73.5625 C 54.085938 73.445312 54.375 73.359375 54.429688 73.304688 Z M 51.417969 69.945312 L 51.074219 69.429688 C 49.808594 69.832031 49.09375 70.03125 48.921875 70.03125 C 49.148438 70.375 49.351562 70.691406 49.523438 70.980469 C 49.636719 71.207031 49.753906 71.378906 49.867188 71.496094 C 49.980469 71.378906 50.269531 71.207031 50.726562 70.980469 C 51.1875 70.691406 51.417969 70.347656 51.417969 69.945312 Z M 54.429688 73.820312 C 54.429688 73.820312 54.429688 73.792969 54.429688 73.734375 C 54.375 73.734375 54.316406 73.734375 54.257812 73.734375 C 53.972656 73.734375 53.28125 73.820312 52.191406 73.992188 L 52.277344 75.199219 C 52.679688 75.3125 53.023438 75.398438 53.3125 75.457031 C 53.542969 75.457031 53.769531 75.484375 54 75.542969 C 54.117188 75.140625 54.203125 74.824219 54.257812 74.59375 C 54.316406 74.308594 54.375 74.050781 54.429688 73.820312 Z M 45.132812 65.035156 L 41.6875 64.347656 L 41.429688 65.382812 L 44.960938 65.640625 C 45.074219 65.296875 45.132812 65.09375 45.132812 65.035156 Z M 22.054688 44.457031 C 21.996094 43.480469 21.96875 42.734375 21.96875 42.21875 C 21.96875 41.699219 21.96875 41.414062 21.96875 41.355469 L 21.105469 41.097656 L 20.589844 41.613281 L 20.589844 41.011719 L 19.902344 40.839844 L 18.867188 43.335938 C 19.097656 43.566406 19.328125 43.738281 19.554688 43.855469 C 19.785156 43.394531 19.988281 42.992188 20.160156 42.648438 C 20.273438 42.246094 20.386719 41.902344 20.503906 41.613281 C 20.445312 42.132812 20.359375 42.621094 20.246094 43.078125 C 20.128906 43.480469 20.015625 43.824219 19.902344 44.113281 C 20.300781 44.339844 21.019531 44.457031 22.054688 44.457031 Z M 18.609375 43.078125 L 19.554688 40.496094 C 18.808594 40.207031 18.320312 39.949219 18.09375 39.71875 C 17.347656 40.753906 16.972656 41.269531 16.972656 41.269531 C 17.605469 42.246094 18.148438 42.847656 18.609375 43.078125 Z M 16.886719 41.183594 L 17.832031 39.546875 C 17.203125 39.203125 16.714844 39.03125 16.371094 39.03125 C 15.96875 39.03125 15.710938 39.261719 15.59375 39.71875 C 15.480469 40.238281 15.421875 40.609375 15.421875 40.839844 C 15.765625 40.953125 16.054688 41.039062 16.285156 41.097656 C 16.511719 41.15625 16.6875 41.183594 16.800781 41.183594 L 16.886719 41.183594 C 16.886719 41.242188 16.886719 41.269531 16.886719 41.269531 C 16.945312 41.269531 16.972656 41.269531 16.972656 41.269531 Z M 44.785156 66.242188 C 44.785156 66.128906 44.757812 66.042969 44.699219 65.984375 C 44.183594 65.753906 43.4375 65.640625 42.460938 65.640625 C 41.601562 65.640625 41.171875 65.898438 41.171875 66.414062 L 41.171875 66.585938 L 44.097656 67.621094 C 44.210938 67.332031 44.355469 67.074219 44.527344 66.84375 C 44.699219 66.617188 44.785156 66.414062 44.785156 66.242188 Z M 53.570312 75.886719 C 53.398438 75.773438 53.253906 75.6875 53.140625 75.628906 C 52.96875 75.570312 52.765625 75.542969 52.535156 75.542969 C 52.480469 75.542969 52.421875 75.570312 52.363281 75.628906 C 52.308594 75.628906 52.222656 75.628906 52.105469 75.628906 L 51.675781 77.09375 C 52.25 77.09375 52.621094 77.121094 52.796875 77.179688 C 53.3125 76.777344 53.570312 76.347656 53.570312 75.886719 Z M 43.839844 68.136719 L 43.839844 67.878906 L 41.085938 67.105469 L 41.085938 67.792969 C 41.085938 68.195312 41.285156 68.453125 41.6875 68.566406 C 42.03125 68.683594 42.40625 68.738281 42.804688 68.738281 C 43.496094 68.738281 43.839844 68.539062 43.839844 68.136719 Z M 53.398438 78.382812 C 53.398438 78.328125 53.3125 78.242188 53.140625 78.125 C 53.140625 78.070312 53.167969 78.039062 53.226562 78.039062 C 53.226562 77.980469 53.226562 77.925781 53.226562 77.867188 C 53.226562 77.582031 52.96875 77.4375 52.449219 77.4375 L 51.675781 77.4375 C 51.503906 77.78125 51.417969 78.070312 51.417969 78.296875 C 51.417969 78.816406 51.589844 79.074219 51.933594 79.074219 C 52.050781 79.074219 52.277344 78.988281 52.621094 78.816406 C 52.96875 78.644531 53.195312 78.554688 53.3125 78.554688 C 53.3125 78.5 53.3125 78.46875 53.3125 78.46875 C 53.371094 78.46875 53.398438 78.441406 53.398438 78.382812 Z M 15.25 39.546875 C 14.964844 39.664062 14.734375 39.71875 14.5625 39.71875 C 14.332031 39.777344 14.160156 39.835938 14.046875 39.890625 L 13.527344 41.269531 C 13.757812 41.15625 13.929688 41.070312 14.046875 41.011719 C 14.160156 40.953125 14.273438 40.898438 14.390625 40.839844 C 14.503906 40.898438 14.648438 40.925781 14.820312 40.925781 C 15.105469 40.238281 15.25 39.777344 15.25 39.546875 Z M 56.929688 81.484375 C 56.8125 81.484375 56.671875 81.484375 56.496094 81.484375 C 56.324219 81.542969 56.183594 81.570312 56.066406 81.570312 C 55.894531 81.570312 55.722656 81.542969 55.550781 81.484375 C 55.4375 81.484375 55.292969 81.484375 55.121094 81.484375 C 55.523438 81.371094 55.867188 81.285156 56.152344 81.226562 C 56.382812 81.167969 56.585938 81.109375 56.757812 81.054688 L 56.496094 80.796875 C 56.324219 80.738281 56.011719 80.625 55.550781 80.449219 C 55.089844 80.222656 54.746094 80.105469 54.515625 80.105469 C 54.117188 80.105469 53.800781 80.277344 53.570312 80.625 C 53.570312 80.96875 53.742188 81.226562 54.085938 81.398438 C 54.375 81.570312 54.71875 81.65625 55.121094 81.65625 L 54.34375 81.914062 L 54.777344 82.691406 C 55.40625 82.691406 55.894531 82.632812 56.238281 82.519531 C 56.527344 82.402344 56.757812 82.058594 56.929688 81.484375 Z M 53.226562 80.535156 L 54.34375 79.847656 L 53.398438 78.902344 L 52.191406 79.417969 C 52.480469 79.933594 52.824219 80.308594 53.226562 80.535156 Z M 43.238281 69.601562 L 43.324219 69.171875 L 41.945312 69.085938 C 41.945312 69.371094 42.117188 69.542969 42.460938 69.601562 Z M 37.46875 63.488281 L 36.089844 62.710938 L 35.746094 63.574219 C 36.261719 63.917969 36.605469 64.089844 36.777344 64.089844 C 37.066406 64.089844 37.296875 63.890625 37.46875 63.488281 Z M 24.378906 51.777344 C 24.378906 51.257812 24.292969 50.828125 24.121094 50.484375 C 23.890625 50.082031 23.691406 49.738281 23.515625 49.449219 C 23.289062 49.164062 23.085938 48.933594 22.914062 48.761719 C 22.742188 48.648438 22.683594 48.589844 22.742188 48.589844 C 22.339844 48.589844 22.140625 48.734375 22.140625 49.019531 C 22.140625 49.191406 22.195312 49.625 22.3125 50.3125 C 22.371094 50.945312 22.511719 51.777344 22.742188 52.808594 C 23.488281 52.40625 23.949219 52.179688 24.121094 52.121094 C 24.292969 52.003906 24.378906 51.890625 24.378906 51.777344 Z M 43.667969 71.324219 C 43.550781 70.980469 43.4375 70.632812 43.324219 70.289062 C 43.152344 69.945312 42.890625 69.773438 42.546875 69.773438 C 42.03125 70.289062 41.746094 70.664062 41.6875 70.894531 C 41.917969 70.894531 42.261719 70.949219 42.71875 71.066406 C 43.179688 71.179688 43.496094 71.265625 43.667969 71.324219 Z M 55.808594 82.949219 L 54.777344 82.949219 C 54.601562 83.578125 54.515625 84.011719 54.515625 84.238281 C 55.089844 83.722656 55.523438 83.292969 55.808594 82.949219 Z M 13.699219 39.890625 C 13.644531 39.835938 13.558594 39.804688 13.441406 39.804688 C 12.636719 39.804688 11.777344 40.582031 10.859375 42.132812 L 12.066406 42.132812 C 12.582031 42.132812 12.953125 41.875 13.183594 41.355469 C 13.355469 40.839844 13.527344 40.351562 13.699219 39.890625 Z M 44.699219 72.613281 C 44.472656 71.984375 44.070312 71.582031 43.496094 71.410156 C 42.921875 71.292969 42.375 71.238281 41.859375 71.238281 L 41.515625 71.238281 L 41.429688 72.011719 C 42.175781 72.183594 42.804688 72.328125 43.324219 72.441406 C 43.839844 72.5 44.296875 72.558594 44.699219 72.613281 Z M 36.433594 65.726562 L 36.691406 64.433594 L 35.574219 64.003906 L 35.054688 65.640625 Z M 12.066406 39.804688 C 11.605469 39.578125 11.203125 39.40625 10.859375 39.289062 L 9.996094 41.355469 C 10.171875 41.699219 10.34375 41.875 10.515625 41.875 C 10.570312 41.875 10.742188 41.699219 11.03125 41.355469 C 11.316406 41.011719 11.546875 40.695312 11.71875 40.410156 C 11.890625 40.066406 12.007812 39.863281 12.066406 39.804688 Z M 10.601562 38.945312 C 10.3125 38.714844 10.054688 38.542969 9.824219 38.429688 C 9.597656 38.257812 9.394531 38.113281 9.222656 38 C 9.222656 38.226562 9.164062 38.570312 9.050781 39.03125 C 8.9375 39.492188 8.878906 39.804688 8.878906 39.980469 C 8.878906 40.496094 9.164062 40.867188 9.738281 41.097656 C 9.910156 40.640625 10.082031 40.207031 10.257812 39.804688 C 10.371094 39.460938 10.484375 39.175781 10.601562 38.945312 Z M 33.421875 61.851562 C 32.789062 61.5625 32.242188 61.304688 31.785156 61.074219 C 31.324219 60.902344 30.921875 60.761719 30.578125 60.644531 C 30.578125 60.703125 30.492188 60.789062 30.320312 60.902344 C 30.089844 61.019531 29.976562 61.160156 29.976562 61.335938 C 30.722656 61.5625 31.351562 61.765625 31.871094 61.9375 C 32.386719 62.167969 32.816406 62.339844 33.160156 62.453125 C 33.332031 62.109375 33.421875 61.910156 33.421875 61.851562 Z M 22.398438 53.066406 C 22.167969 52.207031 21.996094 51.460938 21.882812 50.828125 C 21.707031 50.195312 21.566406 49.652344 21.449219 49.191406 L 19.726562 50.570312 L 21.277344 53.152344 C 21.449219 53.210938 21.652344 53.238281 21.882812 53.238281 C 22.109375 53.238281 22.28125 53.183594 22.398438 53.066406 Z M 44.699219 72.960938 L 41.515625 72.441406 L 41.515625 73.992188 L 43.324219 74.855469 C 44.242188 74.335938 44.699219 73.707031 44.699219 72.960938 Z M 27.132812 59.007812 L 27.996094 58.578125 C 27.765625 58.121094 27.566406 57.71875 27.390625 57.375 C 27.164062 56.972656 26.992188 56.65625 26.875 56.425781 L 26.101562 54.960938 L 24.636719 55.480469 C 25.210938 56.28125 25.699219 56.972656 26.101562 57.546875 C 26.503906 58.121094 26.847656 58.605469 27.132812 59.007812 Z M 35.054688 66.757812 L 37.554688 67.964844 L 37.554688 67.792969 C 37.210938 67.21875 36.980469 66.757812 36.863281 66.414062 C 36.691406 66.070312 36.433594 65.898438 36.089844 65.898438 L 35.054688 65.898438 C 34.941406 66.242188 34.882812 66.445312 34.882812 66.5 C 34.882812 66.558594 34.941406 66.644531 35.054688 66.757812 Z M 8.878906 37.738281 C 8.132812 37.164062 7.472656 36.820312 6.898438 36.707031 C 6.554688 37.511719 6.296875 38.113281 6.121094 38.515625 C 7.558594 39.375 8.332031 39.804688 8.449219 39.804688 C 8.5625 39.230469 8.648438 38.773438 8.707031 38.429688 C 8.761719 38.085938 8.820312 37.855469 8.878906 37.738281 Z M 6.554688 36.535156 L 5.261719 36.449219 C 4.800781 37.136719 4.542969 37.683594 4.488281 38.085938 C 5.0625 38.085938 5.492188 38.171875 5.777344 38.34375 C 6.121094 37.597656 6.382812 36.992188 6.554688 36.535156 Z M 32.988281 62.796875 C 32.472656 62.570312 31.957031 62.339844 31.441406 62.109375 C 30.867188 61.9375 30.261719 61.765625 29.632812 61.59375 C 29.285156 62.050781 29.113281 62.308594 29.113281 62.367188 C 29.6875 62.828125 30.207031 63.230469 30.664062 63.574219 C 31.066406 63.859375 31.410156 64.117188 31.699219 64.347656 C 32.214844 64.117188 32.644531 63.601562 32.988281 62.796875 Z M 20.074219 53.238281 L 20.933594 53.324219 C 20.648438 52.636719 20.359375 52.121094 20.074219 51.777344 C 19.726562 51.375 19.46875 51.03125 19.296875 50.742188 L 19.039062 51.085938 Z M 36.605469 69.085938 L 37.46875 68.308594 C 36.320312 67.679688 35.429688 67.277344 34.796875 67.105469 C 34.625 67.277344 34.539062 67.503906 34.539062 67.792969 C 34.539062 67.964844 34.597656 68.222656 34.710938 68.566406 Z M 26.703125 59.355469 C 26.1875 58.207031 25.757812 57.375 25.410156 56.855469 C 25.011719 56.339844 24.695312 55.964844 24.464844 55.738281 C 24.003906 55.738281 23.601562 55.9375 23.257812 56.339844 C 23.429688 56.511719 23.601562 56.800781 23.777344 57.199219 C 23.890625 57.546875 24.035156 57.917969 24.207031 58.320312 C 24.378906 58.722656 24.578125 59.066406 24.808594 59.355469 C 24.980469 59.699219 25.152344 59.871094 25.324219 59.871094 C 25.726562 59.871094 26.1875 59.699219 26.703125 59.355469 Z M 42.375 76.144531 L 43.152344 75.027344 C 42.175781 74.625 41.601562 74.421875 41.429688 74.421875 L 41.085938 75.542969 C 41.371094 75.65625 41.628906 75.773438 41.859375 75.886719 C 42.089844 76 42.261719 76.089844 42.375 76.144531 Z M 19.640625 53.238281 C 19.296875 52.4375 19.039062 51.832031 18.867188 51.429688 C 18.695312 51.085938 18.351562 50.914062 17.832031 50.914062 C 17.605469 50.914062 17.488281 51.058594 17.488281 51.34375 C 17.488281 52.089844 17.691406 52.609375 18.09375 52.894531 C 18.4375 53.125 18.753906 53.238281 19.039062 53.238281 C 19.382812 53.238281 19.585938 53.238281 19.640625 53.238281 Z M 4.660156 36.621094 C 3.625 36.675781 2.964844 37.222656 2.679688 38.257812 L 3.796875 38.171875 C 4.085938 37.941406 4.371094 37.425781 4.660156 36.621094 Z M 36.003906 69.34375 C 35.773438 69.113281 35.285156 69 34.539062 69 C 34.480469 69.113281 34.453125 69.285156 34.453125 69.515625 C 34.453125 69.800781 34.566406 69.945312 34.796875 69.945312 C 35.371094 69.945312 35.773438 69.746094 36.003906 69.34375 Z M 31.351562 64.433594 L 28.683594 62.539062 C 28.109375 63.285156 27.824219 63.714844 27.824219 63.832031 C 27.9375 63.890625 28.226562 64.148438 28.683594 64.605469 C 29.144531 65.066406 29.546875 65.324219 29.890625 65.382812 C 30.578125 64.921875 31.066406 64.605469 31.351562 64.433594 Z M 24.378906 60.300781 L 24.808594 60.300781 C 24.808594 59.613281 24.148438 58.320312 22.828125 56.425781 L 22.484375 56.683594 C 22.886719 57.488281 23.230469 58.207031 23.515625 58.835938 C 23.804688 59.410156 24.089844 59.898438 24.378906 60.300781 Z M 42.117188 76.75 C 42.117188 76.402344 42.003906 76.203125 41.773438 76.144531 C 41.484375 76.03125 41.199219 75.914062 40.910156 75.800781 L 40.308594 76.75 C 40.480469 76.804688 40.769531 76.890625 41.171875 77.007812 C 41.515625 77.0625 41.800781 77.09375 42.03125 77.09375 C 42.089844 76.976562 42.117188 76.863281 42.117188 76.75 Z M 34.96875 70.203125 L 34.367188 70.03125 C 34.195312 70.144531 34.109375 70.261719 34.109375 70.375 C 34.109375 70.433594 34.136719 70.519531 34.195312 70.632812 C 34.253906 70.75 34.339844 70.804688 34.453125 70.804688 C 34.625 70.804688 34.796875 70.605469 34.96875 70.203125 Z M 23.949219 60.558594 C 23.375 59.46875 22.941406 58.636719 22.65625 58.0625 C 22.3125 57.429688 22.082031 57.058594 21.96875 56.941406 L 21.019531 57.976562 C 21.765625 59.296875 22.371094 60.242188 22.828125 60.816406 C 23.34375 60.644531 23.71875 60.558594 23.949219 60.558594 Z M 29.285156 65.554688 C 28.539062 64.808594 27.878906 64.289062 27.304688 64.003906 C 26.847656 64.636719 26.617188 65.09375 26.617188 65.382812 C 27.363281 65.957031 28.050781 66.242188 28.683594 66.242188 C 28.914062 66.242188 29.058594 66.15625 29.113281 65.984375 C 29.171875 65.8125 29.230469 65.667969 29.285156 65.554688 Z M 41.601562 78.816406 L 41.773438 77.4375 L 41.515625 77.4375 C 40.996094 77.207031 40.511719 77.09375 40.050781 77.09375 C 39.9375 77.667969 39.851562 78.070312 39.792969 78.296875 C 39.675781 78.585938 39.621094 78.757812 39.621094 78.816406 Z M 34.539062 72.527344 L 34.539062 71.152344 L 34.023438 71.066406 L 33.765625 72.097656 C 33.878906 72.269531 34.136719 72.414062 34.539062 72.527344 Z M 17.316406 53.066406 L 17.316406 52.292969 C 17.316406 51.949219 17.289062 51.660156 17.230469 51.429688 C 17.117188 51.257812 16.886719 51.144531 16.542969 51.085938 L 15.421875 51.085938 C 14.964844 51.375 14.734375 51.515625 14.734375 51.515625 C 14.734375 51.632812 14.847656 51.832031 15.078125 52.121094 C 15.308594 52.40625 15.421875 52.664062 15.421875 52.894531 C 15.421875 52.953125 15.394531 52.980469 15.335938 52.980469 C 15.335938 52.980469 15.335938 53.011719 15.335938 53.066406 C 14.878906 52.320312 14.53125 51.890625 14.304688 51.777344 L 13.097656 52.894531 C 13.210938 53.355469 13.328125 53.726562 13.441406 54.015625 C 13.558594 54.300781 13.671875 54.558594 13.785156 54.789062 C 14.304688 54.386719 14.675781 54.070312 14.90625 53.84375 C 15.078125 53.554688 15.28125 53.296875 15.507812 53.066406 C 15.738281 53.066406 15.941406 53.066406 16.113281 53.066406 C 16.285156 53.125 16.425781 53.152344 16.542969 53.152344 C 16.714844 53.152344 16.859375 53.125 16.972656 53.066406 C 17.085938 53.066406 17.203125 53.066406 17.316406 53.066406 Z M 22.570312 60.988281 C 22.226562 60.53125 21.851562 59.984375 21.449219 59.355469 C 21.046875 58.78125 20.789062 58.492188 20.675781 58.492188 C 20.5625 58.492188 20.246094 58.835938 19.726562 59.527344 L 21.796875 61.421875 L 21.796875 61.335938 C 21.796875 61.390625 22.054688 61.277344 22.570312 60.988281 Z M 41.945312 80.105469 L 41.773438 79.246094 C 41.542969 79.128906 41.3125 79.074219 41.085938 79.074219 C 40.96875 79.074219 40.710938 79.101562 40.308594 79.160156 C 39.851562 79.160156 39.621094 79.304688 39.621094 79.589844 C 39.621094 79.933594 39.707031 80.222656 39.878906 80.449219 C 40.738281 80.449219 41.429688 80.335938 41.945312 80.105469 Z M 28.683594 67.277344 C 28.570312 66.644531 28.226562 66.269531 27.652344 66.15625 C 27.019531 66.042969 26.589844 65.925781 26.359375 65.8125 L 26.273438 66.328125 C 26.789062 66.558594 27.25 66.730469 27.652344 66.84375 C 28.050781 67.019531 28.398438 67.160156 28.683594 67.277344 Z M 42.890625 81.742188 C 42.605469 81.109375 42.347656 80.710938 42.117188 80.535156 C 41.65625 80.59375 41.257812 80.652344 40.910156 80.710938 C 40.566406 80.765625 40.335938 80.824219 40.222656 80.882812 C 40.335938 81.339844 40.683594 81.597656 41.257812 81.65625 C 41.832031 81.65625 42.375 81.683594 42.890625 81.742188 Z M 34.96875 74.855469 L 34.96875 73.734375 C 34.914062 73.046875 34.453125 72.585938 33.59375 72.355469 C 33.246094 72.699219 33.046875 72.988281 32.988281 73.21875 C 33.734375 74.078125 34.394531 74.625 34.96875 74.855469 Z M 43.839844 83.121094 L 43.839844 82.863281 C 43.839844 82.34375 43.523438 82.085938 42.890625 82.085938 C 42.261719 82.03125 41.6875 81.972656 41.171875 81.914062 C 41.285156 82.257812 41.429688 82.574219 41.601562 82.863281 C 41.714844 83.148438 41.972656 83.292969 42.375 83.292969 C 42.835938 83.234375 43.179688 83.207031 43.410156 83.207031 C 43.636719 83.148438 43.78125 83.121094 43.839844 83.121094 Z M 28.769531 68.136719 C 28.769531 67.90625 28.742188 67.765625 28.683594 67.707031 L 26.273438 66.757812 L 26.015625 68.050781 C 26.589844 68.339844 27.078125 68.566406 27.476562 68.738281 C 27.824219 68.910156 28.109375 69.054688 28.339844 69.171875 C 28.625 68.824219 28.769531 68.480469 28.769531 68.136719 Z M 21.535156 61.765625 C 20.734375 60.789062 20.042969 60.128906 19.46875 59.785156 L 19.039062 61.9375 C 19.613281 62.167969 20.101562 62.367188 20.503906 62.539062 C 20.847656 62.65625 21.078125 62.742188 21.191406 62.796875 L 21.191406 62.539062 C 21.191406 62.253906 21.308594 61.996094 21.535156 61.765625 Z M 34.453125 75.800781 L 34.796875 75.199219 C 34.453125 74.910156 34.109375 74.652344 33.765625 74.421875 C 33.421875 74.195312 33.105469 73.964844 32.816406 73.734375 L 32.386719 74.421875 C 32.847656 74.769531 33.246094 75.054688 33.59375 75.285156 C 33.9375 75.515625 34.222656 75.6875 34.453125 75.800781 Z M 44.183594 83.464844 C 43.496094 83.523438 42.976562 83.578125 42.632812 83.636719 C 42.230469 83.695312 41.972656 83.78125 41.859375 83.894531 C 41.746094 83.953125 41.6875 84.039062 41.6875 84.152344 C 41.6875 84.210938 41.6875 84.324219 41.6875 84.5 C 42.03125 84.671875 42.347656 84.8125 42.632812 84.929688 C 42.863281 85.042969 43.121094 85.101562 43.410156 85.101562 C 43.695312 85.101562 43.898438 84.898438 44.011719 84.5 C 44.125 84.097656 44.183594 83.75 44.183594 83.464844 Z M 13.269531 55.132812 C 13.269531 54.847656 13.125 54.214844 12.839844 53.238281 C 12.78125 53.238281 12.582031 53.324219 12.238281 53.5 C 11.890625 53.671875 11.71875 53.871094 11.71875 54.101562 C 11.71875 54.273438 11.890625 54.558594 12.238281 54.960938 C 12.523438 55.363281 12.695312 55.679688 12.753906 55.910156 C 13.097656 55.910156 13.269531 55.652344 13.269531 55.132812 Z M 27.910156 69.34375 L 25.929688 68.308594 C 25.410156 68.710938 25.125 69 25.066406 69.171875 C 25.238281 69.6875 25.671875 69.972656 26.359375 70.03125 C 26.417969 70.03125 26.675781 69.972656 27.132812 69.859375 C 27.59375 69.800781 27.851562 69.628906 27.910156 69.34375 Z M 43.152344 85.445312 C 43.09375 85.445312 42.921875 85.417969 42.632812 85.359375 C 42.289062 85.300781 42.058594 85.273438 41.945312 85.273438 C 41.832031 85.386719 41.773438 85.472656 41.773438 85.53125 L 41.773438 85.703125 L 42.890625 85.875 C 43.066406 85.703125 43.152344 85.558594 43.152344 85.445312 Z M 33.9375 75.972656 L 32.128906 74.679688 L 31.441406 75.886719 C 31.726562 76.347656 32.011719 76.632812 32.300781 76.75 C 32.585938 76.921875 32.789062 77.035156 32.902344 77.09375 C 33.59375 76.691406 33.9375 76.316406 33.9375 75.972656 Z M 21.019531 64.863281 L 21.277344 63.402344 C 20.820312 63.113281 20.417969 62.882812 20.074219 62.710938 C 19.671875 62.480469 19.328125 62.339844 19.039062 62.28125 L 18.867188 63.316406 C 19.328125 63.660156 19.726562 63.976562 20.074219 64.261719 C 20.417969 64.492188 20.734375 64.691406 21.019531 64.863281 Z M 12.410156 55.910156 L 11.460938 54.1875 C 11.289062 54.1875 10.832031 54.300781 10.082031 54.53125 L 10.6875 56.597656 C 11.03125 56.597656 11.40625 56.570312 11.804688 56.511719 C 12.207031 56.453125 12.410156 56.253906 12.410156 55.910156 Z M 42.71875 86.132812 C 42.605469 86.078125 42.433594 86.046875 42.203125 86.046875 C 42.089844 86.046875 41.972656 86.078125 41.859375 86.132812 C 41.746094 86.132812 41.6875 86.191406 41.6875 86.304688 C 41.6875 86.480469 41.714844 86.707031 41.773438 86.996094 C 41.832031 87.226562 41.945312 87.339844 42.117188 87.339844 C 42.347656 87.339844 42.519531 87.167969 42.632812 86.824219 C 42.691406 86.480469 42.71875 86.25 42.71875 86.132812 Z M 20.675781 65.125 C 20.214844 64.777344 19.816406 64.492188 19.46875 64.261719 C 19.125 63.976562 18.808594 63.746094 18.523438 63.574219 C 18.351562 63.917969 18.265625 64.148438 18.265625 64.261719 C 18.265625 64.320312 18.351562 64.464844 18.523438 64.691406 C 18.636719 64.863281 18.78125 65.066406 18.953125 65.296875 C 19.125 65.46875 19.296875 65.640625 19.46875 65.8125 C 19.585938 65.984375 19.640625 66.097656 19.640625 66.15625 C 20.160156 65.925781 20.503906 65.582031 20.675781 65.125 Z M 32.386719 77.78125 L 32.386719 77.695312 C 32.386719 77.410156 31.984375 76.949219 31.179688 76.316406 C 30.894531 76.71875 30.691406 77.148438 30.578125 77.609375 C 30.636719 77.609375 30.664062 77.609375 30.664062 77.609375 C 30.664062 77.550781 30.691406 77.523438 30.75 77.523438 C 30.867188 77.523438 31.039062 77.582031 31.265625 77.695312 C 31.496094 77.808594 31.753906 77.867188 32.042969 77.867188 C 32.101562 77.867188 32.15625 77.867188 32.214844 77.867188 C 32.273438 77.808594 32.328125 77.78125 32.386719 77.78125 Z M 42.632812 88.546875 C 42.632812 87.800781 42.519531 87.425781 42.289062 87.425781 C 42.117188 87.425781 42.03125 87.484375 42.03125 87.597656 C 42.03125 87.714844 42.230469 88.027344 42.632812 88.546875 Z M 25.671875 70.289062 C 25.613281 70.058594 25.269531 69.773438 24.636719 69.429688 C 24.003906 69.773438 23.574219 70.03125 23.34375 70.203125 L 24.292969 71.238281 L 24.550781 71.238281 C 24.953125 70.835938 25.324219 70.519531 25.671875 70.289062 Z M 10.257812 56.597656 C 10.257812 56.023438 10.171875 55.59375 9.996094 55.304688 C 9.824219 55.019531 9.683594 54.789062 9.566406 54.617188 C 9.109375 54.847656 8.707031 55.019531 8.363281 55.132812 C 8.535156 55.480469 8.734375 55.851562 8.964844 56.253906 C 9.136719 56.597656 9.394531 56.769531 9.738281 56.769531 C 9.855469 56.769531 10.027344 56.714844 10.257812 56.597656 Z M 24.207031 71.324219 L 24.378906 71.238281 L 24.292969 71.238281 C 24.292969 71.238281 24.261719 71.238281 24.207031 71.238281 C 24.207031 71.238281 24.207031 71.265625 24.207031 71.324219 Z M 19.210938 66.242188 C 18.808594 65.554688 18.351562 64.949219 17.832031 64.433594 L 16.800781 65.382812 L 17.832031 66.585938 C 18.695312 66.414062 19.15625 66.300781 19.210938 66.242188 Z M 24.207031 71.324219 C 24.035156 71.265625 23.832031 71.152344 23.601562 70.980469 C 23.375 70.75 23.203125 70.632812 23.085938 70.632812 C 23.03125 70.632812 22.941406 70.691406 22.828125 70.804688 C 22.941406 71.324219 23.34375 71.695312 24.035156 71.925781 C 24.148438 71.523438 24.207031 71.324219 24.207031 71.324219 Z M 31.957031 78.296875 L 30.492188 77.953125 L 30.234375 79.246094 C 30.234375 79.53125 30.605469 79.761719 31.351562 79.933594 C 31.527344 79.820312 31.613281 79.5625 31.613281 79.160156 C 31.554688 78.699219 31.667969 78.414062 31.957031 78.296875 Z M 8.101562 56.425781 L 8.707031 56.425781 C 8.707031 56.023438 8.535156 55.707031 8.191406 55.480469 C 7.84375 55.25 7.644531 55.132812 7.585938 55.132812 C 7.183594 55.132812 6.898438 55.277344 6.726562 55.566406 C 6.554688 55.792969 6.46875 55.9375 6.46875 55.996094 L 6.46875 56.167969 L 6.296875 55.910156 C 5.605469 56.3125 5.234375 56.972656 5.175781 57.890625 C 5.636719 57.375 6.007812 57 6.296875 56.769531 C 6.582031 56.539062 6.726562 56.367188 6.726562 56.253906 C 7.011719 56.367188 7.269531 56.425781 7.5 56.425781 C 7.730469 56.425781 7.929688 56.425781 8.101562 56.425781 Z M 31.441406 80.796875 L 31.441406 80.105469 C 30.691406 80.164062 30.320312 80.25 30.320312 80.363281 C 30.78125 80.652344 31.152344 80.796875 31.441406 80.796875 Z M 23.515625 73.734375 L 23.863281 72.441406 L 22.570312 71.324219 L 21.96875 72.960938 C 22.886719 73.417969 23.402344 73.675781 23.515625 73.734375 Z M 31.871094 82.605469 L 31.871094 82.171875 C 31.871094 82.058594 31.8125 81.886719 31.699219 81.65625 C 31.582031 81.425781 31.527344 81.253906 31.527344 81.140625 C 30.953125 81.140625 30.664062 81.195312 30.664062 81.3125 C 30.953125 82.117188 31.351562 82.546875 31.871094 82.605469 Z M 32.558594 83.378906 L 32.128906 82.863281 L 32.042969 83.035156 C 32.386719 83.265625 32.558594 83.378906 32.558594 83.378906 Z M 23.601562 74.679688 C 23.601562 74.453125 23.574219 74.28125 23.515625 74.164062 C 22.769531 73.820312 22.195312 73.535156 21.796875 73.304688 C 21.507812 74.050781 21.363281 74.421875 21.363281 74.421875 C 21.824219 74.710938 22.195312 74.96875 22.484375 75.199219 C 22.828125 75.429688 23.117188 75.601562 23.34375 75.714844 C 23.515625 75.3125 23.601562 74.96875 23.601562 74.679688 Z M 17.316406 66.757812 C 17.203125 66.355469 16.945312 66.011719 16.542969 65.726562 C 16.253906 65.785156 15.882812 65.957031 15.421875 66.242188 C 14.964844 66.472656 14.734375 66.789062 14.734375 67.191406 C 14.734375 67.191406 14.847656 67.363281 15.078125 67.707031 L 14.992188 67.792969 C 14.933594 67.792969 14.90625 67.792969 14.90625 67.792969 C 14.90625 67.734375 14.878906 67.707031 14.820312 67.707031 L 14.5625 67.535156 C 13.757812 68.222656 13.242188 69.34375 13.011719 70.894531 C 13.183594 71.007812 13.269531 71.09375 13.269531 71.152344 C 13.5 70.519531 13.871094 69.945312 14.390625 69.429688 C 14.847656 68.910156 15.078125 68.339844 15.078125 67.707031 L 15.421875 68.050781 C 16.167969 67.589844 16.800781 67.160156 17.316406 66.757812 Z M 23.257812 76.144531 C 22.339844 75.398438 21.679688 74.910156 21.277344 74.679688 C 21.105469 75.199219 21.019531 75.542969 21.019531 75.714844 L 21.019531 75.800781 L 23 76.574219 C 23.171875 76.402344 23.257812 76.261719 23.257812 76.144531 Z M 22.65625 76.835938 L 20.933594 75.886719 C 20.820312 75.886719 20.703125 75.859375 20.589844 75.800781 C 20.589844 75.972656 20.503906 76.144531 20.332031 76.316406 C 20.101562 76.488281 19.988281 76.632812 19.988281 76.75 C 19.988281 76.863281 20.101562 77.007812 20.332031 77.179688 L 21.796875 78.039062 C 22.195312 77.808594 22.484375 77.410156 22.65625 76.835938 Z M 13.269531 71.238281 L 13.355469 71.152344 L 13.269531 71.152344 Z M 21.105469 78.125 L 19.816406 77.09375 C 19.125 77.496094 18.667969 77.808594 18.4375 78.039062 L 18.4375 78.210938 C 18.953125 78.382812 19.441406 78.46875 19.902344 78.46875 C 20.417969 78.46875 20.820312 78.355469 21.105469 78.125 Z M 77.851562 25.683594 C 77.738281 25.453125 77.652344 25.253906 77.59375 25.082031 C 77.539062 24.910156 77.480469 24.765625 77.421875 24.652344 C 77.480469 24.765625 77.566406 24.9375 77.679688 25.167969 C 77.796875 25.398438 77.851562 25.570312 77.851562 25.683594 Z M 77.851562 25.683594 " fill-opacity="1" fill-rule="nonzero"/></svg>