<svg xmlns="http://www.w3.org/2000/svg" id="icon_A" viewBox="0 0 94.2 121.7">
            <path d="M64.8 9.9L64.8 9.9L64.7 9.9Q64.1 9.9 63.2 10.1Q62.3 10.4 61.9 10.4L61.9 10.4Q62.1 10.6 62.6 11.0Q63 11.3 63.7 11.7L63.7 11.7Q63.9 11.4 64.2 11.0Q64.4 10.5 64.8 9.9ZM64.5 16.4L64.5 16.4L64.5 16.3L64.3 16.3L62.7 18.9Q63.2 18.4 63.9 17.5Q64.5 16.6 64.5 16.4ZM64.6 18.4L64.6 18.4Q64.6 18.1 64.5 17.9L64.5 17.9L64.5 17.5L63.6 18.9L64.2 18.9Q64.6 18.9 64.6 18.4ZM64.1 21.1L64.1 21.1L64.1 20.5Q63.6 20.2 63.2 20.2L63.2 20.2Q62.4 20.2 61.2 21.4L61.2 21.4Q61.4 21.3 61.9 20.8Q62.3 20.4 62.7 20.4L62.7 20.4Q63 20.4 63.5 20.7Q63.9 21 64.1 21.1ZM64.6 11.9L64.6 11.9Q62.7 14.5 61.6 15.8Q60.5 17.2 60.3 17.4L60.3 17.4Q58.7 18.7 53.2 18.7L53.2 18.7Q52.7 18.7 52.1 18.3Q51.5 17.8 50.9 17.3Q50.3 16.7 50.0 16.3Q49.6 15.8 49.6 15.8L49.6 15.8L49.4 16.3L52.4 19.1L56.7 19.1Q59.9 19.1 61.3 17.7L61.3 17.7Q61.3 17.7 61.9 17Q62.4 16.3 63 15.3Q63.6 14.4 64.1 13.5Q64.6 12.5 64.6 11.9ZM62 14.2L62 14.2Q60.1 12.6 59.2 12.6L59.2 12.6Q56.8 12.6 55.2 12.8Q53.6 12.9 52.7 13.2Q51.7 13.5 51.2 14Q50.6 14.5 50.2 15.2L50.2 15.2Q50.7 16.1 52.7 17.9L52.7 17.9L53.8 17.9Q55.8 17.9 57.2 17.8Q58.5 17.6 59.4 17.3Q60.3 16.9 60.9 16.1Q61.5 15.4 62 14.2ZM64.5 13.9L64.5 13.9Q63.4 15.6 62.5 16.8Q61.6 18.1 60.9 18.9L60.9 18.9L52.5 19.9L48.8 16.8L48.5 16.9L51.7 20.2Q53.7 20.3 54.7 20.3L54.7 20.3Q55.8 20.3 55.9 20.3L55.9 20.3Q58.3 20.3 59.9 19.6Q61.5 19 62.6 18.0Q63.6 17.1 64.0 16.0Q64.5 14.8 64.5 13.9ZM78.6 39.8L78.7 39.8L78.5 39.7Q78.6 39.7 78.6 39.8L78.6 39.8Q78.6 39.8 78.6 39.8L78.6 39.8ZM79.1 40.5L79.2 40.4Q79.2 40.3 78.9 40.1L78.9 40.1L78.8 40.1Q78.9 40.3 78.9 40.4L78.9 40.4Q78.9 40.4 79 40.6L79 40.6L79.1 40.5ZM79.8 41.6L79.8 41.6Q79.8 41.3 79.6 41.1L79.6 41.1Q79.4 41.3 79.4 41.3L79.4 41.3Q79.6 41.7 79.6 41.7L79.6 41.7Q79.7 41.7 79.8 41.6Q79.8 41.6 79.8 41.6ZM80.2 42.3L80.3 42.4Q80.3 42.3 80.2 42.3L80.2 42.3ZM80.4 42.4L80.4 42.4L80.3 42.4Q80.3 42.4 80.3 42.5Q80.2 42.5 80 42.6L80 42.6Q80.4 42.4 80.4 42.4ZM81.1 44.4L81.1 44.5L81.1 44.4Q80.8 44.4 80.7 44.5L80.7 44.5L80.8 44.6Q81 44.4 81.1 44.4L81.1 44.4ZM81.8 48.1L81.9 48.1L81.9 47.8L81.7 47.8Q81.7 47.9 81.8 48.0Q81.8 48 81.8 48.1L81.8 48.1ZM15.3 39.4L15.3 39.4Q15.2 39.3 15.2 39.2L15.2 39.2Q15 39.4 15 39.5L15 39.5L15.2 39.5Q15.2 39.5 15.2 39.5L15.2 39.5Q15.3 39.5 15.3 39.4ZM14.9 40.1L14.9 40.1Q14.7 39.9 14.7 39.9L14.7 39.9L14.7 39.8Q14.5 40 14.1 40.8L14.1 40.8L14.5 40.9Q14.6 40.5 14.9 40.1ZM14.1 41.6L14.1 41.6Q13.9 41.6 13.9 41.5Q13.8 41.5 13.6 41.5L13.6 41.5L13.6 41.8Q13.7 41.8 13.8 41.9Q13.8 41.9 14 41.9L14 41.9Q14 41.8 14.1 41.8Q14.1 41.7 14.1 41.6ZM13.7 42.6L13.7 42.6Q13.5 42.6 13.4 42.5L13.4 42.5L13.4 42.9L13.5 42.9Q13.6 42.8 13.6 42.8L13.6 42.8Q13.6 42.7 13.7 42.6ZM83.1 61.4L83.1 61.4Q83.1 70.8 79.3 76.6Q75.5 82.4 67.7 85.1L67.7 85.1Q61.2 87.4 61.2 87.4L61.2 87.4L61.6 92.2L63.7 94.9L63.4 96.6L63.6 96.8Q66.5 97 67.5 97.3Q68.4 97.5 69.2 98.5L69.2 98.5L69.2 101.7L51.2 101.8Q37.8 101.9 30.4 101.3Q22.9 100.7 21.2 99.6L21.2 99.6L22.9 96.2L26.7 95.4L28.6 90.9L30.4 90.9L30.6 90.7L30.4 85.4Q24.8 83.5 21.1 81.3Q17.3 79.1 15.1 75.9Q12.9 72.7 12 68.2Q11.1 63.7 11.1 57.4L11.1 57.4Q11.1 49.1 13.5 42.9L13.5 42.9Q14 43 14.6 43L14.6 43Q15.2 43 15.8 43.1L15.8 43.1Q15.3 43 14.8 42.9Q14.2 42.8 13.7 42.6L13.7 42.6Q13.8 42.4 13.9 42.3Q13.9 42.1 14 41.9L14 41.9Q17.2 42.4 18.9 42.6Q20.7 42.9 21.1 42.9L21.1 42.9L22.6 42.9L32.3 36.2Q34 36.3 35.6 36.3L35.6 36.3Q37.2 36.3 38.9 36.4L38.9 36.4Q37.5 36.2 35.8 36.0Q34.1 35.9 32.1 35.7L32.1 35.7Q30.4 36.8 27.9 38.5Q25.3 40.3 22 42.7L22 42.7Q21 42.5 19.1 42.2Q17.1 41.9 14.1 41.6L14.1 41.6Q14.2 41.4 14.3 41.3Q14.4 41.1 14.5 40.9L14.5 40.9L22 42L25.6 39.3Q25.4 38.2 24.7 37.5Q23.9 36.9 22.9 36.6Q21.8 36.3 20.6 36.2Q19.3 36.1 18.1 36L18.1 36L17.5 36.7Q17.6 36.8 23.2 37.4L23.2 37.4L23.4 37.6Q23.1 38.7 21.9 41L21.9 41Q20.8 40.9 19 40.8Q17.2 40.6 14.9 40.1L14.9 40.1L15.2 39.5Q16.2 39.6 17.6 39.8Q19 40 20.8 40.3L20.8 40.3L21 40.2L20.5 39.5L20.2 39.5Q19.6 39.5 18.5 39.3Q17.4 39 16.8 39L16.8 39Q16 39 15.3 39.4L15.3 39.4Q15.9 38.5 16.8 37.5Q17.7 36.4 18.9 35.1Q20.2 33.8 22 32.3Q23.8 30.7 26.4 28.8L26.4 28.8Q31.8 24.8 31.8 20.5L31.8 20.5Q31.8 17.4 31.3 13.0Q30.7 8.5 30.2 4.1L30.2 4.1Q33 1.7 52.3 1.7L52.3 1.7Q57.4 1.7 60.2 1.8Q62.9 1.9 64.2 2.2Q65.4 2.5 65.5 3.1Q65.7 3.8 65.7 4.9L65.7 4.9Q65.7 5 65.5 6.1Q65.4 7.2 65.3 8.7Q65.1 10.2 65 11.9Q64.9 13.6 64.9 14.9L64.9 14.9Q64.9 19.6 66.2 23.0Q67.4 26.5 69.4 29.3Q71.3 32.1 73.7 34.5Q76.1 36.9 78.4 39.4L78.4 39.4Q78.4 39.5 78.5 39.5Q78.5 39.6 78.5 39.7L78.5 39.7L77.8 38.9Q77.3 39.2 76.9 40.1L76.9 40.1Q77.7 40 78.2 39.9Q78.6 39.8 78.6 39.8L78.6 39.8Q78.7 39.9 78.7 40L78.7 40Q78.7 40 78.8 40.1L78.8 40.1Q76.9 40.2 73.3 41L73.3 41Q72.9 40.6 72.9 39.6L72.9 39.6L72.9 38.8Q73 38.4 73 38L73 38L76.5 37.5Q75.3 36.7 75.1 36.7L75.1 36.7Q74.9 36.7 74.6 36.7L74.6 36.7Q73.5 36.7 72.7 37.8Q71.9 38.8 71.1 39.8L71.1 39.8L73.3 41.8Q73.6 41.9 74.2 41.9L74.2 41.9Q74.5 41.9 75.2 41.8Q75.8 41.7 76.5 41.6Q77.2 41.5 77.8 41.4Q78.3 41.2 78.4 41.2L78.4 41.2L79 40.6Q79.2 40.8 79.3 41.0Q79.3 41.1 79.4 41.3L79.4 41.3Q78.9 41.8 77 42.1Q75.1 42.4 73.4 42.6L73.4 42.6L70.7 40.5L70.6 40.6Q71.1 41 71.8 41.5Q72.4 42 73.2 42.8L73.2 42.8Q73.9 42.8 75 42.6Q76.1 42.5 77.1 42.3Q78 42.1 78.8 41.9Q79.5 41.7 79.6 41.7L79.6 41.7Q79.9 42.4 80.2 43.0Q80.5 43.7 80.7 44.5L80.7 44.5Q79.6 44.8 79.1 46.1L79.1 46.1Q79.3 45.9 79.8 45.5Q80.2 45.2 80.7 44.7L80.7 44.7L80.8 44.6Q81 45.4 81.3 46.2Q81.5 47 81.7 47.8L81.7 47.8L81.4 47.9Q79.8 48.6 79.6 49.6L79.6 49.6Q79.6 49.6 79.8 49.4Q80 49.2 80.3 48.9Q80.6 48.6 81 48.4Q81.4 48.1 81.7 48.1L81.7 48.1Q82.1 48.1 82.4 49.8Q82.6 51.5 82.8 53.8Q82.9 56 83 58.2Q83.1 60.4 83.1 61.4ZM59.5 16.6L59.6 13.6Q59.1 13.5 58.2 13.5L58.2 13.5Q57.2 13.5 55.4 13.8Q53.5 14 52.6 14L52.6 14L52.6 15.5Q52.7 16 52.7 16.6L52.7 16.6L52.7 17.1Q55 16.9 56.7 16.8Q58.4 16.7 59.5 16.6L59.5 16.6ZM60.1 21.2L60.1 21.2L60.1 21.1L58.7 20.6Q58.1 20.7 56.9 21.9L56.9 21.9Q57.1 21.8 57.8 21.3Q58.5 20.7 58.9 20.7L58.9 20.7Q59.1 20.7 59.4 21.1Q59.7 21.6 59.8 21.6L59.8 21.6Q60.1 21.6 60.1 21.2ZM49.8 11.4L49.8 11.4Q49.3 11.4 48.6 11.5Q47.9 11.5 46.9 11.6L46.9 11.6L46.7 11.8L48 13.1Q48.3 12.9 48.8 12.5Q49.2 12 49.8 11.4ZM75.2 40.4L75.2 40.4Q75.1 40 74.7 39.5Q74.2 38.9 73.7 38.9L73.7 38.9Q73.4 38.9 73.4 39.3L73.4 39.3Q73.4 40.5 74.5 40.5L74.5 40.5Q75 40.5 75.2 40.4ZM62.8 12.6L63.3 12.5Q63.2 12.3 61.1 10.5L61.1 10.5Q57.7 10.9 50.7 11.4L50.7 11.4L42.7 19.1Q41.9 19 40.6 18.8Q39.2 18.7 37.5 18.5L37.5 18.5L35.3 15.2L34.8 15.3Q35.6 16.5 37.6 19L37.6 19Q37.7 19 39.1 19.1Q40.4 19.3 43 19.5L43 19.5Q45.9 16.9 48.0 15.0Q50 13 51.4 11.6L51.4 11.6Q59.8 11 59.8 10.8L59.8 10.8L59.7 10.8Q60.9 11 62.8 12.6L62.8 12.6ZM78.7 42.9L78.7 42.9L76 43.3Q75.8 43.3 75.7 43.4Q75.5 43.5 75.3 43.6L75.3 43.6Q76.1 43.5 76.9 43.3Q77.7 43.1 78.7 42.9ZM55.6 22L55.7 22L55.7 21.7Q55.7 20.8 54.5 20.8L54.5 20.8Q53.3 20.8 52.7 22.1L52.7 22.1Q53 22 53.6 21.6Q54.2 21.2 54.7 21.2L54.7 21.2Q54.9 21.2 55.1 21.6Q55.3 22 55.6 22L55.6 22ZM62.4 13.6L62.5 13.3L60.5 11.6Q55.8 11.8 51.3 12.5L51.3 12.5Q50.3 13.9 43.2 20.2L43.2 20.2Q42.2 20.2 40.7 20.0Q39.2 19.9 37.2 19.7L37.2 19.7Q36.5 18.7 35.8 17.8Q35 16.9 34.2 16L34.2 16L33.8 16.4Q34.6 17.3 35.5 18.2Q36.4 19.1 37.2 20L37.2 20Q37.9 20.6 42.2 20.6L42.2 20.6Q44 20.6 52.2 12.7L52.2 12.7L52.7 12.7Q53.7 12.7 55.7 12.3Q57.7 12 58.7 12L58.7 12Q60.8 12 62.1 13.6L62.1 13.6L62.4 13.6ZM70.2 35.6L70.2 35.6Q69.5 35.7 68.4 35.8Q67.3 35.9 65.9 36.1L65.9 36.1Q66.4 36.3 67.1 37.0Q67.8 37.6 68.1 37.6L68.1 37.6Q68.5 37.6 69.2 36.7Q69.9 35.8 70.2 35.6ZM77.8 46.4L77.8 46.4Q77.6 45.6 77.2 45.3L77.2 45.3Q75.6 45.6 75.2 46.9L75.2 46.9Q75.4 46.7 75.8 46.4Q76.2 46 76.7 45.6L76.7 45.6Q76.9 45.6 77.3 46Q77.6 46.4 77.8 46.4ZM74.1 43.8L74.1 43.8Q73.6 43.7 73.0 43.4Q72.3 43 71.7 42.5Q71 42.1 70.5 41.8Q70 41.4 69.9 41.4L69.9 41.4Q70.7 42.2 71.5 42.9Q72.3 43.5 73.1 44L73.1 44Q73.3 44 74.1 43.8ZM51.7 22.2L51.8 22.2L51.8 21.7Q51.3 21.2 50.7 21.2L50.7 21.2Q49.2 21.2 49.2 22.2L49.2 22.2Q49.4 22.1 49.8 21.7Q50.1 21.3 50.4 21.3L50.4 21.3Q50.8 21.3 51.1 21.8Q51.4 22.2 51.7 22.2L51.7 22.2ZM50.8 20.5L51 20.5L48.1 17.6Q46.5 18.2 44.4 20.6L44.4 20.6L44.9 20.7Q45.6 19.7 47.6 18L47.6 18Q47.9 18.1 48.3 18.5Q48.6 18.9 49.1 19.3Q49.5 19.8 49.9 20.1Q50.3 20.5 50.8 20.5L50.8 20.5ZM49.3 20.6L49.3 20.6Q49.1 20.1 47.6 18.9L47.6 18.9L46.2 20.3L46.1 20.7L48.2 20.7Q48.9 20.7 49.3 20.6ZM78.3 50L78.3 50Q77.5 48.9 77.4 48.9L77.4 48.9L77.1 49Q75.6 49.6 75.5 50.5L75.5 50.5L76.8 49.2Q76.9 49.2 77 49.1L77 49.1Q77.3 49.1 77.7 49.5Q78 50 78.3 50ZM47.4 13.8L47.5 13.7Q47.2 13.1 47 12.5Q46.8 12 46 11.6Q45.2 11.2 43.6 11.0Q41.9 10.7 38.9 10.7L38.9 10.7Q36 10.7 34.6 12.1Q33.2 13.6 31.9 15L31.9 15L32 15.7Q33.2 14.2 34.1 13.3Q34.9 12.4 35.6 12.0Q36.4 11.5 37.3 11.3Q38.1 11.2 39.5 11.2L39.5 11.2Q45.9 11.2 47.4 13.8L47.4 13.8ZM48.2 22.1L48.2 22.1Q48.2 21.6 47.8 21.5Q47.4 21.3 46.9 21.3L46.9 21.3L46.7 21.3Q47.1 21.4 47.5 21.8Q47.9 22.3 48.1 22.4L48.1 22.4Q48.2 22.3 48.2 22.1ZM71.8 44.3L72.1 44.2Q71.8 44 70.8 43.2Q69.8 42.4 69.3 42.4L69.3 42.4Q69 42.4 68.5 42.8Q68.1 43.2 67.8 43.6Q67.4 44.1 67.0 44.5Q66.7 45 66.5 45.1L66.5 45.1Q67.2 44.8 68.0 43.9Q68.9 42.9 69.4 42.6L69.4 42.6Q70.1 43 71.8 44.3L71.8 44.3ZM70.7 44.5L70.7 44.5Q70.2 44 69.3 43.5L69.3 43.5L68 45Q68.5 44.9 69.2 44.8Q69.9 44.7 70.7 44.5ZM73.9 47.1L73.9 47.1Q73.9 46.2 72.7 46.2L72.7 46.2Q71.6 46.2 70.9 46.5Q70.2 46.7 70.2 47.5L70.2 47.5L70.2 47.7Q71.2 46.4 72.5 46.4L72.5 46.4Q73.1 46.6 73.5 47.3L73.5 47.3L73.8 47.3Q73.9 47.2 73.9 47.1ZM42.5 18.5L45.8 15.3L45.8 15Q45.5 14.8 44.9 14Q44.3 13.2 43.8 13.2L43.8 13.2Q43.6 13.2 43.2 13.4L43.2 13.4Q40.7 13.2 39.5 13.0Q38.2 12.9 38.1 12.9L38.1 12.9Q36.2 12.9 35.6 14.6L35.6 14.6L37.8 18.1L42.5 18.5ZM46.4 21.3L46.4 21.3Q45.6 21.4 45.1 22.2L45.1 22.2Q45.6 21.9 45.9 21.6Q46.2 21.4 46.4 21.3ZM46.3 14.7L46.7 14.3Q45 11.7 40.4 11.7L40.4 11.7Q34.4 11.7 32 16.8L32 16.8L32.2 17.1Q32.2 17.2 32.1 17.5Q32 17.8 32 17.9L32 17.9Q32 18.1 32.1 18.2L32.1 18.2Q33 17.3 33.3 17.3L33.3 17.3Q33.4 17.3 33.7 17.7Q34 18.1 34.4 18.6Q34.7 19.1 35.1 19.5Q35.4 20 35.7 20.1L35.7 20.1Q35.2 19.1 34.5 18.0Q33.8 16.8 33 16.8L33 16.8Q32.6 16.8 32.5 17.1L32.5 17.1L32.3 17Q33.2 15.9 34.5 14.8Q35.7 13.6 37.4 12.3L37.4 12.3L44.4 12.8L46.3 14.7ZM35 10.8L35 10.8L32.9 10.5L33.8 12Q34.4 11.9 35 10.8ZM74.5 35.3L74.5 35.3L74.3 35.1L71.4 35.7Q69.7 37.4 68 39.1Q66.3 40.9 64.6 42.6L64.6 42.6Q62 44.3 55.2 44.3L55.2 44.3Q53 44.3 51.9 43.4Q50.7 42.4 49.5 41.3L49.5 41.3L49.1 41.7L53 44.7Q54.8 44.6 57.5 44.5Q60.2 44.5 63.9 44.3L63.9 44.3Q63.9 44.8 64.8 43.5Q65.7 42.3 67.2 40.6Q68.7 38.9 70.6 37.3Q72.5 35.6 74.5 35.3ZM74.2 50.8L74.2 50.8L74.2 50.3Q73.6 49.7 72.5 49.7L72.5 49.7Q70.5 49.7 70.4 51.2L70.4 51.2Q72.6 49.9 72.8 49.9L72.8 49.9Q73.1 49.9 73.6 50.4Q74.1 50.8 74.2 50.8ZM33.2 13.1L33.5 12.9Q33.2 12.4 32.8 11.8Q32.3 11.1 31.8 10.3L31.8 10.3L31.4 10.3Q31.7 11.6 33.2 13.1L33.2 13.1ZM75.1 36.1L75.1 36.1L75 35.9Q72.4 36.4 70.0 39.1Q67.5 41.8 64.5 44.9L64.5 44.9L53.1 45.7L48.3 42.2L47.8 42.3Q48.8 43.4 52 45.9L52 45.9Q54.3 45.9 57.6 45.7Q60.8 45.5 65.1 45.1L65.1 45.1Q67.9 41.9 70.5 39.2Q73 36.5 75.1 36.1ZM43.8 22.4L43.8 22.4L43.8 21.8Q43.8 21.4 43.3 21.3Q42.7 21.3 42.6 21.3L42.6 21.3Q41.7 21.3 40.6 22.3L40.6 22.3Q41 22.3 41.6 21.8Q42.2 21.4 42.4 21.4L42.4 21.4Q42.8 21.4 43.2 21.8Q43.6 22.3 43.8 22.4ZM68.8 47.9L68.8 47.9L68.8 47.4Q68.8 46.7 67.8 46.7L67.8 46.7Q66.7 46.7 65 48.3L65 48.3L65.1 48.3Q65.5 48.3 66 47.7Q66.5 47.1 67.1 47.1L67.1 47.1Q67.4 47.1 68.0 47.5Q68.5 47.8 68.8 47.9ZM32.4 13.7L32.4 13.7L32.4 13.3Q32.4 13 32.1 12.5Q31.7 12 31.6 11.8L31.6 11.8L31.7 13.1Q31.8 13.2 32 13.3Q32.2 13.5 32.4 13.7ZM39.6 21.5L39.6 21.5Q39.6 21.1 38.5 21.1L38.5 21.1Q39.3 21.4 39.3 22L39.3 22L39.3 22.2Q39.5 21.8 39.6 21.6Q39.6 21.5 39.6 21.5ZM62.9 43.2L66 40.1Q64.1 38.2 62.3 38.2L62.3 38.2Q51.6 38.2 50.2 40.8L50.2 40.8Q52.6 43.6 56 43.6L56 43.6Q56.6 43.6 57.6 43.5Q58.5 43.5 59.5 43.4Q60.5 43.3 61.4 43.3Q62.3 43.2 62.9 43.2L62.9 43.2ZM69.1 51.5L69.1 51.5L69.1 51Q69.1 50.3 68 50.3L68 50.3Q66.5 50.3 65.2 51.9L65.2 51.9Q65.6 51.9 66.2 51.2Q66.8 50.5 67.2 50.5L67.2 50.5Q67.6 50.5 68.2 51.0Q68.8 51.4 69.1 51.5ZM37.7 21.5L37.7 21.5L36.8 22L37 22Q37.2 22 37.4 21.8Q37.5 21.7 37.7 21.5ZM72.3 32.9L72.3 32.9L71.5 32.2Q62.9 33.4 57.3 33.4L57.3 33.4Q49.1 33.4 40.8 32.8Q32.5 32.3 24 31.2L24 31.2L22.6 32.2Q28.3 33.2 36.8 33.7Q45.2 34.2 56.4 34.2L56.4 34.2Q65.9 34.2 72.3 32.9ZM34 20.1L34.3 20.1Q34.1 19.7 33.8 19.3Q33.5 18.8 33.1 18.1L33.1 18.1L32.1 19.2L32.1 19.7Q32.1 19.9 32.8 20Q33.5 20.1 34 20.1L34 20.1ZM63.7 48.5L63.9 48.5Q63.8 47.6 63.3 47.5Q62.8 47.3 62.2 47.2L62.2 47.2Q61.4 47.3 59.9 48.8L59.9 48.8Q60.2 48.7 61 48.0Q61.8 47.4 62.2 47.4L62.2 47.4Q62.5 47.4 63.0 48.0Q63.4 48.5 63.7 48.5L63.7 48.5ZM36.1 21.2L36.1 21.2L36 21.1Q35.5 20.8 35.1 20.8L35.1 20.8Q34.1 20.8 33.1 21.7L33.1 21.7L33.5 21.7Q34.3 21 35.2 21L35.2 21L35.4 21Q35.8 21.3 35.8 21.7L35.8 21.7L35.8 21.9Q36.1 21.6 36.1 21.2ZM82.1 66.9L82.1 66.9L81.5 66.9Q81.3 66.9 80.9 66.9L80.9 66.9Q80.6 66.9 80.1 66.8L80.1 66.8L78.8 66.8Q77.9 66.8 76.9 67.2Q75.9 67.5 75.9 68.4L75.9 68.4Q75.9 68.7 76.1 68.7L76.1 68.7L77.5 67Q79.4 67.3 80.4 67.3L80.4 67.3Q81.6 67.3 82.1 66.9ZM64 52L64.1 51.4Q63.5 50.7 62.5 50.7L62.5 50.7Q61 50.7 60 52.3L60 52.3Q60.5 52.2 61.3 51.5Q62 50.8 62.3 50.8L62.3 50.8Q62.6 50.8 63 51.4Q63.4 52 63.8 52L63.8 52L64 52ZM82.1 68.1L82.1 68.1L82.1 67.8L81.5 67.8Q81.5 67.8 77.6 68L77.6 68Q77.4 68.2 77.2 68.6Q76.9 69 76.5 69.5L76.5 69.5L76.7 69.7Q77.3 68.2 79.2 68.2L79.2 68.2L81 68.2Q81.8 68.2 82.1 68.1ZM47.3 38.4L49.8 36.7Q49.6 36.7 49.4 36.7Q49.2 36.6 49 36.6L49 36.6Q47.7 36.6 45.6 36.9L45.6 36.9L47.3 38.4ZM81.3 71.7L81.3 71.7Q80.7 71.1 80.7 70L80.7 70Q80.7 69.4 81 68.9L81 68.9L79.4 68.9Q78.8 68.9 78.5 69L78.5 69L78.5 69.5Q78.5 69.7 78.6 70.3Q78.7 70.8 78.7 71.4L78.7 71.4Q78.7 71.7 78.6 71.9L78.6 71.9L79.1 71.9Q79.3 71.9 79.8 71.8Q80.3 71.8 81.3 71.7ZM58.5 49L58.5 49L58.5 48.6Q58.5 47.4 57.3 47.4L57.3 47.4Q55.4 47.4 54.8 49L54.8 49Q55.1 48.9 55.9 48.5Q56.6 48 57.1 48L57.1 48Q57.5 48 57.8 48.5Q58.1 49 58.5 49ZM67.5 38.4L67.8 38.2L66.5 37.2Q66.3 37.2 64.9 36.1L64.9 36.1Q64.6 36.2 50.8 36.8L50.8 36.8L40 44.4Q38.9 44.3 37.3 44.1Q35.6 44 33.4 43.7L33.4 43.7L30.3 40.1L29.7 40.2L33.4 44.2Q33.5 44.2 35.3 44.4Q37 44.5 40.4 44.9L40.4 44.9Q43.9 42.7 46.7 40.8Q49.5 38.8 51.8 37L51.8 37L62.9 36.4Q63.5 36.4 64.2 36.7Q64.8 37 65.5 37.4Q66.2 37.8 66.7 38.1Q67.2 38.4 67.5 38.4L67.5 38.4ZM77.9 70.9L77.9 70.9Q77.9 70.7 77.7 69.7L77.7 69.7L77.2 70.2Q77.3 70.6 77.8 71.2L77.8 71.2Q77.8 71.1 77.9 71.0Q77.9 71 77.9 70.9ZM80.8 72.8L80.8 72.8L80.8 72.7Q80.3 72.7 79.6 72.7L79.6 72.7Q79 72.7 78 72.8L78 72.8Q78.2 73 78.7 73L78.7 73Q79.1 73 79.8 72.9Q80.5 72.8 80.8 72.8ZM46.4 39.2L46.7 38.9L44.4 36.8Q43.8 36.8 43.1 36.8Q42.4 36.7 41.6 36.6L41.6 36.6Q44.7 37.2 46.4 39.2L46.4 39.2ZM66.5 39.4L66.8 39.1L64 37.3L57.6 37.2Q55.1 37.1 52.9 38.0Q50.6 39 48.2 41L48.2 41Q47.6 41.5 46.4 42.3Q45.2 43 44.0 43.7Q42.7 44.4 41.8 45.0Q40.8 45.5 40.6 45.6L40.6 45.6Q39.3 45.6 37.4 45.5Q35.4 45.3 32.8 44.9L32.8 44.9L28.7 40.8L28.2 41.3L32.4 45.4Q35.3 45.6 37.0 45.8Q38.6 45.9 38.8 45.9L38.8 45.9Q41.7 45.9 45.4 43.5Q49 41 53 38.1L53 38.1L54.4 38.2Q55 38.2 55.9 38.1Q56.7 38.1 57.7 38.0Q58.6 37.8 59.5 37.7Q60.3 37.6 60.8 37.6L60.8 37.6Q61.7 37.6 62.7 37.9Q63.7 38.2 64.5 38.5Q65.3 38.9 65.9 39.1Q66.5 39.4 66.5 39.4L66.5 39.4ZM58.5 52.5L58.6 52.5L58.6 51.9Q58 51 57.1 51L57.1 51Q56.1 51 55.5 51.5Q54.9 52.1 54.8 52.6L54.8 52.6Q55.1 52.5 55.9 52.0Q56.6 51.4 57.1 51.4L57.1 51.4Q57.6 51.4 57.9 52.0Q58.2 52.5 58.5 52.5L58.5 52.5ZM53.7 49.2L53.7 49.2L53.7 48.6Q53.3 47.9 52.3 47.9L52.3 47.9Q51.1 47.9 50.4 49.1L50.4 49.1L50.5 49.1Q50.7 49.1 51.2 48.6Q51.6 48.1 52 48.1L52 48.1Q52.3 48.1 52.8 48.6Q53.3 49.1 53.7 49.2ZM79.2 75.8L79.2 75.8L78.5 75.8L78.5 76.9Q78.6 76.7 78.8 76.5Q79 76.2 79.2 75.8ZM73.1 70.1L73.1 70.1Q73.1 69.6 72.5 69.3L72.5 69.3L72.4 71.3Q73.1 70.3 73.1 70.1ZM50.8 46.2L51.1 46.2Q50.8 46.1 50.2 45.5Q49.6 45 49.0 44.5Q48.3 43.9 47.7 43.5Q47.1 43 46.7 43L46.7 43Q46.1 43 42.3 46.1L42.3 46.1L42.6 46.1L42.9 46.1Q43.5 46.1 44.5 45.5Q45.4 44.8 46 44.2Q46.6 43.6 46.7 43.5L46.7 43.5Q47 43.6 47.5 44.0Q48 44.5 48.6 45.0Q49.1 45.4 49.7 45.8Q50.2 46.2 50.8 46.2L50.8 46.2ZM48.9 46.3L48.9 46.3Q47.8 44.9 46.6 44.4L46.6 44.4Q46.2 44.6 45.7 45.1Q45.2 45.6 44.5 46.3L44.5 46.3L46.5 46.3Q46.9 46.4 47.2 46.4L47.2 46.4Q47.6 46.4 47.8 46.4L47.8 46.4Q48.6 46.4 48.9 46.3ZM77.8 76.4L77.8 76.4Q77.6 76.6 77.5 76.8Q77.3 77.1 77.1 77.5L77.1 77.5Q77.2 77.6 77.3 77.7Q77.4 77.8 77.6 77.9L77.6 77.9Q77.6 77.7 77.7 77.3Q77.7 76.9 77.8 76.4ZM53.7 52.7L53.7 52.7L53.7 52.1Q52.6 51.3 52.3 51.3L52.3 51.3Q50.9 51.3 50.4 52.7L50.4 52.7Q50.5 52.6 51 52.1Q51.5 51.6 51.7 51.6L51.7 51.6Q52.2 51.6 52.8 52.1Q53.4 52.6 53.7 52.7ZM78 72.8L78 72.8L73.4 66.9Q73.1 66.9 71.2 66.8Q69.2 66.8 67.0 66.9Q64.7 67 62.9 67.3Q61.1 67.7 61.1 68.5L61.1 68.5Q61.1 68.5 61.3 68.9L61.3 68.9L62.7 67.3L73.3 67.2Q73.9 68 74.5 68.9Q75.1 69.8 75.7 70.6L75.7 70.6Q77 72.3 78 72.8ZM49.2 49.2L49.2 49.2L49.1 48.5Q48.6 47.9 47.7 47.9L47.7 47.9Q46.2 47.9 45.2 49.2L45.2 49.2Q45.5 49.1 46.3 48.6Q47 48.1 47.5 48.1L47.5 48.1Q48.1 48.1 48.4 48.7Q48.6 49.3 48.8 49.3L48.8 49.3Q48.9 49.2 49.2 49.2ZM69.4 70.1L69.4 70.1Q69.4 68.9 68.2 68.9L68.2 68.9Q66.5 68.9 66.5 70L66.5 70Q66.5 71.5 68.4 71.5L68.4 71.5L68.8 71.5Q69.4 70.8 69.4 70.1ZM80.5 73.8L80.5 73.8L79.8 73.8Q79.3 73.7 77.7 73.7L77.7 73.7Q77 72.7 75.9 71.3Q74.7 70 73.1 68.2L73.1 68.2Q71.9 67.8 67.2 67.8L67.2 67.8Q62.6 67.8 61.8 69.8L61.8 69.8L62 70Q62.1 69.9 62.6 69.5Q63 69.1 63.8 68.3L63.8 68.3L65.7 68.3Q66.8 68.3 68.5 68.4Q70.2 68.5 72.5 68.4L72.5 68.4L77 73.8L72.2 79.2L70.3 79.2Q69.2 79.2 67.5 79.1Q65.9 79 63.7 79.1L63.7 79.1Q63.3 78.4 62 77.3L62 77.3L61.7 77.6Q62.2 78.6 63.3 79Q64.4 79.4 65.7 79.5Q66.9 79.7 68.0 79.7Q69.2 79.6 69.8 79.6L69.8 79.6Q70.6 79.6 71.3 79.6L71.3 79.6Q72.1 79.6 72.8 79.5L72.8 79.5Q74.2 77.7 75.7 75.8Q77.2 74 79.5 74L79.5 74Q79.9 74 80.5 73.8ZM76.1 79.5L76.3 79.3L75.9 78.9L75.9 79.1Q75.9 79.3 76.1 79.5L76.1 79.5ZM44.3 40.4L44.3 40.4L42.3 38.5Q42 38.6 41.5 38.6L41.5 38.6Q40.9 38.6 40.1 38.5Q39.2 38.4 38.3 38.3Q37.3 38.1 36.5 38.0Q35.6 37.8 35 37.8L35 37.8Q32.1 37.8 30.8 39.6L30.8 39.6L33.8 43.2Q36.7 43.4 38.4 43.5Q40 43.7 40.2 43.7L40.2 43.7Q40.7 43.7 44.3 40.4ZM73 77.4L73 77.4Q73 76.6 72.3 76.3L72.3 76.3L72.4 78.3Q73 78 73 77.4ZM49.2 52.6L49.2 52.6Q49.2 52 48.7 51.7Q48.2 51.4 47.7 51.4L47.7 51.4Q46.4 51.4 45.2 52.7L45.2 52.7Q46.3 51.7 47.5 51.7L47.5 51.7Q48.3 51.7 48.3 52.4L48.3 52.4L48.3 52.6Q48.6 52.9 49 52.9L49 52.9L49.1 52.9Q49.2 52.8 49.2 52.6ZM43.8 49.2L43.9 48.4Q43.2 47.9 42.4 47.9L42.4 47.9Q40.8 47.9 39.8 49.1L39.8 49.1L39.9 49.1Q40.4 49.1 41.1 48.6Q41.8 48.1 42.1 48.1L42.1 48.1Q42.6 48.1 43.1 48.6Q43.5 49.1 43.8 49.2L43.8 49.2ZM28.5 37.1L30.9 35.7Q30.7 35.6 29.8 35.5Q28.9 35.4 27.2 35.2L27.2 35.2L28.5 37.1ZM79.9 74.8L79.9 74.8Q79.3 74.8 78.8 74.9L78.8 74.9L78.4 74.7L77.6 74.9L73.1 80.1L62.7 80.1L61.3 78.5L61 78.6Q61 79.4 62 79.8Q63 80.2 64.7 80.3Q66.4 80.5 68.6 80.5Q70.8 80.6 73.2 80.7L73.2 80.7Q74 79.7 75.2 78.3Q76.4 76.8 78 74.9L78 74.9Q78.2 74.9 78.7 75Q79.1 75.1 79.3 75.1L79.3 75.1Q79.6 75.1 79.9 74.8ZM62.6 70.5L63.6 71.4Q63.6 71.1 63.6 70.7L63.6 70.7Q63.6 70.2 63.5 69.5L63.5 69.5L62.6 70.5ZM45.1 40L45.6 39.6Q44.7 38.7 43.4 38.1Q42 37.6 40.3 37.3Q38.6 37.1 36.6 37.0Q34.7 37 32.7 36.9L32.7 36.9Q32.1 37.3 29.6 39Q27 40.7 22.4 43.8L22.4 43.8Q21.4 43.8 20.5 43.8L20.5 43.8Q19.7 43.8 18.8 43.6L18.8 43.6Q19.7 43.8 20.6 44.0Q21.5 44.1 22.6 44.3L22.6 44.3Q25.8 41.8 27.7 40.4Q29.5 39 30.7 38.3Q31.9 37.6 32.7 37.4Q33.5 37.2 34.6 37.2L34.6 37.2Q35 37.2 36.0 37.3Q36.9 37.4 38 37.5Q39.1 37.7 40.2 37.8Q41.2 37.9 41.8 37.9L41.8 37.9L42.6 37.9Q43 38.3 43.7 38.8Q44.3 39.3 45.1 40L45.1 40ZM69.3 76.8L69.3 76.8Q69.3 75.9 68.1 75.9L68.1 75.9Q67.2 75.9 66.8 76.5Q66.4 77.1 66.4 77.4L66.4 77.4Q66.4 78.3 68.4 78.6L68.4 78.6Q69.3 78.2 69.3 76.8ZM73.6 71.1L73.6 71.1L73.6 70.9Q73.4 71.2 73.0 71.6Q72.7 72 72.2 72.5L72.2 72.5L63.3 72.3L58.6 67.1L47.5 67.1L46.9 67.5Q46.6 68.1 46.4 68.4Q46.2 68.7 46.2 68.7L46.2 68.7Q46.2 68.8 46.3 68.9L46.3 68.9Q46.8 68.4 47.3 67.8Q47.8 67.2 48.4 67.2L48.4 67.2Q48.9 67.2 51.0 67.3Q53 67.4 55.8 67.4L55.8 67.4Q56.4 67.4 57.0 67.3Q57.5 67.3 58 67.3L58 67.3Q58.6 68 59.3 69.0Q59.9 69.9 60.8 70.7Q61.7 71.5 62.9 72.1Q64.1 72.7 65.6 72.7L65.6 72.7Q66.4 72.7 67.6 72.7Q68.8 72.6 69.6 72.6L69.6 72.6Q71.6 72.6 72.6 72.8L72.6 72.8Q73.6 71.5 73.6 71.1ZM43.7 52.8L43.8 52.1Q43.5 51.6 42.1 51.4L42.1 51.4Q41.3 51.5 39.6 52.7L39.6 52.7Q40.5 52.2 41.9 51.6L41.9 51.6Q42.5 51.8 43.7 52.8L43.7 52.8ZM38.6 48L38.6 48Q38.6 47.9 38.5 47.8L38.5 47.8Q38 47.5 37.6 47.5L37.6 47.5Q36.5 47.5 35.2 48.7L35.2 48.7L35.3 48.7Q35.8 48.7 36.4 48.1Q36.9 47.6 37.3 47.6L37.3 47.6Q38.3 47.6 38.3 48.5L38.3 48.5L38.3 48.8Q38.5 48.4 38.6 48.2Q38.6 48 38.6 48ZM58.1 70.1L58.1 70.1Q57.9 70 57.7 69.9Q57.5 69.8 57.3 69.7L57.3 69.7L57.5 71.3Q57.8 70.9 58.1 70.1ZM27.9 37.3L27.9 37.3Q27.5 36.9 26.9 36.3Q26.3 35.6 25.5 34.8L25.5 34.8Q23.7 34.7 20 34.2L20 34.2L19.7 34.6Q20.7 34.8 22.1 35.2L22.1 35.2Q21.8 35.3 21.3 35.3L21.3 35.3Q20.9 35.3 20.2 35.2Q19.5 35.1 19.2 35.1L19.2 35.1L18.9 35.4Q20.8 35.6 22.4 35.9Q24 36.2 26.3 38.5L26.3 38.5Q26.5 38.1 26.5 37.9L26.5 37.9Q26.5 36.5 22.9 35.4L22.9 35.4L23.1 35.3L25.2 35.3L27.4 37.8L27.7 37.8Q27.9 37.6 27.9 37.3ZM74.4 75.7L74.5 75.4Q74.5 75 74 74.5Q73.5 74 73.4 73.8L73.4 73.8Q74.5 72.2 74.5 72.2L74.5 72.2L74.4 71.9Q74.2 72.2 73.8 72.7Q73.4 73.1 72.8 73.6L72.8 73.6Q72.3 73.5 62.3 73.3L62.3 73.3L57.7 68.1L48.1 68.1Q48 68.3 47.4 68.8Q46.8 69.2 46.8 69.5L46.8 69.5L46.9 69.8L47.1 69.8Q47.7 69.8 48.4 69Q49 68.2 50.7 68.2L50.7 68.2Q50.9 68.2 51.2 68.2L51.2 68.2Q51.5 68.2 52.2 68.3Q52.9 68.3 54.1 68.3Q55.2 68.4 57.2 68.5L57.2 68.5L61.8 73.4L62.5 73.7L61.8 73.8L57.1 78.8L48.9 78.8Q48.5 78.8 48.1 78Q47.6 77.2 47.1 77.2L47.1 77.2L46.9 77.2Q46.9 77.4 46.8 77.5L46.8 77.5Q46.8 77.9 47.3 78.3Q47.8 78.7 47.9 78.9L47.9 78.9L57.3 79.1L62.3 74.1L72.9 74Q73.5 74.8 74.4 75.7L74.4 75.7ZM63.5 77.1L63.5 77.1L63.5 76.7Q63.5 76.3 63.4 76.1L63.4 76.1L62.7 76.8Q62.9 77.4 63.4 77.8L63.4 77.8Q63.5 77.5 63.5 77.1ZM55.1 71.7L56.6 71.6L56.6 69.3Q56.3 69.3 55.9 69.3Q55.4 69.2 54.9 69.1L54.9 69.1Q55.4 70.6 55.4 70.9L55.4 70.9Q55.4 71.4 55.1 71.7L55.1 71.7ZM38.4 51.7L38.4 51.7Q38.4 51 37.2 51L37.2 51Q36.2 51 34.8 52.3L34.8 52.3L35.1 52.3Q35.5 52.3 36 51.8Q36.5 51.2 36.9 51.2L36.9 51.2Q38.2 51.2 38.2 51.9L38.2 51.9Q38.2 52 38.1 52.2Q38 52.4 38 52.5L38 52.5Q38.4 52.4 38.4 51.7ZM34.4 47.8L34.4 47.8Q34.4 47.2 32.8 47.2L32.8 47.2Q31.4 47.2 30.6 48.3L30.6 48.3Q31 48.3 31.8 47.9Q32.5 47.4 33 47.4L33 47.4Q33.8 47.4 33.9 47.8Q34 48.2 34.1 48.6L34.1 48.6Q34.4 48 34.4 47.8ZM31 45.4L31 45.4Q30.4 44.7 29.5 43.8Q28.5 42.9 27.2 41.8L27.2 41.8Q26 42.5 23.8 44.5L23.8 44.5Q24.6 44.4 25.7 43.4Q26.8 42.3 27.6 42.2L27.6 42.2Q28.3 43.5 31 45.4ZM28.7 45.2L28.8 45.1L27.5 43Q26.5 43.5 25.5 44.8L25.5 44.8L28.7 45.2ZM54.7 70.3L54.7 70.3Q54.7 69 53.1 69L53.1 69Q51.8 69 51.8 70L51.8 70Q51.8 71.7 53.2 71.7L53.2 71.7Q53.6 71.7 54.2 71.5Q54.7 71.3 54.7 70.3ZM72 75L73.6 76.6L73.6 76.4L73.6 76.3Q73.6 75.8 72.6 74.8L72.6 74.8Q72.3 74.8 71.9 74.8Q71.5 74.9 71 74.9L71 74.9Q69 74.9 67.4 74.8Q65.8 74.7 65.4 74.7L65.4 74.7Q64.7 74.7 64 74.7L64 74.7Q63.4 74.7 62.9 74.8L62.9 74.8Q59.4 77.7 57.8 80L57.8 80Q56.8 79.8 48.2 79.8L48.2 79.8Q47.6 79.8 47.1 79.2Q46.6 78.6 46.1 78.1L46.1 78.1L46.1 78.3Q46.1 78.9 46.7 79.3Q47.3 79.8 47.3 79.9L47.3 79.9L58.4 80.1Q59.8 78.3 63.4 75L63.4 75Q64.5 75.1 65.5 75.1L65.5 75.1Q66.6 75.1 67.7 75.1L67.7 75.1Q68.8 75.1 69.8 75.1L69.8 75.1Q70.9 75.1 72 75L72 75ZM22.1 37.9L22.1 37.9L17.1 37.2Q16.7 37.3 16.7 37.6L16.7 37.6Q16.6 37.6 16.9 37.8Q17.3 37.9 17.8 38.1Q18.3 38.4 18.9 38.5Q19.4 38.7 19.9 38.7L19.9 38.7Q21.3 38.7 22.1 37.9ZM58 76.8L58 76.8Q58 76.3 57.3 75.9L57.3 75.9L57.3 76.2Q57.3 76.4 57.2 76.7L57.2 76.7L57.2 77.1Q57.2 77.5 57.3 77.6L57.3 77.6Q58 77.2 58 76.8ZM34.1 51.3L34.1 51.3L34.1 51.2Q33.3 50.7 32.6 50.7L32.6 50.7Q30.9 50.7 30.2 51.9L30.2 51.9L30.3 51.9Q30.8 51.9 31.5 51.4Q32.2 50.9 32.6 50.9L32.6 50.9Q33.6 50.9 33.8 52L33.8 52Q33.8 51.8 34.0 51.6Q34.1 51.4 34.1 51.3ZM29.5 47.8L29.5 47.8L29.5 47.2Q29.2 46.8 28.7 46.6L28.7 46.6L28.2 46.6Q26.6 46.6 25.9 47.5L25.9 47.5Q27.2 46.8 27.8 46.8L27.8 46.8Q29.1 46.8 29.5 47.8ZM49.4 71.8L51.9 71.9Q51.1 70.9 51.1 70L51.1 70Q51.1 69.7 51.3 69.1L51.3 69.1L49.2 69.1Q49.1 69.3 49.1 69.7L49.1 69.7Q49.1 70.1 49.3 70.8Q49.4 71.4 49.4 71.8L49.4 71.8ZM56.8 78L56.8 78L56.6 78L56.6 75.6L56.3 75.6Q56.1 75.6 55.9 75.5L55.9 75.5L55.2 75.5Q55.4 75.9 55.4 76.2L55.4 76.2Q55.4 76.5 55.1 77.2Q54.8 77.8 54.8 78.1L54.8 78.1L55.1 78.1Q56.8 78.1 56.8 78ZM24.7 46.7L24.7 46.7L24.7 46.3Q24.7 45.9 23.4 45.9L23.4 45.9L23.2 45.9Q23.7 46 24.7 46.7ZM48.6 71.4L48.6 71.4L48.6 71.1Q48.6 71.2 48.6 70.8Q48.5 70.4 48.4 69.6L48.4 69.6L47.7 70.3Q47.7 70.7 48.6 71.4ZM29.1 51.5L29.1 51.5L29.1 50.7Q28.7 50 27.6 50L27.6 50Q27 50 25.4 51.1L25.4 51.1L25.7 51Q25.8 50.7 26 50.7L26 50.7L26.1 50.8Q26.7 50.7 27.9 50.2L27.9 50.2Q28.9 50.6 29.1 51.5ZM54.6 76.4L54.6 76.4L54.6 76Q53.4 75.4 52.6 75.4L52.6 75.4Q51.7 75.4 51.7 77.3L51.7 77.3Q51.7 77.8 52.5 77.9Q53.2 78 53.8 78.1L53.8 78.1Q54.6 77.3 54.6 76.4ZM58.7 71.1L58.7 71.1L57.2 72.6L49 72.7Q48.1 71.7 46.8 70.3Q45.4 68.8 43.6 66.9L43.6 66.9L34.1 66.7Q32.8 67.4 32.8 68.6L32.8 68.6L34.3 67L40.4 67Q41.7 67 42.6 67.3Q43.4 67.7 44.3 68.5Q45.1 69.2 46.1 70.3Q47 71.4 48.4 72.8L48.4 72.8L57.2 72.9Q58.5 71.9 58.7 71.1ZM21.2 46.9L21.8 46.3Q21.3 46.6 21.2 46.9L21.2 46.9ZM51.9 75.3L51.9 75.3L51.5 75.3Q51 75.3 50.6 75.2L50.6 75.2L49.3 75.2Q49.1 76 49.1 77.9L49.1 77.9L51.2 78.1Q51.1 77.5 51.1 77.2Q51 76.9 51 76.8L51 76.8Q51 76.7 51.9 75.3ZM22.8 49.4L24.2 50.2L24.2 49.8Q23.7 49.4 22.9 49.4L22.9 49.4L22.8 49.4ZM57.2 74.6L58.6 76Q58.5 74.1 52.9 74.1L52.9 74.1Q52.1 74.1 50.6 74.2Q49.1 74.3 48.4 74.3L48.4 74.3Q48.2 74.3 47.5 75.1Q46.8 75.9 45.9 76.9Q44.9 77.9 43.9 78.8Q42.9 79.8 42.1 80.1L42.1 80.1L43.4 80.1Q44.2 79 45.6 77.6Q47 76.2 48.9 74.4L48.9 74.4L57.2 74.6ZM59.6 75L59.6 75L58.6 73.7Q59.1 73 59.4 72.7Q59.6 72.3 59.6 72.3L59.6 72.3L59.5 71.9L57.7 73.4L48.2 73.4Q46.2 72.1 45.6 71.0Q44.9 70 44.2 69.3Q43.5 68.6 42.1 68.3Q40.7 67.9 37.1 67.9L37.1 67.9Q35.9 67.9 35 67.6L35 67.6Q34.1 68.1 33.3 69.2L33.3 69.2Q33.3 69.2 33.7 69.4L33.7 69.4Q33.9 69.4 34.4 68.8Q34.9 68.3 35.1 68.2L35.1 68.2Q36.1 68.4 36.8 68.4L36.8 68.4Q37.5 68.4 38.9 68.3Q40.3 68.1 41 68.1L41 68.1Q43.6 68.1 47.1 73.5L47.1 73.5Q45.6 75.4 44.3 77.1Q42.9 78.8 40.9 78.8L40.9 78.8Q40.7 78.8 39.5 78.6Q38.3 78.4 36.6 78.4L36.6 78.4Q36.1 78.4 35.8 78.5Q35.4 78.5 35 78.6L35 78.6L33.6 77.1L33.3 77.4Q33.5 79.1 35.2 79.1L35.2 79.1L38.1 79.1Q40.6 79.1 42.1 78.6Q43.6 78.1 44.6 77.3Q45.6 76.6 46.4 75.6Q47.1 74.6 48.1 73.7L48.1 73.7L57.4 73.7L59.3 75.4L59.5 75.4Q59.5 75.1 59.6 75ZM42.6 70.8L43.2 70.3L43.2 70.2Q43.2 69.8 42.5 69.4L42.5 69.4L42.6 70.8ZM20.4 45.8L20.4 45.8Q20.4 45.3 19 45.3L19 45.3Q17.8 45.3 16.8 46.3L16.8 46.3Q19 45.5 19 45.5L19 45.5L19.2 45.5Q19.7 45.8 20.3 46.6L20.3 46.6Q20.4 46.2 20.4 46L20.4 46Q20.4 45.8 20.4 45.8ZM22.5 49.4L22.5 49.4Q21.4 49.6 20.8 50.4L20.8 50.4Q21.6 49.6 22.5 49.4ZM48.6 75.7L48.6 75.7Q48.4 75.9 48.2 76.1Q48 76.3 47.6 76.5L47.6 76.5Q47.7 76.8 48.4 77.5L48.4 77.5L48.4 77Q48.4 76.7 48.5 76.3Q48.6 75.9 48.6 75.7ZM16.1 45.8L16.1 45.8Q16.1 44.7 14.9 44.7L14.9 44.7L14 44.7Q13.1 44.7 13 45.3L13 45.3Q13.8 45.1 14.1 45.0Q14.4 44.8 14.4 44.8L14.4 44.8Q15.3 44.8 15.3 45.6L15.3 45.6L15.3 46.1Q15.4 46.2 15.7 46.2L15.7 46.2Q16.1 46.2 16.1 45.8ZM60.8 87.5L60.8 87.5L60.7 87.1Q60.2 87.2 59.8 87.2L59.8 87.2Q59.5 87.2 59.1 87.2L59.1 87.2L56.2 87.2Q55.7 87.1 55.2 87.1L55.2 87.1Q54.8 87.1 54.6 87.1L54.6 87.1L52.6 87.1L55.5 87.3Q56 88.7 56.7 88.7L56.7 88.7Q57.1 88.7 58.2 88Q59.2 87.3 59.9 87.3L59.9 87.3Q60.2 87.3 60.8 87.5ZM19.7 50.2L19.9 49.4Q19.4 48.8 18.1 48.8L18.1 48.8Q17.6 48.8 16.3 49.8L16.3 49.8Q18.5 49 18.5 49L18.5 49L18.7 49Q19.3 49.4 19.7 50.2L19.7 50.2ZM39.9 70.9L39.9 70.9Q39.8 70.3 39.7 69.7Q39.6 69 39 68.8L39 68.8Q38.5 69 38.0 69.2Q37.4 69.3 37.3 69.9L37.3 69.9Q37.6 70.4 37.6 70.8Q37.7 71.2 39.1 71.2L39.1 71.2Q39.6 71.2 39.9 70.9ZM61.1 91.3L61.1 91.3Q61.1 90.8 61 90.6L61 90.6Q60.4 90.8 59.7 91.2Q58.9 91.5 57.5 91.5L57.5 91.5Q57 91.5 56.6 91.5Q56.1 91.4 55.6 91.4L55.6 91.4Q57.1 91.6 58.5 91.8Q59.8 91.9 61 92.1L61 92.1Q61.1 91.8 61.1 91.3ZM42.5 77.5L43.1 77Q43.1 76.6 42.5 76L42.5 76Q42.4 76.2 42.4 76.6L42.4 76.6L42.4 76.9Q42.4 77.3 42.5 77.5L42.5 77.5ZM15.5 49.3L15.5 49.3Q15.5 48.2 14 48.2L14 48.2L13.9 48.2Q14.8 48.4 14.8 49.2L14.8 49.2Q14.8 49.5 14.7 49.7L14.7 49.7L15.4 49.7Q15.5 49.6 15.5 49.3ZM13.6 48.2L13.6 48.2Q12.5 48.4 12.4 48.8L12.4 48.8Q12.6 48.8 13 48.5Q13.4 48.3 13.6 48.2ZM35 70.9L35 70.9L34.8 69.4Q34.7 69.6 34.6 69.8Q34.5 70 34.3 70.3L34.3 70.3Q34.7 70.6 34.9 70.8Q35 70.9 35 70.9ZM44 71L44 71Q43.9 70.9 43.7 70.9L43.7 70.9Q43.4 70.9 43.1 71.5Q42.7 72.1 42.5 72.1L42.5 72.1Q42 72.1 41 72.0Q40 72 38.8 72L38.8 72Q37.6 72 36.5 72.0Q35.4 71.9 34.8 71.9L34.8 71.9Q33.3 70.1 29.9 66.7L29.9 66.7Q28.4 66.6 27.2 66.6L27.2 66.6Q26 66.6 25.2 66.6L25.2 66.6Q23.9 66.6 22.8 66.7Q21.6 66.7 20.6 66.8L20.6 66.8L19 68.4L19.3 68.8Q19.9 68.2 20.5 67.8Q21 67.4 21.8 67.2Q22.6 66.9 23.9 66.8Q25.2 66.7 27.2 66.7L27.2 66.7Q27.9 66.7 28.5 66.8Q29.1 66.8 29.7 66.9L29.7 66.9L34.8 72.2Q38 72.7 39.6 72.5Q41.2 72.2 41.2 72.4L41.2 72.4Q41.2 72.4 41.2 72.5L41.2 72.5Q41.2 72.5 41.1 72.5L41.1 72.5Q43.2 72.4 44 71ZM39.8 76.1L39.8 76.1Q39.5 75.7 38 75.7L38 75.7Q37.2 75.7 37.2 77L37.2 77Q37.2 77.4 39 78.1L39 78.1Q39.6 77.8 39.8 76.1ZM53.5 91.3L53.5 91.3Q53.2 91.1 52.8 90.5Q52.4 90 51.9 90L51.9 90Q51.8 90 51.2 90.5Q50.5 90.9 49.7 91.1L49.7 91.1Q50.8 91.1 51.7 91.2Q52.6 91.2 53.5 91.3ZM61.1 95.2L61.1 95.2L61.1 94.9Q60.1 94.9 58.2 95.4Q56.2 95.8 55.2 95.8L55.2 95.8Q54.4 95.8 53.6 95.4Q52.8 94.9 52.3 94.9L52.3 94.9Q51.7 94.9 51.4 95L51.4 95Q51.6 95.1 52 95.5Q52.4 95.8 53.1 96.3L53.1 96.3L57.2 96.3Q58.4 96.3 59.4 96Q60.3 95.7 61.1 95.2ZM30 70L30 70L29.2 69.2Q29.3 69.3 29.3 69.6L29.3 69.6Q29.3 69.8 29.2 70L29.2 70L29.2 70.3Q29.2 70.6 29.3 70.7L29.3 70.7Q29.4 70.6 29.6 70.5Q29.8 70.3 30 70ZM44.4 75.2L45 74.9L43.7 73.5Q43.9 73.3 44.3 73Q44.6 72.7 45 72.3L45 72.3L44.7 71.7Q44.4 71.9 44.0 72.3Q43.5 72.6 43 73.1L43 73.1L41.6 73.1Q38.1 73.1 34.4 72.8L34.4 72.8L29.5 67.7Q28.7 67.6 27.9 67.6Q27.1 67.5 26.3 67.5L26.3 67.5Q25.8 67.5 24.9 67.5Q23.9 67.4 22.9 67.6Q21.9 67.7 21 68.1Q20.1 68.5 19.8 69.3L19.8 69.3L20.2 69.5Q20.6 68.2 22.1 67.9L22.1 67.9L24.8 67.9Q25.2 67.9 26 67.8Q26.8 67.6 27.2 67.6L27.2 67.6Q28.1 67.6 29.3 68.5Q30.5 69.4 31.6 70.5Q32.7 71.6 33.5 72.5Q34.2 73.4 34.2 73.4L34.2 73.4L28.9 78.7L27 78.7L26.5 78.7Q25.6 78.7 24.4 78.6Q23.2 78.5 22.7 78.5L22.7 78.5Q21.6 78.5 20.9 77.8Q20.1 77 20 77L20 77Q19.8 77 19.7 77.1L19.7 77.1Q20.1 77.6 20.9 78.6L20.9 78.6Q22.3 78.8 23.7 78.9Q25.1 79 26.5 79L26.5 79Q27.3 79 28 79L28 79Q28.7 79 29.4 78.9L29.4 78.9L34.4 73.9Q38.4 73.6 39.3 73.6L39.3 73.6Q43.4 73.6 44.4 75.2L44.4 75.2ZM43.9 75.7L43.9 75.7Q43.9 75.7 42.8 74.6L42.8 74.6L35.3 74.4Q35 74.4 29.7 79.7L29.7 79.7Q28.9 79.9 28.3 79.9L28.3 79.9Q28.7 79.9 29.1 80.0Q29.5 80 29.7 80L29.7 80L34.8 74.8L42.4 74.8Q43.1 75.8 43.7 76.2L43.7 76.2Q43.8 76.1 43.8 76L43.8 76Q43.8 75.9 43.9 75.7ZM27.3 71.3L28.6 71.3L28.6 71.1Q28.4 70.9 28.4 70.5L28.4 70.5Q28.4 70.1 28.5 69.8L28.5 69.8L28.5 69.2Q28.5 68.4 28 68.4L28 68.4Q27.9 68.4 27.3 68.6L27.3 68.6Q27.6 69.4 27.6 70.1L27.6 70.1Q27.6 70.9 27.3 71.3L27.3 71.3ZM34.9 76L34.9 76Q34.7 76 34.1 76.6L34.1 76.6L34.8 77.4Q34.8 77.2 34.8 76.9L34.8 76.9Q34.8 76.5 34.9 76ZM61 89.4L61 89.4Q61 89.2 60.8 88.2L60.8 88.2Q60 88.3 58.4 88.8Q56.8 89.3 55.9 89.3L55.9 89.3Q55.3 89.3 54.5 88.6Q53.6 87.9 52.9 87.9L52.9 87.9Q52.1 87.9 50.8 88.5Q49.4 89 48.7 89L48.7 89Q48 89 47 88.3Q46 87.5 45.3 87.5L45.3 87.5Q44.5 87.5 43.1 88.0Q41.7 88.6 40.9 88.6L40.9 88.6L40.4 88.5Q39.4 87.5 38.4 87.5L38.4 87.5Q37.8 87.5 36.5 88Q35.2 88.5 34.6 88.5L34.6 88.5L33.5 88.3Q33.1 87.8 32.2 87.5Q31.3 87.2 31 86.9L31 86.9L31.1 88.8Q33.1 89.8 33.8 89.8L33.8 89.8Q34.5 89.8 35.9 89.5Q37.3 89.1 38 89.1L38 89.1Q38.5 89.1 39.4 89.5Q40.3 89.9 40.8 89.9L40.8 89.9Q41.5 89.9 42.8 89.5Q44.1 89.1 44.8 89.1L44.8 89.1L45.1 89.1Q46.5 90.2 48.4 90.2L48.4 90.2Q49.1 90.2 50.4 90.0Q51.7 89.7 52.4 89.7L52.4 89.7Q53.9 89.7 54.7 90.5L54.7 90.5L55.7 90.6Q55.9 90.6 60.9 89.7L60.9 89.7Q60.9 89.6 61.0 89.5Q61 89.5 61 89.4ZM33.9 80.1L39.8 80.1Q39.3 80 38.8 79.8Q38.2 79.7 37.9 79.7L37.9 79.7Q37.7 79.7 37.3 79.7L37.3 79.7Q37 79.7 36.5 79.8L36.5 79.8L35.2 79.8Q33.2 79.8 32.7 78.1L32.7 78.1L32.6 78.3Q32.6 78.8 33.2 79.4Q33.8 80 33.9 80.1L33.9 80.1ZM26.9 69.7L26.9 69.7Q26.9 68.9 25.3 68.5L25.3 68.5Q25.2 68.7 24.6 68.8Q24 69 24 69.6L24 69.6Q24 71.3 25.3 71.3L25.3 71.3Q26.3 71.3 26.6 70.9Q26.9 70.5 26.9 69.7ZM52.1 87L52.1 87L31 85.7L30.9 86.1L31.1 86.6Q31.7 86.3 32.5 86.3L32.5 86.3L33.3 86.4Q33.9 87.8 34.9 87.8L34.9 87.8Q35.6 87.8 36.9 87.1Q38.1 86.4 38.8 86.4L38.8 86.4Q39.5 86.4 41 88L41 88L41.4 88.1Q41.7 88.1 42.7 87.4Q43.6 86.7 44.4 86.7L44.4 86.7Q44.7 86.7 45.5 86.8Q46.2 87 46.8 87L46.8 87Q47 87 47.2 87.0Q47.3 86.9 47.5 86.9L47.5 86.9Q48.6 88.3 49.2 88.3L49.2 88.3Q49.3 88.3 50.4 87.8Q51.5 87.2 52.1 87ZM22.2 71.4L24.1 71.4Q23.4 70.7 23.4 69.6L23.4 69.6Q23.4 69.3 23.6 68.7L23.6 68.7L22.2 68.7L22.2 71.4ZM29.9 76.8L29.9 76.8Q29.7 76.1 29.3 75.9L29.3 75.9L29.2 77.4Q29.4 77.4 29.6 77.1Q29.7 76.8 29.9 76.8ZM61.2 93.3L61.2 93.3Q60.1 92.6 59.4 92.6L59.4 92.6Q58.7 92.6 57.6 93.2Q56.4 93.8 55.7 93.8L55.7 93.8Q55.5 92.6 54.0 92.5Q52.4 92.4 51.1 92.3L51.1 92.3Q49.1 93.4 48.4 93.5L48.4 93.5Q47.9 93.5 46.8 92.1L46.8 92.1L43.1 92L40.9 93.4Q40.5 93.4 39.7 92.5Q38.9 91.6 38.1 91.6L38.1 91.6Q37.4 91.6 36.1 92.3Q34.9 93 34.6 93L34.6 93Q34.1 93 33.4 92.2Q32.6 91.4 32.1 91.4L32.1 91.4Q31.9 91.4 29.2 92.5L29.2 92.5Q31 92.2 31.1 92.2L31.1 92.2Q31.5 92.2 32.3 92.9Q33.1 93.5 34.4 93.5L34.4 93.5Q35 93.5 36.2 93.0Q37.4 92.6 38 92.6L38 92.6L38.5 92.6Q39.4 93.6 40.4 93.6L40.4 93.6Q41.2 93.6 42.6 93.0Q43.9 92.5 44.6 92.5L44.6 92.5Q45.3 92.5 46.3 93.3Q47.3 94 48 94L48 94Q48.7 94 50.1 93.5Q51.5 93 52.2 93L52.2 93Q52.8 93 53.9 93.5Q54.9 94.1 55.6 94.1L55.6 94.1Q56.4 94.1 58.3 93.7Q60.1 93.3 61.2 93.3ZM29.6 72.3L30.7 70.8L30.6 70.7Q30.4 70.9 30.1 71.3Q29.8 71.6 29.3 72L29.3 72Q28.4 72 26.5 72.1Q24.6 72.2 23.6 72.2L23.6 72.2Q23 72.2 22.4 72.2L22.4 72.2Q21.9 72.2 21.4 72.1L21.4 72.1Q18.3 68.5 15.9 66.7L15.9 66.7L12.3 66.7L12.4 67Q12.8 67 13.6 66.9Q14.3 66.8 14.7 66.8L14.7 66.8Q16.1 66.8 17.7 68.5Q19.3 70.1 21.5 72.3L21.5 72.3L29.6 72.3ZM28.5 75.4L28.5 75.4L28.3 75.4Q28 75.4 27.8 75.3L27.8 75.3L27.2 75.3Q27.5 75.8 27.5 76.3L27.5 76.3Q27.5 77.1 27.1 78L27.1 78Q27.3 78.1 27.7 78.1L27.7 78.1Q28.4 78.1 28.4 76.1L28.4 76.1Q28.4 75.5 28.5 75.4ZM61.5 94.2L61.5 94.2L61.5 94Q60.5 93.8 60.3 93.8L60.3 93.8Q59.4 93.8 57.9 94.4Q56.3 94.9 55.4 94.9L55.4 94.9Q54.3 94.9 53.7 94.2Q53.1 93.5 52 93.5L52 93.5Q51.3 93.5 49.9 94.0Q48.5 94.6 47.8 94.6L47.8 94.6Q46.7 94.6 46.1 93.9Q45.5 93.1 44.6 93.1L44.6 93.1Q43.9 93.1 42.6 93.7Q41.2 94.2 40.5 94.2L40.5 94.2Q39.8 94.2 39.1 93.7Q38.3 93.1 37.9 93.1L37.9 93.1Q37.2 93.1 35.8 93.6Q34.4 94.1 33.7 94.1L33.7 94.1L32.8 94Q32 92.9 30.6 92.9L30.6 92.9Q29.3 92.9 28.6 93.6L28.6 93.6L28.8 93.6Q29.1 93.6 29.6 93.5Q30 93.4 30.2 93.4L30.2 93.4Q32.6 94.4 33.7 94.4L33.7 94.4Q34.3 94.4 35.4 94Q36.5 93.6 37.1 93.6L37.1 93.6Q37.7 93.6 38.7 94.0Q39.7 94.5 40.3 94.5L40.3 94.5Q40.9 94.5 42.1 94.0Q43.2 93.6 43.8 93.6L43.8 93.6Q44.5 93.6 45.8 94.3Q47 94.9 47.9 94.9L47.9 94.9Q48.6 94.9 50.0 94.5Q51.3 94.2 52 94.2L52 94.2Q52.6 94.2 53.7 94.7Q54.8 95.2 55.5 95.2L55.5 95.2Q55.6 95.2 56.5 95.0Q57.4 94.9 58.5 94.8Q59.6 94.6 60.6 94.4Q61.5 94.2 61.5 94.2ZM21.5 70.9L21.5 70.9L21.3 69.4L20.6 70.1Q20.8 70.3 21 70.5Q21.2 70.7 21.5 70.9ZM48.4 91.1L48.4 91.1Q46.6 90.8 45.9 90.3Q45.2 89.7 44.8 89.6L44.8 89.6Q44.9 89.7 43.7 90.2Q42.5 90.7 41 90.7L41 90.7Q39.9 90.7 39 90.0Q38.1 89.4 37.9 89.4L37.9 89.4Q37.4 89.4 36.9 90.0Q36.3 90.5 35.4 90.5L35.4 90.5Q34.3 90.5 33.3 90.2Q32.3 89.9 31.1 89.4L31.1 89.4Q31.1 90 31.4 90.7L31.4 90.7Q33.9 90.8 46.2 91L46.2 91Q46.7 91 47.3 91.0Q47.9 91.1 48.4 91.1ZM31.5 71.7L31.5 71.7Q31.4 71.7 31.4 71.4L31.4 71.4Q31 71.5 30.3 72.3Q29.6 73.2 29.4 73.2L29.4 73.2L21.1 73.1Q19.3 71.1 17.5 69.4Q15.7 67.7 13.4 67.7L13.4 67.7L12.5 67.8L12.5 68Q13 68 13.7 68.1Q14.4 68.1 15.3 68.2L15.3 68.2L20.3 73.2L16.6 76.9L17 77.4Q18.1 76 21.1 73.5L21.1 73.5L29.7 73.6Q30.2 74.4 31.4 75.2L31.4 75.2Q31.2 74.3 30.2 73.3L30.2 73.3Q31.5 72.1 31.5 71.7ZM26.8 76.5L26.8 76.5Q26.8 75.2 25.3 75.2L25.3 75.2Q24 75.2 24 76.4L24 76.4L24 76.7Q24 77 24.4 77.5Q24.8 78 25.4 78L25.4 78Q26.8 78 26.8 76.5ZM30.5 76L30.6 75.9Q30.4 75.7 30.2 75.3Q29.9 74.8 29.6 74.3L29.6 74.3L21.5 74.1Q20.8 74.7 19.8 75.6Q18.8 76.5 17.4 77.8L17.4 77.8L17.7 78.1Q18.4 77.5 19.3 76.5Q20.2 75.6 21.4 74.3L21.4 74.3L29.2 74.6Q29.8 75.4 30.5 76L30.5 76ZM24 75.2L24 75.2L22.2 75.2L22.2 77.7L23.5 77.8Q23.3 77.4 23.3 77.1L23.3 77.1Q23.3 76.5 23.6 76.0Q23.8 75.4 24 75.2ZM15.5 70.8L16.2 70L15.4 69.2Q15.4 69.4 15.5 69.5L15.5 69.5Q15.5 69.6 15.4 69.9Q15.3 70.2 15.3 70.3L15.3 70.3Q15.3 70.6 15.5 70.8L15.5 70.8ZM50.8 95.1L50.8 95.1Q49.8 95.3 48.8 95.4Q47.8 95.5 47.2 95.5L47.2 95.5Q45.4 95.5 44.2 94.2L44.2 94.2Q43.6 94.3 42.2 94.7Q40.7 95.1 39.9 95.1L39.9 95.1Q39.4 95.1 38.6 94.6Q37.7 94.1 37.2 94.1L37.2 94.1Q36.6 94.1 35.5 94.5Q34.3 94.9 33.7 94.9L33.7 94.9Q31.8 94.9 30.4 94.2L30.4 94.2Q30.8 94.7 31.6 95Q32.4 95.3 33.2 95.4Q34 95.5 34.5 95.5L34.5 95.5Q35.1 95.5 35 95.5L35 95.5Q35.3 95.4 36.1 95.0Q37 94.5 37.3 94.5L37.3 94.5Q38 94.5 38.6 95.1Q39.2 95.7 40.3 95.7L40.3 95.7Q41.2 95.7 42.6 95.2Q44 94.6 44.2 94.6L44.2 94.6Q44.3 94.6 45.4 95.4Q46.4 96.2 48.5 96.2L48.5 96.2Q49 96.2 49.7 95.8Q50.3 95.3 50.8 95.1ZM21.2 77.1L21.4 75.5Q21.2 75.6 20.6 76.2L20.6 76.2Q20.7 76.7 21.2 77.1L21.2 77.1ZM25 79.9L27 79.9Q25.9 79.9 24.6 79.7Q23.2 79.4 22.7 79.5L22.7 79.5Q22.2 79.8 21.8 79.8L21.8 79.8Q22.5 79.9 23.3 79.9L23.3 79.9Q24.1 79.9 25 79.9L25 79.9ZM16.7 70.8L16.7 70.8L15.1 72.1L14.2 72.1Q13.9 72 13.6 72L13.6 72L13.5 72.2Q13.9 72.4 14.3 72.4L14.3 72.4Q15.8 72.4 16.7 70.8ZM17.8 71.8L17.8 71.8L17.8 71.6L17.4 71.5L15.6 73.1L13.9 73.1Q14.2 73.3 14.2 73.4L14.2 73.4L14.1 73.5L15.7 73.5Q16.2 73.5 16.5 73.4L16.5 73.4Q17.8 72.1 17.8 71.8ZM21.5 79.8L21.5 79.8Q20.8 79.5 20.1 78.7Q19.4 77.8 19.2 77.7L19.2 77.7L18.9 78Q19 78.1 19.4 78.5Q19.7 78.8 20.4 79.6L20.4 79.6Q20.6 79.7 20.9 79.7L20.9 79.7Q21.2 79.7 21.5 79.8ZM16.7 75.7L16.7 75.7Q16.1 73.9 14.9 73.9L14.9 73.9L14.7 73.9L14.5 73.9Q14.9 74.2 15.5 74.7Q16 75.1 16.7 75.7ZM28.7 94.5L29.7 94Q29.5 94.1 29.2 94.2Q28.9 94.2 28.6 94.4L28.6 94.4L28.7 94.5ZM58.4 13.9L58.4 13.9L57.4 15Q56.8 15 56.3 15.1L56.3 15.1L55.3 15.1Q54.2 15.1 53.8 14.5L53.8 14.5Q56.8 13.9 58.4 13.9ZM58.7 16.3L58.7 16.3Q57 16.5 55.7 16.5Q54.3 16.6 53.4 16.7L53.4 16.7Q54.4 15.8 56.4 15.8L56.4 15.8Q57.9 15.8 58.7 16.3ZM37.7 13.8L44 14.2Q44 15.2 43.4 17L43.4 17Q42.4 17 40.9 16.8Q39.4 16.7 37.4 16.5L37.4 16.5L37.4 16.1Q37.4 15.7 37.6 14.9Q37.7 14.1 37.7 13.8L37.7 13.8ZM62.8 39.3L62.8 39.3L62.6 42.4Q58.5 42.7 56.4 42.7L56.4 42.7Q55.6 42.7 54.9 42.7L54.9 42.7Q54.3 42.7 53.6 42.6L53.6 42.6L53.6 39.4Q58.5 39.1 59.6 39.1L59.6 39.1Q60.4 39.1 61.2 39.1Q62 39.2 62.8 39.3ZM68.8 69.8L68.8 70.4Q68.8 70.8 68.2 70.8L68.2 70.8Q67.3 70.8 67.3 70.1L67.3 70.1L67.4 69.4L68.4 69.4Q68.8 69.4 68.8 69.8L68.8 69.8ZM33.7 38.7L41.9 39.4Q41.9 39.8 41.6 41Q41.3 42.2 40.3 42.2L40.3 42.2Q38.9 42.2 37.1 42Q35.4 41.8 33.1 41.5L33.1 41.5Q33.1 40.2 33.7 38.7L33.7 38.7ZM68.9 77.2L68.9 77.2Q68.9 78.1 68.1 78.1L68.1 78.1L67.8 78.1Q67.2 78.1 67.2 77.6L67.2 77.6Q67.2 77.3 67.4 77.0Q67.5 76.6 68 76.6L68 76.6Q68.9 76.6 68.9 77.2ZM54 70.4L54 70.6Q54 71.1 53.5 71.1L53.5 71.1Q52.5 71.1 52.5 70.1L52.5 70.1Q52.5 69.8 52.8 69.5L52.8 69.5L53.2 69.5Q54 69.5 54 70.4L54 70.4ZM53.9 76.2L53.9 76.2Q53.9 77.2 53.5 77.6L53.5 77.6L52.9 77.6Q52.3 77.6 52.3 77L52.3 77Q52.3 76.1 53.4 76.1L53.4 76.1Q53.8 76.1 53.9 76.2ZM48.4 73.5L48.9 73.5Q48.9 73.6 48.7 73.6L48.7 73.6L48.6 73.6Q48.4 73.6 48.4 73.5L48.4 73.5ZM39.4 70.3L39.4 70.6Q39.4 70.8 39.2 70.8L39.2 70.8Q38.6 70.8 38.5 70.5Q38.3 70.2 38.1 69.8L38.1 69.8Q38.2 69.4 38.7 69.4L38.7 69.4Q39.4 69.4 39.4 70.3L39.4 70.3ZM39.4 76.2L39.4 76.2Q39.4 77.4 38.8 77.4L38.8 77.4L38.6 77.4Q38.1 77.4 38 77L38 77Q38.2 76.4 38.4 76.1L38.4 76.1L38.9 76.1Q39 76 39.2 76L39.2 76Q39.4 76.2 39.4 76.2ZM26.3 70.3L26.3 70.3Q26.3 70.3 25.5 70.8L25.5 70.8Q24.9 70.6 24.7 70.3L24.7 70.3Q24.9 69.2 25.4 69.2L25.4 69.2Q25.6 69.2 25.7 69.3L25.7 69.3L25.9 69.2Q26.1 69.8 26.3 70.3ZM26.3 76.2L26.3 76.2Q26.2 76.2 26.2 76.8Q26.1 77.3 25.8 77.3L25.8 77.3Q24.6 77.3 24.6 76.4L24.6 76.4Q24.7 76.4 25.3 75.8L25.3 75.8Q25.6 75.8 26.3 76.2ZM43.5 15.2L43.5 15.2Q43.5 15 43.4 14.9L43.4 14.9Q42.7 15.3 41.1 16.6L41.1 16.6L43.2 16.6Q43.5 15.1 43.5 15.2ZM37.6 16.2L39.9 16.6Q39.4 15.7 37.8 14.5L37.8 14.5L37.6 16.2ZM59.8 40.7L61.2 39.6L55 39.9Q55.3 40.8 56.9 40.8L56.9 40.8Q59.9 40.8 59.9 40.7L59.9 40.7L59.8 40.7ZM61.4 42.1L61.4 42.1Q60.6 41.5 59.2 41.5L59.2 41.5Q55.5 41.5 54.7 42.2L54.7 42.2Q55.7 42.3 56.3 42.3L56.3 42.3Q57 42.3 57.3 42.3L57.3 42.3L58.9 42.3Q59.4 42.3 60.1 42.3Q60.7 42.2 61.4 42.1ZM41.3 40.5L41.3 40.5Q41.3 40.2 41.2 40.1L41.2 40.1Q40.7 40.3 39.9 40.8Q39 41.2 37.9 41.7L37.9 41.7L39.4 41.7Q39.9 41.8 40.5 41.8L40.5 41.8L40.9 41.8Q41 41.6 41.2 41.2Q41.3 40.8 41.3 40.5ZM68.5 70.3L68.5 70.3Q68.5 69.9 67.9 69.7L67.9 69.7L67.8 70.4L68.3 70.4Q68.5 70.4 68.5 70.3ZM33.4 41.2L36.4 41.7Q35.8 41.1 35.2 40.4Q34.6 39.7 33.8 39.4L33.8 39.4Q33.7 39.7 33.6 40.1Q33.5 40.6 33.4 41.2L33.4 41.2ZM68.4 77.1L68.4 77.1L68.2 77.1Q67.7 77.1 67.7 77.4L67.7 77.4L67.7 77.7L68.2 77.7Q68.4 77.7 68.4 77.1ZM53.6 70.5L53.6 70.5L53.6 70.4Q53.6 70 53.3 70L53.3 70L53.2 70Q53 70 53 70.2L53 70.2Q53 70.7 53.4 70.7L53.4 70.7Q53.6 70.7 53.6 70.5ZM53.5 76.8L53.5 76.8L53.5 76.7Q53.5 76.6 53.2 76.4L53.2 76.4Q52.9 76.6 52.9 76.9L52.9 76.9L52.9 77.2L53.3 77.1Q53.5 76.9 53.5 76.8ZM38.8 70.4L38.9 70.4L38.9 69.9L38.5 69.9Q38.7 70.4 38.8 70.4L38.8 70.4ZM38.4 76.9L38.9 76.9L38.9 76.5L38.7 76.5L38.4 76.9ZM25.9 69.9L25.9 69.9L25.9 69.8Q25.8 69.7 25.5 69.7L25.5 69.7Q25.1 69.7 25.1 70L25.1 70Q25.1 70.3 25.4 70.3L25.4 70.3Q25.9 70.3 25.9 69.9ZM25.8 76.5L25.8 76.5L25.8 76.4Q25.3 76.2 25.3 76.2L25.3 76.2Q25.1 76.2 25.1 76.5L25.1 76.5Q25.1 76.9 25.4 76.9L25.4 76.9L25.5 76.9Q25.8 76.9 25.8 76.5Z" id="path_A" />
      </svg>