<?xml version="1.0" encoding="utf-8"?>
<!-- Generator: Adobe Illustrator 30.2.0, SVG Export Plug-In . SVG Version: 9.03 Build 0)  -->
<svg version="1.1" id="Layer_1" xmlns="http://www.w3.org/2000/svg" xmlns:xlink="http://www.w3.org/1999/xlink" x="0px" y="0px"
	 viewBox="0 0 1804.9 250.84" style="enable-background:new 0 0 1804.9 250.84;" xml:space="preserve">
<style type="text/css">
	.st0{display:none;fill:#FFFFFF;}
	.st1{fill:none;}
	.st2{fill:#AF0000;}
	.st3{display:none;}
	.st4{display:inline;fill:none;}
	.st5{display:inline;}
	.st6{fill:#FFFFFF;}
</style>
<rect x="-179.63" y="-364.02" class="st0" width="2089.12" height="619.65"/>
<g>
	<rect x="168.04" y="13.04" class="st1" width="1833.97" height="589.46"/>
	<path class="st2" d="M300.57,250.79l-9.09-2.57l-13.54-13.35c-10.75-13.46-16.46-20.6-17.15-21.39
		c-6.06-7.76-11.09-14.72-15.09-20.88c-4.8-7.3-9.03-14.77-12.69-22.42c-0.8-0.57-1.4-1.23-1.8-1.97c-0.4-0.74-2.26-4.7-5.57-11.89
		l-0.86-4.11l-5.66-1.03c-1.94,1.49-3.2,2.43-3.77,2.83c-0.57,0.4-1.77,0.94-3.6,1.63l1.37,21.77l2.91,18.35
		c1.14,1.83,1.97,3.06,2.49,3.69c0.51,0.63,1.34,1.34,2.49,2.14l-0.17,1.89l-16.97-0.17c-1.37,0.59-2.8,1.31-4.29,2.15
		c-1.49,0.83-2.97,1.49-4.46,1.97h-3.26l-1.71-2.57c1.85-1.83,3.1-3.15,3.76-3.94c0.65-0.8,1.69-2.51,3.1-5.14l2.4-9.6
		c0-10.86-0.29-20.75-0.86-29.66c-1.03-16-1.54-25.89-1.54-29.66c-1.71-5.83-2.83-9.46-3.34-10.89c-0.51-1.43-1.11-2.6-1.8-3.51
		c-2.74-0.23-5.46-0.46-8.14-0.69c-2.69-0.23-5.4-0.57-8.14-1.03v-2.57l21.43-10.97c2.12-2.06,3.86-3.57,5.22-4.54
		c1.36-0.97,2.98-2.14,4.87-3.51l6.55-0.86c0,0.23,0.16,1.06,0.5,2.49c0.33,1.43,0.61,2.66,0.83,3.69l3.48,0.34
		c1.94-1.6,3.37-2.68,4.29-3.26c0.91-0.57,2.92-1.66,6-3.26c3.09-0.8,5.17-1.26,6.26-1.37c1.08-0.11,3.34-0.17,6.77-0.17
		c1.83,0,5,0.86,9.52,2.57c4.51,1.71,6.97,3.03,7.37,3.94c0.4,0.91,1.23,2.34,2.49,4.28c1.83,3.31,2.74,6.05,2.74,8.22
		c0,4.22-0.74,8.28-2.23,12.16c-1.71,3.77-3.43,7.48-5.14,11.13l-6.34,7.36l-8.4,4.62c6.86,20.89,16.29,39.56,28.29,56
		c14.06,19.29,29.66,32.42,46.81,39.39l10.29-0.86l-1.2,3.05c-9.6,4.86-15.12,7.69-16.54,8.48c-1.43,0.79-2.77,1.81-4.03,3.05
		L300.57,250.79z M211.76,147.58c6.63-2.51,13.14-4.8,19.55-6.86c2.51-2.17,5.37-4.46,8.57-6.86c2.17-1.94,4.29-4.86,6.34-8.74
		c0.69-1.26,1.03-4.06,1.03-8.4c0-4.46-0.34-7.54-1.03-9.26c-1.26-3.09-3.83-5.37-7.72-6.86c-0.92-0.34-4.4-1.2-10.46-2.57
		c-3.2,0.34-5.52,0.69-6.94,1.03c-1.43,0.34-3.12,1.14-5.06,2.4c-0.69,1.03-1.09,1.66-1.2,1.89c-0.57,0.8-0.97,1.32-1.2,1.54
		L211.76,147.58z"/>
	<path class="st2" d="M314.12,206.04l1.03-3.43l4.29-3.77c1.6-9.37,2.57-15.57,2.92-18.6c0.34-3.03,0.97-9.23,1.89-18.6v-33.78
		l-2.4-24.86c-1.83-2.97-2.94-4.71-3.34-5.23c-0.4-0.51-1.23-1.23-2.49-2.14l0.51-3.94l12,2.74c1.94-0.23,4.94-0.74,9-1.54
		c4.06-0.8,7.29-1.2,9.69-1.2l-0.69,4.29l-4.97,3.94l-2.74,8.57l-2.57,35.49l2.57,48.35c0.46,1.71,0.86,3,1.2,3.86
		c0.34,0.86,0.74,1.74,1.2,2.66l3.09,3.09c0,1.14-0.12,2-0.34,2.57l-12-1.2L314.12,206.04z"/>
	<path class="st2" d="M439.28,206.04c-2.17-5.27-4.6-10.45-7.29-15.55c-2.69-5.1-4.37-7.93-5.06-8.51
		c-1.71-4.58-3.6-8.99-5.66-13.23c-6.86-14.32-10.86-22.8-12-25.43c-1.6-5.5-2.57-8.71-2.91-9.62c-0.34-0.92-0.86-1.49-1.54-1.72
		c-0.8,0.69-1.37,1.2-1.71,1.54c-0.34,0.34-0.97,1.43-1.89,3.26c-0.92,5.72-2.23,12.63-3.94,20.75c-1.14,5.26-2,9.89-2.57,13.89
		c-0.92,2.29-1.57,4.52-1.97,6.69c-0.4,2.17-1.34,8.52-2.83,19.03c0.91,1.03,2,2.17,3.26,3.43c0.46,0.57,0.91,1.6,1.37,3.09
		l-24.17-0.34l-1.71-1.37c2.06-1.48,3.77-2.92,5.14-4.29c0.91-0.91,1.83-1.83,2.74-2.74c3.2-7.43,5.26-12.34,6.17-14.75
		c0.57-1.6,2.74-8.06,6.52-19.37c2.4-9.03,4.91-18.29,7.54-27.77c1.37-5.26,2.29-10.46,2.74-15.6l-2.57-4.63l-4.11-1.37
		c-3.54,0.46-7.03,0.86-10.46,1.2c0.57-1.83,1-2.92,1.29-3.26c0.28-0.34,0.71-0.8,1.29-1.37c2.06-0.57,3.66-1.14,4.8-1.71
		c1.14-0.57,2.97-1.6,5.49-3.09l1.71-2.4c3.54-1.83,5.86-3.11,6.94-3.86c1.08-0.74,3.06-2.37,5.92-4.89h2.4
		c1.14,2.86,2.57,7.1,4.29,12.71c3.43,11.46,5.26,17.24,5.49,17.35l3.43,13.75c1.37,1.83,2.4,3.61,3.09,5.33
		c0.23,0.69,1.08,3.04,2.57,7.04l16.46,26.63c1.03-1.26,1.89-2.57,2.57-3.94c0.69-1.37,2.63-5.49,5.83-12.34
		c2.17-6.17,4.34-12.4,6.52-18.69c0.91-1.37,1.94-4.11,3.09-8.23c0.46-1.71,2.11-7.83,4.97-18.34l-0.34-3.09
		c-1.14-0.8-2.06-1.29-2.74-1.46c-0.69-0.17-2.46-0.26-5.31-0.26v-2.57c4.8-1.94,8.51-3.6,11.14-4.97
		c2.63-1.37,7.48-4.11,14.57-8.23c0.8,0,2,0.23,3.6,0.69v10.32c2.29,16.28,4.09,28.78,5.4,37.49c1.31,8.71,2.71,16.97,4.2,24.76
		l6.52,18.75c1.83,2.52,2.89,3.96,3.17,4.3c0.28,0.34,1,0.98,2.14,1.89l6.17,1.03l-0.34,2.41c-4.11,2.98-6.83,5.02-8.14,6.11
		c-1.31,1.09-3.23,2.95-5.74,5.59h-8.06L495,203.3c-0.69,0-1.54-0.23-2.57-0.69l-3.43-12l-2.57-3.26c-0.46-2.51-1.89-9.71-4.29-21.6
		c-1.49-7.31-2.97-16.17-4.46-26.58c0-1.26-0.03-2.57-0.09-3.94c-0.06-1.37-0.15-2.68-0.26-3.94h-4.11
		c-3.43,7.77-6.8,15.49-10.12,23.15c-0.69,0.69-1.86,2.91-3.51,6.69c-1.66,3.77-2.77,5.89-3.34,6.34c-0.57,1.37-1.37,3.03-2.4,4.97
		c-1.03,1.94-1.66,3.49-1.89,4.63l-1.71,1.54c-0.8,2.86-2.2,7.72-4.2,14.57c-2,6.86-3.23,11.14-3.69,12.86H439.28z"/>
	<path class="st2" d="M545.06,205.87l1.37-3.26l4.12-2.91l3.09-7.37c0.46-3.54,1.26-7.83,2.4-12.86c0.69-3.31,1.14-6,1.37-8.06h4.63
		v7.37c0,2.29,0.23,4.11,0.69,5.49c0.69,0.92,1.46,1.94,2.31,3.09c0.86,1.14,2.08,2.29,3.69,3.43l8.74,3.43h12.86
		c5.49-1.48,8.68-2.4,9.6-2.74c2.17-0.69,4.63-1.66,7.37-2.92c0.91-1.26,1.51-2,1.8-2.23c0.28-0.23,0.88-0.63,1.8-1.2l2.4-6.52
		v-6.69l-4.29-7.71l-9.6-5.49c-9.72-3.31-16-5.37-18.86-6.17c-2.86-0.8-8.17-2.17-15.94-4.11c-0.8-0.91-1.54-1.57-2.23-1.97
		c-0.69-0.4-3.15-1.69-7.37-3.86l-8.57-10.12c-0.34-0.69-0.92-2-1.71-3.94c0-3.2,0.34-6.63,1.03-10.29c1.71-3.66,3-6.11,3.86-7.37
		c0.86-1.26,2.43-3.37,4.71-6.34l15.09-10.29c4.11-1.6,7.26-2.68,9.43-3.26c2.17-0.57,7.89-1.94,17.15-4.12l26.57-0.69l0.34,3.09
		l-5.83,7.03c-1.37,6.17-2.29,10.49-2.74,12.94c-0.46,2.46-1.09,6.2-1.89,11.23c-0.69,0.8-1.32,1.32-1.89,1.54
		c-0.57,0.23-1.66,0.51-3.26,0.86c0-0.69-0.11-1.54-0.34-2.57c0-0.57,0-1.2,0-1.89c0-0.91,0.17-3.2,0.51-6.86l-2.92-7.03l-7.54-3.77
		l-20.4-0.86l-7.2,1.54l-8.06,4.97l-2.92,6.17l0.86,4.8l3.43,4.8c2.29,1.49,3.71,2.37,4.29,2.66c0.57,0.29,1.71,0.83,3.43,1.63
		c11.43,4.12,18.23,6.52,20.4,7.2c2.17,0.69,4.63,1.26,7.37,1.71c0.69,0.34,1.26,0.92,1.71,1.71l4.97,0.51
		c3.43,1.83,6.17,3.34,8.23,4.54c2.06,1.2,4.97,3.12,8.74,5.74l4.97,10.63l-0.69,14.57l-6.52,11.14l-8.06,8.74
		c-0.46,0.34-1.94,1.31-4.46,2.91c-1.71,1.14-3.26,2.23-4.63,3.26c-1.83,0.46-4.23,1.34-7.2,2.66c-2.97,1.31-6,2.49-9.09,3.51
		L545.06,205.87z"/>
	<path class="st2" d="M710.94,203.81c-1.32,0.11-5.06,0.17-11.23,0.17h-5.66l-15.77-3.94c-1.26-0.57-2.52-1.23-3.77-1.97
		c-1.26-0.74-2.46-1.51-3.6-2.31l-8.92-8.74c-1.71-2.29-3.49-4.69-5.31-7.2c-1.83-2.51-3.43-4.86-4.8-7.03l-2.57-11.14v-20.06
		l1.71-9.6c0.57-1.26,2.17-4.29,4.8-9.09c0.57-1.03,1.14-2.29,1.71-3.77c4.69-4.8,9.37-9.66,14.06-14.57
		c5.37-3.54,9.26-6,11.66-7.37c0.57-0.34,3.71-2.06,9.43-5.14c2.63-1.03,5.2-2.03,7.72-3c2.51-0.97,5.26-1.63,8.23-1.97h21.77
		c4.34,1.6,7.26,2.72,8.74,3.34c1.48,0.63,3.71,1.69,6.69,3.17c3.54,2.86,6.09,5,7.63,6.43c1.54,1.43,3.86,3.86,6.94,7.29l6.51,9.43
		l3.26,15.26l0.69,15.43l-3.09,12.52c-3.09,5.83-5.31,9.83-6.69,12c-1.37,2.17-3.77,5.49-7.2,9.94c-4,3.54-6.43,5.66-7.29,6.34
		c-0.86,0.69-3.57,2.63-8.14,5.83c-4,1.83-7.03,3.2-9.09,4.12c-4.11,1.83-7.2,3.26-9.26,4.29
		C715.31,203.24,712.25,203.7,710.94,203.81z M715.14,191.64c4.11,0,7.89-0.4,11.32-1.2c4.69-1.14,7.83-1.89,9.43-2.23l4.46-3.09
		c1.71-2.17,3.26-4.4,4.63-6.69c1.03-1.83,2.74-4.97,5.14-9.43l3.09-12v-11.32l-3.09-14.57l-6.69-10.63
		c-1.49-1.48-2.97-3.09-4.46-4.8c-2.17-2.4-3.43-3.83-3.77-4.29l-9.77-6.69l-9.6-3.09c-5.37-0.91-8.66-1.43-9.86-1.54
		c-1.2-0.11-4.03-0.17-8.49-0.17l-11.32,2.4l-7.2,4.46l-9.43,15.26c-0.8,3.77-1.32,6.06-1.54,6.86c-0.23,0.8-0.8,2.12-1.71,3.94
		v12.86l2.57,10.29c3.88,7.32,7.83,14.57,11.83,21.77c0.69,0.34,1.14,0.54,1.37,0.6c0.23,0.06,0.63,0.14,1.2,0.26
		c1.6,1.37,2.54,2.34,2.83,2.92c0.28,0.57,0.54,1.26,0.77,2.06c1.26,0,2.77,0.43,4.54,1.29c1.77,0.86,4.26,2.14,7.46,3.86
		L715.14,191.64z"/>
	<path class="st2" d="M901.85,213.8c-0.34,0.17-1.54,0.48-3.6,0.94c-2.86-5.14-6.34-10.74-10.46-16.79c-2.74-4-4.86-7.25-6.34-9.77
		c-0.57-0.34-2.94-3.37-7.12-9.08c-4.17-5.71-6.54-8.8-7.12-9.26c-1.37-2.4-2.91-4.79-4.63-7.2c-2.4-3.31-6.4-8.51-12-15.59
		l-15.09-16.79l-3.77-0.69c-0.8,9.37-1.26,15.12-1.37,17.23c-0.12,2.12-0.17,6.03-0.17,11.74c1.03,6.29,1.71,11.26,2.06,14.92
		c0.8,9.03,1.31,14.09,1.54,15.17c0.23,1.09,0.54,2.4,0.94,3.94c0.4,1.54,0.83,2.83,1.29,3.86l3.6,2.4l0.69,3.09
		c-2.74,0-5.4-0.12-7.97-0.34c-2.57-0.23-5.23-0.51-7.97-0.86c-1.26,0.46-2.55,0.97-3.86,1.54c-1.32,0.57-2.43,1.14-3.34,1.71
		l-6.52,0.51l-0.69-2.57c2.06-1.94,3.43-3.38,4.11-4.29c0.69-0.92,2-2.92,3.94-6.01v-51.86l-3.09-19.92
		c-1.71-2.97-2.77-4.75-3.17-5.32c-0.4-0.57-1.06-1.2-1.97-1.89c-4.23,0-9.2-0.28-14.92-0.86l0.17-3.43c4-1.6,8-3.38,12-5.32
		c2.86-1.37,5.43-2.63,7.72-3.78c0.11-0.23,1.48-1.32,4.11-3.26c1.37-1.03,2.86-2.35,4.46-3.95l5.83-3.61h3.77
		c1.71,4.35,2.74,6.92,3.09,7.71c0.34,0.8,1.37,2.8,3.09,6c6.52,9.49,13.09,18.97,19.72,28.46c5.83,8.46,9.14,12.92,9.94,13.37
		c0.69,1.14,5.89,7.37,15.6,18.69c3.88,4.57,5.94,7.2,6.17,7.89c1.37,0.92,2.46,1.74,3.26,2.49c0.8,0.75,1.71,1.52,2.74,2.31v-48.27
		l-2.94-14.6l-2.08-2.41l-12.46-1.72c-0.35-0.34-0.63-0.92-0.87-1.72c0.8-0.92,2.63-2.29,5.49-4.12c4.34-2.86,8.17-5.32,11.49-7.39
		c1.14-1.6,2.03-2.72,2.66-3.35c0.63-0.63,2.14-1.75,4.54-3.35c1.94,0,3.66,0.23,5.14,0.69l-3.77,66.94
		c-0.12,4.81-0.23,9.67-0.34,14.59c-0.12,4.92-0.17,9.33-0.17,13.21c0,2.52,0.17,5.32,0.51,8.41c-0.34,1.26-0.51,2.29-0.51,3.09
		c0.11,1.83,0.23,3.83,0.34,6.01c0.11,2.17,0.17,5.89,0.17,11.15C902.82,213.2,902.19,213.63,901.85,213.8z"/>
	<path class="st2" d="M1255.65,203.81c-1.32,0.11-5.06,0.17-11.23,0.17h-5.66l-15.77-3.94c-1.26-0.57-2.52-1.23-3.77-1.97
		c-1.26-0.74-2.46-1.51-3.6-2.31l-8.92-8.74c-1.71-2.29-3.49-4.69-5.32-7.2c-1.83-2.51-3.43-4.86-4.8-7.03l-2.57-11.14v-20.06
		l1.71-9.6c0.57-1.26,2.17-4.29,4.8-9.09c0.57-1.03,1.14-2.29,1.71-3.77c4.69-4.8,9.37-9.66,14.06-14.57
		c5.37-3.54,9.26-6,11.66-7.37c0.57-0.34,3.71-2.06,9.43-5.14c2.63-1.03,5.2-2.03,7.71-3c2.51-0.97,5.26-1.63,8.23-1.97h21.77
		c4.34,1.6,7.26,2.72,8.74,3.34c1.48,0.63,3.71,1.69,6.69,3.17c3.54,2.86,6.09,5,7.63,6.43c1.54,1.43,3.86,3.86,6.94,7.29l6.51,9.43
		l3.26,15.26l0.69,15.43l-3.09,12.52c-3.09,5.83-5.31,9.83-6.69,12c-1.37,2.17-3.77,5.49-7.2,9.94c-4,3.54-6.43,5.66-7.29,6.34
		s-3.57,2.63-8.14,5.83c-4,1.83-7.03,3.2-9.09,4.12c-4.12,1.83-7.2,3.26-9.26,4.29C1260.02,203.24,1256.96,203.7,1255.65,203.81z
		 M1259.85,191.64c4.11,0,7.89-0.4,11.32-1.2c4.69-1.14,7.83-1.89,9.43-2.23l4.46-3.09c1.71-2.17,3.26-4.4,4.63-6.69
		c1.03-1.83,2.74-4.97,5.14-9.43l3.09-12v-11.32l-3.09-14.57l-6.69-10.63c-1.49-1.48-2.97-3.09-4.46-4.8
		c-2.17-2.4-3.43-3.83-3.77-4.29l-9.77-6.69l-9.6-3.09c-5.37-0.91-8.66-1.43-9.86-1.54c-1.2-0.11-4.03-0.17-8.49-0.17l-11.32,2.4
		l-7.2,4.46l-9.43,15.26c-0.8,3.77-1.31,6.06-1.54,6.86c-0.23,0.8-0.8,2.12-1.71,3.94v12.86l2.57,10.29
		c3.88,7.32,7.83,14.57,11.83,21.77c0.69,0.34,1.14,0.54,1.37,0.6c0.23,0.06,0.63,0.14,1.2,0.26c1.6,1.37,2.54,2.34,2.83,2.92
		c0.28,0.57,0.54,1.26,0.77,2.06c1.26,0,2.77,0.43,4.54,1.29c1.77,0.86,4.26,2.14,7.46,3.86L1259.85,191.64z"/>
	<path class="st2" d="M1409.18,213.41c-1.14-2.52-2.34-5.43-3.6-8.74c-3.2-8.92-5.66-15.14-7.37-18.69l-0.69-5.66
		c-1.95-4.34-3.6-8.17-4.97-11.49c-4-9.94-6.69-16.46-8.06-19.54l-2.4-2.4c-0.69-2.86-1.4-5.17-2.14-6.94
		c-0.74-1.77-3.34-7.29-7.8-16.54c-1.37-1.48-2.69-3.37-3.94-5.66c-0.23-0.46-2.06-3.88-5.49-10.29c-1.37-1.03-2.54-2.03-3.51-3
		c-0.97-0.97-2.2-2.37-3.69-4.2l-11.66-6.69l-0.69-2.4c5.49,0.8,9.43,1.32,11.83,1.54c2.4,0.23,6,0.34,10.8,0.34h3.94
		c0.69-0.11,1.51-0.34,2.49-0.69c0.97-0.34,1.8-0.69,2.49-1.03h8.74l0.86,1.37l-2.57,3.43v7.89c0.69,0.8,2.03,3.77,4.03,8.92
		c2,5.14,3.17,7.83,3.51,8.06l9.77,26.58c2.74,5.37,5.43,10.97,8.06,16.8c3.43,7.43,5.66,11.95,6.69,13.54l2.57,0.69
		c3.77-8.8,7.94-17.89,12.52-27.26c2.17-4.46,3.43-7.37,3.77-8.74l-0.51-5.49c-1.71-3.43-3.54-6.86-5.49-10.29
		c-2.74-4.8-4.35-8.06-4.8-9.77c-1.71-1.94-2.86-3.37-3.43-4.29c-0.57-0.91-1.71-3.03-3.43-6.34c-0.92-0.69-2.57-2.23-4.97-4.63
		c-1.83-1.94-3.43-3.31-4.8-4.11l-6.52-2.06l-1.54-4.46l25.03,1.89c1.94-0.34,3.83-0.91,5.66-1.71h8.74l0.86,1.37l-3.09,3.43
		c0,1.6,0.06,2.97,0.17,4.12c0.11,1.14,0.28,2.4,0.51,3.77c2.63,7.77,4.14,12.17,4.54,13.2c0.4,1.03,0.94,1.77,1.63,2.23
		c0.91-0.46,1.66-1.03,2.23-1.71c1.48-3.54,3.09-7.26,4.8-11.14c0.91-2.4,1.71-4.91,2.4-7.54l-1.2-2.74l-4.12-2.74l-0.69-2.4
		c6.86,0.69,10.91,1.03,12.17,1.03c1.14,0,1.89-0.28,2.23-0.86l7.89-1.2l1.71-1.71l6.34,0.34c0,1.26-0.06,2.03-0.17,2.31
		c-0.12,0.29-0.51,0.94-1.2,1.97l-3.26,0.86l-8.06,11.83L1448.1,133l1.54,8.92c5.03,10.97,8.71,18.86,11.06,23.66
		c2.34,4.8,4.71,8.92,7.12,12.34l3.77-3.77c1.71-4.34,3.34-8.37,4.89-12.09c1.54-3.71,3.11-7.4,4.71-11.06l3.43-4.97l17.49-42.01
		l0.69-7.2l-3.6-2.4l-0.69-3.26c1.48,0,3.11,0.12,4.89,0.34c1.77,0.23,3.91,0.57,6.43,1.03c4.8-1.14,7.86-1.91,9.17-2.32
		c1.31-0.4,2.54-1,3.69-1.8l5.49,0.34v2.4c-1.03,0.69-2,1.37-2.92,2.06c-0.34,0.23-0.92,0.63-1.71,1.2
		c-2.52,3.54-4.8,6.97-6.86,10.29c-2.63,4.23-4.11,6.46-4.46,6.69c-2.17,4.34-4.23,8.12-6.17,11.32c-3.32,5.6-5.66,9.6-7.03,12
		c-1.95,5.14-3.94,9.75-6,13.8c-2.06,4.06-5.2,10.14-9.43,18.26c-1.71,2.17-3.06,4.2-4.03,6.09c-0.97,1.89-3.92,8.43-8.83,19.63
		l-6,21.26l-2.4,0.51c0-0.12-1.66-4.46-4.97-13.03c-2.06-5.26-4.97-13.49-8.74-24.69c-0.57-0.23-1.66-2.57-3.26-7.03
		c-2.52-6.86-4.29-11.49-5.31-13.89l-0.17-2.23l-2.4,0.51c-4.46,7.32-7.32,12.06-8.57,14.23c-2.29,4.11-4.63,8.46-7.03,13.03
		c-1.49,3.66-2.74,7.17-3.77,10.54c-1.03,3.37-3.09,10.66-6.17,21.86L1409.18,213.41z"/>
	<path class="st2" d="M1562.28,206.9l0.86-3.77l3.43-3.43c1.37-3.31,2.29-5.71,2.74-7.2c0.46-1.48,1.14-5.03,2.06-10.63l-0.92-31.37
		l-3.2-26.58c-0.57-1.48-1.2-2.86-1.89-4.12c-0.23-0.57-0.97-1.83-2.23-3.77l-15.42-1.71c-0.46-0.8-0.69-1.37-0.69-1.71
		s0.23-0.91,0.69-1.71l13.54-5.14c3.88-2.51,7.94-5.43,12.17-8.74c3.09-2.29,5.43-3.94,7.03-4.97l26.57-0.69
		c2.74-0.33,5.71-0.75,8.92-1.24c3.2-0.5,5.66-0.91,7.37-1.25c1.26-0.77,2.11-1.24,2.57-1.41c0.46-0.17,1.77-0.58,3.94-1.25
		c0.46,0.45,0.97,1.51,1.54,3.18l-6.69,5.7c-3.43,12.48-5.46,19.75-6.09,21.81c-0.63,2.06-1.23,3.37-1.8,3.94
		c-0.69,0-1.49,0.23-2.4,0.69c0.69-4.34,1.03-7.03,1.03-8.06c0-0.34-0.23-1.77-0.69-4.29l-4.29-6l-7.2-2.06h-12l-3.43,1.37
		l-2.74,6.34l-2.06,32.75l21.77-1.03c7.31-1.6,11.86-2.57,13.63-2.92c1.77-0.34,3.97-0.63,6.6-0.86l-4.63,8.92
		c-0.23,1.71-0.46,3.4-0.69,5.06c-0.23,1.66-0.57,3.4-1.03,5.23h-2.57c-0.69-0.8-1.4-1.46-2.14-1.97c-0.75-0.51-1.92-1.23-3.51-2.14
		l-13.72-3.6h-13.72l2.06,36.86l2.74,2.91c3.43,1.14,7.03,2.4,10.8,3.77c2.63,0.8,6.28,1.6,10.97,2.4l11.49-0.51
		c1.94-0.8,4.74-2.11,8.4-3.94c2.17-1.14,4.12-1.94,5.83-2.4l-2.74,5.83c-3.89,2.86-6.69,4.8-8.4,5.83
		c-1.71,1.03-4.17,2.17-7.37,3.43c-1.37,0.34-3.43,0.86-6.17,1.54c-2.74,0.69-4.92,1.26-6.51,1.71h-11.32l-8.92-2.4h-7.2l-8.23,2.92
		L1562.28,206.9z"/>
	<path class="st2" d="M1761.68,214.44c-3.77-2.29-7.54-4.52-11.32-6.69l-28.63-34.12l-15.6-25.2h-4.29c-0.46,0.46-1.26,1.26-2.4,2.4
		c-0.57,0.12-1.46,0.32-2.66,0.6c-1.2,0.29-1.86,0.49-1.97,0.6l1.03,27.26c0.57,2.29,1.14,4.54,1.71,6.77
		c0.57,2.23,1.08,3.97,1.54,5.23c2.06,2.52,3.31,4.11,3.77,4.8c0.46,0.69,0.97,1.89,1.54,3.6l-9.6-1.54c-2.52,0-5.26,0.34-8.23,1.03
		l-7.03,3.09l-5.49,0.34v-4.63l2.92-1.37l2.74-3.6c0.11-0.23,0.86-2.63,2.23-7.2c0.23-0.91,0.63-2.29,1.2-4.12v-36.35
		c-0.12-0.57-1.26-7.54-3.43-20.92c-0.8-5.03-1.71-9.31-2.74-12.86c-3.43-0.8-5.54-1.23-6.34-1.29c-0.8-0.06-4.52-0.09-11.14-0.09
		l0.17-4.29l14.4-6c2.4-1.71,5.71-4.23,9.94-7.54c2.4-1.94,4.91-3.77,7.54-5.49c1.71,0.23,3.43,0.46,5.14,0.69l0.51,7.03l3.43-0.34
		c1.94-1.94,3.31-3.23,4.12-3.86c0.8-0.63,2.63-1.8,5.49-3.51l9.6-1.2l9.6,0.51l7.37,3.26l5.49,4.8l2.57,5.32
		c0.23,1.6,0.43,3.32,0.6,5.14c0.17,1.83,0.37,3.32,0.6,4.46l-3.43,11.32c-2.51,3.54-4.92,6.69-7.2,9.43
		c-1.83,2.17-3.54,4.11-5.14,5.83l-4.8,2.4l-0.51,2.57c0.91,1.83,2.17,3.94,3.77,6.34c1.26,1.95,2.17,3.6,2.74,4.97
		c0.23,0.23,2.51,3.6,6.86,10.12c1.37,2.06,2.68,3.77,3.94,5.14l7.37,11.32l2.4,0.69l0.17,2.4l8.74,8.92l12,6.86
		c1.83,0.23,3.57,0.57,5.23,1.03c1.66,0.46,2.54,0.69,2.66,0.69c0.34-0.46,1.08-0.69,2.23-0.69h5.14l-7.89,6.86
		c-6.75,3.54-10.57,5.6-11.49,6.17c-0.92,0.57-1.95,1.54-3.09,2.91H1761.68z M1696.01,118.09c-0.8,13.26-1.2,22.18-1.2,26.75
		l22.46-8.06l6.86-7.2l4.97-8.4l1.2-6.17l-0.51-6.52c-0.57-1.14-1.43-2.68-2.57-4.63c-1.71-1.6-2.97-2.63-3.77-3.09
		c-0.8-0.46-2.8-1.48-6-3.09l-10.63-1.2c-2.29,1.03-4.11,1.89-5.49,2.57c-1.37,0.69-2.91,1.66-4.63,2.92
		C1696.7,105.17,1696.47,110.54,1696.01,118.09z"/>
</g>
<g class="st3">
	<rect x="697.94" y="141.29" class="st4" width="401.31" height="346.27"/>
	<path class="st5" d="M701.56,173.91c-0.2-0.03-0.38-0.05-0.54-0.05l-1.54-3.42l12.78-14.88l-9.03-9.45l8.1-7.44
		c-0.47-0.78-1.01-1.57-1.61-2.36s-1.26-1.59-1.97-2.39c-0.7-0.8-1.44-1.58-2.2-2.36c-0.77-0.78-1.54-1.51-2.32-2.2
		c-0.16-0.09-0.32-0.16-0.49-0.21c-0.17-0.05-0.35-0.08-0.54-0.12c-0.19-0.03-0.36-0.05-0.51-0.05c-0.16,0-0.28,0-0.37,0
		c-0.12,0.19-0.3,0.34-0.51,0.47c-0.22,0.12-0.45,0.23-0.7,0.3c-0.25,0.08-0.51,0.13-0.77,0.16c-0.27,0.03-0.52,0.05-0.77,0.05
		c-0.16-0.06-0.27-0.15-0.35-0.26c-0.08-0.11-0.14-0.24-0.19-0.4c-0.05-0.16-0.07-0.31-0.07-0.47s0-0.3,0-0.42l3.37-2.86
		c0.31-0.31,0.63-0.54,0.96-0.7c0.33-0.16,0.65-0.33,0.96-0.51c0.31-0.03,0.6-0.1,0.87-0.21c0.26-0.11,0.51-0.23,0.73-0.35
		c0.22-0.12,0.42-0.26,0.61-0.42s0.37-0.3,0.56-0.45c0.19-0.14,0.37-0.28,0.56-0.42c0.19-0.14,0.38-0.25,0.59-0.33
		c0.2-0.08,0.42-0.12,0.65-0.14c0.23-0.02,0.49,0.01,0.77,0.07l-1.31,3.46l9.13,10.34c0.28,0.31,0.51,0.62,0.68,0.91
		c0.17,0.3,0.26,0.6,0.26,0.91c-0.16,0.56-0.37,1.05-0.66,1.47c-0.28,0.42-0.6,0.81-0.96,1.17c-0.36,0.36-0.74,0.68-1.15,0.96
		c-0.41,0.28-0.8,0.56-1.19,0.84c-0.39,0.28-0.77,0.55-1.15,0.82c-0.37,0.27-0.71,0.55-1.01,0.87c-0.3,0.31-0.55,0.66-0.75,1.03
		c-0.2,0.38-0.32,0.78-0.35,1.22l8.1,8.56l-14.04,14.79c-0.12,0.22-0.2,0.43-0.23,0.63c-0.03,0.2-0.04,0.41-0.02,0.63
		c0.02,0.22,0.04,0.44,0.07,0.66c0.03,0.22,0.06,0.43,0.09,0.63c0.03,0.2,0.05,0.4,0.07,0.58c0.02,0.19-0.01,0.37-0.07,0.54
		c-0.06,0.17-0.16,0.32-0.28,0.44c-0.12,0.12-0.31,0.22-0.56,0.28c-0.19,0.06-0.34,0.12-0.44,0.16c-0.11,0.05-0.26,0.12-0.44,0.21
		C702.02,174.05,701.77,173.94,701.56,173.91z"/>
</g>
<g>
	<rect x="1208.18" y="96.3" class="st1" width="161.52" height="161.52"/>
</g>
<g>
</g>
<g>
	<rect x="1232.16" y="124.06" class="st1" width="84.34" height="161.52"/>
	<path class="st6" d="M1233.37,154.06c0-0.08,0.07-0.17,0.2-0.29c0.13-0.11,0.29-0.22,0.46-0.32c0.17-0.09,0.33-0.14,0.49-0.14
		c0.15,0,0.23,0.08,0.23,0.23c0,0.12-0.12,0.29-0.37,0.52c-0.25,0.23-0.41,0.34-0.49,0.34h-0.17c-0.08,0-0.15-0.03-0.23-0.09
		C1233.4,154.26,1233.37,154.18,1233.37,154.06z M1236.18,156.93c0-0.12,0.12-0.29,0.37-0.52c0.25-0.23,0.54-0.47,0.86-0.72
		c0.32-0.25,0.63-0.48,0.92-0.69c0.29-0.21,0.49-0.35,0.6-0.43c0.5-0.42,0.96-0.82,1.41-1.21c0.44-0.38,0.93-0.75,1.46-1.09
		c0.5-0.42,0.98-0.82,1.43-1.21c0.46-0.38,0.94-0.78,1.43-1.21c0.19-0.19,0.42-0.36,0.69-0.52c0.27-0.15,0.5-0.36,0.69-0.63
		c0.15-0.15,0.37-0.38,0.66-0.69c0.29-0.31,0.56-0.46,0.83-0.46c0.08,0,0.11,0.04,0.11,0.11c0,0.08,0,0.13,0,0.17
		c0,0.08-0.11,0.19-0.34,0.34c-0.23,0.15-0.38,0.27-0.46,0.34c-0.19,0.19-0.46,0.4-0.8,0.63c-0.23,0.31-0.48,0.55-0.75,0.75
		s-0.55,0.4-0.86,0.63c-0.15,0.15-0.28,0.27-0.37,0.34c-0.1,0.08-0.24,0.17-0.43,0.29c-0.15,0.12-0.26,0.23-0.32,0.34
		c-0.06,0.11-0.18,0.21-0.37,0.29c-0.27,0.23-0.4,0.33-0.4,0.32s-0.13,0.09-0.4,0.32c-0.23,0.23-0.5,0.46-0.8,0.69
		c-0.31,0.19-0.58,0.41-0.83,0.66s-0.51,0.51-0.77,0.77c-0.38,0.27-0.64,0.45-0.77,0.54c-0.13,0.1-0.39,0.3-0.77,0.6
		c-0.15,0.19-0.3,0.31-0.43,0.34c-0.13,0.04-0.28,0.13-0.43,0.29c-0.15,0.11-0.23,0.2-0.23,0.26c0,0.06-0.04,0.14-0.12,0.26
		c-0.15,0.04-0.23,0.03-0.23-0.03c0-0.06-0.08-0.03-0.23,0.09c-0.15,0.15-0.41,0.42-0.77,0.8c-0.36,0.38-0.62,0.57-0.77,0.57h-0.12
		c-0.19,0-0.29-0.12-0.29-0.34c0-0.19,0.2-0.41,0.6-0.66C1235.57,157.06,1235.91,156.93,1236.18,156.93z M1238.76,151.14
		c-0.11,0.31-0.3,0.5-0.54,0.57c-0.25,0.08-0.47,0.21-0.66,0.4c-0.15,0.12-0.41,0.31-0.77,0.57c-0.36,0.27-0.62,0.34-0.78,0.23
		c-0.08-0.12-0.08-0.23,0-0.34c0.08-0.11,0.19-0.22,0.34-0.32c0.15-0.09,0.31-0.18,0.46-0.26c0.15-0.08,0.27-0.15,0.34-0.23
		c0.23-0.15,0.45-0.3,0.66-0.43C1238.02,151.2,1238.34,151.14,1238.76,151.14z M1236.18,160.89c0-0.04,0.12-0.19,0.37-0.46
		c0.25-0.27,0.54-0.54,0.86-0.83c0.32-0.29,0.63-0.56,0.92-0.83s0.49-0.44,0.6-0.52c0.11-0.15,0.31-0.36,0.57-0.63
		s0.54-0.55,0.83-0.83c0.29-0.29,0.56-0.55,0.83-0.78s0.48-0.34,0.63-0.34c-0.08,0.19-0.23,0.41-0.46,0.66s-0.5,0.52-0.8,0.8
		c-0.31,0.29-0.6,0.55-0.89,0.8s-0.51,0.45-0.66,0.6c-0.23,0.19-0.44,0.41-0.63,0.66c-0.19,0.25-0.44,0.53-0.75,0.83
		c-0.23,0.19-0.45,0.43-0.66,0.72c-0.21,0.29-0.47,0.43-0.77,0.43V160.89z M1238.93,163.64c0-0.31,0.06-0.46,0.17-0.46l0.17,0.17
		c-0.08,0.19-0.1,0.27-0.06,0.23S1239.16,163.57,1238.93,163.64z M1239.45,150.56c0,0.19-0.02,0.31-0.06,0.34
		c-0.04,0.04-0.17,0.06-0.4,0.06v-0.23L1239.45,150.56z M1239.39,162.96c0-0.15,0.15-0.46,0.46-0.92c0.31-0.46,0.66-0.94,1.06-1.43
		c0.4-0.5,0.77-0.95,1.12-1.35c0.34-0.4,0.55-0.6,0.63-0.6c0.11,0,0.11,0.11,0,0.32c-0.12,0.21-0.28,0.45-0.49,0.72
		c-0.21,0.27-0.41,0.53-0.6,0.77s-0.31,0.39-0.34,0.43c0,0.12-0.12,0.34-0.37,0.66c-0.25,0.33-0.39,0.49-0.43,0.49
		c-0.11,0.23-0.24,0.44-0.37,0.63S1239.7,162.96,1239.39,162.96z M1241.23,149.59c0.04-0.04,0.32-0.25,0.86-0.63
		c0.54-0.38,1.13-0.77,1.78-1.18c0.65-0.4,1.25-0.78,1.81-1.12c0.55-0.34,0.87-0.52,0.95-0.52c0.19,0,0.18,0.11-0.03,0.32
		c-0.21,0.21-0.48,0.44-0.8,0.69c-0.33,0.25-0.79,0.58-1.41,1c-0.19,0.12-0.42,0.26-0.69,0.43s-0.55,0.34-0.86,0.52
		c-0.31,0.17-0.6,0.33-0.89,0.46c-0.29,0.13-0.53,0.2-0.72,0.2c-0.12,0.19-0.22,0.3-0.32,0.32c-0.1,0.02-0.15-0.01-0.17-0.09
		c-0.02-0.08,0.01-0.16,0.09-0.26C1240.9,149.64,1241.03,149.59,1241.23,149.59z M1240.82,146.95c0-0.08,0.09-0.15,0.26-0.23
		c0.17-0.08,0.37-0.16,0.6-0.26c0.23-0.09,0.45-0.18,0.66-0.26c0.21-0.08,0.35-0.13,0.43-0.17c0.19-0.12,0.52-0.31,0.98-0.57
		c0.46-0.27,0.76-0.4,0.92-0.4c0,0.42-0.19,0.72-0.57,0.89c-0.38,0.17-0.73,0.3-1.03,0.37c-0.08,0.04-0.21,0.11-0.4,0.2
		c-0.19,0.1-0.38,0.2-0.57,0.32c-0.19,0.12-0.37,0.21-0.54,0.29c-0.17,0.08-0.28,0.11-0.32,0.11h-0.12
		C1240.92,147.24,1240.82,147.14,1240.82,146.95z M1241.97,155.55c-0.04-0.08-0.01-0.19,0.09-0.34c0.09-0.15,0.21-0.31,0.34-0.46
		c0.13-0.15,0.28-0.32,0.43-0.49c0.15-0.17,0.25-0.33,0.29-0.49h0.4c0,0.31-0.2,0.63-0.6,0.98
		C1242.52,155.1,1242.2,155.36,1241.97,155.55z M1243,158.54c-0.08-0.15-0.07-0.33,0.03-0.55c0.09-0.21,0.23-0.42,0.4-0.63
		c0.17-0.21,0.34-0.4,0.52-0.57c0.17-0.17,0.32-0.28,0.43-0.32c0,0.34-0.18,0.74-0.54,1.18
		C1243.47,158.09,1243.2,158.39,1243,158.54z M1243.12,163.41c0.08-0.15,0.13-0.24,0.17-0.26c0.04-0.02,0.11-0.05,0.23-0.09
		c-0.08,0.15-0.12,0.24-0.12,0.26C1243.41,163.35,1243.31,163.38,1243.12,163.41z M1243.69,162.78c0-0.31,0.13-0.68,0.4-1.12
		s0.48-0.75,0.63-0.95c0.19-0.23,0.37-0.55,0.54-0.98c0.17-0.42,0.45-0.63,0.83-0.63c0,0.12-0.12,0.36-0.34,0.75
		c-0.23,0.38-0.48,0.77-0.75,1.18c-0.27,0.4-0.53,0.77-0.77,1.12C1243.99,162.5,1243.81,162.71,1243.69,162.78z M1243.92,140.7
		c0-0.27,0.12-0.46,0.37-0.57c0.25-0.11,0.53-0.2,0.83-0.26c0.31-0.06,0.63-0.12,0.98-0.2c0.34-0.08,0.63-0.23,0.86-0.46
		c0.34-0.34,0.75-0.64,1.23-0.89c0.48-0.25,0.93-0.54,1.35-0.89c0.84-0.61,1.78-1.12,2.81-1.52c1.03-0.4,2.28-0.6,3.73-0.6h1.49
		c0.42,0,0.98,0.09,1.66,0.26c0.69,0.17,1.37,0.39,2.04,0.66c0.67,0.27,1.24,0.56,1.72,0.89c0.48,0.33,0.72,0.66,0.72,1
		c0,0.08-0.03,0.12-0.09,0.14c-0.06,0.02-0.09,0.07-0.09,0.14c0.15,0.11,0.23,0.29,0.23,0.52v0.29c0,0.19-0.1,0.29-0.29,0.29
		c-0.04,0-0.17-0.12-0.4-0.37c-0.23-0.25-0.36-0.39-0.4-0.43c-0.19-0.23-0.38-0.41-0.57-0.54c-0.19-0.13-0.31-0.24-0.34-0.32
		c-0.15,0.04-0.48-0.01-0.98-0.14c-0.5-0.13-0.84-0.26-1.03-0.37c-0.31-0.04-0.7-0.11-1.18-0.23c-0.48-0.11-0.76-0.06-0.83,0.17h0.4
		c0,0.23-0.1,0.34-0.29,0.34h-0.69c-0.31,0-0.5-0.02-0.57-0.06c-0.31,0.15-0.57,0.23-0.8,0.23s-0.5,0.06-0.8,0.17
		c-0.27,0.11-0.5,0.2-0.69,0.26s-0.42,0.14-0.69,0.26c-0.31,0.15-0.71,0.37-1.21,0.66s-0.9,0.53-1.2,0.72
		c-0.19,0.12-0.52,0.33-0.98,0.63c-0.46,0.31-0.96,0.61-1.49,0.92c-0.54,0.31-1.04,0.55-1.52,0.75c-0.48,0.19-0.81,0.23-1,0.12
		c0.04-0.12,0.16-0.23,0.37-0.34c0.21-0.11,0.45-0.23,0.72-0.34c0.27-0.12,0.52-0.22,0.77-0.32c0.25-0.09,0.45-0.18,0.6-0.26
		c0.42-0.19,0.84-0.44,1.26-0.75c0.42-0.31,0.78-0.55,1.09-0.75c0.27-0.08,0.6-0.3,1-0.66c0.4-0.36,0.79-0.66,1.18-0.89
		c0.42-0.12,0.9-0.27,1.43-0.46c0.54-0.19,1.01-0.29,1.43-0.29v-0.23l-2.01,0.29c-0.31,0.23-0.68,0.44-1.12,0.63
		c-0.44,0.19-0.83,0.36-1.18,0.52c-0.38,0.19-0.73,0.38-1.03,0.57c-0.31,0.19-0.69,0.38-1.15,0.57c-0.31,0.19-0.65,0.38-1.03,0.57
		c-0.38,0.19-0.78,0.38-1.21,0.57c-0.19,0.15-0.37,0.24-0.54,0.26c-0.17,0.02-0.41,0.05-0.72,0.09c-0.27,0.04-0.49,0.11-0.66,0.2
		c-0.17,0.1-0.32,0.03-0.43-0.2c0.19,0,0.43-0.07,0.72-0.2s0.59-0.27,0.92-0.4c0.32-0.13,0.63-0.27,0.92-0.4
		c0.29-0.13,0.51-0.22,0.66-0.26c0.38-0.15,0.91-0.42,1.58-0.8c0.67-0.38,1.08-0.73,1.23-1.03c-0.19,0.08-0.35,0.18-0.49,0.32
		c-0.13,0.13-0.3,0.28-0.49,0.43c-0.27,0.12-0.45,0.17-0.55,0.17s-0.28,0.08-0.54,0.23c-0.42,0.19-0.76,0.36-1,0.52
		c-0.25,0.15-0.68,0.23-1.29,0.23l-0.29,0.34L1243.92,140.7z M1244.09,153.03c0-0.08,0.11-0.22,0.32-0.43
		c0.21-0.21,0.45-0.44,0.72-0.69c0.27-0.25,0.53-0.48,0.77-0.69c0.25-0.21,0.41-0.37,0.49-0.49c0.31-0.31,0.69-0.73,1.15-1.26
		c0.46-0.54,0.78-0.9,0.97-1.09l0.29,0.23c-0.15,0.31-0.31,0.55-0.46,0.72c-0.15,0.17-0.33,0.41-0.52,0.72
		c-0.27,0.19-0.53,0.37-0.77,0.54c-0.25,0.17-0.43,0.35-0.54,0.55c-0.04,0.08-0.19,0.25-0.46,0.52c-0.27,0.27-0.54,0.54-0.83,0.8
		s-0.54,0.48-0.77,0.63C1244.21,153.24,1244.09,153.22,1244.09,153.03z M1245.64,154.64c0-0.34,0.23-0.52,0.69-0.52
		c0,0.54-0.23,0.8-0.69,0.8V154.64z M1250.41,142.07c0.04,0,0.13-0.05,0.29-0.14c0.15-0.09,0.32-0.21,0.52-0.34
		c0.19-0.13,0.36-0.26,0.52-0.37c0.15-0.11,0.27-0.17,0.34-0.17c0.34-0.31,0.65-0.49,0.92-0.54c0.27-0.06,0.55-0.18,0.86-0.37
		c0.15-0.11,0.41-0.24,0.77-0.37c0.36-0.13,0.75-0.26,1.18-0.37c0.42-0.11,0.84-0.2,1.26-0.26s0.78-0.07,1.09-0.03h0.86
		c0.19,0.11,0.43,0.22,0.72,0.32c0.29,0.1,0.55,0.22,0.8,0.37c0.25,0.15,0.47,0.33,0.66,0.52c0.19,0.19,0.29,0.42,0.29,0.69
		c0,0.08-0.1,0.12-0.29,0.12c-0.04,0-0.21-0.07-0.52-0.2c-0.31-0.13-0.5-0.22-0.57-0.26c-0.23-0.12-0.38-0.19-0.46-0.23
		c-0.08-0.04-0.15-0.06-0.23-0.06c-0.08,0-0.16,0.01-0.26,0.03c-0.1,0.02-0.26,0.01-0.49-0.03c-0.31,0-0.68,0.05-1.12,0.14
		c-0.44,0.1-0.93,0.14-1.46,0.14c-0.19,0-0.54,0.12-1.03,0.37c-0.5,0.25-1.01,0.54-1.55,0.89c-0.54,0.34-1.01,0.68-1.43,1
		c-0.42,0.33-0.65,0.54-0.69,0.66c0.38-0.15,0.83-0.37,1.35-0.66c0.52-0.29,1.04-0.56,1.58-0.83c0.54-0.27,1.07-0.51,1.61-0.72
		c0.54-0.21,1.03-0.32,1.49-0.32h0.75c0.08,0,0.23,0.03,0.46,0.09c0.23,0.06,0.46,0.13,0.69,0.23c0.23,0.1,0.44,0.18,0.63,0.26
		c0.19,0.08,0.32,0.13,0.4,0.17c0.27,0.15,0.47,0.27,0.6,0.34c0.13,0.08,0.26,0.14,0.37,0.2c0.12,0.06,0.24,0.1,0.37,0.12
		c0.13,0.02,0.35,0.03,0.66,0.03c0.11,0,0.22,0.12,0.32,0.37c0.09,0.25,0.22,0.39,0.37,0.43c0.23,0.15,0.43,0.22,0.6,0.2
		c0.17-0.02,0.33,0.07,0.49,0.26c-0.12,0.19-0.31,0.29-0.57,0.29h-1.09c-0.61,0-1.11-0.16-1.49-0.49c-0.38-0.32-0.61-0.49-0.69-0.49
		h-0.52l0.06,1.26v0.29c0,0.31-0.05,0.56-0.14,0.77c-0.1,0.21-0.16,0.47-0.2,0.77c0.15,0,0.34-0.05,0.57-0.14
		c0.23-0.09,0.4-0.16,0.52-0.2c0.31-0.15,0.54-0.22,0.69-0.2c0.15,0.02,0.33-0.01,0.52-0.09c0.19,0.08,0.4,0.18,0.63,0.32
		c0.23,0.13,0.34,0.35,0.34,0.66c0,0.15-0.03,0.24-0.09,0.26c-0.06,0.02-0.12,0.07-0.2,0.14l-1.21-0.57l-1.43,0.46v-0.11
		c-0.31,0.19-0.54,0.34-0.72,0.46c-0.17,0.11-0.34,0.2-0.52,0.26c-0.17,0.06-0.38,0.09-0.63,0.09c-0.25,0-0.6,0-1.06,0
		c-0.11,0.08-0.23,0.14-0.34,0.2c-0.12,0.06-0.27,0.09-0.46,0.09c-0.23,0-0.55-0.04-0.95-0.11c-0.4-0.08-0.8-0.18-1.21-0.32
		c-0.4-0.13-0.75-0.28-1.06-0.43c-0.31-0.15-0.48-0.31-0.52-0.46c0.34,0,0.75,0.09,1.23,0.26c0.48,0.17,0.87,0.26,1.18,0.26h0.17
		c0.23,0,0.44-0.02,0.63-0.06c-0.15-0.19-0.37-0.45-0.66-0.77s-0.43-0.68-0.43-1.06V145l0.17-0.8h-0.52c-0.73,0-1.35,0.14-1.86,0.43
		c-0.52,0.29-1.1,0.51-1.75,0.66c-0.23,0-0.36-0.01-0.4-0.03c-0.04-0.02-0.21,0.01-0.52,0.09c-0.27,0.15-0.57,0.23-0.92,0.23
		c-0.42,0.04-0.7-0.02-0.83-0.17c-0.13-0.15-0.24-0.42-0.32-0.8c0.31-0.31,0.57-0.46,0.8-0.46s0.55-0.08,0.98-0.23
		c0.27-0.04,0.57-0.16,0.92-0.37c0.34-0.21,0.61-0.39,0.8-0.54c0.42-0.31,0.94-0.64,1.55-1c0.61-0.36,1.09-0.74,1.43-1.12
		c-0.42,0-0.82,0.11-1.21,0.32c-0.38,0.21-0.71,0.41-0.98,0.6c-0.15,0.15-0.45,0.32-0.89,0.49c-0.44,0.17-0.81,0.34-1.12,0.49
		c-0.04-0.04-0.07-0.07-0.09-0.09s-0.11-0.03-0.26-0.03c-0.34,0.12-0.67,0.23-0.98,0.34c-0.27,0.08-0.51,0.16-0.72,0.26
		c-0.21,0.1-0.35,0.16-0.43,0.2c0,0.04-0.08,0.11-0.23,0.23c-0.15,0.11-0.32,0.21-0.49,0.29s-0.34,0.11-0.52,0.09
		s-0.3-0.16-0.37-0.43c0.15,0,0.4-0.08,0.75-0.23c0.34-0.15,0.71-0.32,1.09-0.52c0.38-0.19,0.74-0.37,1.06-0.54s0.53-0.3,0.6-0.37
		c0.31-0.23,0.57-0.41,0.8-0.54c0.23-0.13,0.48-0.35,0.75-0.66c0.15-0.15,0.38-0.35,0.69-0.6c0.31-0.25,0.59-0.37,0.86-0.37
		c-0.04,0.23-0.16,0.47-0.37,0.72c-0.21,0.25-0.43,0.47-0.66,0.66s-0.44,0.36-0.63,0.52
		C1250.5,141.82,1250.41,141.96,1250.41,142.07z M1247.31,152.74c0-0.15,0.06-0.34,0.17-0.57c0.11-0.23,0.26-0.46,0.43-0.69
		c0.17-0.23,0.35-0.43,0.55-0.6c0.19-0.17,0.34-0.28,0.46-0.32c-0.12,0.31-0.15,0.47-0.12,0.49c0.04,0.02-0.06,0.16-0.29,0.43
		c-0.15,0.15-0.25,0.29-0.29,0.4c-0.04,0.12-0.13,0.25-0.29,0.4c-0.31,0.23-0.51,0.47-0.6,0.72c-0.1,0.25-0.3,0.49-0.6,0.72
		c-0.04-0.15-0.06-0.2-0.06-0.14c0,0.06,0,0.05,0-0.03c0-0.19,0.07-0.37,0.2-0.54C1247.01,152.83,1247.15,152.74,1247.31,152.74z
		 M1251.09,150.1c0.08,0.12,0.16,0.19,0.26,0.23c0.09,0.04,0.14,0.12,0.14,0.23c-0.38,0.61-0.73,1.17-1.03,1.66
		c-0.27,0.42-0.53,0.82-0.77,1.21c-0.25,0.38-0.41,0.61-0.49,0.69c-0.15,0.23-0.33,0.52-0.52,0.86c-0.19,0.34-0.39,0.69-0.6,1.03
		c-0.21,0.34-0.42,0.66-0.63,0.95s-0.41,0.49-0.6,0.6v-0.34L1251.09,150.1z M1250.41,157.96c-0.11-0.19-0.1-0.44,0.06-0.75
		c0.15-0.31,0.27-0.59,0.34-0.86c0.19-0.31,0.32-0.59,0.37-0.86c0.06-0.27,0.18-0.55,0.37-0.86c0.04-0.11,0.12-0.35,0.26-0.72
		c0.13-0.36,0.28-0.73,0.43-1.09c0.15-0.36,0.3-0.69,0.43-0.98c0.13-0.29,0.24-0.43,0.32-0.43c0.15,0,0.23,0.04,0.23,0.12
		c0,0.08-0.12,0.4-0.34,0.98c-0.23,0.57-0.48,1.2-0.75,1.89c-0.27,0.69-0.53,1.32-0.77,1.89c-0.25,0.57-0.39,0.9-0.43,0.98
		c-0.27,0.42-0.47,0.88-0.6,1.38c-0.13,0.5-0.3,0.98-0.49,1.43c-0.08,0.08-0.18,0.25-0.32,0.52s-0.28,0.54-0.43,0.83
		c-0.15,0.29-0.31,0.54-0.46,0.77c-0.15,0.23-0.29,0.36-0.4,0.4l0.75-1.78c0.08-0.38,0.27-0.91,0.57-1.58
		C1249.85,158.59,1250.14,158.16,1250.41,157.96z M1248.91,150.45c0.04-0.19,0.13-0.44,0.29-0.75c0.15-0.31,0.36-0.46,0.63-0.46
		v0.29c-0.12,0.27-0.22,0.49-0.32,0.66S1249.22,150.45,1248.91,150.45z M1255.28,149.36c-0.19,0-0.44-0.02-0.75-0.06
		c-0.31-0.04-0.6-0.1-0.89-0.2c-0.29-0.09-0.55-0.2-0.78-0.32c-0.23-0.12-0.36-0.25-0.4-0.4c0.38,0,0.72,0.05,1,0.14
		c0.29,0.1,0.58,0.18,0.89,0.26c0.31,0.08,0.62,0.14,0.95,0.2c0.33,0.06,0.49,0.24,0.49,0.54L1255.28,149.36z M1252.93,150.16
		c0.04,0,0.06-0.02,0.06-0.06c0.31,0,0.55,0.1,0.75,0.29l2.29,0.34l0.17-0.06c0.5,0,1-0.1,1.52-0.29s0.93-0.29,1.23-0.29
		c-0.04,0.08-0.15,0.16-0.34,0.26c-0.19,0.1-0.39,0.19-0.6,0.29c-0.21,0.1-0.41,0.18-0.6,0.26c-0.19,0.08-0.33,0.11-0.4,0.11h-1.21
		c-0.08,0-0.19-0.06-0.34-0.17l-2.47-0.4l-0.23-0.29H1252.93z M1254.65,153.43c0-0.42-0.05-0.75-0.14-1
		c-0.1-0.25,0.07-0.39,0.49-0.43c0,0.08,0.04,0.2,0.12,0.37c0.08,0.17,0.11,0.3,0.11,0.37l-1.09,6.48c0,0.11-0.01,0.35-0.03,0.72
		c-0.02,0.36-0.04,0.74-0.06,1.12c-0.02,0.38-0.06,0.74-0.12,1.06c-0.06,0.33-0.11,0.54-0.14,0.66c-0.08,0.15-0.17,0.24-0.29,0.26
		c-0.12,0.02-0.21-0.07-0.29-0.26c0-0.08,0.02-0.21,0.06-0.4c0.04-0.19,0.06-0.32,0.06-0.4c0.08-0.27,0.14-0.56,0.2-0.89
		c0.06-0.32,0.09-0.6,0.09-0.83c0.08-0.57,0.14-1.17,0.2-1.78c0.06-0.61,0.14-1.21,0.26-1.78c0.12-0.5,0.24-1.05,0.37-1.66
		C1254.58,154.43,1254.65,153.89,1254.65,153.43z M1255.34,138.4c0.11-0.08,0.32-0.16,0.6-0.26c0.29-0.09,0.43-0.07,0.43,0.09
		c0,0.19-0.1,0.29-0.29,0.29l-0.17-0.06c-0.15,0.04-0.26,0.09-0.32,0.14s-0.18,0.09-0.37,0.09h-0.52c0-0.31,0.17-0.46,0.52-0.46
		L1255.34,138.4z M1256.95,155.84c-0.15-0.04-0.25-0.13-0.29-0.29c-0.04-0.15-0.06-0.32-0.06-0.49s0.01-0.35,0.03-0.54
		c0.02-0.19,0.03-0.34,0.03-0.46c0-0.08-0.02-0.21-0.06-0.4s-0.08-0.39-0.11-0.6c-0.04-0.21-0.04-0.39,0-0.54
		c0.04-0.15,0.11-0.23,0.23-0.23c0.19,0,0.29,0.11,0.29,0.34h-0.06V155.84z M1256.95,162.1c0-0.11-0.02-0.28-0.06-0.49
		c-0.04-0.21-0.06-0.43-0.06-0.66s0.02-0.43,0.06-0.6c0.04-0.17,0.13-0.28,0.29-0.32l0.11,0.34l0.12,1.32v0.06
		c0,0.11-0.02,0.18-0.06,0.2c-0.04,0.02-0.08,0.07-0.11,0.14H1256.95z M1256.89,159.46l0.29,0.06l-0.29,0.23V159.46z M1257,148.96
		c0.42-0.12,0.76-0.15,1.03-0.12c0.27,0.04,0.52,0.02,0.75-0.06c0.23-0.04,0.48-0.12,0.75-0.26c0.27-0.13,0.52-0.16,0.75-0.09
		c-0.34,0.54-0.75,0.81-1.23,0.83c-0.48,0.02-1.02,0.11-1.63,0.26L1257,148.96z M1258.67,152c0-0.15,0.1-0.23,0.29-0.23
		c0.08,0,0.15,0.08,0.23,0.23c0.08,0.15,0.15,0.34,0.23,0.57c0.08,0.23,0.14,0.45,0.2,0.66c0.06,0.21,0.1,0.37,0.14,0.49
		c0.11,0.34,0.22,0.67,0.32,0.98c0.09,0.31,0.22,0.63,0.37,0.98c0.04,0.19,0.11,0.48,0.23,0.86c0.11,0.38,0.24,0.79,0.37,1.23
		c0.13,0.44,0.25,0.85,0.34,1.23c0.09,0.38,0.14,0.65,0.14,0.8c-0.08-0.04-0.19-0.23-0.34-0.57c-0.15-0.34-0.31-0.74-0.46-1.18
		c-0.15-0.44-0.3-0.86-0.43-1.26c-0.13-0.4-0.2-0.68-0.2-0.83c-0.08-0.15-0.19-0.44-0.34-0.86c-0.15-0.42-0.31-0.85-0.46-1.29
		c-0.15-0.44-0.3-0.84-0.43-1.21C1258.73,152.24,1258.67,152.04,1258.67,152z M1261.82,138.8c-0.34-0.08-0.63-0.19-0.86-0.34
		c-0.23-0.15-0.5-0.23-0.8-0.23c-0.19-0.04-0.32-0.07-0.37-0.09c-0.06-0.02-0.22-0.09-0.49-0.2c-0.19-0.04-0.31-0.12-0.34-0.23
		c-0.04-0.12,0.06-0.17,0.29-0.17c0.15,0,0.37,0.04,0.66,0.12c0.29,0.08,0.57,0.17,0.86,0.29c0.29,0.11,0.54,0.25,0.75,0.4
		C1261.72,138.5,1261.82,138.65,1261.82,138.8z M1263.14,155.55c-0.08-0.04-0.17-0.15-0.29-0.34c-0.11-0.19-0.24-0.41-0.37-0.66
		c-0.13-0.25-0.26-0.49-0.37-0.72c-0.12-0.23-0.21-0.4-0.29-0.52c-0.19-0.31-0.44-0.66-0.75-1.06c-0.31-0.4-0.42-0.75-0.34-1.06
		c0.34,0.08,0.62,0.35,0.83,0.83c0.21,0.48,0.39,0.85,0.55,1.12c0.04,0.08,0.12,0.21,0.26,0.4c0.13,0.19,0.28,0.4,0.43,0.63
		c0.15,0.23,0.28,0.44,0.37,0.63s0.14,0.33,0.14,0.4v0.29L1263.14,155.55z M1262.05,137.83l0.29-0.11
		c-0.12-0.27-0.27-0.44-0.46-0.52c-0.19-0.08-0.5-0.15-0.92-0.23L1262.05,137.83z M1262.45,139.2h-0.29l-0.11-0.29
		c0.19,0.08,0.29,0.11,0.29,0.09S1262.38,139.05,1262.45,139.2z M1263.77,152.06c-0.31-0.04-0.49-0.08-0.54-0.12
		c-0.06-0.04-0.16-0.19-0.32-0.46c-0.04-0.04-0.12-0.13-0.26-0.29c-0.13-0.15-0.16-0.27-0.09-0.34c0.08-0.12,0.17-0.12,0.29-0.03
		c0.12,0.1,0.24,0.21,0.37,0.34c0.13,0.13,0.27,0.28,0.4,0.43c0.13,0.15,0.26,0.23,0.37,0.23c-0.08,0.15-0.03,0.3,0.14,0.43
		c0.17,0.13,0.33,0.35,0.49,0.66c0.11,0.27,0.2,0.45,0.26,0.54c0.06,0.1,0.18,0.24,0.37,0.43c0.27,0.38,0.53,0.74,0.77,1.06
		c0.25,0.33,0.47,0.66,0.66,1c0.11,0.15,0.33,0.43,0.66,0.83c0.33,0.4,0.66,0.82,1,1.26c0.34,0.44,0.65,0.85,0.92,1.23
		c0.27,0.38,0.4,0.63,0.4,0.75c-0.15-0.04-0.38-0.23-0.69-0.57c-0.31-0.34-0.62-0.73-0.95-1.15s-0.64-0.82-0.95-1.21
		c-0.31-0.38-0.54-0.67-0.69-0.86c-0.15-0.34-0.36-0.69-0.63-1.03c-0.19-0.31-0.33-0.5-0.4-0.57c-0.08-0.08-0.21-0.25-0.4-0.52
		c-0.19-0.19-0.43-0.5-0.72-0.92S1263.81,152.4,1263.77,152.06z M1274.1,159.51c-0.31,0-0.57-0.13-0.77-0.4
		c-0.21-0.27-0.45-0.54-0.72-0.8c-0.19-0.19-0.39-0.4-0.6-0.63s-0.41-0.46-0.6-0.69c-0.38-0.38-0.81-0.81-1.29-1.29
		c-0.48-0.48-0.89-0.93-1.23-1.35c-0.08-0.12-0.24-0.31-0.49-0.57c-0.25-0.27-0.52-0.54-0.8-0.8c-0.29-0.27-0.55-0.52-0.8-0.75
		c-0.25-0.23-0.41-0.38-0.49-0.46c-0.11-0.08-0.32-0.24-0.6-0.49c-0.29-0.25-0.57-0.53-0.83-0.83c-0.27-0.31-0.51-0.59-0.72-0.86
		c-0.21-0.27-0.32-0.48-0.32-0.63c0.12,0,0.43,0.24,0.95,0.72c0.52,0.48,1.07,1.01,1.66,1.61c0.59,0.59,1.16,1.18,1.69,1.75
		c0.54,0.57,0.88,0.94,1.03,1.09c0.42,0.42,0.85,0.86,1.29,1.32c0.44,0.46,0.87,0.88,1.29,1.26c0.08,0.12,0.25,0.31,0.52,0.57
		c0.27,0.27,0.54,0.54,0.8,0.83s0.51,0.55,0.72,0.8C1274,159.16,1274.1,159.36,1274.1,159.51z M1263.83,156.59
		c0.12,0.04,0.29,0.21,0.52,0.52c0.23,0.31,0.38,0.54,0.46,0.69l-0.12,0.17c-0.31,0-0.49-0.1-0.54-0.32
		c-0.06-0.21-0.09-0.45-0.09-0.72h-0.23V156.59z M1264.64,158.25h0.06c0.38,0.04,0.65,0.27,0.8,0.69c0.15,0.42,0.32,0.78,0.52,1.09
		c0.15,0.19,0.34,0.5,0.57,0.92c0.23,0.42,0.36,0.78,0.4,1.09c-0.19,0-0.4-0.17-0.63-0.52c-0.23-0.34-0.34-0.63-0.34-0.86
		l-0.23-0.11L1264.64,158.25z M1272.27,153.78c-0.04,0-0.24-0.14-0.6-0.43c-0.36-0.29-0.77-0.61-1.23-0.98s-0.9-0.71-1.32-1.03
		c-0.42-0.32-0.69-0.54-0.8-0.66c-0.31-0.27-0.61-0.55-0.92-0.86c-0.31-0.31-0.63-0.59-0.98-0.86c-0.19-0.19-0.51-0.43-0.95-0.72
		c-0.44-0.29-0.7-0.62-0.78-1c0.19,0.08,0.46,0.25,0.8,0.52c0.34,0.27,0.72,0.57,1.12,0.92c0.4,0.34,0.78,0.68,1.15,1
		c0.36,0.33,0.66,0.57,0.89,0.72c0.19,0.15,0.51,0.42,0.95,0.8c0.44,0.38,0.75,0.67,0.95,0.86s0.52,0.43,0.98,0.72
		S1272.23,153.39,1272.27,153.78z M1265.5,144.94c0-0.23,0.09-0.34,0.29-0.34c0.04,0,0.26,0.07,0.66,0.2
		c0.4,0.13,0.84,0.28,1.32,0.43c0.48,0.15,0.92,0.31,1.32,0.46c0.4,0.15,0.64,0.23,0.72,0.23c0.19,0.12,0.5,0.21,0.92,0.29
		c0.42,0.08,0.83,0.17,1.23,0.29c0.4,0.11,0.76,0.25,1.09,0.4c0.32,0.15,0.49,0.34,0.49,0.57h-0.17c-0.27,0-0.59-0.09-0.98-0.26
		c-0.38-0.17-0.71-0.28-0.98-0.32c-0.23-0.08-0.4-0.14-0.52-0.2c-0.12-0.06-0.27-0.09-0.46-0.09c-0.19-0.08-0.34-0.12-0.46-0.14
		c-0.12-0.02-0.27-0.07-0.46-0.14c-0.31-0.08-0.61-0.18-0.92-0.32c-0.31-0.13-0.61-0.28-0.92-0.43c-0.34-0.12-0.69-0.19-1.03-0.23
		c-0.34-0.04-0.73-0.08-1.15-0.12V144.94z M1267.68,146.95c0,0.15-0.1,0.21-0.29,0.17c-0.19-0.04-0.4-0.12-0.63-0.26
		s-0.45-0.3-0.66-0.49c-0.21-0.19-0.34-0.34-0.37-0.46c0.08,0,0.22,0.04,0.43,0.12c0.21,0.08,0.43,0.17,0.66,0.29
		c0.23,0.12,0.43,0.23,0.6,0.34C1267.59,146.78,1267.68,146.87,1267.68,146.95z M1267.85,147.24c0-0.11,0.07-0.16,0.2-0.14
		s0.28,0.09,0.43,0.2c0.15,0.12,0.3,0.25,0.43,0.4c0.13,0.15,0.22,0.29,0.26,0.4c-0.19,0-0.46-0.1-0.8-0.29
		C1268.02,147.62,1267.85,147.43,1267.85,147.24z M1271.12,161.75c-0.31,0-0.6-0.2-0.89-0.6s-0.43-0.7-0.43-0.89
		c0.19,0.08,0.43,0.3,0.72,0.66C1270.8,161.28,1271,161.56,1271.12,161.75z M1270.43,148.96c-0.31-0.04-0.5-0.15-0.57-0.34h0.29
		C1270.33,148.61,1270.43,148.73,1270.43,148.96z M1273.41,150.74c-0.15,0-0.35-0.06-0.6-0.17c-0.25-0.11-0.5-0.26-0.75-0.43
		c-0.25-0.17-0.47-0.34-0.66-0.52c-0.19-0.17-0.29-0.3-0.29-0.37l0.69,0.23c0.11,0.15,0.39,0.35,0.83,0.6
		c0.44,0.25,0.91,0.51,1.41,0.77c0.5,0.27,0.95,0.53,1.35,0.77c0.4,0.25,0.62,0.47,0.66,0.66c-0.15,0-0.37-0.07-0.66-0.2
		c-0.29-0.13-0.57-0.29-0.86-0.46c-0.29-0.17-0.54-0.34-0.75-0.52C1273.58,150.94,1273.45,150.81,1273.41,150.74z M1274.1,155.1
		c0,0.15-0.09,0.18-0.26,0.09c-0.17-0.1-0.36-0.23-0.57-0.4c-0.21-0.17-0.4-0.36-0.57-0.57c-0.17-0.21-0.28-0.35-0.32-0.43
		c0.12,0,0.27,0.06,0.46,0.17c0.19,0.12,0.38,0.25,0.57,0.4c0.19,0.15,0.35,0.31,0.49,0.46
		C1274.03,154.96,1274.1,155.06,1274.1,155.1z"/>
</g>
<g>
	<rect x="-104.1" y="-791.23" class="st1" width="379.27" height="178.2"/>
</g>
<g>
	<rect x="395.39" y="-730.63" class="st1" width="204.88" height="0.95"/>
</g>
<g>
	<path class="st2" d="M96.01,251.33c-6.48,0-13.82-0.91-22.02-2.73c-8.2-1.82-17.67-4.45-28.4-7.9c-3.24-0.81-9.11-5.36-17.62-13.67
		c-9.32-9.11-15.7-17.11-19.14-24c-2.63-5.47-4.71-12.8-6.23-22.02c-1.52-9.21-2.28-22.22-2.28-39.03c0-9.92,3.34-21.06,10.02-33.41
		c6.68-12.35,13.87-21.77,21.57-28.25c3.44-2.83,8.7-7.49,15.79-13.97C54.4,61.08,63.1,55.97,73.84,51
		c10.73-4.96,20.45-8.15,29.16-9.57c8.7-1.41,19.54-2.13,32.5-2.13c4.25,0,8.66,0,13.21,0c4.56,0,9.16,0,13.82,0
		c0.2,0,1.92-0.63,5.16-1.9c1.01,0,2.13,0,3.34,0c-4.05,6.49-8,12.92-11.85,19.31c-3.85,6.39-6.13,12.47-6.83,18.24
		c-0.71,5.78-1.27,10.55-1.67,14.29c-0.41,3.75-0.61,6.94-0.61,9.58c0,2.64-1.52,3.95-4.56,3.95c-2.63,0-3.95-1.31-3.95-3.95
		c0-0.4,0.25-2.89,0.76-7.44c0.5-4.56,0.76-7.75,0.76-9.57c0-4.25-2.94-8.6-8.81-13.06c-5.88-4.45-11.14-6.68-15.79-6.68
		c-11.14,0-20.56,0.51-28.25,1.52c-7.7,1.02-16.91,2.94-27.64,5.77c-5.67,1.82-12.51,9.32-20.5,22.48c-8,13.17-12,24.1-12,32.8
		c0,8.71,0.76,17.06,2.29,25.06c1.53,8,3.66,15.24,6.42,21.72c2.75,6.48,8.2,14.68,16.34,24.6c7.33,8.91,12.42,14.18,15.27,15.8
		c14.46,6.89,25.4,11.04,32.83,12.45c7.43,1.42,20.21,2.13,38.33,2.13c12.57-3.44,24.25-8.2,35.03-14.28c1.79,0,3.34-0.05,4.64-0.15
		c1.3-0.1,1.95,0.05,1.95,0.46c0,0.81-0.41,2.33-1.22,4.56l-36.45,23.69C124.26,247.78,107.75,251.33,96.01,251.33z"/>
</g>
<g>
	<rect x="982.21" y="-28.18" class="st1" width="328.76" height="240.14"/>
	<path class="st2" d="M1072.74,217.63l-1.22-2.13c1.21-1.82,2.48-3.39,3.8-4.71c1.31-1.32,2.78-2.78,4.4-4.4l5.16-10.63
		c0.81-5.67,1.77-12,2.88-18.98c1.11-6.99,1.97-13.52,2.58-19.59c0-18.42-0.51-43.33-1.52-74.72c-0.2-6.27-0.3-17.41-0.3-33.41
		c-0.41-3.24-0.76-5.72-1.06-7.44c-0.3-1.72-0.96-4.4-1.97-8.05c-21.67-3.04-33.97-4.81-36.91-5.32c-2.94-0.5-4.91-1.06-5.92-1.67
		h-25.82c-4.25,1.42-6.89,2.33-7.9,2.73c-1.02,0.41-2.33,1.21-3.95,2.43l-2.13,6.07c-2.43,0.61-4.3,1.02-5.62,1.22
		c-1.32,0.2-2.28,0-2.88-0.61c0-0.81-0.1-1.87-0.3-3.19c-0.2-1.32-0.51-2.48-0.91-3.49c4.25-4.66,8.91-9.52,13.97-14.58
		c3.04-3.04,4.86-5.16,5.47-6.38c3.84-2.83,7.49-5.47,10.93-7.9c0.81-0.4,2.83-1.11,6.08-2.13l40.4,1.52l79.58,11.54l40.4,1.21
		l18.23-8.12l2.13-4.64l6.68-1.52l0.3,8.2c-1.42,2.03-2.73,3.64-3.95,4.86c-1.21,1.21-5.06,4.76-11.54,10.63l-20.66,13.36h-62.57
		l-5.47,49.51l-0.91,55.89l5.16,47.08l5.47,13.97c2.63,1.42,4.56,2.48,5.77,3.19c1.21,0.71,2.53,1.97,3.95,3.8
		c-0.8,0.81-1.85,1.41-3.14,1.82c-1.29,0.4-4.84,1.01-10.62,1.82l-5.68-3.04L1072.74,217.63z"/>
</g>
<g>
	<rect x="1789.97" y="196.81" class="st1" width="72" height="49.94"/>
	<path class="st2" d="M1796.68,197.75v1.17h-2.26v5.9h-1.4v-5.9h-2.26v-1.17H1796.68z M1804.33,204.82l-0.26-4.16
		c-0.03-0.55-0.03-1.22-0.05-1.98h-0.08c-0.18,0.62-0.39,1.46-0.6,2.11l-1.27,3.93h-1.46l-1.27-4.03c-0.13-0.55-0.34-1.38-0.49-2
		h-0.08c0,0.65-0.03,1.33-0.05,1.98l-0.26,4.16h-1.35l0.52-7.07h2.11l1.22,3.46c0.16,0.55,0.29,1.07,0.47,1.79h0.03
		c0.18-0.65,0.34-1.25,0.49-1.77l1.22-3.48h2.03l0.55,7.07H1804.33z"/>
</g>
<g>
</g>
<g>
</g>
<g>
</g>
<g>
</g>
<g>
</g>
<g>
</g>
<g>
</g>
<g>
</g>
<g>
</g>
<g>
</g>
<g>
</g>
<g>
</g>
<g>
</g>
<g>
</g>
<g>
</g>
</svg>
