<?xml version="1.0" encoding="utf-8"?>
<!-- Generator: Adobe Illustrator 30.2.0, SVG Export Plug-In . SVG Version: 9.03 Build 0)  -->
<svg version="1.1" id="Layer_1" xmlns="http://www.w3.org/2000/svg" xmlns:xlink="http://www.w3.org/1999/xlink" x="0px" y="0px"
	 viewBox="0 0 1485.42 184.26" style="enable-background:new 0 0 1485.42 184.26;" xml:space="preserve">
<style type="text/css">
	.st0{display:none;fill:#020202;}
	.st1{fill:none;}
	.st2{fill:#F9F9F9;}
</style>
<polygon class="st0" points="1661.42,376.97 -522.32,376.97 -522.32,-130.99 1663.74,-130.43 "/>
<g>
	<polygon class="st1" points="1592.53,424 -8.89,407.45 -8.89,63.71 1592.53,66.32 	"/>
	<path class="st2" d="M100.3,91.45c-0.54,3.76-1.43,7.88-2.33,11.28H97.8C98.16,81.79,80.26,72.3,58.78,72.3
		c-25.6,0-46.72,17.72-46.72,53.88c0,38.48,24.34,54.24,50.48,54.24c26.31,0,34.55-11.63,37.05-28.82h0.18
		c0.36,18.79-2.15,25.78-8.23,28.46c-3.94,1.79-11.64,4.47-29.54,4.47c-39.38,0-61.58-23.81-61.58-56.38
		c0-32.22,20.23-59.07,59.07-59.07c19.87,0,28.82,3.4,34.91,6.62C100.3,78.92,101.56,83.4,100.3,91.45z"/>
	<path class="st2" d="M154.54,120.45c0-12.35-0.18-23.27-0.54-36.69c-0.18-7.52-3.22-11.1-12.53-11.99v-0.18
		c2.86,0,11.28,0.54,15.75,0.54c5.73,0,14.86-0.72,19.87-0.54c31.5,0.54,36.34,17.18,36.34,27.92c0,12.53-8.06,24.52-20.94,30.61
		c2.68,4.3,9.49,13.96,17.18,23.99c8.59,11.1,14.68,18.08,20.94,22.91c4.48,3.4,8.41,3.94,11.99,4.65v0.18
		c-3.76,0.36-9.31,0.18-13.43-0.54c-12.71-2.15-17.72-6.98-32.22-28.28c-5.37-7.88-9.84-15.21-13.25-20.58
		c-1.43,0.36-4.65,0.54-9.67,0.54c-3.76,0-7.88-0.36-9.67-0.72c0,11.99,0.18,23.63,0.18,29.54c0,16.83,1.97,18.79,13.78,19.87v0.18
		c-6.8,0-14.68-1.07-18.26-1.07c-4.3,0-11.99,1.07-18.26,1.07v-0.18c9.31-1.25,11.99-2.86,12.17-20.41
		C154.72,146.59,154.54,133.34,154.54,120.45z M178.88,74.99c-4.12-0.36-12.17-0.18-15.75,0c0.72,1.79,1.25,6.44,1.25,10.02v43.14
		c6.98,0.89,16.29,1.43,23.45,0.72c11.46-1.07,16.11-15.75,16.11-25.42C203.94,87.34,196.07,76.42,178.88,74.99z"/>
	<path class="st2" d="M289.15,163.05c0.54,17.9,4.65,17.54,12.89,18.62l0,0.18c-5.55,0-13.78-1.07-18.97-1.07
		c-5.01,0-11.99,1.07-16.11,1.07v-0.18c6.62-1.25,11.1-1.97,11.64-18.62c0.18-6.09,0.72-27.03,0.72-33.12
		c0-13.96-0.18-31.86-0.36-37.95c-0.54-18.62-3.76-18.79-11.46-20.23v-0.18c2.15,0,12.35,1.07,17.54,1.07c1.61,0,10.2-0.9,14.5-1.07
		v0.18c-6.98,1.79-9.84,2.15-10.2,20.23c-0.18,5.37-0.36,25.42-0.36,37.77C288.97,136.03,288.97,156.97,289.15,163.05z"/>
	<path class="st2" d="M408.9,180.24c-0.36,1.07-0.72,1.79-1.25,1.79s-0.72-0.89-1.07-1.79c-5.91-14.5-34.01-69.99-41.35-83.24
		c-1.79,19.87-3.76,48.33-5.37,69.45c-0.72,12.35,3.22,13.78,11.81,15.21v0.18c-5.37,0-12.17-1.07-16.11-1.07
		c-2.51,0-10.56,1.07-14.86,1.07v-0.18c8.06-1.07,10.02-3.4,11.63-14.68c2.86-20.41,7.88-63.73,9.49-89.14
		c0.18-3.22,0-7.52,1.79-9.13c0.18,1.25,2.15,6.09,3.76,9.49c8.59,19.51,30.79,60.14,43.32,84.49c3.4-6.26,10.92-21.48,19.15-38.13
		c7.7-15.75,16.65-34.01,23.27-48.69c1.79-4.3,3.4-6.98,4.65-6.98c0,3.04,0.18,6.09,0.54,10.38c0.9,19.15,5.19,73.75,8.41,89.5
		c1.97,9.13,1.79,11.99,11.46,12.89v0.18c-3.4,0-5.37-0.36-11.28-0.36c-4.47,0-6.09,0.72-7.34,0c-2.33-1.07-2.68-4.47-3.22-9.67
		c-1.79-17-6.09-62.83-6.44-76.79c-3.04,6.62-11.1,21.48-17.54,34.91C423.22,148.56,415.16,163.59,408.9,180.24z"/>
	<path class="st2" d="M523.63,154.1h0.18c-1.25,16.11,8.23,27.21,23.99,27.21c14.68,0,23.63-8.95,24.52-21.66
		c1.07-15.93-9.67-22.02-25.06-30.43c-12.17-6.62-23.09-15.93-22.2-34.01c0.72-15.22,11.81-26.13,30.79-26.13
		c17.54,0,21.12,5.73,20.41,14.32c-0.18,1.97-0.9,7.7-1.25,9.67h-0.18c-1.97-11.99-8.23-20.94-21.48-20.94
		c-11.28,0-21.12,7.52-21.12,20.58c0,13.43,7.52,19.87,18.08,25.6c22.02,11.99,30.97,20.76,30.07,38.13
		c-0.89,16.83-15.39,27.92-34.37,27.92c-17.72,0-24.52-5.19-25.06-13.25C520.77,165.2,522.02,159.3,523.63,154.1z"/>
	<path class="st2" d="M682.58,184.36c-32.76,0.54-57.64-16.83-59.61-54.42c-1.79-34.91,25.24-60.86,61.04-60.86
		c35.62,0,55.31,26.31,55.31,54.77C739.33,157.86,715.16,183.82,682.58,184.36z M635.15,126.36c0,31.5,18.08,54.59,47.26,54.59
		c27.21,0,45.47-19.87,45.47-47.61c0-29.36-15.39-61.22-50.48-60.32C648.93,73.73,635.15,95.75,635.15,126.36z"/>
	<path class="st2" d="M883.96,168.25v16.11c-2.69-3.58-7.7-9.49-9.49-11.28c-9.13-10.38-20.76-22.38-39.02-41.71
		c-17.36-18.26-31.5-32.76-38.48-39.56c0.18,13.78,0,53.52,1.07,78.58c0.36,6.27,3.58,10.02,14.32,11.28v0.18
		c-7.16,0-14.32-1.07-17.72-1.07c-3.04,0-9.31,1.07-14.14,1.07v-0.18c6.44-1.25,8.77-2.51,9.49-11.63
		c1.43-19.87,1.79-49.58,1.79-64.26V82.5c0-5.19-0.72-9.49-1.43-11.99c3.22,1.07,5.19,4.3,9.67,8.95
		c8.23,8.59,25.96,26.85,41.17,42.78c15.57,16.29,29.36,29.89,37.77,38.31c0-21.12,0.36-46.54-0.9-71.42
		c-0.72-13.07-2.86-16.11-13.07-17.36v-0.18c4.83,0,13.78,0.9,17.01,0.9c2.68,0,7.34-0.9,12.17-0.9v0.18
		c-6.27,0.54-7.7,6.44-8.05,14.68c-0.36,9.49-1.25,28.46-1.61,52.45C884.31,148.38,883.96,157.68,883.96,168.25z"/>
	<path class="st2" d="M1021.25,180.95c-3.76,0-11.28,0.9-17.18,0.9v-0.18c9.49-1.07,12.71-2.69,13.07-19.87
		c0.36-11.28,0.36-25.78,0.36-31.86c0-13.96-0.18-32.58-0.36-38.66c-0.36-14.68-2.33-18.62-13.25-19.51v-0.18
		c6.09,0,17,0.9,19.33,0.9c3.58,0,8.23-0.9,11.99-0.9v0.18c-6.09,0.9-7.16,3.04-7.34,11.28c-0.36,13.07-0.36,22.73-0.54,42.6
		c0,12.89,0.18,31.32,0.36,40.28c0.18,10.02,1.61,10.02,15.39,10.38h11.28c13.78,0,19.15-1.79,21.12-16.65h0.18
		c0.18,5.55-0.89,13.78-1.61,15.93c-1.61,4.83-4.12,6.44-9.67,6.44C1046.13,182.03,1043.98,180.95,1021.25,180.95z"/>
	<path class="st2" d="M1158.9,184.36c-35.08,0-45.29-16.65-45.29-52.98c0-15.04,0.54-33.12,0.36-39.2
		c-0.54-17.72-3.4-19.33-13.25-20.41v-0.18c5.55,0,13.96,0.9,18.97,0.9c2.69,0,6.62-0.9,12.35-0.9v0.18
		c-6.27,0.9-7.16,3.04-7.7,20.41c-0.18,5.37-0.54,25.06-0.54,40.45c0,28.82,5.73,48.15,35.44,48.15c28.46,0,35.8-21.3,35.8-49.58
		c0-7.7,0.18-27.57-0.36-44.39c-0.36-11.99-3.22-14.32-10.74-15.04v-0.18c5.01,0,12.71,0.72,15.75,0.72s6.8-0.72,11.28-0.72v0.18
		c-4.48,0.9-6.8,4.83-7.16,15.04c-0.36,13.6-0.54,32.4-0.54,42.42C1203.29,164.84,1190.22,184.36,1158.9,184.36z"/>
	<path class="st2" d="M1358.48,168.25v16.11c-2.69-3.58-7.7-9.49-9.49-11.28c-9.13-10.38-20.76-22.38-39.02-41.71
		c-17.36-18.26-31.5-32.76-38.48-39.56c0.18,13.78,0,53.52,1.07,78.58c0.36,6.27,3.58,10.02,14.32,11.28v0.18
		c-7.16,0-14.32-1.07-17.72-1.07c-3.04,0-9.31,1.07-14.14,1.07v-0.18c6.44-1.25,8.77-2.51,9.49-11.63
		c1.43-19.87,1.79-49.58,1.79-64.26V82.5c0-5.19-0.72-9.49-1.43-11.99c3.22,1.07,5.19,4.3,9.67,8.95
		c8.23,8.59,25.96,26.85,41.17,42.78c15.57,16.29,29.36,29.89,37.77,38.31c0-21.12,0.36-46.54-0.9-71.42
		c-0.72-13.07-2.86-16.11-13.07-17.36v-0.18c4.83,0,13.78,0.9,17.01,0.9c2.68,0,7.34-0.9,12.17-0.9v0.18
		c-6.27,0.54-7.7,6.44-8.06,14.68c-0.36,9.49-1.25,28.46-1.61,52.45C1358.84,148.38,1358.48,157.68,1358.48,168.25z"/>
	<path class="st2" d="M1426.14,91.81c-0.36-14.86-0.54-19.33-13.6-20.05v-0.18c8.23,0,16.47,0.9,22.38,0.9
		c11.28-0.18,22.38-0.9,29.71-0.9c8.23,0,11.46-0.9,10.38,8.06c-0.54,4.48-1.97,8.77-2.51,12.53h-0.18
		c0.54-7.16,0.54-14.14-8.59-14.68c-8.77-0.54-18.08-0.72-28.1-0.54c0.9,0.54,0.9,8.95,0.9,11.1v33.47h14.5
		c3.76,0,9.67-0.18,13.96-0.54c6.8-0.54,7.88-0.9,6.44,6.8c-0.54,3.04-1.43,5.91-2.15,8.05h-0.18c1.07-6.44-1.79-8.77-11.28-9.31
		c-6.44-0.36-18.26-0.9-21.3-0.9c-0.18,8.77,0,27.92,0.36,39.2c0.36,11.1,2.15,11.46,11.46,11.46h18.97
		c14.5,0,15.39-12.89,16.11-19.33h0.18c0,5.73,0.36,14.5-1.25,19.33c-1.25,3.76-3.04,5.73-9.84,5.73c-8.95,0-12.35-1.07-41.35-1.07
		c-3.94,0-11.99,0.9-18.08,0.9v-0.18c9.49-1.07,12.71-2.69,13.07-19.87C1426.68,138.71,1426.86,116.34,1426.14,91.81z"/>
</g>
<path class="st2" d="M1139.17-0.03c-6.01,11.88-4.51,24.22,3.88,31.8c7.16,6.47,18.14,7.26,26.5,1.9
	c9.55-6.58,12.12-17.95,6.89-33.75c12.58,11.62,12.84,29.8,0.6,41.78c-11.64,11.4-30.12,10.42-41.29-2.18
	C1126,28.54,1127.33,9.53,1139.17-0.03z"/>
</svg>
